<svg width="64" height="64" viewBox="0 0 64 64" fill="none" xmlns="http://www.w3.org/2000/svg">
<g clip-path="url(#clip0_2_2)">
<path d="M21.3333 62.1719V1.828C8.9061 6.2218 0 18.068 0 32C0 45.932 8.9061 57.7782 21.3333 62.1719Z" fill="black" style="fill:black;fill-opacity:1;"/>
<path d="M42.6667 1.828C39.3296 0.6481 35.7412 0 32 0C28.2588 0 24.6705 0.6482 21.3333 1.828V62.1719C24.6704 63.3518 28.2588 64 32 64C35.7412 64 39.3295 63.3518 42.6667 62.1719V1.828Z" fill="#F0263C" style="fill:#F0263C;fill:color(display-p3 0.9412 0.1490 0.2353);fill-opacity:1;"/>
<path d="M42.6667 1.828V62.1719C55.0939 57.7781 64 45.9319 64 32C64 18.0681 55.0939 6.2218 42.6667 1.828Z" fill="#005B13" style="fill:#005B13;fill:color(display-p3 0.0000 0.3569 0.0745);fill-opacity:1;"/>
<path d="M35 34.5H33V35.5H35V34.5Z" fill="white" style="fill:white;fill-opacity:1;"/>
<path d="M36 36.5H34V37.5H36V36.5Z" fill="white" style="fill:white;fill-opacity:1;"/>
<path d="M25 15.707L26.5 17.207V19H27.5V16.793L25 14.293L22.5 16.793V19H23.5V17.207L25 15.707Z" fill="white" style="fill:white;fill-opacity:1;"/>
<path d="M39 15.707L40.5 17.207V19H41.5V16.793L39 14.293L36.5 16.793V19H37.5V17.207L39 15.707Z" fill="white" style="fill:white;fill-opacity:1;"/>
<path d="M29.5 12.5H30.5V14H31.5V12.5H32.5V14H33.5V12.5H33.793L34.5 13.207V14H35.5V12.793L34.207 11.5H28.5V14H29.5V12.5Z" fill="white" style="fill:white;fill-opacity:1;"/>
<path d="M33.8818 51H30.1182L27.2236 49.5527L26.7764 50.4473L29.8818 52H34.1182L37.2236 50.4473L36.7764 49.5527L33.8818 51Z" fill="white" style="fill:white;fill-opacity:1;"/>
<path d="M24 8H23V9H24V8Z" fill="white" style="fill:white;fill-opacity:1;"/>
<path d="M22 11H23V10H21V11V12H22V11Z" fill="white" style="fill:white;fill-opacity:1;"/>
<path d="M19 12H18V13H19V12Z" fill="white" style="fill:white;fill-opacity:1;"/>
<path d="M16 13H15V15H16V13Z" fill="white" style="fill:white;fill-opacity:1;"/>
<path d="M18 16H19V15H18V14H17V15V17H18V16Z" fill="white" style="fill:white;fill-opacity:1;"/>
<path d="M20 14H21V13H19V14V15H20V14Z" fill="white" style="fill:white;fill-opacity:1;"/>
<path d="M24 11H23V12H24V11Z" fill="white" style="fill:white;fill-opacity:1;"/>
<path d="M26 11H25V12H26V11Z" fill="white" style="fill:white;fill-opacity:1;"/>
<path d="M27 9H24V10H27V9Z" fill="white" style="fill:white;fill-opacity:1;"/>
<path d="M36 9H34V10H36V9Z" fill="white" style="fill:white;fill-opacity:1;"/>
<path d="M38 7H37V8H38V7Z" fill="white" style="fill:white;fill-opacity:1;"/>
<path d="M38 9H37V10H38V9Z" fill="white" style="fill:white;fill-opacity:1;"/>
<path d="M39 10H38V11H39V10Z" fill="white" style="fill:white;fill-opacity:1;"/>
<path d="M40 11H42V10H41V9H39V10H40V11Z" fill="white" style="fill:white;fill-opacity:1;"/>
<path d="M43 12H44V10H43V11H42V12H43Z" fill="white" style="fill:white;fill-opacity:1;"/>
<path d="M45 13H43V14H45V13Z" fill="white" style="fill:white;fill-opacity:1;"/>
<path d="M46 12H45V13H46V12Z" fill="white" style="fill:white;fill-opacity:1;"/>
<path d="M46 14H45V15H46V14Z" fill="white" style="fill:white;fill-opacity:1;"/>
<path d="M45 15H44V16H45V15Z" fill="white" style="fill:white;fill-opacity:1;"/>
<path d="M48 15H47V18H48V15Z" fill="white" style="fill:white;fill-opacity:1;"/>
<path d="M49 14H48V15H49V14Z" fill="white" style="fill:white;fill-opacity:1;"/>
<path d="M33 7H32V8H33V7Z" fill="white" style="fill:white;fill-opacity:1;"/>
<path d="M34 8H33V9H34V8Z" fill="white" style="fill:white;fill-opacity:1;"/>
<path d="M28 7H27V8H28V7Z" fill="white" style="fill:white;fill-opacity:1;"/>
<path d="M30 11H31V10H32V8H31V9H29V10H30V11Z" fill="white" style="fill:white;fill-opacity:1;"/>
<path d="M31 7H30V8H31V7Z" fill="white" style="fill:white;fill-opacity:1;"/>
<path d="M30.793 45.5L29.6465 46.6465L30.3535 47.3535L31.207 46.5H32.793L33.6465 47.3535L34.3535 46.6465L33.207 45.5H30.793Z" fill="white" style="fill:white;fill-opacity:1;"/>
<path d="M55.1482 35.5L55.3291 35.3057L56.9023 32.3614L55.7968 32.5245L56.6044 30.9092L55.6835 29.9434L56.4999 29.2266V26.793L55.7069 26L57.2069 24.5H54.4999V21.5L54.0429 22.1104L53.4511 19.7442L49.4999 15.793V18.5H47.4101L48.5331 25.2402L50.2929 27L49.3915 27.9014L50.4779 30.0736L49.8129 33.7013L48.5404 36.8016L46.6807 40.5204L44.6913 40.5L43.8629 42.156L40.4999 38.793V34.5H40.9999V33.5H40.4999V32.5H40.9999V31.5H40.4999V26.207L43.2069 23.5H43.7855L40.9999 30L41.9999 31H42.9999V33H43.9999V35L44.9999 37L46.9999 33V30H45.9999V27H44.9999L44.1249 23.5H44.9999V22.5H42.9999V23.5H40.4999V19H39.4999V23.5H38.4999V19H37.4999V23.5H37.1513L34.5947 21.7959L35.54 18.9619L34.4472 16.7764L31.9999 14.293L29.6464 16.6465L28.4599 18.9619L29.4052 21.7959L26.8486 23.5H26.5V19H25.5V23.5H24.5V19H23.5V23.5H21V22.5H19V23.5H19.875L19 27H18V30H17V33L19 37L20 35V33H21V31H22L23 30L20.2144 23.5H20.793L23.5 26.207V31.5H23V32.5H23.5V33.5H23V34.5H23.5V38.793L20.137 42.156L19.3086 40.5H17.3091L15.4585 36.7999L14.1862 33.7018L13.522 30.0737L14.6084 27.9014L13.7045 27.0026L15.4668 25.2403L16.5898 18.5001H14.5V15.7931L10.5488 19.7443L9.95719 22.1097L9.49989 21.5001V24.5001H6.79289L8.29289 26.0001L7.49989 26.7931V29.2267L8.31629 29.9435L7.39539 30.9093L8.20299 32.5247L7.09749 32.3615L8.59459 35.1984L8.87799 35.5093L6.79279 35.5001L9.29279 38.0001L8.29279 39.0001L10.5897 41.2978L11.5526 43.2237L12.7928 44.5001H9.79279L12.7928 47.5001H15.6912L16.7621 49.6429L15.7693 49.4445L13.2205 53.2677L16.8416 54.4747L21.3592 54.5001L21.6092 55.5001H28.2069L29.2075 54.5001H34.7922L35.7928 55.5001H42.3905L42.6405 54.5001H46.9999L50.7792 53.2677L48.2304 49.4445L47.2371 49.643L48.3085 47.5002H51.2069L54.2069 44.5002H51.2069L52.3534 43.3537L53.389 41.319L55.7069 39.0002L54.7069 38.0002L57.2069 35.5002L55.1482 35.5ZM50.6504 34.2949L55.0977 33.6387L54.5518 34.6729L53.7354 35.5508L49.9385 36.5H49.7461L50.6504 34.2949ZM55.5 27.207V28.7734L54.2422 29.8808L55.3955 31.0908L54.665 32.5517L50.9179 33.2226L51.4638 30.2431L54.9999 26.707L55.5 27.207ZM54.793 25.5L51.1368 29.1562L50.6075 28.0976L51.4005 27.2997L53.5001 24.4999V25.4999L54.793 25.5ZM48.5898 19.5H50.5V18.207L52.5488 20.2558L53.2701 23.1425L50.9492 26.2422L49.4668 24.7598L48.5898 19.5ZM39.5 32.5V33.5H39V34.5H39.5V35.5H37.5V31C37.5 30.4621 37.4189 29.9434 37.2742 29.4516L38 28H36.6035C36.2191 27.4122 35.7258 26.9033 35.152 26.5H39.5V31.5H39V32.5H39.5ZM34.207 38.5L32.5 36.793V33.5H34V32.5H32.5V30H31.5V36.5H29.5V33H28.5V30.5H30V29.5H27.7764C28.3977 27.7578 30.0472 26.5 32 26.5C34.4814 26.5 36.5 28.5186 36.5 31V38.5H34.207ZM27.5 38.5V37.5H31.793L32.793 38.5H27.5ZM30.5947 22.2041L29.54 19.0381L30.4111 17.2959L32 15.707L33.5889 17.2959L34.46 19.0381L33.4053 22.2041L35.3489 23.5H28.6511L30.5947 22.2041ZM40.793 24.5L39.793 25.5H24.2071L23.2071 24.5H40.793ZM24.5 33.5V32.5H25V31.5H24.5V26.5H28.848C28.2741 26.9033 27.7809 27.4122 27.3965 28H26L26.7258 29.4516C26.581 29.9434 26.5 30.4621 26.5 31H27.5V32H26.5V35.5H24.5V34.5H25V33.5H24.5ZM24.5 39.207V36.5H26.5V40H27.5V39.5H29.5V40H30.5V39.5H33.5V40H34.5V39.5H36.5V40H37.5V36.5H39.5V39.207L41.793 41.5H22.2071L24.5 39.207ZM43.6909 42.5L43.5869 42.708L41.7148 44.6459L37.3104 46.3495L36.3603 43.5001H27.6396L26.6911 46.3448L22.2827 44.6444L20.4131 42.7081L20.3091 42.5001L43.6909 42.5ZM36.3958 46.769L33.3672 48.5H30.6328L27.6025 46.7741L28.3603 44.5H35.6396L36.3958 46.769ZM10.2644 35.5505L9.44819 34.6729L8.90229 33.6387L13.3486 34.2949L14.2539 36.5H14.0615L10.2644 35.5505ZM11.4512 20.2559L13.5 18.2071V19.5001H15.4102L14.5332 24.7599L13.0542 26.2388L10.7305 23.1405L11.4512 20.2559ZM10.5 25.5V24.4971L12.6465 27.3535L13.3916 28.0986L12.8633 29.1562L9.20709 25.5H10.5ZM12.5361 30.2432L13.081 33.2227L9.33489 32.5518L8.60439 31.0909L9.75769 29.8809L8.49989 28.7735V27.2071L8.99989 26.7071L12.5361 30.2432ZM9.20699 36.5H9.93839L13.8788 37.4854L14.6913 37.5L16.2948 40.708L13.9999 41.4726L11.2704 40.5624L9.70689 38.9999L10.7069 37.9999L9.20699 36.5ZM12.4111 42.7041L11.9874 41.8567L14 42.5274L17.0813 41.5001H18.6914L19.1914 42.5001H19L14.1201 44.4132L12.4111 42.7041ZM13.207 46.5L12.207 45.5H14L19.0967 43.5H19.7881L21.2549 45.0195L17.1729 48.2275L16.3086 46.5H13.207ZM21.291 46.2629L20.5928 50.4082L16.9456 49.6794L21.291 46.2629ZM17.0811 53.5L14.7793 52.7324L16.2305 50.5556L20.4268 51.3954L20.4248 51.4032L20.5928 51.4344L21.1094 53.4998L17.0811 53.5ZM27.793 54.5H22.3907L21.6729 51.6309L26.2862 52.4698L28.251 54.0411L27.793 54.5ZM41.6094 54.5H36.2071L35.7491 54.041L37.7139 52.4697L42.3272 51.6308L41.6094 54.5ZM37.2861 51.5303L34.8246 53.5H29.1754L26.7139 51.5303L21.5752 50.5967L22.3906 45.7569L26.7519 47.4346L30.3671 49.5H33.6327L37.1796 47.4668L41.6093 45.7568L42.4247 50.5966L37.2861 51.5303ZM49.2207 52.7324L46.9189 53.5H42.8906L43.4072 51.4346L43.5752 51.4034L43.5732 51.3956L47.7695 50.5558L49.2207 52.7324ZM43.4072 50.4082L42.7091 46.2632L47.0554 49.6791L43.4072 50.4082ZM51.793 45.5L50.793 46.5H47.6914L46.8271 48.2285L42.7441 45.0195L44.2119 43.5H44.9033L49.8144 45.4639L51.793 45.5ZM49.8799 44.4131L45.1856 42.5361L44.8086 42.5L45.3086 41.5H46.9187L50 42.5273L52.0126 41.8566L51.5889 42.704L49.8799 44.4131ZM54.293 39L52.7295 40.5625L50 41.4727L47.7052 40.7077L49.3086 37.5H50.0615L54.0615 36.5H54.7929L53.2929 38L54.293 39Z" fill="white" style="fill:white;fill-opacity:1;"/>
</g>
<defs>
<clipPath id="clip0_2_2">
<rect width="64" height="64" fill="white" style="fill:white;fill-opacity:1;"/>
</clipPath>
</defs>
</svg>
