<svg width="64" height="64" viewBox="0 0 64 64" fill="none" xmlns="http://www.w3.org/2000/svg">
<g clip-path="url(#clip0_6_99)">
<path d="M32 64C49.6731 64 64 49.6731 64 32C64 14.3269 49.6731 0 32 0C14.3269 0 0 14.3269 0 32C0 49.6731 14.3269 64 32 64Z" fill="#F0263C" style="fill:#F0263C;fill:color(display-p3 0.9412 0.1490 0.2353);fill-opacity:1;"/>
<path d="M32 54.6667L34.6667 50.6667L33.3333 49.3333V48L34.6667 49.3333H36L34.6667 46.6667L37.3333 48H38.6667L34.6667 44L37.3333 45.3333H38.6667L34.6667 41.3333V40V38.6667L36 40L37.3333 42.6667H38.6667H42.6667L40 44V45.3333L44 43.3333L46.6667 45.3333H48L46.6667 44H48L49.3333 42.6667H45.3333L46.6667 41.3333H48L49.3333 40H46.6667L45.3333 41.3333H40V40L38.6667 38.6667H37.3333L36 36H37.3333L40 38.6667V37.3333L38.6667 36H40L42.6667 38.6667V37.3333L41.3333 36H42.6667L45.3333 38.6667H48L49.3333 36H48L46.6667 37.3333L44 34.6667H45.3333H48L49.3333 33.3333V32L48 33.3333H45.3333L42.6667 32H45.3333H48L49.3333 30.6667V29.3333L48 30.6667H45.3333L42.6667 29.3333H45.3333H48L49.3333 28V26.6667L48 28H45.3333L42.6667 26.6667H45.3333H48L49.3333 25.3333V24L48 25.3333H45.3333L42.6667 24H48L49.3333 21.3333V20L46.6667 22.6667H45.3333L42.6667 21.3333H45.3333H46.6667L49.3333 18.6667V16L45.3333 20L42.6667 18.6667L38.6667 21.3333V22.6667V24L37.3333 25.3333H36L34.6667 22.6667L38.6667 20L41.3333 18.6667H38.6667L41.3333 17.3333H42.6667L40 16H33.3333L34.6667 17.3333L33.3333 18.6667H34.6667L33.3333 20H34.6667L32 22.6667L29.3333 20H30.6667L29.3333 18.6667H30.6667L29.3333 17.3333L30.6667 16H24L21.3333 17.3333H22.6667L25.3333 18.6667H22.6667L25.3333 20L29.3333 22.6667L28 25.3333H26.6667L25.3333 24V22.6667V21.3333L21.3333 18.6667L18.6667 20L14.6667 16V18.6667L17.3333 21.3333H18.6667H21.3333L18.6667 22.6667H17.3333L14.6667 20V21.3333L16 24H21.3333L18.6667 25.3333H16L14.6667 24V25.3333L16 26.6667H18.6667H21.3333L18.6667 28H16L14.6667 26.6667V28L16 29.3333H18.6667H21.3333L18.6667 30.6667H16L14.6667 29.3333V30.6667L16 32H18.6667H21.3333L18.6667 33.3333H16L14.6667 32V33.3333L16 34.6667H18.6667H20L17.3333 37.3333L16 36H14.6667L16 38.6667H18.6667L21.3333 36H22.6667L21.3333 37.3333V38.6667L24 36H25.3333L24 37.3333V38.6667L26.6667 36H28L26.6667 38.6667H25.3333L24 40V41.3333H18.6667L17.3333 40H14.6667L16 41.3333H17.3333L18.6667 42.6667H14.6667L16 44H17.3333L16 45.3333H17.3333L20 43.3333L24 45.3333V44L21.3333 42.6667H25.3333H26.6667L28 40L29.3333 38.6667V40V41.3333L25.3333 45.3333H26.6667L29.3333 44L25.3333 48H26.6667L29.3333 46.6667L28 49.3333H29.3333L30.6667 48V49.3333L29.3333 50.6667L32 54.6667Z" fill="black" style="fill:black;fill-opacity:1;"/>
<path d="M38.6667 17.3333L36 18.6667V17.3333H38.6667Z" fill="#F0263C" style="fill:#F0263C;fill:color(display-p3 0.9412 0.1490 0.2353);fill-opacity:1;"/>
<path d="M25.3333 17.3333L28 18.6667V17.3333H25.3333Z" fill="#F0263C" style="fill:#F0263C;fill:color(display-p3 0.9412 0.1490 0.2353);fill-opacity:1;"/>
</g>
<defs>
<clipPath id="clip0_6_99">
<rect width="64" height="64" fill="white" style="fill:white;fill-opacity:1;"/>
</clipPath>
</defs>
</svg>
