<svg width="64" height="64" viewBox="0 0 64 64" fill="none" xmlns="http://www.w3.org/2000/svg">
<g clip-path="url(#clip0_6_106)">
<path d="M62.1719 21.3333H1.828C6.2218 8.9061 18.068 0 32 0C45.932 0 57.7782 8.9061 62.1719 21.3333Z" fill="#F0263C" style="fill:#F0263C;fill:color(display-p3 0.9412 0.1490 0.2353);fill-opacity:1;"/>
<path d="M1.828 42.6667C0.6482 39.3295 0 35.7412 0 32C0 28.2588 0.6482 24.6705 1.828 21.3333H62.1719C63.3518 24.6704 64 28.2588 64 32C64 35.7412 63.3518 39.3295 62.1719 42.6667H1.828Z" fill="#2D25C5" style="fill:#2D25C5;fill:color(display-p3 0.1765 0.1451 0.7725);fill-opacity:1;"/>
<path d="M1.828 42.6667H62.1719C57.7781 55.0939 45.9319 64 32 64C18.0681 64 6.2218 55.0939 1.828 42.6667Z" fill="#FFD400" style="fill:#FFD400;fill:color(display-p3 1.0000 0.8314 0.0000);fill-opacity:1;"/>
</g>
<defs>
<clipPath id="clip0_6_106">
<rect width="64" height="64" fill="white" style="fill:white;fill-opacity:1;"/>
</clipPath>
</defs>
</svg>
