<svg width="64" height="64" viewBox="0 0 64 64" fill="none" xmlns="http://www.w3.org/2000/svg">
<g clip-path="url(#clip0_6_127)">
<path d="M21.3333 28L23.8932 30.5599L25.6198 32H48.588C48.6632 31.3319 48.7023 30.653 48.7023 29.9651C48.7023 21.4034 42.6244 13.9457 34.251 12.2326L34.7536 9.774C35.5108 9.929 36.2446 10.1392 36.9667 10.374L37.669 8.7964L41.5983 10.5459L40.8938 12.1283C42.1462 12.8549 43.3134 13.7035 44.3771 14.665L45.6614 13.5087L48.5393 16.7051L47.248 17.8677C48.093 19.0299 48.8231 20.275 49.4134 21.5948L51.046 21.0643L52.3751 25.1549L50.7407 25.6859C51.0377 27.074 51.2112 28.5025 51.2112 29.9651C51.2112 29.9701 51.2109 29.9751 51.2109 29.9801L52.8921 30.1568L52.6984 32H64C64 14.3269 49.6731 0 32 0C14.3269 0 0 14.3269 0 32H21.3333V28ZM30.9773 20L32.7975 14.3978L34.6177 20H40.5082L35.7427 23.4623L37.563 29.0645L32.7975 25.6022L28.032 29.0645L29.8522 23.4623L25.0867 20H30.9773Z" fill="#F0263C" style="fill:#F0263C;fill:color(display-p3 0.9412 0.1490 0.2353);fill-opacity:1;"/>
<path d="M52.6984 32L52.4425 34.4344L50.7585 34.2574C50.4541 35.688 49.9986 37.0625 49.4135 38.3673L50.8803 39.2141L48.7297 42.939L47.2546 42.0873C46.415 43.2374 45.45 44.287 44.396 45.2398L42.4338 43.6455C45.7858 40.7425 48.0664 36.6342 48.588 32H25.6198L48 50.6667L52 53.3334L49.3333 56.0001L48 53.3334L44 50.6667L22.6667 37.3334L21.3334 34.6667V32H0C0 49.6731 14.3269 64 32 64C49.6731 64 64 49.6731 64 32H52.6984ZM37.2815 51.2356L33.0744 52.1299L32.7207 50.4663C32.0239 50.5378 31.3171 50.5748 30.6016 50.5748C29.8628 50.5748 29.1281 50.5337 28.3999 50.4549L28.0458 52.1211L23.8387 51.2268L24.1955 49.5478C22.8255 49.0988 21.5062 48.5066 20.2586 47.7832L19.2484 49.1735L15.7687 46.6454L16.7829 45.2493C16.2911 44.8052 15.8168 44.3387 15.3668 43.8451L17.2206 42.1552C20.6446 45.9117 25.5219 48.0658 30.6015 48.0658C32.1974 48.0658 33.7449 47.856 35.2202 47.4664L38.1357 49.1324C37.7378 49.2895 37.3385 49.4445 36.9288 49.577L37.2815 51.2356Z" fill="black" style="fill:black;fill-opacity:1;"/>
<path d="M28.0321 29.0645L32.7976 25.6022L37.5632 29.0645L35.7428 23.4623L40.5083 20H34.6178L32.7976 14.3978L30.9774 20H25.0869L29.8524 23.4623L28.0321 29.0645Z" fill="#FFD400" style="fill:#FFD400;fill:color(display-p3 1.0000 0.8314 0.0000);fill-opacity:1;"/>
<path d="M21.3333 28V32V34.6667L22.6667 37.3333L44 50.6667L48 53.3333L49.3333 56L52 53.3333L48 50.6667L25.6198 32L23.8932 30.5599L21.3333 28Z" fill="#FFD400" style="fill:#FFD400;fill:color(display-p3 1.0000 0.8314 0.0000);fill-opacity:1;"/>
<path d="M35.2202 47.4664C33.7449 47.856 32.1975 48.0658 30.6015 48.0658C25.5219 48.0658 20.6446 45.9117 17.2206 42.1552L15.3668 43.8451C15.8168 44.3388 16.2911 44.8052 16.7829 45.2493L15.7687 46.6454L19.2484 49.1735L20.2586 47.7832C21.5062 48.5066 22.8256 49.0988 24.1955 49.5478L23.8387 51.2268L28.0458 52.1211L28.3999 50.4549C29.1281 50.5336 29.8628 50.5748 30.6016 50.5748C31.3171 50.5748 32.024 50.5378 32.7207 50.4663L33.0744 52.1299L37.2815 51.2356L36.9289 49.577C37.3386 49.4445 37.7378 49.2895 38.1358 49.1324L35.2202 47.4664Z" fill="#FFD400" style="fill:#FFD400;fill:color(display-p3 1.0000 0.8314 0.0000);fill-opacity:1;"/>
<path d="M51.2109 29.9801C51.2109 29.9751 51.2112 29.9701 51.2112 29.9651C51.2112 28.5025 51.0377 27.0741 50.7407 25.6859L52.3751 25.1549L51.046 21.0643L49.4134 21.5948C48.8231 20.2751 48.093 19.0299 47.248 17.8677L48.5393 16.7051L45.6614 13.5087L44.3771 14.665C43.3134 13.7035 42.1462 12.8549 40.8938 12.1283L41.5983 10.5459L37.669 8.79639L36.9667 10.374C36.2446 10.1392 35.5108 9.92899 34.7536 9.77399L34.251 12.2326C42.6244 13.9457 48.7023 21.4033 48.7023 29.9651C48.7023 30.653 48.6632 31.3319 48.588 32C48.0664 36.6343 45.7858 40.7426 42.4338 43.6455L44.396 45.2398C45.45 44.287 46.415 43.2374 47.2546 42.0873L48.7297 42.939L50.8803 39.2141L49.4135 38.3673C49.9985 37.0625 50.4541 35.6881 50.7585 34.2574L52.4425 34.4344L52.6984 32L52.8921 30.1568L51.2109 29.9801Z" fill="#FFD400" style="fill:#FFD400;fill:color(display-p3 1.0000 0.8314 0.0000);fill-opacity:1;"/>
</g>
<defs>
<clipPath id="clip0_6_127">
<rect width="64" height="64" fill="white" style="fill:white;fill-opacity:1;"/>
</clipPath>
</defs>
</svg>
