<svg width="64" height="64" viewBox="0 0 64 64" fill="none" xmlns="http://www.w3.org/2000/svg">
<g clip-path="url(#clip0_6_192)">
<path d="M31.9999 64C41.7927 64 50.5528 59.5963 56.4227 52.6667H7.57715C13.4469 59.5963 22.207 64 31.9999 64Z" fill="#007ACC" style="fill:#007ACC;fill:color(display-p3 0.0000 0.4784 0.8000);fill-opacity:1;"/>
<path d="M5.10736 49.3333H58.8929C59.5841 48.2632 60.2179 47.1528 60.7797 46H3.22046C3.78226 47.1528 4.41616 48.2632 5.10736 49.3333Z" fill="#007ACC" style="fill:#007ACC;fill:color(display-p3 0.0000 0.4784 0.8000);fill-opacity:1;"/>
<path d="M64 32C64 14.3269 49.6731 0 32 0C14.3269 0 0 14.3269 0 32C0 35.7412 0.6482 39.3295 1.8281 42.6667H62.1719C63.3518 39.3296 64 35.7412 64 32Z" fill="#007ACC" style="fill:#007ACC;fill:color(display-p3 0.0000 0.4784 0.8000);fill-opacity:1;"/>
<path d="M1.82812 42.6667C2.23182 43.8085 2.69503 44.9219 3.22043 46H60.7796C61.3051 44.9218 61.7682 43.8085 62.1719 42.6667H1.82812Z" fill="#FFD400" style="fill:#FFD400;fill:color(display-p3 1.0000 0.8314 0.0000);fill-opacity:1;"/>
<path d="M7.5772 52.6667H56.4227C57.316 51.6122 58.1401 50.4985 58.8927 49.3334H5.1073C5.8599 50.4986 6.6839 51.6122 7.5772 52.6667Z" fill="#FFD400" style="fill:#FFD400;fill:color(display-p3 1.0000 0.8314 0.0000);fill-opacity:1;"/>
<path d="M15.3845 21.9488L6.66675 19.3333L15.3845 16.7178L18 8L20.6155 16.7178L29.3333 19.3333L20.6155 21.9488L18 30.6667L15.3845 21.9488Z" fill="white" style="fill:white;fill-opacity:1;"/>
<path d="M20.0001 21.3333L18.0001 28L16.0001 21.3333L9.33337 19.3333L16.0001 17.3333L18.0001 10.6667L20.0001 17.3333L26.6668 19.3333L20.0001 21.3333Z" fill="#F0263C" style="fill:#F0263C;fill:color(display-p3 0.9412 0.1490 0.2353);fill-opacity:1;"/>
</g>
<defs>
<clipPath id="clip0_6_192">
<rect width="64" height="64" fill="white" style="fill:white;fill-opacity:1;"/>
</clipPath>
</defs>
</svg>
