<svg width="64" height="64" viewBox="0 0 64 64" fill="none" xmlns="http://www.w3.org/2000/svg">
<g clip-path="url(#clip0_6_161)">
<path d="M62.1719 21.3333H1.828C6.2218 8.9061 18.068 0 32 0C45.932 0 57.7782 8.9061 62.1719 21.3333Z" fill="#4DAFE3" style="fill:#4DAFE3;fill:color(display-p3 0.3020 0.6863 0.8902);fill-opacity:1;"/>
<path d="M1.828 42.6667C0.6482 39.3295 0 35.7412 0 32C0 28.2588 0.6482 24.6705 1.828 21.3333H62.1719C63.3518 24.6704 64 28.2588 64 32C64 35.7412 63.3518 39.3295 62.1719 42.6667H1.828Z" fill="#F0263C" style="fill:#F0263C;fill:color(display-p3 0.9412 0.1490 0.2353);fill-opacity:1;"/>
<path d="M1.828 42.6667H62.1719C57.7781 55.0939 45.9319 64 32 64C18.0681 64 6.2218 55.0939 1.828 42.6667Z" fill="#619B27" style="fill:#619B27;fill:color(display-p3 0.3804 0.6078 0.1529);fill-opacity:1;"/>
<path d="M25.3333 32C25.3333 27.5817 28.915 24 33.3333 24C34.9697 24 36.4898 24.4934 37.7572 25.3365C36.0746 23.6891 33.778 22.6667 31.2372 22.6667C26.0826 22.6667 21.9039 26.8454 21.9039 32C21.9039 37.1546 26.0826 41.3333 31.2372 41.3333C33.7781 41.3333 36.0746 40.3108 37.7572 38.6634C36.4898 39.5065 34.9696 39.9999 33.3333 39.9999C28.915 39.9999 25.3333 36.4183 25.3333 32Z" fill="white" style="fill:white;fill-opacity:1;"/>
<path d="M40.2287 29.3333L41.3332 26.2272L42.4378 29.3333L45.4152 27.918L43.9999 30.8954L47.106 32L43.9999 33.1046L45.4152 36.082L42.4378 34.6667L41.3332 37.7728L40.2287 34.6667L37.2513 36.082L38.6666 33.1046L35.5605 32L38.6666 30.8954L37.2513 27.918L40.2287 29.3333Z" fill="white" style="fill:white;fill-opacity:1;"/>
</g>
<defs>
<clipPath id="clip0_6_161">
<rect width="64" height="64" fill="white" style="fill:white;fill-opacity:1;"/>
</clipPath>
</defs>
</svg>
