<svg width="64" height="64" viewBox="0 0 64 64" fill="none" xmlns="http://www.w3.org/2000/svg">
<g clip-path="url(#clip0_6_212)">
<path d="M64 32C64 23.8625 60.9574 16.4393 55.9544 10.7926V53.2074C60.9573 47.5607 64 40.1375 64 32Z" fill="#2D25C5" style="fill:#2D25C5;fill:color(display-p3 0.1765 0.1451 0.7725);fill-opacity:1;"/>
<path d="M9.7085 9.05231C8.7215 10.0112 7.7975 11.0333 6.9404 12.1119L8.8284 14L5.9999 16.8285L4.6129 15.4414C1.6859 20.2723 0 25.9391 0 32C0 49.6731 14.3268 64 32 64C38.0609 64 43.7277 62.3142 48.5586 59.3871L47.0234 57.8519L49.8519 55.0235L51.888 57.0597C52.9603 56.2076 53.9769 55.2896 54.931 54.3092L9.7085 9.05231ZM8.653 19.4815L11.4815 16.6531L14.31 19.4815L11.4815 22.31L8.653 19.4815ZM14.1344 24.963L16.9629 22.1346L19.7914 24.963L16.9629 27.7914L14.1344 24.963ZM19.616 30.4445L22.4445 27.616L25.2728 30.4445L22.4445 33.2729L19.616 30.4445ZM25.0974 35.926L27.9259 33.0975L30.7544 35.926L27.9259 38.7544L25.0974 35.926ZM30.5788 41.4075L33.4073 38.579L36.2358 41.4075L33.4073 44.2359L30.5788 41.4075ZM36.0604 46.889L38.8887 44.0605L41.7172 46.889L38.8887 49.7174L36.0604 46.889ZM44.3703 55.1989L41.5418 52.3704L44.3703 49.542L47.1988 52.3704L44.3703 55.1989Z" fill="#2D25C5" style="fill:#2D25C5;fill:color(display-p3 0.1765 0.1451 0.7725);fill-opacity:1;"/>
<path d="M27.9258 33.0975L25.0974 35.926L27.9258 38.7544L30.7543 35.926L27.9258 33.0975Z" fill="white" style="fill:white;fill-opacity:1;"/>
<path d="M22.4446 27.616L19.6161 30.4445L22.4446 33.2729L25.273 30.4445L22.4446 27.616Z" fill="white" style="fill:white;fill-opacity:1;"/>
<path d="M16.963 22.1345L14.1345 24.9629L16.9629 27.7914L19.7914 24.963L16.963 22.1345Z" fill="white" style="fill:white;fill-opacity:1;"/>
<path d="M11.4815 16.653L8.65302 19.4814L11.4814 22.3099L14.3099 19.4815L11.4815 16.653Z" fill="white" style="fill:white;fill-opacity:1;"/>
<path d="M8.82851 14L6.94051 12.1119C6.09891 13.1709 5.31701 14.2794 4.61301 15.4413L6.00001 16.8284L8.82851 14Z" fill="white" style="fill:white;fill-opacity:1;"/>
<path d="M47.0234 57.8518L48.5586 59.387C49.7205 58.683 50.8291 57.9012 51.888 57.0596L49.8519 55.0234L47.0234 57.8518Z" fill="white" style="fill:white;fill-opacity:1;"/>
<path d="M44.3705 49.542L41.5421 52.3705L44.3705 55.1989L47.1989 52.3705L44.3705 49.542Z" fill="white" style="fill:white;fill-opacity:1;"/>
<path d="M38.8888 44.0605L36.0605 46.889L38.889 49.7174L41.7173 46.8889L38.8888 44.0605Z" fill="white" style="fill:white;fill-opacity:1;"/>
<path d="M33.4073 38.5789L30.5789 41.4073L33.4073 44.2358L36.2358 41.4073L33.4073 38.5789Z" fill="white" style="fill:white;fill-opacity:1;"/>
<path d="M55.9544 53.2074V10.7926C50.0918 4.1757 41.5356 0 32 0C23.3304 0 15.4714 3.4532 9.7085 9.0523L54.931 54.3091C55.2806 53.9498 55.6218 53.5827 55.9544 53.2074Z" fill="#FFD400" style="fill:#FFD400;fill:color(display-p3 1.0000 0.8314 0.0000);fill-opacity:1;"/>
</g>
<defs>
<clipPath id="clip0_6_212">
<rect width="64" height="64" fill="white" style="fill:white;fill-opacity:1;"/>
</clipPath>
</defs>
</svg>
