<svg version="1.1" xmlns="http://www.w3.org/2000/svg" width="512" height="512">
<path d="M0 0 C1.12921875 -0.02835937 2.2584375 -0.05671875 3.421875 -0.0859375 C12.59450441 1.01852196 20.33483023 5.94457323 28.125 10.625 C30.24664266 11.88148098 32.36907126 13.13663558 34.4921875 14.390625 C35.59530273 15.04353516 36.69841797 15.69644531 37.83496094 16.36914062 C43.02217333 19.41590478 48.24862424 22.3927354 53.47766113 25.36685181 C63.79410386 31.235088 74.07225343 37.16554477 84.31689453 43.15844727 C94.84084625 49.31266742 105.40380137 55.39869996 115.96777344 61.48388672 C121.39659942 64.61180148 126.82319281 67.74358448 132.25 70.875 C134.41665583 72.12501879 136.5833225 73.37501878 138.75 74.625 C158.25 85.875 158.25 85.875 177.75 97.125 C178.82282227 97.74391113 179.89564453 98.36282227 181.00097656 99.00048828 C183.16447476 100.24871034 185.32788643 101.49708239 187.49121094 102.74560547 C192.95565017 105.89905256 198.42163645 109.04976096 203.890625 112.1953125 C214.46875461 118.28188218 225.03620491 124.38662717 235.5625 130.5625 C236.46967773 131.09117676 237.37685547 131.61985352 238.31152344 132.16455078 C246.65758281 137.08179472 253.12420689 141.76955851 256.25 151.375 C257.01543143 159.82144685 257.50894812 168.27628786 252.25 175.375 C251.54875 176.426875 250.8475 177.47875 250.125 178.5625 C245.68548234 183.60865982 238.77304468 186.37388652 232.25 187.375 C225.69444444 187.59722222 225.69444444 187.59722222 223.25 186.375 C223.25 213.105 223.25 239.835 223.25 267.375 C230.51 267.375 237.77 267.375 245.25 267.375 C253.83128459 271.0526934 253.83128459 271.0526934 256.25 275.375 C256.80009021 278.2602513 256.81129933 281.06921847 256.78125 284 C256.7850769 284.8245166 256.78890381 285.6490332 256.79284668 286.49853516 C256.79556097 288.23666611 256.78823358 289.97483825 256.77148438 291.71289062 C256.75006605 294.36681558 256.77130055 297.0180338 256.796875 299.671875 C256.79423164 301.36458928 256.78910647 303.05730189 256.78125 304.75 C256.78934692 305.53971191 256.79744385 306.32942383 256.80578613 307.14306641 C256.74095334 310.97006558 256.50809386 312.95322997 254.46679688 316.2890625 C250.95502783 319.59352888 248.5086303 320.63525176 243.703125 320.5703125 C242.85878906 320.56386719 242.01445312 320.55742187 241.14453125 320.55078125 C240.27183594 320.53402344 239.39914062 320.51726562 238.5 320.5 C237.16775391 320.48646484 237.16775391 320.48646484 235.80859375 320.47265625 C233.62211942 320.44914577 231.43619906 320.41628499 229.25 320.375 C229.26571045 321.0047876 229.2814209 321.6345752 229.29760742 322.28344727 C229.36040232 325.16803825 229.39913058 328.05248486 229.4375 330.9375 C229.47520508 332.4234668 229.47520508 332.4234668 229.51367188 333.93945312 C229.57308198 339.90026689 229.15850981 344.12979905 226.25 349.375 C220.99806839 354.45751446 215.52073916 353.375 208.25 353.375 C208.25 377.135 208.25 400.895 208.25 425.375 C212.21 425.375 216.17 425.375 220.25 425.375 C225.34391726 428.43135036 227.42040919 429.88622757 229.25 435.375 C229.33209792 437.14813851 229.35746294 438.92420775 229.34765625 440.69921875 C229.34443359 441.72724609 229.34121094 442.75527344 229.33789062 443.81445312 C229.32951172 444.88630859 229.32113281 445.95816406 229.3125 447.0625 C229.30798828 448.14595703 229.30347656 449.22941406 229.29882812 450.34570312 C229.28703743 453.02219085 229.27058063 455.69856777 229.25 458.375 C229.82443848 458.34881592 230.39887695 458.32263184 230.99072266 458.2956543 C233.61853171 458.191082 236.24590231 458.12649056 238.875 458.0625 C239.77863281 458.02060547 240.68226563 457.97871094 241.61328125 457.93554688 C246.10913464 457.85350575 249.25442325 457.85486798 252.8359375 460.76953125 C256.7213721 464.96303429 256.43792325 468.2178716 256.48828125 473.70703125 C256.496353 474.53579269 256.50442474 475.36455414 256.51274109 476.21842957 C256.52658221 477.97445585 256.53730424 479.73050904 256.54516602 481.48657227 C256.56236651 484.16670009 256.60624926 486.84559028 256.65039062 489.52539062 C256.66051879 491.23176176 256.66903451 492.93814339 256.67578125 494.64453125 C256.69328934 495.44365433 256.71079742 496.2427774 256.72883606 497.06611633 C256.71383669 500.93164292 256.52624654 502.92086541 254.47338867 506.2956543 C251.21058655 509.34707471 248.60138945 510.62267345 244.13013458 510.63506222 C242.90444173 510.6456606 242.90444173 510.6456606 241.65398741 510.6564731 C240.31567075 510.65285047 240.31567075 510.65285047 238.95031738 510.64915466 C237.99825425 510.65439134 237.04619111 510.65962802 236.06527758 510.66502339 C232.86704389 510.6800555 229.66896974 510.68072924 226.47070312 510.68139648 C224.18106312 510.68901565 221.89142568 510.69744273 219.60179138 510.70661926 C213.37674667 510.7285914 207.15175109 510.7373665 200.92667198 510.74244571 C197.04038787 510.74608519 193.15411671 510.75232303 189.26783752 510.7594471 C178.50870593 510.77890263 167.7495897 510.79541641 156.99044037 510.79832363 C156.30213368 510.7985112 155.61382699 510.79869877 154.90466252 510.79889202 C153.50930532 510.79925828 152.11394812 510.79962197 150.71859092 510.79998314 C150.02593345 510.80016595 149.33327599 510.80034876 148.61962891 510.80053711 C147.57937592 510.80080793 147.57937592 510.80080793 146.51810771 510.80108423 C135.27245566 510.80462844 124.02699479 510.83166806 112.78140908 510.869035 C101.23703829 510.90708815 89.69278863 510.92603946 78.14835119 510.92678314 C71.66590261 510.92757788 65.1837008 510.93640711 58.7013092 510.96478081 C52.60766292 510.99085653 46.51446989 510.99322531 40.42079353 510.97712517 C38.18100564 510.97530247 35.9411923 510.98207476 33.70145988 510.99794388 C30.65032342 511.0182489 27.60079632 511.00794419 24.54968262 510.98973083 C23.65747151 511.0029308 22.7652604 511.01613077 21.84601259 511.02973074 C15.86263048 510.94780249 15.86263048 510.94780249 12.66876984 507.96157932 C11.25 505.375 11.25 505.375 11.25 503.375 C4.98 503.375 -1.29 503.375 -7.75 503.375 C-8.08 505.025 -8.41 506.675 -8.75 508.375 C-11.79447239 510.40464826 -12.37296948 510.62551628 -15.78808308 510.63226891 C-17.02461454 510.64194224 -17.02461454 510.64194224 -18.28612643 510.651811 C-19.19155899 510.6487138 -20.09699154 510.6456166 -21.02986145 510.64242554 C-21.99190969 510.64695665 -22.95395792 510.65148776 -23.94515914 510.65615618 C-27.18329558 510.66886177 -30.42126515 510.66717584 -33.65942383 510.66552734 C-35.97522703 510.67150878 -38.29102823 510.67831343 -40.60682678 510.68588257 C-46.90851453 510.70358972 -53.21014801 510.70823995 -59.51185822 510.70951414 C-64.76791832 510.71141045 -70.02396569 510.71876496 -75.28002089 510.72585833 C-86.97020935 510.74122637 -98.66037129 510.74719464 -110.35056905 510.74584763 C-111.40305666 510.74572776 -111.40305666 510.74572776 -112.47680664 510.74560547 C-113.53057872 510.74548283 -113.53057872 510.74548283 -114.60563912 510.74535771 C-125.98900498 510.74454494 -137.37223847 510.76367909 -148.75556604 510.7918822 C-160.44228976 510.8206086 -172.12894287 510.83405631 -183.81570262 510.83269465 C-190.3775545 510.83218412 -196.93925668 510.83791728 -203.50107765 510.85905075 C-209.67264392 510.87838362 -215.84391692 510.87859133 -222.01549339 510.86401749 C-224.28184816 510.86192209 -226.54822105 510.86667353 -228.81454468 510.8787384 C-231.90643932 510.89413319 -234.99731552 510.88492029 -238.08918762 510.86947632 C-238.98792801 510.87976344 -239.8866684 510.89005057 -240.81264335 510.90064943 C-246.27022666 510.84032982 -249.44738541 510.05539067 -253.75 506.375 C-256.29278788 502.56081818 -256.0913069 499.40679517 -256.12109375 494.98046875 C-256.13012222 494.15549393 -256.1391507 493.3305191 -256.14845276 492.48054504 C-256.16295768 490.73470692 -256.1718426 488.9888144 -256.17553711 487.24291992 C-256.18741195 484.58222814 -256.23657271 481.92387262 -256.28710938 479.26367188 C-256.29657658 477.56511545 -256.30381019 475.86654482 -256.30859375 474.16796875 C-256.32812607 473.37714401 -256.34765839 472.58631927 -256.36778259 471.77153015 C-256.3345528 467.66736181 -255.96561199 465.13282228 -253.34008789 461.88793945 C-250.00921832 458.65628326 -248.66517059 458.24895462 -244.1796875 458.27734375 C-243.28378906 458.28056641 -242.38789063 458.28378906 -241.46484375 458.28710938 C-240.52769531 458.29548828 -239.59054688 458.30386719 -238.625 458.3125 C-237.68011719 458.31701172 -236.73523438 458.32152344 -235.76171875 458.32617188 C-233.42441613 458.33797643 -231.08723939 458.35444241 -228.75 458.375 C-228.76571045 457.70968262 -228.7814209 457.04436523 -228.79760742 456.35888672 C-228.86025597 453.3226788 -228.89908509 450.28660728 -228.9375 447.25 C-228.96263672 446.20328125 -228.98777344 445.1565625 -229.01367188 444.078125 C-229.07665913 437.44346787 -228.62356198 432.84722072 -224.25 427.5625 C-219.38624992 423.71203119 -214.06405403 425.375 -207.75 425.375 C-207.75 401.615 -207.75 377.855 -207.75 353.375 C-211.05 353.375 -214.35 353.375 -217.75 353.375 C-222.32612527 351.92226182 -225.40668245 350.67108217 -227.75 346.375 C-228.72621312 343.25415943 -228.86661376 340.43256709 -228.84765625 337.171875 C-228.84443359 336.1921875 -228.84121094 335.2125 -228.83789062 334.203125 C-228.82951172 333.18734375 -228.82113281 332.1715625 -228.8125 331.125 C-228.80798828 330.09375 -228.80347656 329.0625 -228.79882812 328 C-228.78706088 325.45827427 -228.77062011 322.91666681 -228.75 320.375 C-230.05195313 320.42140625 -231.35390625 320.4678125 -232.6953125 320.515625 C-234.42185196 320.55315847 -236.14841636 320.58955693 -237.875 320.625 C-238.7309375 320.65851563 -239.586875 320.69203125 -240.46875 320.7265625 C-246.08741237 320.81300346 -249.33220796 320.20100058 -253.75 316.375 C-256.29278788 312.56081818 -256.0913069 309.40679517 -256.12109375 304.98046875 C-256.13012222 304.15549393 -256.1391507 303.3305191 -256.14845276 302.48054504 C-256.16295768 300.73470692 -256.1718426 298.9888144 -256.17553711 297.24291992 C-256.18741195 294.58222814 -256.23657271 291.92387262 -256.28710938 289.26367188 C-256.29657658 287.56511545 -256.30381019 285.86654482 -256.30859375 284.16796875 C-256.32812607 283.37714401 -256.34765839 282.58631927 -256.36778259 281.77153015 C-256.33592068 277.83630674 -256.00060861 275.14265941 -253.59008789 271.95043945 C-244.96048456 264.12497005 -234.1609474 267.375 -222.75 267.375 C-222.75 240.645 -222.75 213.915 -222.75 186.375 C-223.41 186.705 -224.07 187.035 -224.75 187.375 C-233.39635268 188.09552939 -241.24960379 185.58458195 -247.9921875 180.125 C-254.65852771 173.48828796 -256.0347078 166.5961788 -256.07128906 157.50268555 C-255.97709213 151.87441871 -255.13405799 147.85574345 -251.75 143.375 C-251.18611572 142.59463379 -250.62223145 141.81426758 -250.04125977 141.01025391 C-247.51792796 138.10808625 -245.12744827 136.49030618 -241.82421875 134.53515625 C-241.25491135 134.19533218 -240.68560394 133.85550812 -240.0990448 133.50538635 C-238.3226157 132.45020501 -236.53793711 131.4105431 -234.75 130.375 C-233.13472412 129.43503174 -233.13472412 129.43503174 -231.48681641 128.47607422 C-228.18690926 126.57345664 -224.8764544 124.69053399 -221.5625 122.8125 C-219.09443247 121.40863973 -216.62734636 120.0030578 -214.16015625 118.59765625 C-213.23062637 118.06857666 -213.23062637 118.06857666 -212.28231812 117.52880859 C-206.00932594 113.95706813 -199.7522335 110.35794849 -193.5 106.75 C-192.42967529 106.13237793 -191.35935059 105.51475586 -190.2565918 104.87841797 C-183.11652118 100.75333278 -175.99301818 96.60049074 -168.875 92.4375 C-159.60494485 87.01588505 -150.2916835 81.67295143 -140.96154785 76.35577393 C-131.8371716 71.15454871 -122.74867226 65.89472122 -113.68310547 60.59155273 C-103.15915375 54.43733258 -92.59619863 48.35130004 -82.03222656 42.26611328 C-76.60340056 39.13819851 -71.17682059 36.00639233 -65.75 32.875 C-63.59896371 31.63410526 -61.44792203 30.39321986 -59.296875 29.15234375 C-53.65914345 25.89987159 -48.02234029 22.64579325 -42.38574219 19.39135742 C-39.10183917 17.49626975 -35.81663655 15.60345177 -32.53125 13.7109375 C-29.08748859 11.72664307 -25.64867632 9.73466836 -22.21875 7.7265625 C-21.57389648 7.35136475 -20.92904297 6.97616699 -20.26464844 6.58959961 C-18.66914609 5.66095014 -17.07658241 4.72725626 -15.484375 3.79296875 C-10.30429131 1.10672535 -5.83007625 0.06595109 0 0 Z " fill="#020202" transform="translate(255.75,0.625)"/>
<path d="M0 0 C0.89235352 0.52770996 1.78470703 1.05541992 2.70410156 1.59912109 C4.23357422 2.4934082 4.23357422 2.4934082 5.79394531 3.40576172 C7.42783203 4.37932617 7.42783203 4.37932617 9.09472656 5.37255859 C10.25170008 6.05258037 11.40926369 6.73159906 12.56738281 7.40966797 C14.97137804 8.81823183 17.37278429 10.231065 19.77246094 11.64697266 C25.27307536 14.88772837 30.81076065 18.06422182 36.34472656 21.24755859 C38.5115669 22.49725751 40.67823306 23.74725849 42.84472656 24.99755859 C44.45347656 25.92568359 44.45347656 25.92568359 46.09472656 26.87255859 C58.01139323 33.74755859 69.9280599 40.62255859 81.84472656 47.49755859 C82.9173877 48.11638916 83.99004883 48.73521973 85.09521484 49.37280273 C87.26029727 50.62191377 89.42533638 51.87109989 91.59033203 53.12036133 C97.03088362 56.25958169 102.47219872 59.39746422 107.91503906 62.53271484 C118.40704865 68.57811084 128.88945009 74.63881904 139.34472656 80.74755859 C147.68787254 85.62087544 156.04075725 90.47687926 164.40722656 95.31005859 C165.36177734 95.86242187 166.31632812 96.41478516 167.29980469 96.98388672 C178.27243289 103.31508594 189.31485226 109.51328182 200.34472656 115.74755859 C200.34472656 145.77755859 200.34472656 175.80755859 200.34472656 206.74755859 C186.53113281 206.77333984 172.71753906 206.79912109 158.48535156 206.82568359 C149.75356639 206.85083889 141.0218035 206.87699758 132.29003906 206.90771484 C118.41927221 206.95632261 104.54857952 207.00073947 90.67773438 207.01855469 C80.57688068 207.0315467 70.4761771 207.05844852 60.37540793 207.10217166 C55.02531554 207.12484167 49.67540867 207.14046596 44.32526398 207.13944244 C39.29208171 207.1386991 34.25931042 207.15651844 29.22623444 207.18872643 C27.37671786 207.19726236 25.52715539 207.19895046 23.67762756 207.19336128 C21.15620284 207.18675519 18.63609879 207.20455912 16.11480713 207.22857666 C15.37939642 207.22081624 14.64398571 207.21305583 13.88628983 207.20506024 C10.49911964 207.26235383 8.62801238 207.54206713 5.85519028 209.55343246 C3.99443616 211.80138284 3.99443616 211.80138284 4.40722656 215.37255859 C5.01981106 219.00272783 5.01981106 219.00272783 8.34472656 220.74755859 C11.35507821 220.94963992 14.27393266 221.03272359 17.2853241 221.02603149 C18.67349326 221.0347201 18.67349326 221.0347201 20.08970624 221.04358423 C23.20363786 221.06064592 26.31742183 221.06346604 29.43139648 221.06640625 C31.65841539 221.07570017 33.88543079 221.08586803 36.11244202 221.09684753 C42.16991498 221.12422207 48.2273646 221.139319 54.28488326 221.15227556 C60.61103615 221.16787356 66.93714113 221.19467434 73.26325989 221.2203064 C83.88504767 221.26182602 94.50683539 221.29640359 105.12866211 221.32568359 C116.06976197 221.35586266 127.01083562 221.39020996 137.9519043 221.43017578 C138.96331354 221.4338681 138.96331354 221.4338681 139.9951553 221.43763502 C143.37774375 221.4500095 146.7603319 221.46246605 150.1429199 221.47496343 C178.21015303 221.57855493 206.27741817 221.66720403 234.34472656 221.74755859 C234.34472656 229.00755859 234.34472656 236.26755859 234.34472656 243.74755859 C75.28472656 243.74755859 -83.77527344 243.74755859 -247.65527344 243.74755859 C-247.65527344 236.48755859 -247.65527344 229.22755859 -247.65527344 221.74755859 C-244.80775452 221.74391296 -241.9602356 221.74026733 -239.02642822 221.73651123 C-212.92488311 221.70124787 -186.82343423 221.64623653 -160.72197713 221.56963764 C-157.30228206 221.55961997 -153.88258651 221.54977588 -150.46289062 221.54003906 C-149.7820797 221.53809769 -149.10126877 221.53615632 -148.39982721 221.53415611 C-137.37064022 221.50311984 -126.34147404 221.48615094 -115.3122516 221.47436437 C-103.99848478 221.4619612 -92.68484664 221.43418067 -81.3711412 221.39294553 C-75.0150114 221.37026868 -68.65903791 221.35465164 -62.30286407 221.35567474 C-56.32417518 221.35641768 -50.34583261 221.33861465 -44.36723328 221.30639076 C-42.16940133 221.29784968 -39.97153072 221.29617014 -37.77368927 221.30175591 C-34.77940128 221.30835401 -31.78622881 221.29057567 -28.79205322 221.26654053 C-27.91656838 221.27430094 -27.04108353 221.28206136 -26.13906884 221.29005694 C-22.29925384 221.23526037 -20.28564428 221.18965185 -17.08031845 218.94168472 C-15.31862839 216.67678623 -15.31862839 216.67678623 -15.71777344 213.12255859 C-16.33035794 209.49238935 -16.33035794 209.49238935 -19.65527344 207.74755859 C-22.26544605 207.54657784 -24.77004011 207.46231511 -27.38102722 207.46908569 C-28.17579965 207.46329329 -28.97057209 207.45750089 -29.78942853 207.45153296 C-32.46114086 207.4344841 -35.13268096 207.43165228 -37.80444336 207.42871094 C-39.71619594 207.41941613 -41.62794445 207.40924813 -43.53968811 207.39826965 C-48.73768313 207.37090515 -53.93565096 207.35580116 -59.13369918 207.34284163 C-64.56298563 207.32723926 -69.9922163 207.30043986 -75.42146301 207.27481079 C-85.70613908 207.22797165 -95.99082558 207.19125242 -106.275554 207.15813792 C-117.98281131 207.11995277 -129.69001268 207.07053319 -141.39722288 207.02015376 C-165.4831983 206.91675754 -189.56920964 206.82752219 -213.65527344 206.74755859 C-213.86389141 195.1169884 -214.0237618 183.48686382 -214.12158298 171.85480309 C-214.16853572 166.45331067 -214.23220608 161.05309898 -214.33422852 155.65234375 C-214.43209008 150.43916901 -214.48584549 145.22722508 -214.50916862 140.01320267 C-214.52578641 138.02512861 -214.55823971 136.03712129 -214.60684395 134.04957199 C-214.97333906 118.44047094 -214.97333906 118.44047094 -211.68852329 114.22148132 C-209.36648185 112.64754241 -207.29693334 111.65873934 -204.65527344 110.74755859 C-203.74704834 110.20228516 -202.83882324 109.65701172 -201.90307617 109.09521484 C-200.75754272 108.4590625 -200.75754272 108.4590625 -199.58886719 107.81005859 C-198.70432861 107.31530029 -197.81979004 106.82054199 -196.90844727 106.31079102 C-195.9792749 105.79492432 -195.05010254 105.27905762 -194.09277344 104.74755859 C-186.00589097 100.21814722 -177.96359858 95.62334696 -169.96777344 90.93505859 C-161.22924216 85.81506619 -152.45520692 80.7609479 -143.65527344 75.74755859 C-134.96117184 70.7939236 -126.29024456 65.80386521 -117.65527344 60.74755859 C-109.02029786 55.69124937 -100.34921025 50.70148737 -91.65527344 45.74755859 C-81.93916107 40.21062424 -72.25630924 34.62012901 -62.60375977 28.97290039 C-54.10924381 24.00499618 -45.59529408 19.07125911 -37.05810547 14.17700195 C-32.00594147 11.27773569 -26.97699246 8.35341093 -22.00292969 5.32177734 C-20.70319214 4.53903442 -20.70319214 4.53903442 -19.37719727 3.74047852 C-17.78133091 2.77665404 -16.19322507 1.79980534 -14.61499023 0.80737305 C-13.55985229 0.17448364 -13.55985229 0.17448364 -12.48339844 -0.47119141 C-11.58476074 -1.02709961 -11.58476074 -1.02709961 -10.66796875 -1.59423828 C-6.81981801 -2.85268253 -3.55123182 -1.67504774 0 0 Z " fill="#EAE8EA" transform="translate(262.6552734375,62.25244140625)"/>
<path d="M0 0 C1.00160156 0.52335937 2.00320313 1.04671875 3.03515625 1.5859375 C3.61813477 1.88951172 4.20111328 2.19308594 4.80175781 2.50585938 C13.98666916 7.37910693 22.89477069 12.77836719 31.85058594 18.05517578 C37.20751151 21.19924804 42.58987061 24.29891366 47.97265625 27.3984375 C49.05192383 28.02041016 50.13119141 28.64238281 51.24316406 29.28320312 C53.43380591 30.5456069 55.62456125 31.80781373 57.81542969 33.06982422 C63.24425567 36.19773898 68.67084906 39.32952198 74.09765625 42.4609375 C76.26431208 43.71095629 78.43097875 44.96095628 80.59765625 46.2109375 C102.26432292 58.7109375 123.93098958 71.2109375 145.59765625 83.7109375 C146.67031738 84.32976807 147.74297852 84.94859863 148.84814453 85.58618164 C151.01322696 86.83529268 153.17826607 88.08447879 155.34326172 89.33374023 C160.78381331 92.47296059 166.22512841 95.61084313 171.66796875 98.74609375 C185.29469314 106.59734005 198.90828456 114.47012066 212.47265625 122.42871094 C214.89225458 123.84104344 217.32097198 125.23581148 219.75390625 126.625 C221.09781409 127.40337338 222.44157705 128.18199699 223.78515625 128.9609375 C224.90277344 129.6003125 226.02039063 130.2396875 227.171875 130.8984375 C230.61161997 133.32325104 232.64140276 135.54822698 235.09765625 138.9609375 C235.83794104 144.14293105 234.97120581 147.60106921 232.09765625 151.9609375 C228.63546643 155.01581087 225.31416573 155.47852965 220.74707031 155.40771484 C215.24759117 154.48032387 210.71546371 151.22348738 206.03515625 148.3359375 C204.88725504 147.6477552 203.7381419 146.96159083 202.58789062 146.27734375 C200.22855478 144.87081425 197.87543262 143.45469152 195.52685547 142.03027344 C190.42280227 138.94052108 185.25751199 135.95619182 180.09765625 132.9609375 C178.11569222 131.80371623 176.1339228 130.64616162 174.15234375 129.48828125 C164.58270796 123.90625321 154.9797405 118.38187673 145.37988281 112.85205078 C139.95105683 109.72413602 134.52446344 106.59235302 129.09765625 103.4609375 C126.93100042 102.21091871 124.76433375 100.96091872 122.59765625 99.7109375 C57.59765625 62.2109375 57.59765625 62.2109375 54.34521484 60.33447266 C52.18675127 59.08924266 50.02822302 57.84412478 47.86962891 56.59912109 C42.32690884 53.40207413 36.78545617 50.20286155 31.24609375 47 C25.82386273 43.86493921 20.39597226 40.73984107 14.96630859 37.61767578 C12.33250504 36.09657017 9.70796961 34.56080698 7.0859375 33.01953125 C5.65249473 32.18723991 4.21891376 31.35518653 2.78515625 30.5234375 C2.16366699 30.1517041 1.54217773 29.7799707 0.90185547 29.39697266 C-2.59268891 27.38783156 -4.89663986 26.5794062 -8.90234375 26.9609375 C-11.33103432 27.98070092 -11.33103432 27.98070092 -13.7265625 29.49609375 C-14.65903809 30.05031006 -15.59151367 30.60452637 -16.55224609 31.17553711 C-17.55465332 31.78534424 -18.55706055 32.39515137 -19.58984375 33.0234375 C-21.76252941 34.31853311 -23.93572379 35.61277559 -26.109375 36.90625 C-27.23166504 37.57817383 -28.35395508 38.25009766 -29.51025391 38.94238281 C-34.90061841 42.15006481 -40.33875222 45.27346447 -45.77734375 48.3984375 C-47.95974287 49.65606356 -50.14203391 50.91387717 -52.32421875 52.171875 C-55.61384665 54.06688049 -58.90360304 55.9616628 -62.19335938 57.85644531 C-65.47165437 59.74492243 -68.7496286 61.63395416 -72.02734375 63.5234375 C-73.10628906 64.14541016 -74.18523437 64.76738281 -75.296875 65.40820312 C-82.47106326 69.54782198 -89.62794355 73.71618671 -96.77734375 77.8984375 C-106.04734152 83.32014928 -115.36066127 88.66298665 -124.6907959 93.98016357 C-132.82804397 98.61868994 -140.94205206 103.29473442 -149.02734375 108.0234375 C-167.65273221 118.91654255 -186.33845471 129.70882984 -205.09960938 140.36669922 C-210.07265054 143.19305835 -215.03738459 146.02392815 -219.94140625 148.96875 C-220.6689209 149.39881348 -221.39643555 149.82887695 -222.14599609 150.27197266 C-223.41786162 151.02568221 -224.68231985 151.79215443 -225.93603516 152.57568359 C-230.49279799 155.24790046 -233.76771997 155.35631956 -238.90234375 154.9609375 C-242.40785243 153.55873403 -243.63491048 152.36669832 -245.71484375 149.2109375 C-247.12520611 145.3509984 -247.54624842 143.0390004 -246.90234375 138.9609375 C-242.04994623 131.90675402 -235.54116879 128.49247895 -228.15234375 124.4609375 C-226.89905028 123.76332871 -225.64662252 123.06416259 -224.39501953 122.36352539 C-221.82315084 120.92483599 -219.24815741 119.49199675 -216.67089844 118.06298828 C-211.00023656 114.91018716 -205.39031371 111.65248253 -199.77734375 108.3984375 C-197.62906916 107.15727007 -195.48063155 105.91638476 -193.33203125 104.67578125 C-192.27209961 104.06331543 -191.21216797 103.45084961 -190.12011719 102.81982422 C-184.7156373 99.69769145 -179.30886963 96.57952546 -173.90234375 93.4609375 C-171.73566625 92.21095628 -169.56899958 90.96095629 -167.40234375 89.7109375 C-137.06901042 72.2109375 -106.73567708 54.7109375 -76.40234375 37.2109375 C-75.32944092 36.5919458 -74.25653809 35.9729541 -73.15112305 35.33520508 C-70.98855792 34.0875901 -68.82596036 32.84003134 -66.66333008 31.5925293 C-60.07228647 27.7904051 -53.4822813 23.98649242 -46.89379883 20.17993164 C-44.71124362 18.92052326 -42.52750738 17.66315916 -40.3425293 16.40795898 C-35.15423171 13.42663858 -29.98372032 10.42212678 -24.84765625 7.3515625 C-23.41933472 6.50791138 -23.41933472 6.50791138 -21.9621582 5.6472168 C-20.18774998 4.59846632 -18.42007985 3.53819163 -16.66088867 2.46411133 C-10.85189825 -0.94454812 -6.64328219 -2.37834867 0 0 Z " fill="#9DD1FB" transform="translate(261.90234375,17.0390625)"/>
<path d="M0 0 C159.06 0 318.12 0 482 0 C482 7.26 482 14.52 482 22 C477.78176704 22.01213028 477.78176704 22.01213028 473.47831726 22.02450562 C447.70623483 22.09953785 421.93419966 22.18441018 396.16218517 22.28005161 C392.786265 22.29257088 389.41034452 22.3050036 386.03442383 22.31738281 C385.02627174 22.3210818 385.02627174 22.3210818 383.99775294 22.32485552 C373.1069294 22.36460827 362.21609545 22.39734445 351.32524159 22.42749982 C340.1550247 22.45858442 328.98484899 22.49732969 317.8146804 22.54279006 C311.53854652 22.56808849 305.26244412 22.58985985 298.98627281 22.60334396 C293.08400881 22.61613401 287.18185262 22.63815519 281.27964783 22.66738319 C279.10880508 22.67648295 276.93794496 22.68215475 274.76708412 22.68421364 C271.81214354 22.68751927 268.8575118 22.70295044 265.90263367 22.7215271 C265.03590882 22.71959237 264.16918398 22.71765763 263.27619475 22.71566427 C258.34467085 22.76122207 258.34467085 22.76122207 254 25 C253.34 26.65 252.68 28.3 252 30 C245.73 30 239.46 30 233 30 C232.01 27.525 232.01 27.525 231 25 C228.34269577 22.34269577 226.36357394 22.74933182 222.7481941 22.71566427 C221.86299262 22.717599 220.97779114 22.71953374 220.06576538 22.7215271 C219.12892304 22.7157347 218.1920807 22.7099423 217.2268492 22.70397437 C214.0683535 22.68688591 210.91000313 22.68409028 207.75146484 22.68115234 C205.49503721 22.67186027 203.23861304 22.66169269 200.98219299 22.65071106 C194.83995269 22.62331575 188.69773543 22.6082335 182.55544996 22.59528303 C176.1425406 22.57969405 169.72967862 22.55289044 163.31680298 22.5272522 C152.54780235 22.48571966 141.77880505 22.45114668 131.00976562 22.421875 C119.91632225 22.39170256 108.82290476 22.35735832 97.72949219 22.31738281 C96.70424738 22.31369049 96.70424738 22.31369049 95.65829055 22.30992357 C92.22947925 22.29754923 88.80066826 22.28509264 85.3718574 22.27259517 C56.91460716 22.16897941 28.45732468 22.08033903 0 22 C0 14.74 0 7.48 0 0 Z " fill="#9CD0FA" transform="translate(15,474)"/>
<path d="M0 0 C5.94 0 11.88 0 18 0 C18.99 1.98 19.98 3.96 21 6 C24.35181059 7.67590529 28.13357829 7.15409024 31.82034302 7.15821838 C32.7449347 7.16315636 33.66952638 7.16809434 34.622136 7.17318195 C37.73913695 7.18861444 40.85611723 7.19693309 43.97314453 7.20532227 C46.20001408 7.21489627 48.42688179 7.22490607 50.65374756 7.23532104 C56.71540758 7.2624279 62.77707543 7.2834061 68.83876276 7.30332303 C75.16757807 7.32514701 81.49636907 7.35255321 87.82516479 7.37937927 C98.4529316 7.42367034 109.08070607 7.46449736 119.70849609 7.50268555 C130.65642266 7.54203352 141.60433811 7.58345806 152.55224609 7.62768555 C153.56404942 7.63177196 153.56404942 7.63177196 154.59629323 7.63594092 C157.9801522 7.64962028 161.36401101 7.66334058 164.74786973 7.67708123 C192.83189018 7.7910675 220.91593513 7.89759981 249 8 C249 15.26 249 22.52 249 30 C89.94 30 -69.12 30 -233 30 C-233 22.74 -233 15.48 -233 8 C-230.15248108 7.99635437 -227.30496216 7.99270874 -224.37115479 7.98895264 C-198.26960967 7.95368928 -172.16816079 7.89867794 -146.06670369 7.82207905 C-142.64700862 7.81206138 -139.22731307 7.80221728 -135.80761719 7.79248047 C-135.12680626 7.7905391 -134.44599533 7.78859772 -133.74455377 7.78659752 C-122.71536678 7.75556125 -111.6862006 7.73859234 -100.65697816 7.72680578 C-89.34321134 7.71440261 -78.0295732 7.68662207 -66.71586776 7.64538693 C-60.35973797 7.62271009 -54.00376448 7.60709305 -47.64759064 7.60811615 C-41.66890174 7.60885908 -35.69055918 7.59105606 -29.71195984 7.55883217 C-27.51412789 7.55029109 -25.31625728 7.54861155 -23.11841583 7.55419731 C-20.12412784 7.56079541 -17.13095537 7.54301708 -14.13677979 7.51898193 C-13.26129494 7.52674235 -12.38581009 7.53450277 -11.4837954 7.54249835 C-6.64592682 7.48411949 -6.64592682 7.48411949 -2.49145126 5.15506363 C-0.83819976 2.98100701 -0.83819976 2.98100701 0 0 Z " fill="#9BCFF8" transform="translate(248,276)"/>
<path d="M0 0 C14.52 0 29.04 0 44 0 C44.25 12.1875 44.25 12.1875 44.29785156 16.00463867 C44.3284668 17.0072876 44.35908203 18.00993652 44.390625 19.04296875 C44.4220459 20.57473755 44.4220459 20.57473755 44.45410156 22.13745117 C45.13272718 25.69598667 46.52424308 27.40172961 49 30 C53.51171315 32.25585658 58.97060926 31.61312379 64 32 C64 56.09 64 80.18 64 105 C60.37 105.33 56.74 105.66 53 106 C48.87485878 107.59215977 47.45497006 108.31754492 45 112 C44.63155492 114.8086043 44.63155492 114.8086043 44.5859375 117.98046875 C44.55032715 119.02871826 44.5147168 120.07696777 44.47802734 121.15698242 C44.42702881 123.15208862 44.42702881 123.15208862 44.375 125.1875 C44.189375 131.5296875 44.189375 131.5296875 44 138 C29.48 138 14.96 138 0 138 C-0.25 126.375 -0.25 126.375 -0.29785156 122.74365234 C-0.49251393 116.64252399 -0.67035399 112.49387396 -5 108 C-10.8153852 105.39756764 -10.8153852 105.39756764 -21 105 C-21 80.91 -21 56.82 -21 32 C-17.04 31.67 -13.08 31.34 -9 31 C-3.73305638 27.8995068 -3.73305638 27.8995068 -1 23 C-0.50479234 20.30557553 -0.50479234 20.30557553 -0.48828125 17.48046875 C-0.45516846 16.55903076 -0.42205566 15.63759277 -0.38793945 14.68823242 C-0.36304443 13.53299072 -0.33814941 12.37774902 -0.3125 11.1875 C-0.209375 7.495625 -0.10625 3.80375 0 0 Z " fill="#B5B0B6" transform="translate(151,321)"/>
<path d="M0 0 C14.19 0 28.38 0 43 0 C43.3125 11.1875 43.3125 11.1875 43.38793945 14.68823242 C43.42105225 15.60967041 43.45416504 16.5311084 43.48828125 17.48046875 C43.51446533 18.41785889 43.54064941 19.35524902 43.56762695 20.32104492 C44.42463736 25.63102525 46.7448266 27.80861995 51 31 C55.29 31.33 59.58 31.66 64 32 C64 56.09 64 80.18 64 105 C58.06 105.495 58.06 105.495 52 106 C47.83613089 108.08193456 45.69936914 109.70854917 44 114 C43.63611114 116.70534857 43.63611114 116.70534857 43.5859375 119.640625 C43.55032715 120.60516602 43.5147168 121.56970703 43.47802734 122.56347656 C43.42702881 124.38830566 43.42702881 124.38830566 43.375 126.25 C43.189375 132.06625 43.189375 132.06625 43 138 C28.48 138 13.96 138 -1 138 C-1.375 125.25 -1.375 125.25 -1.47802734 121.24707031 C-1.5136377 120.20131836 -1.54924805 119.15556641 -1.5859375 118.078125 C-1.6173584 117.00981445 -1.6487793 115.94150391 -1.68115234 114.84082031 C-1.99633305 112.03267123 -2.44407297 110.3402977 -4 108 C-9.53744035 105.30227265 -14.62256406 105.5797669 -21 105 C-21 80.91 -21 56.82 -21 32 C-17.04 31.67 -13.08 31.34 -9 31 C-3.73305638 27.8995068 -3.73305638 27.8995068 -1 23 C-0.50479234 20.30557553 -0.50479234 20.30557553 -0.48828125 17.48046875 C-0.45516846 16.55903076 -0.42205566 15.63759277 -0.38793945 14.68823242 C-0.36304443 13.53299072 -0.33814941 12.37774902 -0.3125 11.1875 C-0.209375 7.495625 -0.10625 3.80375 0 0 Z " fill="#B5B0B6" transform="translate(318,321)"/>
<path d="M0 0 C0.89235352 0.52770996 1.78470703 1.05541992 2.70410156 1.59912109 C4.23357422 2.4934082 4.23357422 2.4934082 5.79394531 3.40576172 C7.42783203 4.37932617 7.42783203 4.37932617 9.09472656 5.37255859 C10.25170008 6.05258037 11.40926369 6.73159906 12.56738281 7.40966797 C14.97137804 8.81823183 17.37278429 10.231065 19.77246094 11.64697266 C25.27307536 14.88772837 30.81076065 18.06422182 36.34472656 21.24755859 C38.5115669 22.49725751 40.67823306 23.74725849 42.84472656 24.99755859 C44.45347656 25.92568359 44.45347656 25.92568359 46.09472656 26.87255859 C58.01139323 33.74755859 69.9280599 40.62255859 81.84472656 47.49755859 C82.9173877 48.11638916 83.99004883 48.73521973 85.09521484 49.37280273 C87.26029727 50.62191377 89.42533638 51.87109989 91.59033203 53.12036133 C97.03088362 56.25958169 102.47219872 59.39746422 107.91503906 62.53271484 C118.40704865 68.57811084 128.88945009 74.63881904 139.34472656 80.74755859 C159.58890383 92.57238947 179.91190736 104.25167454 200.34472656 115.74755859 C200.34472656 122.34755859 200.34472656 128.94755859 200.34472656 135.74755859 C188.19261061 129.41833154 176.39151022 122.57035671 164.57568359 115.63720703 C159.22033371 112.50509217 153.84543885 109.40705515 148.46972656 106.31005859 C147.39037842 105.68800537 146.31103027 105.06595215 145.19897461 104.42504883 C143.00839921 103.16275235 140.81772525 101.90062689 138.62695312 100.63867188 C133.19812714 97.51075711 127.77153375 94.37897412 122.34472656 91.24755859 C120.17807074 89.9975398 118.01140407 88.74753981 115.84472656 87.49755859 C94.1780599 74.99755859 72.51139323 62.49755859 50.84472656 49.99755859 C49.7709375 49.3780835 48.69714844 48.7586084 47.59082031 48.12036133 C45.43710937 46.8777984 43.2834629 45.63512371 41.12988281 44.39233398 C36.10788394 41.49441236 31.08529849 38.5975251 26.06030273 35.70480347 C24.29427134 34.68808661 22.52845225 33.67100201 20.76269531 32.65380859 C18.55738502 31.38354986 16.3516844 30.11396841 14.14550781 28.84521484 C13.13875 28.26513672 12.13199219 27.68505859 11.09472656 27.08740234 C9.64646484 26.25764893 9.64646484 26.25764893 8.16894531 25.41113281 C6.27354805 24.29467042 4.40071219 23.13906541 2.55175781 21.94726562 C1.6790625 21.38765137 0.80636719 20.82803711 -0.09277344 20.25146484 C-0.85460937 19.74558838 -1.61644531 19.23971191 -2.40136719 18.71850586 C-5.32402407 17.45947137 -6.6521143 17.77205984 -9.65527344 18.74755859 C-12.19427472 19.91433752 -12.19427472 19.91433752 -14.76855469 21.41552734 C-15.75654053 21.97167725 -16.74452637 22.52782715 -17.76245117 23.10083008 C-18.82020752 23.70612549 -19.87796387 24.3114209 -20.96777344 24.93505859 C-22.63078491 25.8768396 -22.63078491 25.8768396 -24.32739258 26.83764648 C-33.78493002 32.20949558 -43.18228995 37.68451838 -52.56542969 43.18505859 C-58.87097763 46.8796917 -65.1982178 50.53608541 -71.53027344 54.18505859 C-72.61042725 54.80759521 -73.69058105 55.43013184 -74.8034668 56.0715332 C-76.99323678 57.33332686 -79.18309699 58.59496393 -81.37304688 59.85644531 C-86.80187286 62.98436008 -92.22846625 66.11614307 -97.65527344 69.24755859 C-99.82192926 70.49757738 -101.98859593 71.74757738 -104.15527344 72.99755859 C-105.22777344 73.61630859 -106.30027344 74.23505859 -107.40527344 74.87255859 C-143.15527344 95.49755859 -143.15527344 95.49755859 -146.40576172 97.37280273 C-148.57084414 98.62191377 -150.73588326 99.87109989 -152.90087891 101.12036133 C-158.3414305 104.25958169 -163.78274559 107.39746422 -169.22558594 110.53271484 C-171.41052582 111.79175298 -173.59542193 113.0508671 -175.78027344 114.31005859 C-176.83980225 114.92051025 -177.89933105 115.53096191 -178.9909668 116.15991211 C-184.53368889 119.35696944 -190.06772214 122.56811455 -195.58886719 125.80224609 C-196.70181152 126.45378662 -197.81475586 127.10532715 -198.96142578 127.77661133 C-201.09444533 129.02670983 -203.22632608 130.27875395 -205.35693359 131.53295898 C-206.3022998 132.08717529 -207.24766602 132.6413916 -208.22167969 133.21240234 C-209.47380249 133.94898071 -209.47380249 133.94898071 -210.7512207 134.70043945 C-212.65527344 135.74755859 -212.65527344 135.74755859 -213.65527344 135.74755859 C-213.89959721 132.70105228 -214.07682757 129.6741484 -214.21777344 126.62255859 C-214.29318359 125.76662109 -214.36859375 124.91068359 -214.44628906 124.02880859 C-214.53883809 121.35517011 -214.45188208 119.30624449 -213.65527344 116.74755859 C-211.04388865 114.02217117 -207.98748011 112.46595422 -204.65527344 110.74755859 C-202.96483849 109.77121361 -201.27606453 108.79198779 -199.58886719 107.81005859 C-197.75849343 106.78625631 -195.92638086 105.7655581 -194.09277344 104.74755859 C-186.00589097 100.21814722 -177.96359858 95.62334696 -169.96777344 90.93505859 C-161.22924216 85.81506619 -152.45520692 80.7609479 -143.65527344 75.74755859 C-134.96117184 70.7939236 -126.29024456 65.80386521 -117.65527344 60.74755859 C-109.02029786 55.69124937 -100.34921025 50.70148737 -91.65527344 45.74755859 C-81.93916107 40.21062424 -72.25630924 34.62012901 -62.60375977 28.97290039 C-54.10924381 24.00499618 -45.59529408 19.07125911 -37.05810547 14.17700195 C-32.00594147 11.27773569 -26.97699246 8.35341093 -22.00292969 5.32177734 C-20.70319214 4.53903442 -20.70319214 4.53903442 -19.37719727 3.74047852 C-17.78133091 2.77665404 -16.19322507 1.79980534 -14.61499023 0.80737305 C-13.55985229 0.17448364 -13.55985229 0.17448364 -12.48339844 -0.47119141 C-11.58476074 -1.02709961 -11.58476074 -1.02709961 -10.66796875 -1.59423828 C-6.81981801 -2.85268253 -3.55123182 -1.67504774 0 0 Z " fill="#D8D6D9" transform="translate(262.6552734375,62.25244140625)"/>
<path d="M0 0 C17.16 0 34.32 0 52 0 C52 24.09 52 48.18 52 73 C34.84 73 17.68 73 0 73 C0 48.91 0 24.82 0 0 Z " fill="#FFE07D" transform="translate(230,353)"/>
<path d="M0 0 C16.83 0 33.66 0 51 0 C51 24.09 51 48.18 51 73 C34.17 73 17.34 73 0 73 C0 48.91 0 24.82 0 0 Z " fill="#FFE07D" transform="translate(397,353)"/>
<path d="M0 0 C16.83 0 33.66 0 51 0 C51 24.09 51 48.18 51 73 C34.17 73 17.34 73 0 73 C0 48.91 0 24.82 0 0 Z " fill="#FFE07D" transform="translate(64,353)"/>
<path d="M0 0 C0.97646484 0.00128906 1.95292969 0.00257813 2.95898438 0.00390625 C3.96896484 0.03613281 4.97894531 0.06835938 6.01953125 0.1015625 C7.01017578 0.09511719 8.00082031 0.08867187 9.02148438 0.08203125 C16.23905012 0.18615351 23.76148294 1.26420055 29.44970703 6.10253906 C34.19897592 11.49664024 36.2882393 16.53072924 36.07421875 23.6171875 C35.77629895 26.21197284 34.85598653 28.33733351 33.83203125 30.7265625 C34.31630236 33.91744475 35.57965159 36.17205174 37.33203125 38.8515625 C41.08089081 44.62742171 41.46367025 48.81515021 40.83203125 55.7265625 C39.08048901 62.8108257 34.93470361 67.80651851 28.83203125 71.7265625 C22.02542554 74.39848601 15.4286566 74.13220239 8.20703125 74.1640625 C6.87108616 74.19695877 5.53514852 74.2301592 4.19921875 74.26367188 C2.93078125 74.27076172 1.66234375 74.27785156 0.35546875 74.28515625 C-0.80033691 74.29861084 -1.95614258 74.31206543 -3.14697266 74.32592773 C-6.16796875 73.7265625 -6.16796875 73.7265625 -8.32344055 71.57434082 C-10.47536107 68.25197762 -10.67872423 66.48794318 -10.70141602 62.56274414 C-10.71725235 61.34120132 -10.73308868 60.11965851 -10.74940491 58.86109924 C-10.7419651 56.8937809 -10.7419651 56.8937809 -10.734375 54.88671875 C-10.73961429 53.5181791 -10.74589189 52.14964306 -10.75315857 50.78111267 C-10.76354942 47.91713432 -10.75902154 45.05365321 -10.74438477 42.18969727 C-10.72720585 38.52977546 -10.75068473 34.87142498 -10.78587437 31.2116785 C-10.80789751 28.38648693 -10.80639519 25.56166845 -10.79810905 22.73641777 C-10.79689641 20.73456089 -10.81678469 18.73272694 -10.83705139 16.73097229 C-10.73344092 6.606493 -10.73344092 6.606493 -7.95166016 2.89868164 C-4.95749559 0.56232994 -3.73890914 -0.02551215 0 0 Z " fill="#050505" transform="translate(133.16796875,172.2734375)"/>
<path d="M0 0 C6.57203315 4.57840052 11.45127495 10.35382484 14 18 C14.87144808 28.8544926 15.16675205 38.1181278 8 47 C2.19735511 53.59616898 -4.64185161 57.40259725 -13.3984375 58.37890625 C-23.08951223 58.70474499 -30.53685607 56.95221862 -38.25 51 C-44.5278243 44.964612 -48.14006999 37.79756115 -48.7109375 29.05615234 C-48.88988749 19.63667204 -46.30260973 12.06567941 -40.171875 4.84765625 C-29.3837269 -5.52387638 -12.9900093 -7.65845766 0 0 Z " fill="#030302" transform="translate(274,92)"/>
<path d="M0 0 C7.07514385 1.76878596 11.48259564 11.09216466 15.3125 16.6875 C15.98603516 17.66138672 16.65957031 18.63527344 17.35351562 19.63867188 C22.14445627 26.58438965 26.83744437 33.59262982 31.5 40.625 C31.50410889 39.59093018 31.50821777 38.55686035 31.51245117 37.49145508 C31.53427867 33.64248302 31.58860426 29.79452802 31.65258789 25.94604492 C31.67573666 24.28273288 31.69015631 22.6192749 31.69555664 20.95581055 C31.7048698 18.55946249 31.74590551 16.16539941 31.79296875 13.76953125 C31.78706978 12.65986748 31.78706978 12.65986748 31.78105164 11.52778625 C31.8912607 7.59842756 32.3913152 5.76592502 34.81762695 2.61987305 C37.5 0.625 37.5 0.625 41.125 0.5625 C44.896491 1.74982124 45.60171621 2.27893348 47.5 5.625 C47.89440918 8.46409607 47.89440918 8.46409607 47.91992188 11.78295898 C47.93583374 13.02782578 47.95174561 14.27269257 47.96813965 15.55528259 C47.96940692 16.9105524 47.96958376 18.26582361 47.96875 19.62109375 C47.97585384 21.01587734 47.98355317 22.41065801 47.99182129 23.80543518 C48.00525756 26.72657396 48.00683886 29.64744251 48.00097656 32.56860352 C47.99508075 36.30593645 48.02566827 40.04197013 48.06609344 43.77905178 C48.09198567 46.6590723 48.09484661 49.53878058 48.09120178 52.41890144 C48.09289163 53.79639006 48.10252143 55.1738933 48.12034607 56.55126762 C48.25986187 68.66481012 48.25986187 68.66481012 45.17773438 71.99243164 C42.5 73.625 42.5 73.625 39.0625 73.875 C30.81326071 70.98053007 26.02278794 60.62923069 21.4375 53.625 C15.11888018 44.02163725 15.11888018 44.02163725 8.5 34.625 C8.4906543 35.62877686 8.48130859 36.63255371 8.47167969 37.66674805 C8.43169769 41.4038471 8.36591744 45.14012998 8.29248047 48.87670898 C8.26431814 50.49151089 8.24308 52.10644943 8.22900391 53.72143555 C8.20750742 56.04807237 8.16082789 58.37307477 8.109375 60.69921875 C8.10753204 61.77607185 8.10753204 61.77607185 8.10565186 62.87467957 C8.00251373 66.43312924 7.55868026 68.52952253 5.68066406 71.58520508 C3.5 73.625 3.5 73.625 0 74.1875 C-4.08408952 73.53112847 -5.01711822 72.84793802 -7.5 69.625 C-8.0146637 66.74794006 -8.0146637 66.74794006 -8.03344727 63.37524414 C-8.0492836 62.1103566 -8.06511993 60.84546906 -8.08143616 59.54225159 C-8.07759442 58.16488272 -8.07255522 56.78751675 -8.06640625 55.41015625 C-8.07164301 53.99295137 -8.07791969 52.57574998 -8.08518982 51.15855408 C-8.09559132 48.19025253 -8.09103741 45.22243044 -8.07641602 42.25415039 C-8.05923642 38.45623912 -8.08271164 34.65984193 -8.11790562 30.86209965 C-8.13990276 27.93572527 -8.13843266 25.00971183 -8.1301403 22.08328056 C-8.12932186 20.68347959 -8.13616502 19.28365183 -8.15091133 17.8839283 C-8.16839249 15.92406917 -8.15047429 13.96399175 -8.13110352 12.00415039 C-8.12966087 10.33347252 -8.12966087 10.33347252 -8.12818909 8.62904358 C-7.1792973 4.09137755 -4.5448265 1.13620663 0 0 Z " fill="#030303" transform="translate(271.5,172.375)"/>
<path d="M0 0 C4.09140431 3.15577309 5.60178359 7.24383513 7.375 11.9375 C7.69662109 12.76854248 8.01824219 13.59958496 8.34960938 14.45581055 C9.11005898 16.42861347 9.86510088 18.40350515 10.61621094 20.37988281 C11.95189465 23.87415206 13.30935621 27.35914558 14.67202759 30.84294128 C15.96670224 34.16018784 17.24977751 37.48184926 18.53057861 40.80447388 C19.17440926 42.4701521 19.82180515 44.13445685 20.47283936 45.79733276 C21.39960359 48.16924348 22.31082493 50.5466061 23.21875 52.92578125 C23.49961456 53.6356015 23.78047913 54.34542175 24.06985474 55.07675171 C25.74185497 59.51583135 26.41536923 63.18403279 26 68 C24.4375 70.4375 24.4375 70.4375 22 72 C18.5 72.5625 18.5 72.5625 15 72 C10.75511779 68.22677137 10.10298553 64.60796142 8 59 C-0.25 58.67 -8.5 58.34 -17 58 C-17.99 61.3 -18.98 64.6 -20 68 C-21.75 70.625 -21.75 70.625 -24 72 C-27.5 72.5625 -27.5 72.5625 -31 72 C-33.5 69.9375 -33.5 69.9375 -35 67 C-34.70958234 60.08701206 -31.90253725 53.85611929 -29.44921875 47.4609375 C-28.7663958 45.66240829 -28.7663958 45.66240829 -28.06977844 43.82754517 C-27.10873293 41.29916736 -26.14230046 38.77293254 -25.17211914 36.24804688 C-23.93368305 33.02336861 -22.71021535 29.79324643 -21.49089336 26.56130028 C-20.31896157 23.46203651 -19.13340201 20.36804096 -17.94921875 17.2734375 C-17.51365158 16.11814545 -17.07808441 14.96285339 -16.62931824 13.77255249 C-16.21241226 12.69438263 -15.79550629 11.61621277 -15.3659668 10.50537109 C-15.0048027 9.56051849 -14.64363861 8.61566589 -14.27153015 7.6421814 C-10.7656165 0.35705345 -7.92745971 -1.77684442 0 0 Z " fill="#030303" transform="translate(222,174)"/>
<path d="M0 0 C5.37783863 0.24868618 5.37783863 0.24868618 7.69921875 1.61328125 C9.72352157 4.78094029 9.27593998 8.15259159 9.15234375 11.78125 C9.13880859 12.53083984 9.12527344 13.28042969 9.11132812 14.05273438 C9.07602914 15.90004767 9.02222292 17.74699066 8.96484375 19.59375 C14.25797546 14.99552665 19.48432598 10.33078211 24.66796875 5.609375 C30.40580099 0.57413446 30.40580099 0.57413446 34.52734375 0.71875 C37.96484375 1.59375 37.96484375 1.59375 39.90234375 2.71875 C41.65893481 5.81861657 41.37310603 8.08919768 40.96484375 11.59375 C39.30643349 14.13484459 37.20401112 16.06277031 34.96484375 18.09375 C34.07551147 18.94066406 34.07551147 18.94066406 33.16821289 19.8046875 C29.4367124 23.33246686 25.62057234 26.77569183 21.6484375 30.03125 C19.49442083 32.0303374 17.75792071 34.27098948 15.96484375 36.59375 C21.52560506 42.2465092 27.08050564 47.80612049 33.109375 52.96484375 C42.72730264 61.40837181 42.72730264 61.40837181 43.27734375 66.46875 C42.96484375 69.59375 42.96484375 69.59375 41.40234375 71.96875 C37.90094741 74.30301422 36.10219766 74.36512107 31.96484375 73.59375 C30.00268022 72.08439344 28.43636891 70.430099 26.78125 68.58984375 C24.95272004 66.58042696 23.03392799 64.8518736 20.96484375 63.09375 C17.10848857 59.77216283 13.51226947 56.24094707 9.96484375 52.59375 C9.9390625 53.77453125 9.91328125 54.9553125 9.88671875 56.171875 C9.83042978 57.72920323 9.77308261 59.28649347 9.71484375 60.84375 C9.69357422 62.00970703 9.69357422 62.00970703 9.671875 63.19921875 C9.51149371 66.95214088 9.39169232 69.00728926 7.13671875 72.10546875 C3.90669984 74.31884502 1.77969344 74.20685084 -2.03515625 73.59375 C-4.68453442 70.99673517 -5.91123865 69.31572414 -6.54309082 65.63439941 C-6.54627319 64.54139526 -6.54945557 63.44839111 -6.55273438 62.32226562 C-6.56534302 61.07747437 -6.57795166 59.83268311 -6.59094238 58.5501709 C-6.5837823 57.20010815 -6.57557824 55.85005058 -6.56640625 54.5 C-6.56910307 53.10664601 -6.57298708 51.71329386 -6.57800293 50.31994629 C-6.5838892 47.40468364 -6.57536404 44.4899124 -6.55664062 41.57470703 C-6.53385051 37.84536879 -6.54697842 34.11718207 -6.57093048 30.38788605 C-6.58541268 27.51213976 -6.58077162 24.63666467 -6.57041931 21.76091003 C-6.56775866 20.38624433 -6.5709985 19.01155367 -6.58033752 17.63691711 C-6.59054091 15.71302792 -6.57222096 13.78905193 -6.55273438 11.86523438 C-6.549552 10.77223022 -6.54636963 9.67922607 -6.54309082 8.55310059 C-5.85657286 4.55327967 -4.08233276 1.19100687 0 0 Z " fill="#050505" transform="translate(347.03515625,172.40625)"/>
<path d="M0 0 C31.02 0 62.04 0 94 0 C94 5.94 94 11.88 94 18 C62.98 18 31.96 18 0 18 C0 12.06 0 6.12 0 0 Z " fill="#E4E2E4" transform="translate(209,441)"/>
<path d="M0 0 C30.69 0 61.38 0 93 0 C93 5.94 93 11.88 93 18 C62.31 18 31.62 18 0 18 C0 12.06 0 6.12 0 0 Z " fill="#E6E4E6" transform="translate(376,441)"/>
<path d="M0 0 C30.69 0 61.38 0 93 0 C93 5.94 93 11.88 93 18 C62.31 18 31.62 18 0 18 C0 12.06 0 6.12 0 0 Z " fill="#E6E4E6" transform="translate(43,441)"/>
<path d="M0 0 C31.02 0 62.04 0 94 0 C94 5.61 94 11.22 94 17 C62.98 17 31.96 17 0 17 C0 11.39 0 5.78 0 0 Z " fill="#D5D3D6" transform="translate(209,321)"/>
<path d="M0 0 C30.69 0 61.38 0 93 0 C93 5.61 93 11.22 93 17 C62.31 17 31.62 17 0 17 C0 11.39 0 5.78 0 0 Z " fill="#DAD8DB" transform="translate(376,321)"/>
<path d="M0 0 C30.69 0 61.38 0 93 0 C93 5.61 93 11.22 93 17 C62.31 17 31.62 17 0 17 C0 11.39 0 5.78 0 0 Z " fill="#DAD8DB" transform="translate(43,321)"/>
<path d="M0 0 C17.16 0 34.32 0 52 0 C52 24.09 52 48.18 52 73 C51.67 73 51.34 73 51 73 C51 54.52 51 36.04 51 17 C34.5 17 18 17 1 17 C1 35.48 1 53.96 1 73 C0.67 73 0.34 73 0 73 C0 48.91 0 24.82 0 0 Z " fill="#E9B361" transform="translate(230,353)"/>
<path d="M0 0 C16.83 0 33.66 0 51 0 C51 5.61 51 11.22 51 17 C34.5 17 18 17 1 17 C1 35.48 1 53.96 1 73 C0.67 73 0.34 73 0 73 C0 48.91 0 24.82 0 0 Z " fill="#F8BE67" transform="translate(397,353)"/>
<path d="M0 0 C16.83 0 33.66 0 51 0 C51 24.09 51 48.18 51 73 C50.67 73 50.34 73 50 73 C50 54.52 50 36.04 50 17 C33.5 17 17 17 0 17 C0 11.39 0 5.78 0 0 Z " fill="#F8BF67" transform="translate(64,353)"/>
<path d="M0 0 C3.40920514 2.411389 5.69634878 5.08019755 7.5625 8.8125 C8.07478015 14.42238749 8.32506033 19.26014504 5.8125 24.375 C2.25455629 28.22943902 -0.54227192 30.48978349 -5.890625 31.0859375 C-11.62715036 31.29424708 -15.61667885 31.12274128 -20.06640625 27.28125 C-24.48295269 22.55013472 -25.03412242 17.75678454 -24.85546875 11.50390625 C-24.03588332 6.22638889 -21.12807317 3.35390495 -17.3125 -0.125 C-11.62154226 -2.22818003 -5.69034151 -1.96575434 0 0 Z " fill="#FCDD7B" transform="translate(265.4375,104.1875)"/>
<path d="M0 0 C30.36 0 60.72 0 92 0 C92 2.64 92 5.28 92 8 C61.64 8 31.28 8 0 8 C0 5.36 0 2.72 0 0 Z " fill="#EAE8EA" transform="translate(210,330)"/>
<path d="M0 0 C30.36 0 60.72 0 92 0 C92 2.31 92 4.62 92 7 C61.64 7 31.28 7 0 7 C0 4.69 0 2.38 0 0 Z " fill="#ECEAEC" transform="translate(377,331)"/>
<path d="M0 0 C30.36 0 60.72 0 92 0 C92 2.31 92 4.62 92 7 C61.64 7 31.28 7 0 7 C0 4.69 0 2.38 0 0 Z " fill="#ECEAEC" transform="translate(43,331)"/>
<path d="M0 0 C2.206875 -0.061875 4.41375 -0.12375 6.6875 -0.1875 C8.54955078 -0.23970703 8.54955078 -0.23970703 10.44921875 -0.29296875 C14.21666932 0.01787701 16.02794917 0.7227143 19 3 C20.44430855 5.88861709 20.37688506 7.79647701 20 11 C17.96484375 13.6796875 17.96484375 13.6796875 15 16 C12.11628549 16.37353815 10.01710038 16.48712853 7.1875 16.3125 C4.815625 16.209375 2.44375 16.10625 0 16 C0 10.72 0 5.44 0 0 Z " fill="#E9E7E9" transform="translate(139,215)"/>
<path d="M0 0 C4.3322111 3.06424687 6.27537717 5.35295897 7.3125 10.625 C7.43625 12.2028125 7.43625 12.2028125 7.5625 13.8125 C6.99144531 13.4515625 6.42039062 13.090625 5.83203125 12.71875 C-1.24823659 8.66645044 -7.34835679 7.67559306 -15.4375 8.8125 C-18.64112044 9.8434994 -21.52709761 11.127926 -24.4375 12.8125 C-23.88104517 6.83061056 -21.82132968 3.90738063 -17.375 0 C-11.71095829 -2.28971899 -5.71926452 -1.97574593 0 0 Z " fill="#F8BD66" transform="translate(265.4375,104.1875)"/>
<path d="M0 0 C11.35080752 -0.49351337 11.35080752 -0.49351337 14.39453125 1.8203125 C16 4 16 4 15.9375 7.125 C15 10 15 10 12 12 C7.98500069 12.26874159 4.02862593 12.08663712 0 12 C0 8.04 0 4.08 0 0 Z " fill="#DCDADC" transform="translate(138,188)"/>
<path d="M0 0 C3.12831454 1.56415727 3.41662452 4.17386497 4.625 7.375 C5.07101563 8.53773438 5.51703125 9.70046875 5.9765625 10.8984375 C7 14 7 14 7 17 C2.71 17 -1.58 17 -6 17 C-4.02 11.39 -2.04 5.78 0 0 Z " fill="#DFDDDF" transform="translate(217,200)"/>
</svg>
