<?xml version="1.0" encoding="UTF-8"?>
<svg version="1.1" xmlns="http://www.w3.org/2000/svg" width="512" height="512">
<path d="M0 0 C3.38021447 1.46597864 6.14541494 3.45468895 9.0625 5.6875 C9.87122559 6.27329834 10.67995117 6.85909668 11.51318359 7.46264648 C13.19507146 8.68445685 14.86891547 9.9174142 16.53466797 11.16113281 C18.88191521 12.9119217 21.24896593 14.62994908 23.62890625 16.3359375 C26.62756129 18.48561678 29.61821045 20.64553879 32.6015625 22.81640625 C36.87311622 25.9177617 41.18104503 28.96513969 45.5 32 C51.32890897 36.09588074 57.11273082 40.24846752 62.875 44.4375 C69.07528653 48.94104327 75.34715117 53.3210701 81.6875 57.625 C88.0337122 61.93328449 94.27931683 66.34336733 100.44262695 70.90893555 C107.16252236 75.88113618 114.00207374 80.67995517 120.84277344 85.48388672 C125.10501862 88.47942119 129.3586486 91.48717741 133.61352539 94.49316406 C137.21387879 97.03595777 140.81707833 99.57453547 144.42578125 102.10546875 C150.94735182 106.68312351 157.46208954 111.27076496 163.875 116 C165.26332031 117.0209375 165.26332031 117.0209375 166.6796875 118.0625 C168.90049235 119.91690943 170.50359217 121.52918707 172 124 C171.93059421 127.40088366 171.76964232 129.24882992 169.29681396 131.66230774 C166.43250882 133.33051373 164.61782512 133.36250769 161.31347656 133.34057617 C159.57831787 133.34003235 159.57831787 133.34003235 157.80810547 133.33947754 C156.59783691 133.32412964 155.38756836 133.30878174 154.140625 133.29296875 C153.02413574 133.28994751 151.90764648 133.28692627 150.75732422 133.28381348 C146.58812207 133.26812171 142.41905172 133.22623776 138.25 133.1875 C128.9275 133.125625 119.605 133.06375 110 133 C110 156.1 110 179.2 110 203 C111.65 203.33 113.3 203.66 115 204 C117.47189851 205.94220597 117.97912836 206.93738507 119 210 C119.22451458 212.22574335 119.40782878 214.45581519 119.5625 216.6875 C119.68818359 218.45673828 119.68818359 218.45673828 119.81640625 220.26171875 C119.87699219 221.16535156 119.93757813 222.06898438 120 223 C121.01578125 222.2265625 122.0315625 221.453125 123.078125 220.65625 C126.66987429 217.93077963 130.28473251 215.23777297 133.90966797 212.55664062 C135.73683326 211.19597654 137.54314301 209.81226492 139.34765625 208.421875 C140.32605469 207.70515625 141.30445313 206.9884375 142.3125 206.25 C143.15425781 205.61578125 143.99601562 204.9815625 144.86328125 204.328125 C149.64087178 202.30523486 153.89837238 202.11256997 159 203 C162.5632543 204.60925706 165.48789549 206.79092851 168.5625 209.1875 C169.419646 209.82099365 170.27679199 210.4544873 171.15991211 211.10717773 C172.92948497 212.41680824 174.69133591 213.73693692 176.4453125 215.06738281 C180.27226688 217.96246795 184.16795319 220.75944324 188.0625 223.5625 C188.79194824 224.09238525 189.52139648 224.62227051 190.27294922 225.16821289 C195.67805842 229.08736303 201.16366983 232.87551793 206.6875 236.625 C213.0337224 240.9332679 219.27931769 245.34336798 225.44262695 249.90893555 C232.16252236 254.88113618 239.00207374 259.67995517 245.84277344 264.48388672 C249.39929382 266.98343307 252.94939773 269.49205761 256.5 272 C260.73596723 274.99158195 264.97286618 277.98178834 269.21484375 280.96484375 C277.19841715 286.58301662 285.13761318 292.25669269 293.03857422 297.99047852 C299.63819214 302.76717495 306.31010623 307.4372598 313.01293945 312.06787109 C326.2842473 321.2842473 326.2842473 321.2842473 330 325 C330.46740995 330.79588336 330.46740995 330.79588336 330 333 C326.85471458 336.01918568 324.59969641 336.36902453 320.31347656 336.34057617 C318.57831787 336.34003235 318.57831787 336.34003235 316.80810547 336.33947754 C315.59783691 336.32412964 314.38756836 336.30878174 313.140625 336.29296875 C312.02413574 336.28994751 310.90764648 336.28692627 309.75732422 336.28381348 C305.58812207 336.26812171 301.41905172 336.22623776 297.25 336.1875 C287.9275 336.125625 278.605 336.06375 269 336 C269 359.1 269 382.2 269 406 C270.65 406.33 272.3 406.66 274 407 C276.73221996 409.04916497 277.38401291 410.70677065 278 414 C278.08120233 416.0976396 278.10755808 418.19768762 278.09765625 420.296875 C278.09443359 421.50214844 278.09121094 422.70742188 278.08789062 423.94921875 C278.07951172 425.20347656 278.07113281 426.45773437 278.0625 427.75 C278.05798828 429.01972656 278.05347656 430.28945313 278.04882812 431.59765625 C278.03704556 434.73181836 278.02059416 437.86588541 278 441 C278.89855713 440.98767334 279.79711426 440.97534668 280.72290039 440.96264648 C282.48621704 440.94826538 282.48621704 440.94826538 284.28515625 440.93359375 C285.45183838 440.92126709 286.61852051 440.90894043 287.82055664 440.89624023 C292.61123669 441.05258202 295.2568113 442.28985753 298.6484375 445.6171875 C302.94400744 450.31609734 304.13661285 453.59549214 304.09765625 459.984375 C304.09443359 460.91894531 304.09121094 461.85351562 304.08789062 462.81640625 C304.07951172 463.78449219 304.07113281 464.75257813 304.0625 465.75 C304.05798828 466.73355469 304.05347656 467.71710938 304.04882812 468.73046875 C304.03706483 471.15370791 304.02062684 473.57682273 304 476 C304.7734375 475.95359375 305.546875 475.9071875 306.34375 475.859375 C313.14765071 475.62359626 318.45028924 475.78633072 324 480 C329.8740089 485.75652873 330.22985156 490.0178884 330.3125 497.875 C330.34150391 498.78636719 330.37050781 499.69773437 330.40039062 500.63671875 C330.40876953 501.51714844 330.41714844 502.39757812 330.42578125 503.3046875 C330.44765503 504.5110083 330.44765503 504.5110083 330.4699707 505.74169922 C329.81134884 508.90650557 328.49468502 509.98251755 326 512 C323.29565859 512.50139666 323.29565859 512.50139666 320.13098907 512.50336456 C318.9237202 512.51379555 317.71645133 512.52422654 316.47259855 512.53497362 C315.13118472 512.5263252 313.78977329 512.51729856 312.44836426 512.50793457 C311.02470019 512.51254218 309.60104086 512.51889415 308.17739153 512.52684355 C304.26047944 512.54357958 300.34395594 512.53527134 296.42704225 512.52289867 C292.20474726 512.51386787 287.98252024 512.52780809 283.76023865 512.53881836 C275.4869127 512.5566293 267.21373169 512.55275217 258.9404 512.5411678 C252.21807213 512.53214385 245.49578495 512.53090496 238.77345276 512.53526306 C237.81764998 512.53587599 236.86184721 512.53648893 235.87708071 512.53712043 C233.93554476 512.5383993 231.99400882 512.53969615 230.05247289 512.5410108 C211.83546694 512.55242414 193.61854144 512.53929108 175.40154868 512.51780933 C159.76163669 512.49993767 144.12184344 512.50304156 128.48193359 512.52148438 C110.33128322 512.54287779 92.18070339 512.55132543 74.03004217 512.53903532 C72.09554387 512.53776109 70.16104556 512.53650361 68.22654724 512.53526306 C66.79873438 512.53433741 66.79873438 512.53433741 65.34207681 512.53339306 C58.62578487 512.52993556 51.90953759 512.53577709 45.19325256 512.54518127 C37.01123623 512.55638566 28.82937344 512.55339416 20.64737475 512.5320583 C16.47066585 512.52152678 12.29421319 512.51746161 8.11750603 512.53065491 C4.29676992 512.54254148 0.47652847 512.53607873 -3.34416252 512.5147447 C-4.72902595 512.51026267 -6.11393085 512.5125807 -7.49876779 512.52224785 C-9.37614642 512.53435177 -11.2536415 512.51958514 -13.13098907 512.50336456 C-14.17533001 512.50271515 -15.21967095 512.50206574 -16.29565859 512.50139666 C-19.71516765 511.86740481 -20.87497055 510.70194227 -23 508 C-25.0979047 501.7062859 -24.94400601 493.79817876 -22.8125 487.5 C-20.0690785 482.20235848 -16.81955006 478.72306647 -11.1796875 476.4921875 C-6.53383574 475.4431242 -1.73009065 475.79029155 3 476 C2.97643433 475.04746338 2.97643433 475.04746338 2.95239258 474.07568359 C2.8897141 471.1755477 2.85090583 468.27555476 2.8125 465.375 C2.78736328 464.37597656 2.76222656 463.37695312 2.73632812 462.34765625 C2.67118311 455.78972492 3.08590542 451.15914344 7.71875 446.13671875 C8.3065625 445.65847656 8.894375 445.18023437 9.5 444.6875 C10.0878125 444.19636719 10.675625 443.70523437 11.28125 443.19921875 C14.94656097 440.64183132 18.36954614 440.89474798 22.6875 440.9375 C23.86699219 440.94652344 25.04648438 440.95554687 26.26171875 440.96484375 C27.16535156 440.97644531 28.06898438 440.98804688 29 441 C28.97643433 439.76697144 28.97643433 439.76697144 28.95239258 438.5090332 C28.88994927 434.77692572 28.85097864 431.04492828 28.8125 427.3125 C28.78736328 426.01892578 28.76222656 424.72535156 28.73632812 423.39257812 C28.72182617 421.52182617 28.72182617 421.52182617 28.70703125 419.61328125 C28.68346558 417.89298706 28.68346558 417.89298706 28.65942383 416.13793945 C29.14315229 411.68104921 30.87595597 409.12404403 34 406 C35.32 406 36.64 406 38 406 C38 382.9 38 359.8 38 336 C19.4212558 336.11869353 19.4212558 336.11869353 0.84277344 336.27026367 C-1.48502186 336.27902487 -3.81282174 336.28666967 -6.140625 336.29296875 C-7.95602783 336.3159906 -7.95602783 336.3159906 -9.80810547 336.33947754 C-11.54326416 336.34002136 -11.54326416 336.34002136 -13.31347656 336.34057617 C-14.31719299 336.34723801 -15.32090942 336.35389984 -16.3550415 336.36076355 C-19.43925127 335.94008759 -20.77773431 335.14887852 -23 333 C-24.0625 330.1875 -24.0625 330.1875 -24 327 C-20.35150069 321.79298818 -15.95712191 318.59098903 -10.6875 315.125 C-9.94693359 314.62742187 -9.20636719 314.12984375 -8.44335938 313.6171875 C-6.63430629 312.40337124 -4.8178934 311.20053595 -3 310 C-4.34732397 309.99780016 -4.34732397 309.99780016 -5.72186661 309.99555588 C-27.56275545 309.95852774 -49.40348862 309.89956619 -71.24425125 309.81609726 C-81.80622874 309.77626318 -92.36813125 309.74389292 -102.93017578 309.72900391 C-112.13449595 309.71601001 -121.33865143 309.68910336 -130.54287887 309.64538693 C-135.41789904 309.62272112 -140.29271573 309.60709238 -145.16779327 309.60811615 C-149.75449016 309.60885975 -154.34073634 309.59103038 -158.92731667 309.55883217 C-160.61235055 309.55029941 -162.29743479 309.54860603 -163.982481 309.55419731 C-166.28061972 309.56080835 -168.57731217 309.54298873 -170.87530518 309.51898193 C-172.16212818 309.51529476 -173.44895119 309.51160759 -174.77476883 309.50780869 C-178.54561479 308.91409362 -179.7302046 308.01018483 -182 305 C-182.51757812 302.80517578 -182.51757812 302.80517578 -182.53125 300.4453125 C-182.53640625 299.58292969 -182.5415625 298.72054688 -182.546875 297.83203125 C-182.53140625 296.93871094 -182.5159375 296.04539062 -182.5 295.125 C-182.52320313 293.79662109 -182.52320313 293.79662109 -182.546875 292.44140625 C-182.50564829 285.5256256 -180.54765298 282.05718357 -176.125 276.75 C-170.2448443 271.90751884 -163.21053568 272.7899844 -156 273 C-156.02618408 272.37544922 -156.05236816 271.75089844 -156.0793457 271.10742188 C-156.18419459 268.23854399 -156.24859894 265.37007041 -156.3125 262.5 C-156.35439453 261.51773437 -156.39628906 260.53546875 -156.43945312 259.5234375 C-156.55340518 252.68631438 -155.45605434 248.27008651 -151 243 C-146.17134315 238.51624721 -142.79596946 237.87330723 -136.3125 237.9375 C-135.13300781 237.94652344 -133.95351562 237.95554688 -132.73828125 237.96484375 C-131.83464844 237.97644531 -130.93101562 237.98804688 -130 238 C-130.01047363 237.20827393 -130.02094727 236.41654785 -130.03173828 235.60083008 C-130.07337846 232.00475249 -130.09935193 228.40872572 -130.125 224.8125 C-130.14175781 223.56662109 -130.15851563 222.32074219 -130.17578125 221.03710938 C-130.18544922 219.2340332 -130.18544922 219.2340332 -130.1953125 217.39453125 C-130.21102295 215.73707886 -130.21102295 215.73707886 -130.22705078 214.04614258 C-129.93726304 210.15831281 -128.98135593 207.29360555 -126.625 204.1875 C-125 203 -125 203 -121 203 C-121 179.9 -121 156.8 -121 133 C-139.5787442 133.11869353 -139.5787442 133.11869353 -158.15722656 133.27026367 C-160.48502186 133.27902487 -162.81282174 133.28666967 -165.140625 133.29296875 C-166.95602783 133.3159906 -166.95602783 133.3159906 -168.80810547 133.33947754 C-170.54326416 133.34002136 -170.54326416 133.34002136 -172.31347656 133.34057617 C-173.31719299 133.34723801 -174.32090942 133.35389984 -175.3550415 133.36076355 C-178.45894552 132.93740136 -179.81244926 132.2257057 -182 130 C-182.59516676 126.6995298 -182.87376872 125.10781103 -182 122 C-180.72900391 120.50927734 -180.72900391 120.50927734 -179.0390625 119.1484375 C-178.40282959 118.63595459 -177.76659668 118.12347168 -177.11108398 117.59545898 C-173.3738903 114.771062 -169.54822375 112.08967557 -165.6875 109.4375 C-159.07693962 104.85534557 -152.50548382 100.2302044 -146 95.5 C-137.20789905 89.11706704 -128.30873972 82.89282803 -119.39892578 76.67578125 C-109.93993337 70.06815619 -100.52883569 63.3979523 -91.1875 56.625 C-82.33019724 50.20434672 -73.37019651 43.93571105 -64.39892578 37.67578125 C-55.62579314 31.54726685 -46.88135285 25.38045326 -38.22143555 19.09277344 C-35.96260976 17.4556982 -33.69662079 15.82894777 -31.4296875 14.203125 C-28.48469925 12.08831099 -25.58096261 9.92931801 -22.6953125 7.734375 C-21.31816402 6.7181322 -19.94057912 5.70248046 -18.5625 4.6875 C-17.96107178 4.21304443 -17.35964355 3.73858887 -16.73999023 3.24975586 C-11.46539259 -0.56425006 -6.3766797 -1.19325369 0 0 Z M-84 133 C-84 156.1 -84 179.2 -84 203 C-82.02 203.99 -80.04 204.98 -78 206 C-76.55037817 208.89924366 -76.77873519 211.52300355 -76.68359375 214.7578125 C-76.64548584 215.97098145 -76.60737793 217.18415039 -76.56811523 218.43408203 C-76.52501221 219.98208496 -76.48190918 221.53008789 -76.4375 223.125 C-76.293125 228.03375 -76.14875 232.9425 -76 238 C-61.48 238 -46.96 238 -32 238 C-31.82966673 228.30742081 -31.82966673 228.30742081 -31.70214844 218.61425781 C-31.6715332 217.40608398 -31.64091797 216.19791016 -31.609375 214.953125 C-31.58842773 213.71723633 -31.56748047 212.48134766 -31.54589844 211.20800781 C-30.90582652 207.44658339 -30.00488283 206.2758472 -27 204 C-26.01 203.67 -25.02 203.34 -24 203 C-24 179.9 -24 156.8 -24 133 C-43.8 133 -63.6 133 -84 133 Z M13 133 C13 156.1 13 179.2 13 203 C14.65 203.66 16.3 204.32 18 205 C21.51700123 208.51700123 21.15774443 212.49168838 21.31640625 217.296875 C21.35451416 218.38323242 21.39262207 219.46958984 21.43188477 220.58886719 C21.47498779 221.96204102 21.51809082 223.33521484 21.5625 224.75 C21.706875 229.1225 21.85125 233.495 22 238 C36.19 238 50.38 238 65 238 C65.17033327 228.30742081 65.17033327 228.30742081 65.29785156 218.61425781 C65.3284668 217.40608398 65.35908203 216.19791016 65.390625 214.953125 C65.41157227 213.71723633 65.43251953 212.48134766 65.45410156 211.20800781 C66.09715563 207.42905861 66.94336561 206.24962893 70 204 C71.98 203.505 71.98 203.505 74 203 C74 179.9 74 156.8 74 133 C53.87 133 33.74 133 13 133 Z M74 336 C74 359.1 74 382.2 74 406 C76.31 406.99 78.62 407.98 81 409 C82.44962183 411.89924366 82.22126481 414.52300355 82.31640625 417.7578125 C82.35451416 418.97098145 82.39262207 420.18415039 82.43188477 421.43408203 C82.47498779 422.98208496 82.51809082 424.53008789 82.5625 426.125 C82.706875 431.03375 82.85125 435.9425 83 441 C97.19 441 111.38 441 126 441 C126.24914333 432.3397478 126.24914333 432.3397478 126.47802734 423.67895508 C126.5136377 422.59509521 126.54924805 421.51123535 126.5859375 420.39453125 C126.6173584 419.28956299 126.6487793 418.18459473 126.68115234 417.04614258 C127.01467588 413.85979256 127.37049338 411.76332004 129 409 C130.98 408.01 132.96 407.02 135 406 C135 382.9 135 359.8 135 336 C114.87 336 94.74 336 74 336 Z M172 336 C172 359.1 172 382.2 172 406 C173.98 406.99 175.96 407.98 178 409 C179.44962183 411.89924366 179.22126481 414.52300355 179.31640625 417.7578125 C179.35451416 418.97098145 179.39262207 420.18415039 179.43188477 421.43408203 C179.47498779 422.98208496 179.51809082 424.53008789 179.5625 426.125 C179.706875 431.03375 179.85125 435.9425 180 441 C194.52 441 209.04 441 224 441 C224.17033327 431.30742081 224.17033327 431.30742081 224.29785156 421.61425781 C224.3284668 420.40608398 224.35908203 419.19791016 224.390625 417.953125 C224.41157227 416.71723633 224.43251953 415.48134766 224.45410156 414.20800781 C225.09417348 410.44658339 225.99511717 409.2758472 229 407 C229.99 406.67 230.98 406.34 232 406 C232 382.9 232 359.8 232 336 C212.2 336 192.4 336 172 336 Z " fill="#FEC205" transform="translate(182,0)"/>
<path d="M0 0 C3.38021447 1.46597864 6.14541494 3.45468895 9.0625 5.6875 C9.87122559 6.27329834 10.67995117 6.85909668 11.51318359 7.46264648 C13.19507146 8.68445685 14.86891547 9.9174142 16.53466797 11.16113281 C18.88191521 12.9119217 21.24896593 14.62994908 23.62890625 16.3359375 C26.62756129 18.48561678 29.61821045 20.64553879 32.6015625 22.81640625 C36.87311622 25.9177617 41.18104503 28.96513969 45.5 32 C51.32890897 36.09588074 57.11273082 40.24846752 62.875 44.4375 C69.07528653 48.94104327 75.34715117 53.3210701 81.6875 57.625 C88.0337122 61.93328449 94.27931683 66.34336733 100.44262695 70.90893555 C107.16252236 75.88113618 114.00207374 80.67995517 120.84277344 85.48388672 C125.10501862 88.47942119 129.3586486 91.48717741 133.61352539 94.49316406 C137.21387879 97.03595777 140.81707833 99.57453547 144.42578125 102.10546875 C150.94735182 106.68312351 157.46208954 111.27076496 163.875 116 C165.26332031 117.0209375 165.26332031 117.0209375 166.6796875 118.0625 C168.90049235 119.91690943 170.50359217 121.52918707 172 124 C171.93059421 127.40088366 171.76964232 129.24882992 169.29681396 131.66230774 C166.43250882 133.33051373 164.61782512 133.36250769 161.31347656 133.34057617 C159.57831787 133.34003235 159.57831787 133.34003235 157.80810547 133.33947754 C156.59783691 133.32412964 155.38756836 133.30878174 154.140625 133.29296875 C153.02413574 133.28994751 151.90764648 133.28692627 150.75732422 133.28381348 C146.58812207 133.26812171 142.41905172 133.22623776 138.25 133.1875 C128.9275 133.125625 119.605 133.06375 110 133 C110 156.1 110 179.2 110 203 C111.65 203.33 113.3 203.66 115 204 C119.15689415 207.26613112 119.57558858 211.84372832 120.1875 216.875 C120.36035946 220.76975446 120.07227294 223.72523325 117.50292969 226.77978516 C113.20819355 230.5374058 108.35938554 233.48851944 103.49707031 236.45019531 C99.68581044 238.81565069 96.07500004 241.44110912 92.4375 244.0625 C91.02999824 245.05660508 89.62114156 246.04879455 88.2109375 247.0390625 C87.51581055 247.52793945 86.82068359 248.01681641 86.10449219 248.52050781 C84.7014974 249.50683594 83.2985026 250.49316406 81.89550781 251.47949219 C79.78386724 252.96459128 77.67292857 254.45067909 75.5625 255.9375 C74.51219604 256.67734131 74.51219604 256.67734131 73.44067383 257.43212891 C68.30449279 261.05856796 63.2111475 264.7413521 58.125 268.4375 C51.92462292 272.94092468 45.65284301 277.32105077 39.3125 281.625 C32.42456459 286.30127714 25.65910452 291.10388202 18.98046875 296.07421875 C18.38390409 296.50084745 17.78733944 296.92747616 17.17269707 297.367033 C15.45731443 298.65628923 13.80536055 300.02991705 12.18010139 301.43107796 C2.66727972 309.32989844 -4.86003319 310.42763143 -16.95751953 310.19873047 C-18.71663292 310.20246702 -20.47574154 310.21055845 -22.2348175 310.22262573 C-26.96850479 310.24241883 -31.69976107 310.20051602 -36.43309641 310.14566565 C-41.39991613 310.0977133 -46.36669978 310.10389345 -51.33370972 310.10305786 C-59.6607134 310.09383223 -67.98679601 310.0467356 -76.31347656 309.97412109 C-85.93980893 309.89039638 -95.56531545 309.85547411 -105.19199097 309.8488816 C-115.45844531 309.84168795 -125.72460324 309.80397795 -135.9909339 309.75464106 C-138.94559824 309.7421863 -141.90024004 309.7349127 -144.85492325 309.72857285 C-149.48950075 309.71678328 -154.12348754 309.68419194 -158.75781822 309.63536453 C-160.45896402 309.62047374 -162.16018417 309.61233996 -163.86139488 309.61140442 C-166.18075992 309.60889194 -168.49856328 309.58183431 -170.81765747 309.54830933 C-172.76486285 309.53435781 -172.76486285 309.53435781 -174.75140572 309.52012444 C-178.5322499 308.91478278 -179.72511538 308.02116548 -182 305 C-182.51757812 302.80517578 -182.51757812 302.80517578 -182.53125 300.4453125 C-182.53640625 299.58292969 -182.5415625 298.72054688 -182.546875 297.83203125 C-182.53140625 296.93871094 -182.5159375 296.04539062 -182.5 295.125 C-182.52320313 293.79662109 -182.52320313 293.79662109 -182.546875 292.44140625 C-182.50564829 285.5256256 -180.54765298 282.05718357 -176.125 276.75 C-170.2448443 271.90751884 -163.21053568 272.7899844 -156 273 C-156.02618408 272.37544922 -156.05236816 271.75089844 -156.0793457 271.10742188 C-156.18419459 268.23854399 -156.24859894 265.37007041 -156.3125 262.5 C-156.35439453 261.51773437 -156.39628906 260.53546875 -156.43945312 259.5234375 C-156.55340518 252.68631438 -155.45605434 248.27008651 -151 243 C-146.17134315 238.51624721 -142.79596946 237.87330723 -136.3125 237.9375 C-135.13300781 237.94652344 -133.95351562 237.95554688 -132.73828125 237.96484375 C-131.83464844 237.97644531 -130.93101562 237.98804688 -130 238 C-130.01047363 237.20827393 -130.02094727 236.41654785 -130.03173828 235.60083008 C-130.07337846 232.00475249 -130.09935193 228.40872572 -130.125 224.8125 C-130.14175781 223.56662109 -130.15851563 222.32074219 -130.17578125 221.03710938 C-130.18544922 219.2340332 -130.18544922 219.2340332 -130.1953125 217.39453125 C-130.21102295 215.73707886 -130.21102295 215.73707886 -130.22705078 214.04614258 C-129.93726304 210.15831281 -128.98135593 207.29360555 -126.625 204.1875 C-125 203 -125 203 -121 203 C-121 179.9 -121 156.8 -121 133 C-139.5787442 133.11869353 -139.5787442 133.11869353 -158.15722656 133.27026367 C-160.48502186 133.27902487 -162.81282174 133.28666967 -165.140625 133.29296875 C-166.95602783 133.3159906 -166.95602783 133.3159906 -168.80810547 133.33947754 C-170.54326416 133.34002136 -170.54326416 133.34002136 -172.31347656 133.34057617 C-173.31719299 133.34723801 -174.32090942 133.35389984 -175.3550415 133.36076355 C-178.45894552 132.93740136 -179.81244926 132.2257057 -182 130 C-182.59516676 126.6995298 -182.87376872 125.10781103 -182 122 C-180.72900391 120.50927734 -180.72900391 120.50927734 -179.0390625 119.1484375 C-178.40282959 118.63595459 -177.76659668 118.12347168 -177.11108398 117.59545898 C-173.3738903 114.771062 -169.54822375 112.08967557 -165.6875 109.4375 C-159.07693962 104.85534557 -152.50548382 100.2302044 -146 95.5 C-137.20789905 89.11706704 -128.30873972 82.89282803 -119.39892578 76.67578125 C-109.93993337 70.06815619 -100.52883569 63.3979523 -91.1875 56.625 C-82.33019724 50.20434672 -73.37019651 43.93571105 -64.39892578 37.67578125 C-55.62579314 31.54726685 -46.88135285 25.38045326 -38.22143555 19.09277344 C-35.96260976 17.4556982 -33.69662079 15.82894777 -31.4296875 14.203125 C-28.48469925 12.08831099 -25.58096261 9.92931801 -22.6953125 7.734375 C-21.31816402 6.7181322 -19.94057912 5.70248046 -18.5625 4.6875 C-17.96107178 4.21304443 -17.35964355 3.73858887 -16.73999023 3.24975586 C-11.46539259 -0.56425006 -6.3766797 -1.19325369 0 0 Z M-84 133 C-84 156.1 -84 179.2 -84 203 C-82.02 203.99 -80.04 204.98 -78 206 C-76.55037817 208.89924366 -76.77873519 211.52300355 -76.68359375 214.7578125 C-76.64548584 215.97098145 -76.60737793 217.18415039 -76.56811523 218.43408203 C-76.52501221 219.98208496 -76.48190918 221.53008789 -76.4375 223.125 C-76.293125 228.03375 -76.14875 232.9425 -76 238 C-61.48 238 -46.96 238 -32 238 C-31.82966673 228.30742081 -31.82966673 228.30742081 -31.70214844 218.61425781 C-31.6715332 217.40608398 -31.64091797 216.19791016 -31.609375 214.953125 C-31.58842773 213.71723633 -31.56748047 212.48134766 -31.54589844 211.20800781 C-30.90582652 207.44658339 -30.00488283 206.2758472 -27 204 C-26.01 203.67 -25.02 203.34 -24 203 C-24 179.9 -24 156.8 -24 133 C-43.8 133 -63.6 133 -84 133 Z M13 133 C13 156.1 13 179.2 13 203 C14.65 203.66 16.3 204.32 18 205 C21.51700123 208.51700123 21.15774443 212.49168838 21.31640625 217.296875 C21.35451416 218.38323242 21.39262207 219.46958984 21.43188477 220.58886719 C21.47498779 221.96204102 21.51809082 223.33521484 21.5625 224.75 C21.706875 229.1225 21.85125 233.495 22 238 C36.19 238 50.38 238 65 238 C65.17033327 228.30742081 65.17033327 228.30742081 65.29785156 218.61425781 C65.3284668 217.40608398 65.35908203 216.19791016 65.390625 214.953125 C65.41157227 213.71723633 65.43251953 212.48134766 65.45410156 211.20800781 C66.09715563 207.42905861 66.94336561 206.24962893 70 204 C71.98 203.505 71.98 203.505 74 203 C74 179.9 74 156.8 74 133 C53.87 133 33.74 133 13 133 Z " fill="#336C94" transform="translate(182,0)"/>
<path d="M0 0 C3.56855926 1.59780994 6.48807458 3.7910681 9.5625 6.1875 C10.84821899 7.13774048 10.84821899 7.13774048 12.15991211 8.10717773 C13.92948497 9.41680824 15.69133591 10.73693692 17.4453125 12.06738281 C21.27226688 14.96246795 25.16795319 17.75944324 29.0625 20.5625 C29.79194824 21.09238525 30.52139648 21.62227051 31.27294922 22.16821289 C36.67805842 26.08736303 42.16366983 29.87551793 47.6875 33.625 C54.0337224 37.9332679 60.27931769 42.34336798 66.44262695 46.90893555 C73.16252236 51.88113618 80.00207374 56.67995517 86.84277344 61.48388672 C90.39929382 63.98343307 93.94939773 66.49205761 97.5 69 C101.73596723 71.99158195 105.97286618 74.98178834 110.21484375 77.96484375 C118.19841715 83.58301662 126.13761318 89.25669269 134.03857422 94.99047852 C140.63819214 99.76717495 147.31010623 104.4372598 154.01293945 109.06787109 C167.2842473 118.2842473 167.2842473 118.2842473 171 122 C171.46740995 127.79588336 171.46740995 127.79588336 171 130 C167.8164446 133.07249128 165.47540227 133.37549729 161.13098907 133.37752342 C159.32008577 133.38925829 159.32008577 133.38925829 157.47259855 133.40123022 C156.13118577 133.3947439 154.78977434 133.38797393 153.44836426 133.38095093 C152.02470303 133.38440663 150.60104447 133.3891706 149.17739153 133.39513266 C145.26053587 133.4076845 141.34389881 133.40145337 137.42704225 133.39217401 C133.20475912 133.38540092 128.98251423 133.39585608 124.76023865 133.40411377 C116.486933 133.41747194 108.21370888 133.4145641 99.9404 133.40587585 C93.21807743 133.39910789 86.49577776 133.39817873 79.77345276 133.4014473 C78.81764998 133.401907 77.86184721 133.40236669 76.87708071 133.40284032 C74.93554476 133.40379947 72.99400882 133.40477211 71.05247289 133.4057581 C52.8354806 133.4143181 34.61853355 133.4044683 16.40154868 133.388357 C0.76165432 133.37495327 -14.87817325 133.37728119 -30.51806641 133.39111328 C-48.66870807 133.40715833 -66.81931006 133.41349407 -84.96995783 133.40427649 C-86.90445613 133.40332082 -88.83895444 133.4023777 -90.77345276 133.4014473 C-91.725328 133.40098447 -92.67720324 133.40052164 -93.65792319 133.40004479 C-100.37420761 133.39745167 -107.09046691 133.40183282 -113.80674744 133.40888596 C-121.98873881 133.41728922 -130.17064381 133.41504559 -138.35262525 133.39904372 C-142.52929653 133.39114515 -146.70582367 133.38809629 -150.88249397 133.39799118 C-154.70315137 133.40690593 -158.52353051 133.4020588 -162.34416252 133.38605852 C-163.72902814 133.382697 -165.11391708 133.38443545 -166.49876779 133.39168589 C-168.37615887 133.40076389 -170.25361546 133.38968902 -172.13098907 133.37752342 C-173.69750048 133.37679284 -173.69750048 133.37679284 -175.29565859 133.37604749 C-178.40960699 132.94304281 -179.76118857 132.17636389 -182 130 C-183.0625 127.1875 -183.0625 127.1875 -183 124 C-179.32819511 118.7783603 -174.85610282 115.4508063 -169.625 111.875 C-168.89539063 111.36324219 -168.16578125 110.85148437 -167.4140625 110.32421875 C-164.1624694 108.06552283 -160.90907648 105.89947367 -157.44921875 103.97265625 C-153.51309846 101.72153423 -149.87126118 99.19916021 -146.1875 96.5625 C-145.45249268 96.04026855 -144.71748535 95.51803711 -143.96020508 94.97998047 C-137.93079826 90.68777373 -131.93874484 86.34403956 -125.94628906 82.00048828 C-117.83033802 76.13044984 -109.6129332 70.40731153 -101.39892578 64.67578125 C-91.18688104 57.54210782 -81.03913438 50.32495977 -70.95849609 43.00683594 C-65.18786519 38.82883431 -59.35159862 34.7510346 -53.5 30.6875 C-47.77461549 26.7071942 -42.212296 22.66045492 -36.83984375 18.2109375 C-11.23507847 -1.72344647 -11.23507847 -1.72344647 0 0 Z " fill="#F6AC00" transform="translate(341,203)"/>
<path d="M0 0 C0.86454803 -0.01591187 1.72909607 -0.03182373 2.61984253 -0.04821777 C3.55111969 -0.04841919 4.48239685 -0.04862061 5.44189453 -0.04882812 C6.4024173 -0.05644165 7.36294006 -0.06405518 8.35256958 -0.07189941 C10.38508505 -0.08270727 12.41765608 -0.08555075 14.45019531 -0.08105469 C17.5564478 -0.08008383 20.66021855 -0.12166682 23.76611328 -0.16601562 C25.74136855 -0.17122373 27.7166324 -0.1739108 29.69189453 -0.17382812 C30.61912323 -0.19022339 31.54635193 -0.20661865 32.50167847 -0.22351074 C36.88068213 -0.17671927 39.09385945 0.00953983 42.79467773 2.51635742 C45.1599698 6.12143477 45.27925656 8.18109425 45.18798828 12.47070312 C45.17550049 13.67637939 45.1630127 14.88205566 45.15014648 16.12426758 C45.08186646 18.40530396 45.08186646 18.40530396 45.01220703 20.73242188 C44.90908203 25.57929688 44.80595703 30.42617187 44.69970703 35.41992188 C59.21970703 35.41992188 73.73970703 35.41992188 88.69970703 35.41992188 C88.50230825 25.77138238 88.50230825 25.77138238 88.24926758 16.12426758 C88.23677979 14.91859131 88.22429199 13.71291504 88.21142578 12.47070312 C88.1852417 11.24005127 88.15905762 10.00939941 88.13208008 8.74145508 C88.69970703 5.41992187 88.69970703 5.41992187 90.60693359 2.51855469 C94.97626782 -0.44630141 98.5013605 -0.28317424 103.67236328 -0.20898438 C104.63242783 -0.21139633 105.59249237 -0.21380829 106.58164978 -0.21629333 C108.60647726 -0.21531587 110.63133179 -0.20194627 112.65600586 -0.17700195 C115.75547942 -0.14265268 118.85210764 -0.15635834 121.95166016 -0.17578125 C123.92107333 -0.16888374 125.89047916 -0.15921223 127.85986328 -0.14648438 C128.78597916 -0.15144424 129.71209503 -0.15640411 130.66627502 -0.16151428 C137.03526164 -0.04484036 137.03526164 -0.04484036 140.25219727 2.20532227 C142.94627123 6.3270873 142.82029733 9.8547781 142.79736328 14.71679688 C142.79486572 15.8031543 142.79236816 16.88951172 142.78979492 18.00878906 C142.78069092 19.38196289 142.77158691 20.75513672 142.76220703 22.16992188 C142.74158203 26.54242188 142.72095703 30.91492188 142.69970703 35.41992188 C156.88970703 35.41992188 171.07970703 35.41992188 185.69970703 35.41992188 C185.50230825 25.77138238 185.50230825 25.77138238 185.24926758 16.12426758 C185.23677979 14.91859131 185.22429199 13.71291504 185.21142578 12.47070312 C185.1852417 11.24005127 185.15905762 10.00939941 185.13208008 8.74145508 C185.69970703 5.41992188 185.69970703 5.41992188 187.60693359 2.51855469 C191.97626782 -0.44630141 195.5013605 -0.28317424 200.67236328 -0.20898438 C201.63242783 -0.21139633 202.59249237 -0.21380829 203.58164978 -0.21629333 C205.60647726 -0.21531587 207.63133179 -0.20194627 209.65600586 -0.17700195 C212.75547942 -0.14265268 215.85210764 -0.15635834 218.95166016 -0.17578125 C220.92107333 -0.16888374 222.89047916 -0.15921223 224.85986328 -0.14648438 C225.78597916 -0.15144424 226.71209503 -0.15640411 227.66627502 -0.16151428 C234.05831805 -0.04441798 234.05831805 -0.04441798 237.25219727 2.26782227 C240.7431149 7.45797895 241.58780251 14.33155833 240.49365234 20.43310547 C237.93864341 26.8269132 229.78291024 30.46755806 224.19677734 33.87011719 C220.38551748 36.23557257 216.77470708 38.861031 213.13720703 41.48242188 C211.72970528 42.47652695 210.32084859 43.46871643 208.91064453 44.45898438 C208.21551758 44.94786133 207.52039063 45.43673828 206.80419922 45.94042969 C205.40120443 46.92675781 203.99820964 47.91308594 202.59521484 48.89941406 C200.48357427 50.38451316 198.3726356 51.87060097 196.26220703 53.35742188 C195.21190308 54.09726318 195.21190308 54.09726318 194.14038086 54.85205078 C189.00419982 58.47848984 183.91085453 62.16127398 178.82470703 65.85742188 C172.62432995 70.36084656 166.35255005 74.74097264 160.01220703 79.04492188 C153.12427162 83.72119901 146.35881155 88.52380389 139.68017578 93.49414062 C139.08361113 93.92076933 138.48704647 94.34739803 137.8724041 94.78695488 C136.15702146 96.07621111 134.50506758 97.44983892 132.87980843 98.85099983 C123.36698675 106.74982031 115.83967384 107.84755331 103.7421875 107.61865234 C101.98307411 107.62238889 100.22396549 107.63048033 98.46488953 107.64254761 C93.73120224 107.66234071 88.99994596 107.62043789 84.26661062 107.56558752 C79.29979091 107.51763517 74.33300725 107.52381533 69.36599731 107.52297974 C61.03899363 107.51375411 52.71291103 107.46665748 44.38623047 107.39404297 C34.7598981 107.31031826 25.13439158 107.27539599 15.50771606 107.26880348 C5.24126172 107.26160982 -5.02489621 107.22389982 -15.29122686 107.17456293 C-18.24589121 107.16210817 -21.20053301 107.15483457 -24.15521622 107.14849472 C-28.78979372 107.13670516 -33.42378051 107.10411382 -38.05811119 107.05528641 C-39.75925699 107.04039561 -41.46047714 107.03226184 -43.16168785 107.03132629 C-45.48105289 107.02881381 -47.79885625 107.00175618 -50.11795044 106.9682312 C-52.06515582 106.95427968 -52.06515582 106.95427968 -54.05169868 106.94004631 C-57.83254287 106.33470465 -59.02540835 105.44108736 -61.30029297 102.41992188 C-61.81787109 100.22509766 -61.81787109 100.22509766 -61.83154297 97.86523438 C-61.83669922 97.00285156 -61.84185547 96.14046875 -61.84716797 95.25195312 C-61.83169922 94.35863281 -61.81623047 93.4653125 -61.80029297 92.54492188 C-61.81576172 91.65933594 -61.83123047 90.77375 -61.84716797 89.86132812 C-61.80594126 82.94554747 -59.84794595 79.47710545 -55.42529297 74.16992188 C-49.54513727 69.32744071 -42.51082865 70.20990627 -35.30029297 70.41992188 C-35.32647705 69.79537109 -35.35266113 69.17082031 -35.37963867 68.52734375 C-35.48448756 65.65846587 -35.54889191 62.78999229 -35.61279297 59.91992188 C-35.6546875 58.93765625 -35.69658203 57.95539063 -35.73974609 56.94335938 C-35.85369815 50.10623626 -34.75634731 45.69000839 -30.30029297 40.41992188 C-25.47163612 35.93616908 -22.09626243 35.29322911 -15.61279297 35.35742188 C-13.84355469 35.37095703 -13.84355469 35.37095703 -12.03857422 35.38476562 C-11.13494141 35.39636719 -10.23130859 35.40796875 -9.30029297 35.41992188 C-9.31600342 34.23233276 -9.31600342 34.23233276 -9.33203125 33.02075195 C-9.37367143 29.42467437 -9.3996449 25.82864759 -9.42529297 22.23242188 C-9.44205078 20.98654297 -9.45880859 19.74066406 -9.47607422 18.45703125 C-9.48574219 16.65395508 -9.48574219 16.65395508 -9.49560547 14.81445312 C-9.51131592 13.15700073 -9.51131592 13.15700073 -9.52734375 11.46606445 C-9.2404278 7.61676299 -8.43455668 4.82548082 -5.99560547 1.80317688 C-3.86085304 0.06137 -2.73188153 0.03026695 0 0 Z " fill="#346C93" transform="translate(61.30029296875,202.580078125)"/>
<path d="M0 0 C1.3409045 -0.00417597 2.68180546 -0.00965493 4.02269989 -0.01631981 C7.69702179 -0.03075871 11.37111908 -0.02653465 15.04545319 -0.019153 C19.01214009 -0.01441977 22.9787785 -0.02693252 26.94544983 -0.03717041 C34.7123446 -0.05436054 42.47915848 -0.05519801 50.24606734 -0.04995751 C56.55924634 -0.04591509 62.87240144 -0.04736022 69.1855793 -0.05270576 C70.08431349 -0.05345419 70.98304768 -0.05420261 71.90901624 -0.05497371 C73.73482466 -0.0565052 75.56063307 -0.05804354 77.38644148 -0.05958868 C94.50575856 -0.07331441 111.62502993 -0.06787544 128.74434597 -0.05640347 C144.40370222 -0.04647029 160.06294032 -0.05941308 175.72227835 -0.08333766 C191.80488738 -0.10772364 207.88744137 -0.11733781 223.97006851 -0.11068493 C232.99782596 -0.10719169 242.02549254 -0.10943175 251.05323601 -0.12693596 C258.73806267 -0.14165163 266.42273446 -0.14230167 274.10755806 -0.12486505 C278.02758562 -0.11634754 281.94733644 -0.11422365 285.86734962 -0.1295166 C289.45810752 -0.14335152 293.04835128 -0.1386165 296.63907934 -0.11927737 C298.5485662 -0.11373451 300.45807916 -0.12779892 302.36751646 -0.14263147 C309.79037706 -0.07893544 315.85408115 0.44964612 321.42334265 5.90574175 C326.19162418 11.42634673 326.11262852 15.25949545 326.18629456 22.26268005 C326.21529846 23.17404724 326.24430237 24.08541443 326.27418518 25.0243988 C326.28256409 25.90482849 326.29094299 26.78525818 326.29957581 27.69236755 C326.32144958 28.89868835 326.32144958 28.89868835 326.34376526 30.12937927 C325.6851434 33.29418563 324.36847957 34.3701976 321.87379456 36.38768005 C319.16945314 36.88907671 319.16945314 36.88907671 316.00478363 36.89104462 C314.79751476 36.90147561 313.59024589 36.9119066 312.34639311 36.92265368 C311.00497928 36.91400525 309.66356784 36.90497862 308.32215881 36.89561462 C306.89849474 36.90022223 305.47483542 36.90657421 304.05118608 36.9145236 C300.13427399 36.93125963 296.2177505 36.9229514 292.3008368 36.91057873 C288.07854181 36.90154792 283.85631479 36.91548814 279.6340332 36.92649841 C271.36070726 36.94430935 263.08752625 36.94043222 254.81419456 36.92884785 C248.09186669 36.91982391 241.3695795 36.91858502 234.64724731 36.92294312 C233.69144454 36.92355605 232.73564176 36.92416898 231.75087526 36.92480049 C229.80933931 36.92607935 227.86780337 36.92737621 225.92626745 36.92869085 C207.7092615 36.94010419 189.49233599 36.92697113 171.27534324 36.90548939 C155.63543125 36.88761772 139.995638 36.89072162 124.35572815 36.90916443 C106.20507777 36.93055784 88.05449795 36.93900548 69.90383673 36.92671537 C67.96933843 36.92544114 66.03484012 36.92418366 64.1003418 36.92294312 C62.67252893 36.92201746 62.67252893 36.92201746 61.21587136 36.92107311 C54.49957943 36.91761562 47.78333214 36.92345714 41.06704712 36.93286133 C32.88503078 36.94406572 24.70316799 36.94107422 16.5211693 36.91973835 C12.3444604 36.90920683 8.16800774 36.90514166 3.99130058 36.91833496 C0.17056447 36.93022153 -3.64967698 36.92375879 -7.47036797 36.90242475 C-8.8552314 36.89794272 -10.2401363 36.90026075 -11.62497324 36.9099279 C-13.50235187 36.92203182 -15.37984695 36.90726519 -17.25719452 36.89104462 C-18.30153546 36.89039521 -19.3458764 36.8897458 -20.42186403 36.88907671 C-23.84137309 36.25508486 -25.001176 35.08962232 -27.12620544 32.38768005 C-29.22411015 26.09396595 -29.07021145 18.18585882 -26.93870544 11.88768005 C-24.17000463 6.54122331 -21.00931876 3.30402579 -15.39190853 1.00442493 C-10.38875988 -0.35747739 -5.14695042 -0.02497225 0 0 Z " fill="#F7AD00" transform="translate(186.12620544433594,475.61231994628906)"/>
<path d="M0 0 C0.88717386 0.0023747 1.77434772 0.00474941 2.68840563 0.00719607 C5.65491835 0.0175955 8.62113048 0.04246803 11.58755493 0.06729126 C13.71648761 0.07771951 15.84542483 0.08725435 17.97436523 0.09596252 C23.75076231 0.12212314 29.52701616 0.16079027 35.30332518 0.20168638 C41.34111519 0.24231234 47.37896029 0.27145932 53.41680908 0.30181885 C64.84894001 0.36104875 76.28098376 0.4306167 87.71303236 0.50388968 C100.72860083 0.58680945 113.74422445 0.65821836 126.75986552 0.72865558 C153.53275068 0.87380152 180.30553394 1.03341854 207.07827759 1.20254517 C204.27975215 4.02779206 201.59364928 6.72777444 198.35562134 9.04238892 C197.3146228 9.7909314 197.3146228 9.7909314 196.25259399 10.55459595 C195.51444458 11.07779419 194.77629517 11.60099243 194.01577759 12.14004517 C193.24153442 12.69418091 192.46729126 13.24831665 191.66958618 13.81924438 C184.69026525 18.80129008 177.66578693 23.72008134 170.6288147 28.62026978 C169.43204102 29.45376953 169.43204102 29.45376953 168.21109009 30.30410767 C167.50871216 30.79217896 166.80633423 31.28025024 166.08267212 31.78311157 C164.06573095 33.14344445 164.06573095 33.14344445 162.40610504 34.76702976 C159.14046592 36.78087115 156.65200006 36.58313943 152.8286438 36.59022522 C151.73131684 36.59830353 151.73131684 36.59830353 150.61182165 36.60654503 C148.15971414 36.62085641 145.70814404 36.61371329 143.25601196 36.6065979 C141.49838323 36.61229977 139.7407582 36.61926332 137.98313904 36.62739563 C133.20841296 36.64536121 128.43387031 36.64415242 123.65912056 36.63845325 C119.67530218 36.63536668 115.69151931 36.64144782 111.70770597 36.64749199 C102.31150589 36.66154642 92.91539671 36.65996795 83.51919556 36.64859009 C73.81928366 36.63710417 64.1196481 36.65119042 54.41977262 36.67798656 C46.09611164 36.70012159 37.77253754 36.70678602 29.4488492 36.70091015 C24.47550115 36.69753455 19.50233031 36.6999957 14.52900696 36.71716118 C9.85366006 36.73259356 5.17872363 36.72871619 0.50339317 36.70985603 C-1.21391533 36.70616002 -2.93125399 36.70930798 -4.64853477 36.71974182 C-6.99019677 36.73288477 -9.33048639 36.72146551 -11.67208862 36.70375061 C-13.63877628 36.70343668 -13.63877628 36.70343668 -15.64519501 36.70311642 C-19.45501204 36.12107188 -20.6384353 35.24720145 -22.92172241 32.20254517 C-23.43930054 30.00772095 -23.43930054 30.00772095 -23.45297241 27.64785767 C-23.45812866 26.78547485 -23.46328491 25.92309204 -23.46859741 25.03457642 C-23.45312866 24.1412561 -23.43765991 23.24793579 -23.42172241 22.32754517 C-23.43719116 21.44195923 -23.45265991 20.55637329 -23.46859741 19.64395142 C-23.4273707 12.72817076 -21.46937539 9.25972874 -17.04672241 3.95254517 C-11.97868613 -0.22113177 -6.23146352 -0.07357376 0 0 Z " fill="#295473" transform="translate(22.921722412109375,272.7974548339844)"/>
<path d="M0 0 C3.38939556 2.13679285 4.72582557 3.1774767 6 7 C6.09201685 8.94546209 6.12512423 10.89391594 6.12597656 12.84155273 C6.13168671 14.64504433 6.13168671 14.64504433 6.13751221 16.48497009 C6.13853943 17.7880159 6.13956665 19.09106171 6.140625 20.43359375 C6.15256675 22.48706473 6.16793233 24.54049401 6.18333054 26.59394169 C6.22119245 31.65274533 6.25263233 36.71130199 6.25048828 41.77026367 C6.24969341 45.29487139 6.27339622 48.81862126 6.3123703 52.34300423 C6.32770309 54.3167812 6.31756244 56.29070446 6.30670166 58.26451111 C6.44582083 68.69456562 8.80996233 78.69527531 16.20703125 86.47265625 C25.23595145 94.16395865 34.40317397 96.33137966 45.96875 96.1953125 C46.88966431 96.1924826 47.81057861 96.18965271 48.75939941 96.18673706 C51.67307052 96.17562775 54.58642331 96.15054078 57.5 96.125 C59.4869747 96.11495823 61.47395426 96.10583448 63.4609375 96.09765625 C68.30741252 96.07571879 73.15365247 96.04125361 78 96 C77.28972656 95.30132812 76.57945313 94.60265625 75.84765625 93.8828125 C74.92855469 92.97273438 74.00945312 92.06265625 73.0625 91.125 C72.14597656 90.22007812 71.22945313 89.31515625 70.28515625 88.3828125 C67.03249195 84.99114546 66.57773045 82.78259842 66.6640625 78.04296875 C67 76 67 76 69 73 C72.08479227 70.94347182 74.18884664 70.13364944 77.92480469 70.40136719 C80.40815976 71.11774209 81.61284414 72.08434507 83.515625 73.828125 C84.20889893 74.46202148 84.90217285 75.09591797 85.61645508 75.74902344 C86.4030249 76.4918457 87.18959473 77.23466797 88 78 C88.91869873 78.86399414 89.83739746 79.72798828 90.78393555 80.61816406 C93.3412119 83.04194324 95.8642935 85.4985412 98.37524414 87.97021484 C99.42316464 88.99635485 100.47731274 90.01617071 101.53735352 91.02978516 C103.09047908 92.51588134 104.62286967 94.02086783 106.15234375 95.53125 C107.05976318 96.41361328 107.96718262 97.29597656 108.90209961 98.20507812 C111.50867507 101.67768092 112.06391565 103.66198289 112 108 C109.64718407 113.29710768 106.38233626 117.05447733 102.28125 121.08203125 C101.47161804 121.89241096 101.47161804 121.89241096 100.64562988 122.71916199 C99.51295594 123.84951252 98.37662959 124.97621409 97.23681641 126.09936523 C95.49586686 127.81657678 93.76877352 129.54687889 92.04296875 131.27929688 C90.93568766 132.38100474 89.82764098 133.48194379 88.71875 134.58203125 C88.20509888 135.09659378 87.69144775 135.61115631 87.16223145 136.14131165 C83.36491074 139.86435435 80.83948431 141.76588381 75.5625 142.4375 C72 142 72 142 69.0625 140.0625 C66.78937621 136.68725559 65.88957265 134.70971504 66.13305664 130.66430664 C67.34029694 126.95419303 69.78687478 124.79637827 72.5625 122.1953125 C73.08263672 121.69265869 73.60277344 121.19000488 74.13867188 120.67211914 C75.41716221 119.43907972 76.70744688 118.21828987 78 117 C76.92218262 116.98018066 75.84436523 116.96036133 74.73388672 116.93994141 C70.66694976 116.86284606 66.60032331 116.77430617 62.53369141 116.68261719 C60.78635873 116.64475029 59.03895923 116.60983086 57.29150391 116.578125 C37.06202243 116.2067289 18.9521093 115.01331448 3 101 C-10.07585618 87.36630013 -13.47614684 71.80201133 -13.43359375 53.34375 C-13.43817005 51.98425032 -13.44347985 50.62475294 -13.44947815 49.26525879 C-13.45832233 46.44497135 -13.45608029 43.62496854 -13.44604492 40.8046875 C-13.43446038 37.19892331 -13.45495287 33.5941248 -13.48396206 29.98848724 C-13.5023177 27.1934188 -13.5020348 24.39858343 -13.49632454 21.60346985 C-13.49609802 19.63091874 -13.51295327 17.65838936 -13.53013611 15.68591309 C-13.52075516 14.48696411 -13.51137421 13.28801514 -13.50170898 12.05273438 C-13.50154282 11.00162476 -13.50137665 9.95051514 -13.50120544 8.86755371 C-12.87408053 5.27957518 -11.49546456 3.60340633 -9 1 C-5.89951072 -0.55024464 -3.42105782 -0.28992015 0 0 Z " fill="#484F5A" transform="translate(30,344)"/>
<path d="M0 0 C1.29927933 -0.01283524 2.59855865 -0.02567047 3.93721008 -0.03889465 C5.36593238 -0.04706902 6.79465902 -0.05451141 8.22338867 -0.0612793 C8.94451025 -0.06535482 9.66563183 -0.06943035 10.40860558 -0.07362938 C14.23610523 -0.09451487 18.06356893 -0.10879767 21.89111328 -0.11816406 C25.81354595 -0.12914704 29.73539844 -0.16344347 33.65762806 -0.20333576 C36.69747333 -0.22972552 39.73718616 -0.23787616 42.77713585 -0.24144554 C44.22058656 -0.24626553 45.66403324 -0.25774553 47.10737038 -0.27648354 C63.910011 -0.48080643 77.29951345 3.82759262 89.64135742 15.48950195 C101.22670951 27.73687416 104.82570534 42.3720435 105.14526367 58.8293457 C105.16604477 59.72947891 105.18682587 60.62961212 105.20823669 61.55702209 C105.27319579 64.40944382 105.3323657 67.26195121 105.39135742 70.11450195 C105.43459376 72.0578699 105.47820961 74.00122944 105.5222168 75.94458008 C105.62882157 80.68863474 105.73023737 85.43277486 105.82885742 90.17700195 C106.43213867 89.55051758 107.03541992 88.9240332 107.65698242 88.27856445 C108.45620117 87.46129883 109.25541992 86.6440332 110.07885742 85.80200195 C110.86776367 84.98989258 111.65666992 84.1777832 112.46948242 83.34106445 C115.54631515 80.51893642 117.63744851 79.32909671 121.76635742 78.80200195 C125.56568172 79.26722534 127.11524176 80.54091817 129.82885742 83.17700195 C131.45909556 86.43747824 131.29621092 88.5550123 130.82885742 92.17700195 C126.17294134 99.00717521 119.4357939 104.72437788 113.58398438 110.55224609 C111.99839946 112.13239839 110.418323 113.71792171 108.83862305 115.30395508 C107.8291785 116.31274001 106.81942443 117.32121534 105.80932617 118.3293457 C104.90077881 119.23676514 103.99223145 120.14418457 103.05615234 121.07910156 C99.82874498 124.11901294 97.4859379 124.68104576 93.0090332 124.60836792 C88.76929168 123.76949969 86.20124292 120.70722018 83.26635742 117.7121582 C82.58959961 117.04542587 81.9128418 116.37869354 81.21557617 115.6917572 C79.79403204 114.28001292 78.3825556 112.85806724 76.98071289 111.42675781 C74.83664175 109.24741435 72.65110676 107.11716342 70.45776367 104.98754883 C69.07872265 103.60681545 67.70232677 102.22343406 66.32885742 100.8371582 C65.6758667 100.20552261 65.02287598 99.57388702 64.35009766 98.92311096 C61.08569874 95.52073338 59.41696263 93.19703054 59.25854492 88.38964844 C59.38747126 85.04895983 59.99971091 83.40577533 62.45385742 81.11450195 C67.59773822 78.16153335 67.59773822 78.16153335 71.82885742 79.17700195 C76.66097575 82.59856109 80.65685019 87.00413637 84.82885742 91.17700195 C84.92847529 85.11218946 85.00067749 79.0478637 85.04858398 72.98242188 C85.06857588 70.92341809 85.0957787 68.86447019 85.13061523 66.80566406 C85.50087729 47.11283461 85.50087729 47.11283461 76.57885742 29.95825195 C68.72129761 21.96037857 59.05860426 19.12425061 48.04394531 18.80810547 C45.54650857 18.79386904 43.0489614 18.79374988 40.55151367 18.8059082 C39.20917228 18.7991981 37.8668391 18.79061213 36.52452087 18.78025818 C30.87915035 18.74053474 25.23386624 18.7389685 19.58837891 18.74121094 C16.11308568 18.74126203 12.63829929 18.72212058 9.16314507 18.69187737 C7.20889047 18.68108697 5.25455262 18.69320271 3.30030823 18.70570374 C2.11484909 18.69566818 0.92938995 18.68563263 -0.29199219 18.67529297 C-1.33358994 18.67545914 -2.37518768 18.67562531 -3.448349 18.67579651 C-6.86328994 18.05020595 -8.01676406 16.83825199 -10.17114258 14.17700195 C-11.58114921 11.35698868 -11.41662708 9.3069294 -11.17114258 6.17700195 C-8.31410597 0.33306344 -6.27599422 0.05388314 0 0 Z " fill="#484F5A" transform="translate(346.171142578125,43.822998046875)"/>
<path d="M0 0 C0.75728394 0.00202423 1.51456787 0.00404846 2.2947998 0.00613403 C3.06787476 0.00517731 3.84094971 0.00422058 4.63745117 0.00323486 C6.27502524 0.00255313 7.91260199 0.00440697 9.5501709 0.00857544 C12.06536901 0.01392382 14.58038854 0.00863027 17.09558105 0.00222778 C18.68282103 0.00288857 20.2700609 0.00416973 21.8572998 0.00613403 C22.99322571 0.00309769 22.99322571 0.00309769 24.15209961 0 C29.46109849 0.02399522 29.46109849 0.02399522 30.5760498 1.13894653 C30.67034323 3.31700372 30.69347518 5.49815933 30.6895752 7.67825317 C30.68972122 8.36114914 30.68986725 9.0440451 30.6900177 9.74763489 C30.68931857 12.01482268 30.68152621 14.28192927 30.67370605 16.54910278 C30.67184187 18.1170904 30.67041797 19.68507861 30.66941833 21.25306702 C30.66559315 25.38771156 30.65576286 29.52232119 30.64471436 33.6569519 C30.63270563 38.6137037 30.628098 43.57046714 30.62226105 48.52722931 C30.6125511 56.0644927 30.59339458 63.60167942 30.5760498 71.13894653 C18.3660498 71.13894653 6.1560498 71.13894653 -6.4239502 71.13894653 C-6.464059 53.70944061 -6.464059 53.70944061 -6.47277832 46.30496216 C-6.4787663 41.24383502 -6.4858654 36.18272589 -6.49938965 31.12161255 C-6.51022011 27.0432611 -6.51622736 22.96492897 -6.51882744 18.88656425 C-6.5206814 17.32717014 -6.52430147 15.76777713 -6.52968025 14.20839119 C-6.53689281 12.03165491 -6.53794105 9.85499939 -6.53747559 7.67825317 C-6.5396962 6.4369313 -6.54191681 5.19560944 -6.54420471 3.91667175 C-6.33464834 -0.92381184 -4.33113247 0.01957553 0 0 Z " fill="#CED1DA" transform="translate(420.4239501953125,334.8610534667969)"/>
<path d="M0 0 C0.75728394 0.00202423 1.51456787 0.00404846 2.2947998 0.00613403 C3.06787476 0.00517731 3.84094971 0.00422058 4.63745117 0.00323486 C6.27502524 0.00255313 7.91260199 0.00440697 9.5501709 0.00857544 C12.06536901 0.01392382 14.58038854 0.00863027 17.09558105 0.00222778 C18.68282103 0.00288857 20.2700609 0.00416973 21.8572998 0.00613403 C22.99322571 0.00309769 22.99322571 0.00309769 24.15209961 0 C29.46109849 0.02399522 29.46109849 0.02399522 30.5760498 1.13894653 C30.67034323 3.31700372 30.69347518 5.49815933 30.6895752 7.67825317 C30.68972122 8.36114914 30.68986725 9.0440451 30.6900177 9.74763489 C30.68931857 12.01482268 30.68152621 14.28192927 30.67370605 16.54910278 C30.67184187 18.1170904 30.67041797 19.68507861 30.66941833 21.25306702 C30.66559315 25.38771156 30.65576286 29.52232119 30.64471436 33.6569519 C30.63270563 38.6137037 30.628098 43.57046714 30.62226105 48.52722931 C30.6125511 56.0644927 30.59339458 63.60167942 30.5760498 71.13894653 C18.3660498 71.13894653 6.1560498 71.13894653 -6.4239502 71.13894653 C-6.464059 53.70944061 -6.464059 53.70944061 -6.47277832 46.30496216 C-6.4787663 41.24383502 -6.4858654 36.18272589 -6.49938965 31.12161255 C-6.51022011 27.0432611 -6.51622736 22.96492897 -6.51882744 18.88656425 C-6.5206814 17.32717014 -6.52430147 15.76777713 -6.52968025 14.20839119 C-6.53689281 12.03165491 -6.53794105 9.85499939 -6.53747559 7.67825317 C-6.5396962 6.4369313 -6.54191681 5.19560944 -6.54420471 3.91667175 C-6.33464834 -0.92381184 -4.33113247 0.01957553 0 0 Z " fill="#CED1DA" transform="translate(323.4239501953125,334.8610534667969)"/>
<path d="M0 0 C0.75728394 0.00202423 1.51456787 0.00404846 2.2947998 0.00613403 C3.06787476 0.00517731 3.84094971 0.00422058 4.63745117 0.00323486 C6.27502524 0.00255313 7.91260199 0.00440697 9.5501709 0.00857544 C12.06536901 0.01392382 14.58038854 0.00863027 17.09558105 0.00222778 C18.68282103 0.00288857 20.2700609 0.00416973 21.8572998 0.00613403 C22.99322571 0.00309769 22.99322571 0.00309769 24.15209961 0 C29.46109849 0.02399522 29.46109849 0.02399522 30.5760498 1.13894653 C30.67034323 3.31700372 30.69347518 5.49815933 30.6895752 7.67825317 C30.68972122 8.36114914 30.68986725 9.0440451 30.6900177 9.74763489 C30.68931857 12.01482268 30.68152621 14.28192927 30.67370605 16.54910278 C30.67184187 18.1170904 30.67041797 19.68507861 30.66941833 21.25306702 C30.66559315 25.38771156 30.65576286 29.52232119 30.64471436 33.6569519 C30.63270563 38.6137037 30.628098 43.57046714 30.62226105 48.52722931 C30.6125511 56.0644927 30.59339458 63.60167942 30.5760498 71.13894653 C18.3660498 71.13894653 6.1560498 71.13894653 -6.4239502 71.13894653 C-6.464059 53.70944061 -6.464059 53.70944061 -6.47277832 46.30496216 C-6.4787663 41.24383502 -6.4858654 36.18272589 -6.49938965 31.12161255 C-6.51022011 27.0432611 -6.51622736 22.96492897 -6.51882744 18.88656425 C-6.5206814 17.32717014 -6.52430147 15.76777713 -6.52968025 14.20839119 C-6.53689281 12.03165491 -6.53794105 9.85499939 -6.53747559 7.67825317 C-6.5396962 6.4369313 -6.54191681 5.19560944 -6.54420471 3.91667175 C-6.33464834 -0.92381184 -4.33113247 0.01957553 0 0 Z " fill="#CDD1DB" transform="translate(164.4239501953125,131.86105346679688)"/>
<path d="M0 0 C0.75728394 0.00202423 1.51456787 0.00404846 2.2947998 0.00613403 C3.06787476 0.00517731 3.84094971 0.00422058 4.63745117 0.00323486 C6.27502524 0.00255313 7.91260199 0.00440697 9.5501709 0.00857544 C12.06536901 0.01392382 14.58038854 0.00863027 17.09558105 0.00222778 C18.68282103 0.00288857 20.2700609 0.00416973 21.8572998 0.00613403 C22.99322571 0.00309769 22.99322571 0.00309769 24.15209961 0 C29.46109849 0.02399522 29.46109849 0.02399522 30.5760498 1.13894653 C30.67034323 3.31700372 30.69347518 5.49815933 30.6895752 7.67825317 C30.68972122 8.36114914 30.68986725 9.0440451 30.6900177 9.74763489 C30.68931857 12.01482268 30.68152621 14.28192927 30.67370605 16.54910278 C30.67184187 18.1170904 30.67041797 19.68507861 30.66941833 21.25306702 C30.66559315 25.38771156 30.65576286 29.52232119 30.64471436 33.6569519 C30.63270563 38.6137037 30.628098 43.57046714 30.62226105 48.52722931 C30.6125511 56.0644927 30.59339458 63.60167942 30.5760498 71.13894653 C18.3660498 71.13894653 6.1560498 71.13894653 -6.4239502 71.13894653 C-6.464059 53.70944061 -6.464059 53.70944061 -6.47277832 46.30496216 C-6.4787663 41.24383502 -6.4858654 36.18272589 -6.49938965 31.12161255 C-6.51022011 27.0432611 -6.51622736 22.96492897 -6.51882744 18.88656425 C-6.5206814 17.32717014 -6.52430147 15.76777713 -6.52968025 14.20839119 C-6.53689281 12.03165491 -6.53794105 9.85499939 -6.53747559 7.67825317 C-6.5396962 6.4369313 -6.54191681 5.19560944 -6.54420471 3.91667175 C-6.33464834 -0.92381184 -4.33113247 0.01957553 0 0 Z " fill="#CDD1DB" transform="translate(67.4239501953125,131.86105346679688)"/>
<path d="M0 0 C11.88 0 23.76 0 36 0 C36 23.43 36 46.86 36 71 C24.12 71 12.24 71 0 71 C0 47.57 0 24.14 0 0 Z " fill="#CDD1DB" transform="translate(256,132)"/>
<path d="M0 0 C11.55 0 23.1 0 35 0 C35 23.43 35 46.86 35 71 C23.12 71 11.24 71 -1 71 C-1.04010881 53.57049408 -1.04010881 53.57049408 -1.04882812 46.16601562 C-1.05481611 41.10488848 -1.06191521 36.04377936 -1.07543945 30.98266602 C-1.08626991 26.90431457 -1.09227717 22.82598243 -1.09487724 18.74761772 C-1.09673121 17.18822361 -1.10035127 15.6288306 -1.10573006 14.06944466 C-1.11294262 11.89270838 -1.11399085 9.71605286 -1.11352539 7.53930664 C-1.115746 6.29798477 -1.11796661 5.0566629 -1.12025452 3.77772522 C-1 1 -1 1 0 0 Z " fill="#CED1DA" transform="translate(221,335)"/>
<path d="M0 0 C1.29693535 -0.02398109 1.29693535 -0.02398109 2.62007141 -0.04844666 C3.55650986 -0.05380936 4.4929483 -0.05917206 5.45776367 -0.06469727 C6.41970139 -0.07372574 7.3816391 -0.08275421 8.37272644 -0.09205627 C10.41121294 -0.1065826 12.44974633 -0.1154514 14.48828125 -0.11914062 C17.6032618 -0.13101784 20.71624957 -0.18016384 23.83081055 -0.23071289 C25.81061858 -0.24017904 27.79043879 -0.24741316 29.77026367 -0.25219727 C31.1658123 -0.28149574 31.1658123 -0.28149574 32.58955383 -0.31138611 C36.98039333 -0.28085535 39.19747025 -0.10996864 42.91040039 2.40063477 C45.27202739 6.00700949 45.39276539 8.06834714 45.30151367 12.35717773 C45.28902588 13.562854 45.27653809 14.76853027 45.26367188 16.01074219 C45.21815186 17.53143311 45.17263184 19.05212402 45.12573242 20.61889648 C45.02260742 25.46577148 44.91948242 30.31264648 44.81323242 35.30639648 C26.99323242 35.30639648 9.17323242 35.30639648 -9.18676758 35.30639648 C-9.24864258 30.78952148 -9.31051758 26.27264648 -9.37426758 21.61889648 C-9.40157959 20.20261963 -9.4288916 18.78634277 -9.45703125 17.32714844 C-9.46452393 16.20268311 -9.4720166 15.07821777 -9.47973633 13.91967773 C-9.49544678 12.77281494 -9.51115723 11.62595215 -9.52734375 10.44433594 C-8.88885608 4.56155317 -6.12676239 0.08553301 0 0 Z " fill="#F6AD00" transform="translate(220.186767578125,405.693603515625)"/>
<path d="M0 0 C0.96006454 -0.00241196 1.92012909 -0.00482391 2.9092865 -0.00730896 C4.93411398 -0.00633149 6.95896851 0.0070381 8.98364258 0.03198242 C12.08311614 0.06633169 15.17974436 0.05262604 18.27929688 0.03320312 C20.24871005 0.04010063 22.21811587 0.04977215 24.1875 0.0625 C25.11361588 0.05754013 26.03973175 0.05258026 26.99391174 0.04747009 C33.36289836 0.16414402 33.36289836 0.16414402 36.57983398 2.41430664 C42.51592752 11.49615931 39.02734375 27.81262405 39.02734375 35.62890625 C21.20734375 35.62890625 3.38734375 35.62890625 -14.97265625 35.62890625 C-15.07578125 30.78203125 -15.17890625 25.93515625 -15.28515625 20.94140625 C-15.33067627 19.42071533 -15.37619629 17.90002441 -15.4230957 16.33325195 C-15.4355835 15.12757568 -15.44807129 13.92189941 -15.4609375 12.6796875 C-15.48712158 11.44903564 -15.51330566 10.21838379 -15.5402832 8.95043945 C-14.97265625 5.62890625 -14.97265625 5.62890625 -13.06542969 2.72753906 C-8.69609546 -0.23731703 -5.17100278 -0.07418987 0 0 Z " fill="#285474" transform="translate(164.97265625,202.37109375)"/>
<path d="M0 0 C0.86454803 -0.01591187 1.72909607 -0.03182373 2.61984253 -0.04821777 C3.55111969 -0.04841919 4.48239685 -0.04862061 5.44189453 -0.04882812 C6.4024173 -0.05644165 7.36294006 -0.06405518 8.35256958 -0.07189941 C10.38508505 -0.08270727 12.41765608 -0.08555075 14.45019531 -0.08105469 C17.5564478 -0.08008383 20.66021855 -0.12166682 23.76611328 -0.16601562 C25.74136855 -0.17122373 27.7166324 -0.1739108 29.69189453 -0.17382812 C30.61912323 -0.19022339 31.54635193 -0.20661865 32.50167847 -0.22351074 C36.88068213 -0.17671927 39.09385945 0.00953983 42.79467773 2.51635742 C45.1599698 6.12143477 45.27925656 8.18109425 45.18798828 12.47070312 C45.17550049 13.67637939 45.1630127 14.88205566 45.15014648 16.12426758 C45.10462646 17.6449585 45.05910645 19.16564941 45.01220703 20.73242188 C44.90908203 25.57929688 44.80595703 30.42617187 44.69970703 35.41992188 C26.87970703 35.41992188 9.05970703 35.41992188 -9.30029297 35.41992188 C-9.30029297 6.05406602 -9.30029297 6.05406602 -5.94406128 1.63366699 C-3.84316228 0.0823803 -2.59832939 0.0287873 0 0 Z " fill="#285474" transform="translate(61.30029296875,202.580078125)"/>
<path d="M0 0 C0.93549683 -0.00241196 1.87099365 -0.00482391 2.83483887 -0.00730896 C4.80839283 -0.00633153 6.78197455 0.00703735 8.75537109 0.03198242 C11.77145787 0.06629485 14.78461412 0.05263529 17.80078125 0.03320312 C19.7213666 0.04010184 21.64194441 0.04977445 23.5625 0.0625 C24.91112122 0.0550602 24.91112122 0.0550602 26.2869873 0.04747009 C30.38360018 0.12430235 32.73170011 0.30667579 36.32617188 2.41430664 C43.43001263 10.46112726 39.28125 29.22519428 39.28125 35.62890625 C21.46125 35.62890625 3.64125 35.62890625 -14.71875 35.62890625 C-14.821875 30.78203125 -14.925 25.93515625 -15.03125 20.94140625 C-15.07677002 19.42071533 -15.12229004 17.90002441 -15.16918945 16.33325195 C-15.18167725 15.12757568 -15.19416504 13.92189941 -15.20703125 12.6796875 C-15.23321533 11.44903564 -15.25939941 10.21838379 -15.28637695 8.95043945 C-14.71875 5.62890625 -14.71875 5.62890625 -12.7956543 2.72753906 C-8.49385957 -0.20654231 -5.09823273 -0.0751806 0 0 Z " fill="#F7AC00" transform="translate(420.71875,405.37109375)"/>
<path d="M0 0 C0.93691177 -0.00761353 1.87382355 -0.01522705 2.83912659 -0.02307129 C4.81858661 -0.033866 6.79810356 -0.03672795 8.77758789 -0.03222656 C11.80256335 -0.03125445 14.82500024 -0.0728781 17.84960938 -0.1171875 C19.7747343 -0.12239484 21.69986803 -0.12508269 23.625 -0.125 C24.52721786 -0.14139526 25.42943573 -0.15779053 26.35899353 -0.17468262 C30.67873737 -0.12725831 32.80949345 0.08105988 36.45800781 2.56518555 C38.84339947 6.17086208 38.95868193 8.21929289 38.8671875 12.51953125 C38.85469971 13.72520752 38.84221191 14.93088379 38.8293457 16.1730957 C38.78382568 17.69378662 38.73830566 19.21447754 38.69140625 20.78125 C38.58828125 25.628125 38.48515625 30.475 38.37890625 35.46875 C20.55890625 35.46875 2.73890625 35.46875 -15.62109375 35.46875 C-15.62109375 5.80940054 -15.62109375 5.80940054 -12.09741211 1.68554688 C-8.17837525 -0.24016344 -4.31046246 0.00096014 0 0 Z " fill="#F7AC00" transform="translate(323.62109375,405.53125)"/>
<path d="M0 0 C0.96006454 -0.00241196 1.92012909 -0.00482391 2.9092865 -0.00730896 C4.93411398 -0.00633149 6.95896851 0.0070381 8.98364258 0.03198242 C12.08311614 0.06633169 15.17974436 0.05262604 18.27929688 0.03320312 C20.24871005 0.04010063 22.21811587 0.04977215 24.1875 0.0625 C25.11361588 0.05754013 26.03973175 0.05258026 26.99391174 0.04747009 C33.38595476 0.16456639 33.38595476 0.16456639 36.57983398 2.47680664 C40.09224812 7.69892345 40.86591616 14.46961381 39.73779297 20.58935547 C37.67764284 26.50361463 32.6462872 30.17415248 27.42578125 33.26171875 C14.81631992 39.0047667 -1.49774035 36.54968127 -14.97265625 35.62890625 C-15.09668746 31.44810024 -15.18719226 27.26828123 -15.24731445 23.08618164 C-15.27238772 21.66509334 -15.30645624 20.24413312 -15.34985352 18.82348633 C-15.41083483 16.77523163 -15.43893387 14.72868742 -15.4609375 12.6796875 C-15.48712158 11.44903564 -15.51330566 10.21838379 -15.5402832 8.95043945 C-14.97265625 5.62890625 -14.97265625 5.62890625 -13.06542969 2.72753906 C-8.69609546 -0.23731703 -5.17100278 -0.07418987 0 0 Z " fill="#295473" transform="translate(261.97265625,202.37109375)"/>
</svg>
