<svg width="64" height="64" viewBox="0 0 64 64" fill="none" xmlns="http://www.w3.org/2000/svg">
<g clip-path="url(#clip0_6_225)">
<path d="M45.3334 2.91241V61.0875C56.4564 55.9828 64.1322 44.6999 63.9992 31.671C63.8686 18.8748 56.2398 7.91981 45.3334 2.91241Z" fill="#191977" style="fill:#191977;fill:color(display-p3 0.0980 0.0980 0.4667);fill-opacity:1;"/>
<path d="M18.6672 2.91479C7.65369 7.97119 0.000793457 19.0874 0.000793457 32C0.000793457 44.9126 7.6537 56.0288 18.6671 61.0852L18.6672 2.91479Z" fill="#191977" style="fill:#191977;fill:color(display-p3 0.0980 0.0980 0.4667);fill-opacity:1;"/>
<path d="M45.3334 2.9114C41.2734 1.0472 36.7604 0 32.0003 0C27.2402 0 22.7272 1.0472 18.6672 2.9114V61.0886C22.7272 62.9528 27.2402 64 32.0003 64C36.7604 64 41.2734 62.9528 45.3334 61.0886V2.9114Z" fill="#FFD400" style="fill:#FFD400;fill:color(display-p3 1.0000 0.8314 0.0000);fill-opacity:1;"/>
<path d="M42.6669 23L38.0003 27.6667H40.0003L37.3336 37.6667L33.3336 37.5641V25.6667H36.0003L32.0003 19L28.0003 25.6667H30.6669V37.5641L26.6669 37.6667L24.0003 27.6667H26.0003L21.3336 23H20.0003L25.3336 40.3333L30.6669 39.5128V45H33.3336V39.5128L38.6669 40.3333L44.0003 23H42.6669Z" fill="black" style="fill:black;fill-opacity:1;"/>
</g>
<defs>
<clipPath id="clip0_6_225">
<rect width="64" height="64" fill="white" style="fill:white;fill-opacity:1;"/>
</clipPath>
</defs>
</svg>
