<svg width="64" height="64" viewBox="0 0 64 64" fill="none" xmlns="http://www.w3.org/2000/svg">
<g clip-path="url(#clip0_6_241)">
<path d="M32 0C29.0868 0 26.2675 0.3966 23.5853 1.126L33.3333 6L21.3333 12L33.3333 18.6667L21.3333 25.3334L33.3333 32.0001L21.3333 38.6668L33.3333 45.3335L21.3333 52.0002L33.3333 58.0002L23.5853 62.8742C26.2675 63.6036 29.0868 64.0002 32 64.0002C49.6731 64.0002 64 49.6733 64 32.0002C64 14.3271 49.6731 0 32 0Z" fill="#F0263C" style="fill:#F0263C;fill:color(display-p3 0.9412 0.1490 0.2353);fill-opacity:1;"/>
<path d="M33.3333 58L21.3333 52L33.3333 45.3333L21.3333 38.6666L33.3333 31.9999L21.3333 25.3332L33.3333 18.6665L21.3333 11.9998L33.3333 5.99981L23.5853 1.12601C9.9959 4.82151 0 17.2401 0 32C0 46.7599 9.9959 59.1785 23.5853 62.874L33.3333 58Z" fill="white" style="fill:white;fill-opacity:1;"/>
</g>
<defs>
<clipPath id="clip0_6_241">
<rect width="64" height="64" fill="white" style="fill:white;fill-opacity:1;"/>
</clipPath>
</defs>
</svg>
