<svg width="64" height="64" viewBox="0 0 64 64" fill="none" xmlns="http://www.w3.org/2000/svg">
<g clip-path="url(#clip0_6_327)">
<path d="M45.1337 22.8663C46.9386 25.4566 48 28.6036 48 32C48 35.3964 46.9386 38.5434 45.1337 41.1337L56.5359 52.5359C61.1926 46.9781 63.9999 39.818 63.9999 31.9999C63.9999 24.1818 61.1926 17.0218 56.5359 11.4639L45.1337 22.8663Z" fill="#619B27" style="fill:#619B27;fill:color(display-p3 0.3804 0.6078 0.1529);fill-opacity:1;"/>
<path d="M18.8663 41.1337C17.0614 38.5434 16 35.3964 16 32C16 28.6036 17.0614 25.4566 18.8663 22.8663L7.464 11.464C2.8073 17.0219 0 24.1819 0 32C0 39.8181 2.8073 46.9781 7.464 52.536L18.8663 41.1337Z" fill="#619B27" style="fill:#619B27;fill:color(display-p3 0.3804 0.6078 0.1529);fill-opacity:1;"/>
<path d="M22.8663 18.8663C25.4566 17.0614 28.6036 16 32 16C35.3964 16 38.5434 17.0614 41.1337 18.8663L52.5359 7.4641C46.9781 2.8073 39.8181 0 32 0C24.1819 0 17.0219 2.8073 11.464 7.464L22.8663 18.8663Z" fill="#F0263C" style="fill:#F0263C;fill:color(display-p3 0.9412 0.1490 0.2353);fill-opacity:1;"/>
<path d="M41.1337 45.1337C38.5434 46.9386 35.3964 48 32 48C28.6036 48 25.4566 46.9386 22.8663 45.1337L11.4641 56.5359C17.0219 61.1926 24.182 63.9999 32.0001 63.9999C39.8182 63.9999 46.9782 61.1926 52.5361 56.5359L41.1337 45.1337Z" fill="#F0263C" style="fill:#F0263C;fill:color(display-p3 0.9412 0.1490 0.2353);fill-opacity:1;"/>
<path d="M48 32C48 28.6035 46.9386 25.4566 45.1338 22.8663L56.536 11.4641C55.3227 10.0161 53.9841 8.67739 52.536 7.46409L41.1338 18.8663C38.5435 17.0614 35.3965 16 32 16C28.6035 16 25.4565 17.0614 22.8662 18.8663L11.464 7.46399C10.0159 8.67729 8.67729 10.016 7.46399 11.464L18.8662 22.8662C17.0613 25.4565 16 28.6035 16 31.9999C16 35.3963 17.0614 38.5433 18.8662 41.1336L7.46399 52.5358C8.67729 53.9839 10.0159 55.3225 11.464 56.5358L22.8662 45.1336C25.4565 46.9385 28.6035 47.9999 32 47.9999C35.3965 47.9999 38.5435 46.9385 41.1338 45.1336L52.536 56.5358C53.9841 55.3225 55.3227 53.9839 56.536 52.5358L45.1338 41.1336C46.9387 38.5433 48 35.3964 48 32Z" fill="white" style="fill:white;fill-opacity:1;"/>
<path d="M34.6666 24L32 21.3333L29.3334 24L32 26.6666L34.6666 24Z" fill="#F0263C" style="fill:#F0263C;fill:color(display-p3 0.9412 0.1490 0.2353);fill-opacity:1;"/>
<path d="M32 21.3333L34.6667 24L32 26.6667L29.3333 24L32 21.3333ZM28 24L32 28L36 24L32 20L28 24Z" fill="#619B27" style="fill:#619B27;fill:color(display-p3 0.3804 0.6078 0.1529);fill-opacity:1;"/>
<path d="M41.3334 37.3332L38.6667 34.6666L36.0001 37.3332L38.6668 39.9999L41.3334 37.3332Z" fill="#F0263C" style="fill:#F0263C;fill:color(display-p3 0.9412 0.1490 0.2353);fill-opacity:1;"/>
<path d="M38.6667 34.6667L41.3335 37.3334L38.6667 40.0001L36 37.3334L38.6667 34.6667ZM34.6667 37.3334L38.6667 41.3334L42.6667 37.3334L38.6667 33.3334L34.6667 37.3334Z" fill="#619B27" style="fill:#619B27;fill:color(display-p3 0.3804 0.6078 0.1529);fill-opacity:1;"/>
<path d="M27.9999 37.3333L25.3333 34.6666L22.6666 37.3333L25.3333 39.9999L27.9999 37.3333Z" fill="#F0263C" style="fill:#F0263C;fill:color(display-p3 0.9412 0.1490 0.2353);fill-opacity:1;"/>
<path d="M25.3333 34.6667L28 37.3334L25.3333 40.0001L22.6666 37.3334L25.3333 34.6667ZM21.3333 37.3334L25.3333 41.3334L29.3333 37.3334L25.3333 33.3334L21.3333 37.3334Z" fill="#619B27" style="fill:#619B27;fill:color(display-p3 0.3804 0.6078 0.1529);fill-opacity:1;"/>
</g>
<defs>
<clipPath id="clip0_6_327">
<rect width="64" height="64" fill="white" style="fill:white;fill-opacity:1;"/>
</clipPath>
</defs>
</svg>
