<?xml version="1.0" encoding="UTF-8"?>
<svg version="1.1" xmlns="http://www.w3.org/2000/svg" width="549" height="549">
<path d="M0 0 C0.83789892 -0.00265183 1.67579783 -0.00530365 2.53908762 -0.00803584 C5.37144429 -0.01574879 8.20375775 -0.01628877 11.03612423 -0.01688576 C13.0774883 -0.02089907 15.11885158 -0.02533707 17.16021389 -0.03016531 C22.78930973 -0.04215138 28.418397 -0.04778397 34.04750311 -0.05234647 C40.11109871 -0.05829488 46.17468401 -0.06990664 52.23827267 -0.08063698 C66.19918661 -0.10401837 80.16010215 -0.11857092 94.1210291 -0.13086639 C98.95120337 -0.13512073 103.78137726 -0.13968645 108.61155105 -0.14444971 C134.29168214 -0.16971039 159.97181387 -0.19175939 185.65195465 -0.20417786 C191.60251588 -0.20709921 197.55307709 -0.21006672 203.50363827 -0.21308327 C204.24292399 -0.21345418 204.98220972 -0.21382509 205.74389804 -0.21420723 C229.71088456 -0.22636153 253.67779762 -0.25730319 277.64474965 -0.29900479 C302.28243522 -0.34179526 326.920082 -0.36841925 351.55780573 -0.37365257 C355.03798439 -0.37439301 358.51816298 -0.3753037 361.99834156 -0.37631035 C363.02573492 -0.37659627 363.02573492 -0.37659627 364.0738837 -0.37688797 C375.09495759 -0.380401 386.11593946 -0.40069645 397.13697956 -0.42710699 C408.21677524 -0.45325778 419.29648793 -0.46056221 430.37631608 -0.4500057 C436.37855215 -0.44481243 442.38049573 -0.44774972 448.38268948 -0.47247124 C453.87839723 -0.49491788 459.37360158 -0.49425909 464.86931788 -0.47526737 C466.85661387 -0.47246096 468.84394366 -0.47810132 470.83118517 -0.4930803 C482.62893749 -0.57656348 491.32882449 -0.30173505 500.78757381 7.51201439 C506.10029218 14.07478413 508.06275091 19.7847777 508.04679489 28.19599915 C508.04914712 29.03082091 508.05149935 29.86564268 508.05392286 30.72576207 C508.06062616 33.54764298 508.06015424 36.36947798 508.05974483 39.1913662 C508.06304263 41.22519322 508.06676802 43.2590196 508.07088631 45.29284513 C508.08092402 50.90107 508.08462595 56.50928417 508.08727562 62.11751676 C508.09117344 68.15859703 508.10075213 74.19966879 508.10948849 80.24074364 C508.12833265 94.14939539 508.13851122 108.05804634 508.14694917 121.96670717 C508.15115464 128.83886693 508.15637678 135.71102582 508.1616337 142.58318484 C508.17952491 166.10408939 508.1945211 189.6249942 508.20195389 213.14590454 C508.20242865 214.62280407 508.20290453 216.09970361 508.20338155 217.57660314 C508.20373611 218.67522578 508.20373611 218.67522578 508.20409784 219.79604281 C508.20529905 223.50686798 508.2065145 227.21769314 508.20773983 230.9285183 C508.20797998 231.6649451 508.20822013 232.4013719 508.20846756 233.16011466 C508.21636056 257.03707514 508.23979189 280.91398595 508.27229577 304.79092474 C508.30659207 330.03060132 508.32630486 355.27024883 508.32959813 380.50994909 C508.33001567 383.28064053 508.33049524 386.05133196 508.33102131 388.82202339 C508.3311445 389.50425342 508.33126769 390.18648345 508.33139462 390.88938712 C508.33372694 401.86972998 508.34938872 412.85001518 508.36986316 423.83033749 C508.39011713 434.86754291 508.395267 445.90469399 508.38609252 456.94191845 C508.3815387 462.92171203 508.38349705 468.90131829 508.40285397 474.88108635 C508.42042089 480.35509579 508.41954043 485.82878037 508.40395667 491.30279295 C508.40157076 493.28333875 508.40595484 495.26390667 508.41778532 497.24441858 C508.43287705 499.9376678 508.42325073 502.62976187 508.40755844 505.32298279 C508.41778065 506.09102877 508.42800286 506.85907475 508.43853483 507.65039486 C508.34982146 514.63167799 506.08582936 520.48081317 501.66257381 525.88701439 C494.5518145 531.70490837 489.07841778 534.28814741 479.82514763 534.27402878 C478.98724871 534.2766806 478.1493498 534.27933243 477.28606001 534.28206462 C474.45370334 534.28977757 471.62138988 534.29031755 468.7890234 534.29091454 C466.74765933 534.29492785 464.70629605 534.29936585 462.66493374 534.30419409 C457.0358379 534.31618015 451.40675063 534.32181275 445.77764452 534.32637525 C439.71404892 534.33232366 433.65046362 534.34393542 427.58687496 534.35466576 C413.62596102 534.37804714 399.66504548 534.3925997 385.70411853 534.40489517 C380.87394426 534.40914951 376.04377037 534.41371523 371.21359658 534.41847849 C345.53346549 534.44373917 319.85333376 534.46578817 294.17319298 534.47820663 C288.22263175 534.48112798 282.27207054 534.4840955 276.32150936 534.48711205 C275.58222363 534.48748295 274.84293791 534.48785386 274.08124958 534.48823601 C250.11426307 534.50039031 226.14735 534.53133197 202.18039798 534.57303357 C177.54271241 534.61582404 152.90506563 534.64244803 128.26734189 534.64768135 C124.78716324 534.64842179 121.30698465 534.64933248 117.82680607 534.65033913 C117.14187716 534.65052974 116.45694825 534.65072036 115.75126393 534.65091675 C104.73019004 534.65442978 93.70920817 534.67472523 82.68816806 534.70113576 C71.60837238 534.72728656 60.5286597 534.73459098 49.44883155 534.72403447 C43.44659548 534.7188412 37.4446519 534.7217785 31.44245815 534.74650002 C25.9467504 534.76894665 20.45154605 534.76828787 14.95582975 534.74929614 C12.96853376 534.74648974 10.98120397 534.7521301 8.99396246 534.76710908 C-2.80378986 534.85059226 -11.50367686 534.57576383 -20.96242619 526.76201439 C-26.27514455 520.19924465 -28.23760328 514.48925108 -28.22164726 506.07802963 C-28.22399949 505.24320787 -28.22635172 504.4083861 -28.22877523 503.54826671 C-28.23547853 500.7263858 -28.23500661 497.9045508 -28.23459721 495.08266258 C-28.237895 493.04883555 -28.24162039 491.01500918 -28.24573869 488.98118365 C-28.25577639 483.37295878 -28.25947832 477.76474461 -28.262128 472.15651202 C-28.26602581 466.11543175 -28.27560451 460.07435999 -28.28434086 454.03328514 C-28.30318502 440.12463339 -28.31336359 426.21598244 -28.32180154 412.30732161 C-28.32600701 405.43516185 -28.33122915 398.56300296 -28.33648607 391.69084394 C-28.35437728 368.16993938 -28.36937347 344.64903458 -28.37680626 321.12812424 C-28.37728102 319.6512247 -28.37775691 318.17432517 -28.37823392 316.69742564 C-28.3784703 315.96501055 -28.37870667 315.23259546 -28.37895021 314.47798597 C-28.38015142 310.7671608 -28.38136687 307.05633564 -28.3825922 303.34551048 C-28.38283235 302.60908368 -28.3830725 301.87265688 -28.38331993 301.11391412 C-28.39121293 277.23695363 -28.41464426 253.36004283 -28.44714815 229.48310403 C-28.48144444 204.24342746 -28.50115723 179.00377995 -28.5044505 153.76407969 C-28.50486804 150.99338824 -28.50534761 148.22269681 -28.50587368 145.45200539 C-28.50599687 144.76977536 -28.50612006 144.08754533 -28.50624699 143.38464166 C-28.50857931 132.40429879 -28.52424109 121.4240136 -28.54471553 110.44369129 C-28.5649695 99.40648587 -28.57011937 88.36933479 -28.56094489 77.33211033 C-28.55639107 71.35231675 -28.55834942 65.37271048 -28.57770634 59.39294243 C-28.59527326 53.91893299 -28.5943928 48.44524841 -28.57880905 42.97123583 C-28.57642313 40.99069002 -28.58080721 39.01012211 -28.5926377 37.0296102 C-28.60772942 34.33636098 -28.5981031 31.6442669 -28.58241081 28.95104599 C-28.59263302 28.18300001 -28.60285523 27.41495402 -28.6133872 26.62363392 C-28.52467383 19.64235079 -26.26068173 13.79321561 -21.83742619 8.38701439 C-14.72666687 2.5691204 -9.25327015 -0.01411863 0 0 Z " fill="#DF146E" transform="translate(35.08742618560791,8.862985610961914)"/>
<path d="M0 0 C7.80177674 -0.21882006 15.33325484 0.63838945 23.0625 1.625 C24.4826023 1.80186324 25.90277066 1.97819677 27.32299805 2.15405273 C32.21627903 2.76191063 37.10811908 3.3809932 42 4 C50.10385101 5.02334547 58.20806775 6.04376883 66.3125 7.0625 C67.35212891 7.19342041 68.39175781 7.32434082 69.46289062 7.45922852 C82.39893921 9.08630939 95.33332083 10.62760524 108.30371094 11.95727539 C118.04263305 12.968213 127.74467849 14.23181524 137.45092773 15.51342773 C147.46610919 16.82736174 157.4926076 17.98520761 167.53735352 19.04882812 C168.57947998 19.16033203 169.62160645 19.27183594 170.6953125 19.38671875 C171.60297363 19.48170654 172.51063477 19.57669434 173.44580078 19.67456055 C175.99686647 19.99960075 178.48541605 20.46463879 181 21 C180.69524285 27.75037093 179.30991724 33.67493023 177.23046875 40.0859375 C175.71549945 44.80827424 174.42321922 49.58936639 173.125 54.375 C172.87161865 55.30723389 172.6182373 56.23946777 172.35717773 57.19995117 C170.48077632 64.14163677 168.67294794 71.10016066 166.875 78.0625 C165.10085247 84.93151918 163.20405369 91.71937051 161.05078125 98.48046875 C159.63406377 103.22568231 158.41701183 108.01589088 157.1875 112.8125 C154.84207605 121.94813571 152.29010729 131.00504624 149.6171875 140.04980469 C147.04258423 148.78343112 144.63208407 157.55671454 142.26171875 166.34765625 C141.21119531 170.24291787 140.12014028 174.12420947 139 178 C135.08849774 174.23811804 131.67187953 170.25770943 128.3125 166 C127.78922119 165.34136963 127.26594238 164.68273926 126.72680664 164.00415039 C123.01334679 159.31740696 119.35149956 154.59222441 115.71777344 149.84350586 C110.87342313 143.51400514 105.93334073 137.2602031 101 131 C94.37047168 122.58297964 87.77238077 114.14238653 81.19873047 105.68164062 C76.26341069 99.33216972 71.30149252 93.00408164 66.32666016 86.68554688 C63.58779692 83.20576922 60.8531747 79.72265688 58.11767578 76.24023438 C55.86492288 73.37265935 53.61131111 70.50577046 51.35546875 67.640625 C45.61047113 60.34109862 39.89796383 53.016951 34.19873047 45.68164062 C29.26916873 39.33957764 24.3131948 33.01873963 19.34423828 26.70751953 C16.06824707 22.54618961 12.79497528 18.38274111 9.52734375 14.21484375 C7.94588583 12.19876847 6.35432925 10.19263084 4.75390625 8.19140625 C4.11324219 7.38574219 3.47257812 6.58007812 2.8125 5.75 C2.26207031 5.06421875 1.71164063 4.3784375 1.14453125 3.671875 C0 2 0 2 0 0 Z " fill="#FEFDFE" transform="translate(74,85)"/>
<path d="M0 0 C4.30745561 4.02981114 7.65934505 8.4443327 11.0625 13.25 C11.62904297 14.04212891 12.19558594 14.83425781 12.77929688 15.65039062 C17.0394449 21.61649337 21.2623302 27.60922332 25.48095703 33.60473633 C30.7091678 41.02776881 36.03179929 48.38165171 41.35888672 55.73388672 C44.07648173 59.486448 46.78794473 63.24343419 49.5 67 C50.58330362 68.50002146 51.66663696 70.00002146 52.75 71.5 C59.25 80.5 65.75 89.5 72.25 98.5 C72.7864917 99.24282227 73.3229834 99.98564453 73.87573242 100.75097656 C74.95667191 102.24768701 76.03756401 103.74443168 77.1184082 105.24121094 C79.8629754 109.04182637 82.60841966 112.84180298 85.35546875 116.640625 C90.65682231 123.97333833 95.94655437 131.31361844 101.19873047 138.68164062 C104.55306571 143.38335201 107.92996925 148.06854132 111.3125 152.75 C111.85310059 153.49854248 112.39370117 154.24708496 112.95068359 155.01831055 C115.83269771 159.00712353 118.71992971 162.99205875 121.61328125 166.97265625 C122.20133545 167.7831543 122.78938965 168.59365234 123.39526367 169.42871094 C124.52002806 170.97877438 125.6464063 172.5276685 126.7746582 174.07519531 C129.35420229 177.63301856 131.82122181 181.17586862 134 185 C132.18693869 184.88342415 130.374561 184.75621041 128.5625 184.625 C127.55316406 184.55539062 126.54382813 184.48578125 125.50390625 184.4140625 C122.86897746 184.10268853 120.49829581 183.68706966 117.93359375 183.08203125 C111.84980378 181.67133445 105.68349852 180.90333222 99.5 180.0625 C91.53801969 178.95585138 83.59379517 177.83112479 75.6875 176.375 C69.51754673 175.23898073 63.34147046 174.34530282 57.11791992 173.55419922 C52.87593005 172.99693509 48.65387563 172.33389472 44.4296875 171.65625 C42.74271367 171.38778266 41.05570026 171.11956393 39.36865234 170.8515625 C38.49086121 170.71202148 37.61307007 170.57248047 36.7086792 170.42871094 C32.13007947 169.70404196 27.54943724 168.9925848 22.96875 168.28125 C22.03082611 168.13550537 21.09290222 167.98976074 20.1265564 167.83959961 C17.25106706 167.39287645 14.37553991 166.94639751 11.5 166.5 C-0.24005326 164.67747946 -11.97957368 162.85222699 -23.71386719 160.99291992 C-30.13951268 159.9751104 -36.56869104 158.98143853 -43 158 C-41.93145286 149.96747319 -39.69206549 142.40297958 -37.31616211 134.68505859 C-35.71088595 129.44391718 -34.22750164 124.20239081 -32.9375 118.875 C-31.01837136 110.95846988 -28.84805628 103.12281405 -26.64111328 95.28222656 C-25.58534285 91.52390897 -24.54343393 87.76175712 -23.5 84 C-23.08074612 82.49218279 -22.6614753 80.98437028 -22.2421875 79.4765625 C-21.43066393 76.55583728 -20.62357176 73.63394581 -19.8203125 70.7109375 C-17.44148279 62.07362484 -14.96938376 53.46877194 -12.4375 44.875 C-10.09143967 36.90301704 -7.9297394 28.92361813 -5.9765625 20.84765625 C-4.19743363 13.83788852 -2.09036988 6.92220844 0 0 Z " fill="#FEFDFE" transform="translate(264,108)"/>
<path d="M0 0 C10.49196173 0.54800109 20.66388249 2.14294577 31 3.9375 C34.10385059 4.46930338 37.20820004 4.99817076 40.3125 5.52734375 C41.06114319 5.65550476 41.80978638 5.78366577 42.58111572 5.91571045 C49.04302324 7.01828598 55.5163679 8.03315238 62 9 C62.81662109 9.12205811 63.63324219 9.24411621 64.47460938 9.36987305 C65.9747538 9.59320017 67.47499457 9.81588125 68.9753418 10.0378418 C84.63750836 12.35934572 100.26618984 14.88762635 115.88822937 17.46379089 C120.29176402 18.18978356 124.69565133 18.91362717 129.09951782 19.63760376 C132.38860202 20.17944459 135.6770871 20.7248244 138.96557617 21.27026367 C141.03822123 21.61133235 143.1108927 21.95224054 145.18359375 22.29296875 C146.12450867 22.45011353 147.06542358 22.6072583 148.03485107 22.76916504 C153.35374586 23.6393674 158.61816283 24.28476771 163.99745178 24.64595032 C166 25 166 25 168 27 C152.98898359 35.00827784 137.81499678 42.68180415 122.60282373 50.29868245 C120.61031582 51.29642136 118.61803683 52.29461602 116.62582016 53.29293633 C110.36851164 56.42837496 104.11043707 59.5622765 97.85119355 62.69385058 C90.66429885 66.2895539 83.4800789 69.89053184 76.29804146 73.49592692 C70.70738608 76.30205348 65.11444046 79.10357841 59.51972663 81.90160459 C56.19229797 83.56584172 52.86586098 85.23199073 49.5418129 86.90297127 C45.8529562 88.75715408 42.15939975 90.60177757 38.46533203 92.44555664 C37.37236816 92.99664597 36.2794043 93.54773529 35.15332031 94.11552429 C34.14737823 94.61571075 33.14143616 95.11589722 32.10501099 95.63124084 C31.23462755 96.06716584 30.36424412 96.50309084 29.46748543 96.95222569 C26.97538665 98.01045163 24.66651391 98.56968658 22 99 C19.36767667 89.37706825 16.96477789 79.74312854 14.8125 70 C14.21279538 67.30947934 13.61043874 64.61955511 13.0078125 61.9296875 C12.85042099 61.22617157 12.69302948 60.52265564 12.53086853 59.79782104 C10.26998459 49.71279002 7.92894392 39.64606308 5.5975647 29.57714844 C5.21739849 27.93523911 4.8373501 26.29330249 4.45742798 24.65133667 C4.11202396 23.15883256 3.76625354 21.66641316 3.42001343 20.17410278 C3.10465506 18.81187307 2.79129829 17.44917824 2.48007202 16.08599854 C2.13993905 14.60806013 1.79109627 13.13211382 1.43618774 11.65765381 C0.50542058 7.69868795 -0.26449848 4.09972644 0 0 Z " fill="#FEFDFD" transform="translate(222,275)"/>
<path d="M0 0 C2.44813048 2.44813048 2.54391876 3.79586298 3.19140625 7.16796875 C3.40901611 8.26778076 3.62662598 9.36759277 3.85083008 10.50073242 C4.08568115 11.71736572 4.32053223 12.93399902 4.5625 14.1875 C5.09500472 16.85504883 5.63028068 19.52180355 6.171875 22.1875 C6.31559036 22.89541183 6.45930573 23.60332367 6.6073761 24.33268738 C8.34815283 32.82124279 10.33586146 41.25142276 12.3125 49.6875 C16.80775339 68.91811661 20.96462699 88.21511891 25.05371094 107.53564453 C26.35739854 113.69294611 27.6777727 119.84665471 29 126 C22.21916628 131.78177671 15.41963664 137.51987959 8.4375 143.05859375 C4.96256794 145.82628803 1.53284715 148.64808384 -1.90234375 151.46484375 C-5.48906091 154.40348632 -9.08813563 157.32687196 -12.6875 160.25 C-13.36635254 160.80131592 -14.04520508 161.35263184 -14.74462891 161.9206543 C-16.13619181 163.0506661 -17.52779366 164.18062995 -18.91943359 165.31054688 C-22.28025428 168.03958691 -25.64008913 170.76983998 -29 173.5 C-30.31249501 174.56641239 -31.62499503 175.63281861 -32.9375 176.69921875 C-33.59492188 177.23337402 -34.25234375 177.7675293 -34.9296875 178.31787109 C-40.953125 183.21191406 -46.9765625 188.10595703 -53 193 C-54.10416683 189.69594977 -53.88690471 187.78016588 -52.8125 184.4921875 C-52.38807617 183.15607422 -52.38807617 183.15607422 -51.95507812 181.79296875 C-51.63990234 180.83003906 -51.32472656 179.86710938 -51 178.875 C-48.28513551 170.2988687 -45.78795522 161.69970216 -43.5 153 C-41.32698295 144.77826604 -39.02283952 136.62124784 -36.5 128.5 C-33.66380434 119.36229327 -31.09415133 110.17277252 -28.66015625 100.91992188 C-26.23166285 91.71689365 -23.60985452 82.57313559 -20.98257446 73.42541504 C-19.21755562 67.2722711 -17.46091435 61.11673243 -15.70305443 54.96154022 C-14.59009811 51.06476882 -13.47666428 47.16813387 -12.36328125 43.27148438 C-11.9096657 41.68383854 -11.45605243 40.09619205 -11.00244141 38.50854492 C-7.33496094 25.67236328 -3.66748047 12.83618164 0 0 Z " fill="#FEFCFD" transform="translate(212,274)"/>
<path d="M0 0 C-0.23372314 0.63647461 -0.46744629 1.27294922 -0.70825195 1.92871094 C-1.4547848 3.96216802 -2.20109376 5.9957073 -2.94726562 8.02929688 C-3.63531259 9.90444632 -4.32336821 11.77959264 -5.01196289 13.65454102 C-8.21721496 22.38229007 -11.40769739 31.11527943 -14.58207703 39.85430908 C-16.29064615 44.55721965 -18.00190675 49.25914926 -19.71322632 53.96105957 C-20.56984012 56.31695577 -21.42517043 58.67331906 -22.27920532 61.03015137 C-23.49537243 64.385881 -24.71600218 67.73995774 -25.9375 71.09375 C-26.48539436 72.61086578 -26.48539436 72.61086578 -27.0443573 74.15863037 C-28.78806759 78.93342968 -30.59223309 83.52034589 -33 88 C-37.26906802 84.00509231 -40.57428885 79.64485184 -43.9375 74.875 C-45.08764348 73.26237986 -46.23871683 71.65042259 -47.390625 70.0390625 C-47.98294922 69.20922852 -48.57527344 68.37939453 -49.18554688 67.52441406 C-52.1471047 63.40405509 -55.16803733 59.32800993 -58.1875 55.25 C-62.63376618 49.23525077 -67.03933429 43.19631764 -71.36157227 37.09179688 C-73.55978623 33.99317033 -75.79036813 30.92286191 -78.05859375 27.875 C-78.82490112 26.84294434 -78.82490112 26.84294434 -79.60668945 25.79003906 C-80.59984339 24.45561322 -81.59692683 23.12410069 -82.59838867 21.79589844 C-86 17.22095625 -86 17.22095625 -86 15 C-83.48646545 14.53453064 -80.97293091 14.06906128 -78.45939636 13.60359192 C-77.36291275 13.4005394 -76.26642914 13.19748688 -75.13671875 12.98828125 C-67.94726562 11.65690104 -60.7578125 10.32552083 -53.56835938 8.99414062 C-51.80819992 8.66807327 -51.80819992 8.66807327 -50.01248169 8.3354187 C-47.63162835 7.89467098 -45.25066663 7.45450836 -42.86959839 7.0149231 C-36.69635944 5.87444522 -30.52551763 4.72282499 -24.35791016 3.55224609 C-23.1262764 3.31998825 -21.89464264 3.08773041 -20.62568665 2.84843445 C-18.27667159 2.40518561 -15.92831443 1.9584313 -13.58073425 1.50764465 C-12.52646744 1.30942612 -11.47220062 1.11120758 -10.38598633 0.90698242 C-9.46360672 0.73132248 -8.54122711 0.55566254 -7.59089661 0.37467957 C-5.02092802 0.00302648 -2.59262486 -0.06793391 0 0 Z " fill="#FEFCFD" transform="translate(440,203)"/>
<path d="M0 0 C-0.45451184 1.73017508 -0.91378857 3.45909877 -1.375 5.1875 C-1.63023437 6.15042969 -1.88546875 7.11335938 -2.1484375 8.10546875 C-2.42945313 9.06066406 -2.71046875 10.01585937 -3 11 C-3.1566362 11.79831238 -3.3132724 12.59662476 -3.47465515 13.41912842 C-5.93533599 17.5825812 -9.86898593 18.50131175 -14.25708008 20.18847656 C-15.21850418 20.57464645 -16.17992828 20.96081635 -17.17048645 21.35868835 C-20.36364952 22.63642669 -23.56631521 23.88832639 -26.76953125 25.140625 C-29.00388896 26.02949307 -31.23757836 26.92004275 -33.47062683 27.81219482 C-39.37310374 30.16553639 -45.28377948 32.49754367 -51.19659424 34.82476807 C-58.3004924 37.62481408 -65.39526207 40.44787847 -72.49071026 43.26925278 C-78.03133916 45.4721325 -83.5733517 47.67121686 -89.12055969 49.85748291 C-91.17535482 50.66919735 -93.22997989 51.48134243 -95.28442383 52.29394531 C-96.2659332 52.68158176 -97.24744257 53.06921822 -98.25869465 53.46860123 C-103.23340291 55.44783409 -108.17043594 57.48938913 -113.07455444 59.63806152 C-114.04368365 60.06226757 -115.01281286 60.48647362 -116.01130962 60.92353439 C-117.84724398 61.73321914 -119.67932272 62.55172207 -121.50679493 63.38032913 C-122.72476025 63.9191881 -122.72476025 63.9191881 -123.96733093 64.46893311 C-124.67678706 64.78966167 -125.38624319 65.11039024 -126.11719799 65.44083786 C-128 66 -128 66 -131 65 C-129.48986328 64.30777344 -129.48986328 64.30777344 -127.94921875 63.6015625 C-120.2611363 60.04715502 -112.67750763 56.35988187 -105.20703125 52.3671875 C-94.01664636 46.43382867 -82.67950685 40.80637071 -71.33398438 35.17724609 C-61.12571737 30.10868799 -50.96734799 24.96883896 -40.89564514 19.63357544 C-33.64573725 15.79744275 -26.34100301 12.07741288 -19.00463867 8.40966797 C-16.87524447 7.34383915 -14.7491724 6.27155066 -12.62304688 5.19921875 C-11.25800658 4.51523753 -9.89278001 3.83162792 -8.52734375 3.1484375 C-7.89730942 2.82982758 -7.26727509 2.51121765 -6.6181488 2.18295288 C-2.22892758 0 -2.22892758 0 0 0 Z " fill="#FDF7FA" transform="translate(399,306)"/>
<path d="M0 0 C0.66 0 1.32 0 2 0 C3.23657227 1.26000977 3.23657227 1.26000977 4.75390625 3.12890625 C8.18681191 7.16704288 11.83254245 10.92033675 15.58984375 14.65234375 C16.18278229 15.24197906 16.77572083 15.83161438 17.3866272 16.43911743 C19.23497976 18.27387985 21.08582507 20.10609096 22.9375 21.9375 C25.40778222 24.38127773 27.87478217 26.82830138 30.33984375 29.27734375 C30.90847641 29.83767807 31.47710907 30.39801239 32.06297302 30.97532654 C33.39424165 32.29810528 34.70005175 33.64642905 36 35 C36 35.33 36 35.66 36 36 C20.16 36 4.32 36 -12 36 C-11.22811351 30.59679458 -10.40809561 26.91748865 -8.49609375 21.97265625 C-8.13198143 21.02198524 -8.13198143 21.02198524 -7.76051331 20.05210876 C-6.99300425 18.05286139 -6.21546155 16.0577 -5.4375 14.0625 C-4.91143757 12.69752435 -4.38604061 11.33229203 -3.86132812 9.96679688 C-2.58189224 6.6415315 -1.29343528 3.31984898 0 0 Z " fill="#FEFBFC" transform="translate(447,204)"/>
<path d="M0 0 C16.45588934 -2.20056713 16.45588934 -2.20056713 21.84960938 1.1484375 C25.14082443 4.30199717 27.4464907 8.13144283 29.77001953 12.02441406 C31.75893956 15.21900336 34.13249267 18.0816206 36.5 21 C37.42257013 22.17030332 38.34314553 23.34218189 39.26171875 24.515625 C41.05478524 26.79782527 42.849118 29.07902056 44.64453125 31.359375 C48.65312209 36.45292047 52.6550375 41.5511571 56.62890625 46.671875 C57.25047607 47.47270508 57.8720459 48.27353516 58.51245117 49.09863281 C59.72325072 50.6597056 60.93310188 52.2215146 62.1418457 53.78417969 C65.35252772 57.92442795 68.61848291 61.99790486 72 66 C71.67 66.66 71.34 67.32 71 68 C64.48593922 62.04201758 58.0119917 56.08436813 51.8203125 49.7890625 C49.96256731 47.96320993 48.0383197 46.25938045 46.0625 44.5625 C43.07198284 41.99334729 40.26883316 39.30682744 37.5 36.5 C34.77170593 33.73439592 32.01483166 31.08712969 29.0625 28.5625 C24.97221221 25.05770072 21.2329093 21.24801386 17.44921875 17.41796875 C14.69892256 14.70276406 11.82689515 12.1822767 8.89453125 9.66796875 C5.78877704 6.93362432 2.77597645 4.07092395 0 1 C0 0.67 0 0.34 0 0 Z " fill="#FEF8FA" transform="translate(68,116)"/>
<path d="M0 0 C0.66 0.33 1.32 0.66 2 1 C-1.64606136 5.49917878 -6.3500377 7.1735526 -11.5625 9.3125 C-12.85704102 9.8703418 -12.85704102 9.8703418 -14.17773438 10.43945312 C-20.61891013 13.12702996 -20.61891013 13.12702996 -24 12 C-22.85402344 11.46890625 -21.70804687 10.9378125 -20.52734375 10.390625 C-18.9973224 9.67724081 -17.4673786 8.96369027 -15.9375 8.25 C-14.80924805 7.72792969 -14.80924805 7.72792969 -13.65820312 7.1953125 C-10.02135283 5.49496691 -6.50665619 3.74476607 -3.06640625 1.671875 C-1.54853516 0.84429687 -1.54853516 0.84429687 0 0 Z " fill="#F7C4DB" transform="translate(292,359)"/>
</svg>
