<svg width="64" height="64" viewBox="0 0 64 64" fill="none" xmlns="http://www.w3.org/2000/svg">
<g clip-path="url(#clip0_6_285)">
<path d="M32 64C49.6731 64 64 49.6731 64 32C64 14.3269 49.6731 0 32 0C14.3269 0 0 14.3269 0 32C0 49.6731 14.3269 64 32 64Z" fill="#F0263C" style="fill:#F0263C;fill:color(display-p3 0.9412 0.1490 0.2353);fill-opacity:1;"/>
<path d="M26.4614 0.487518C24.2186 0.879118 22.0564 1.50232 20 2.33502V4.79522L26.4614 0.487518Z" fill="#191977" style="fill:#191977;fill:color(display-p3 0.0980 0.0980 0.4667);fill-opacity:1;"/>
<path d="M32 18.1285V14.6667H26.8073L32 18.1285Z" fill="#191977" style="fill:#191977;fill:color(display-p3 0.0980 0.0980 0.4667);fill-opacity:1;"/>
<path d="M4.80725 21.3333H12V16.5382L4.80725 21.3333Z" fill="#191977" style="fill:#191977;fill:color(display-p3 0.0980 0.0980 0.4667);fill-opacity:1;"/>
<path d="M32 6.6667V3.2048L26.8073 6.6667H32Z" fill="#191977" style="fill:#191977;fill:color(display-p3 0.0980 0.0980 0.4667);fill-opacity:1;"/>
<path d="M20 21.3333H27.1927L20 16.5382V21.3333Z" fill="#191977" style="fill:#191977;fill:color(display-p3 0.0980 0.0980 0.4667);fill-opacity:1;"/>
<path d="M31.9999 8.00001V6.66671H26.8072L31.9999 3.20491V1.60251L24.4035 6.66671H19.9999V6.39761L29.4283 0.111908C28.4255 0.191708 27.4361 0.317308 26.4613 0.487508L19.9999 4.79521V2.33501C19.55 2.51721 19.106 2.70971 18.6666 2.91141V8.00001H31.9999Z" fill="white" style="fill:white;fill-opacity:1;"/>
<path d="M13.3332 6.0163C12.4707 6.637 11.6403 7.2985 10.8452 8H13.3332V6.0163Z" fill="white" style="fill:white;fill-opacity:1;"/>
<path d="M18.6666 21.3333H19.9999V16.5382L27.1926 21.3333H29.5963L19.9999 14.9358V14.6667H24.4035L31.9999 19.7309V18.1285L26.8072 14.6667H31.9999V13.3333H18.6666V21.3333Z" fill="white" style="fill:white;fill-opacity:1;"/>
<path d="M6.01626 13.3333C5.70226 13.7697 5.39936 14.2142 5.10726 14.6666C5.08586 14.6997 5.06466 14.733 5.04346 14.7662C4.50436 15.6076 4.00406 16.4754 3.54406 17.3682L7.59636 14.6667H12V14.9358L2.40356 21.3333H4.80716L11.9999 16.5381V21.3333H13.3332V13.3333H6.01626Z" fill="white" style="fill:white;fill-opacity:1;"/>
<path d="M36 21.3333V42.6667H41.3333L40 38.6667V40L38.6667 41.3333L37.3333 40L38.6667 38.6667H37.3333L38.6667 37.3333V36L40 35.3333L42.6667 36L41.3333 34.6667H40L38.6667 33.3333L40 32V30.6667V29.3333H41.3333L42.6667 30.6667L44.6667 29.3333L44 28V25.3333L45.3333 22.6667L47.3333 22L49.3333 22.6667L50.6667 25.3333V28L50 29.3333L52 30.6667L53.3333 29.3333H54.6667V30.6667V32L56 33.3333L54.6667 34.6667H53.3333L52 36L54.6667 35.3333L56 36V37.3333L57.3333 38.6667H56L57.3333 40L56 41.3333L54.6667 40V38.6667L53.3333 42.6667H58.6667V21.3333H36Z" fill="white" style="fill:white;fill-opacity:1;"/>
<path d="M50.6667 42.6667L53.3333 44H54.6667V45.3333L53.3333 46.6667H52L50.6667 45.3333L49.3333 44L48 45.3333H46.6667L45.3333 44L44 45.3333L42.6667 46.6667H41.3333L40 45.3333V44H41.3333L44 42.6667H41.3333H36V44L40 48L44 49.3333L47.3333 50L50.6667 49.3333L54.6667 48L58.6667 44V42.6667H53.3333H50.6667Z" fill="#619B27" style="fill:#619B27;fill:color(display-p3 0.3804 0.6078 0.1529);fill-opacity:1;"/>
<path d="M54.6667 38.6667V40L56 41.3333L57.3333 40L56 38.6667H57.3333L56 37.3333V36L54.6667 35.3333L52 36L53.3333 37.3333L54.6667 38.6667Z" fill="#F0263C" style="fill:#F0263C;fill:color(display-p3 0.9412 0.1490 0.2353);fill-opacity:1;"/>
<path d="M50.6666 45.3333L52 46.6667H53.3333L54.6666 45.3333V44H53.3333L50.6666 42.6667L49.3333 44L50.6666 45.3333Z" fill="#F0263C" style="fill:#F0263C;fill:color(display-p3 0.9412 0.1490 0.2353);fill-opacity:1;"/>
<path d="M41.3333 32H42.6667L45.3333 30.6667H49.3333L52 32H53.3333V30.6667H54.6667V29.3333H53.3333L52 30.6667L50 29.3333L50.6667 28V25.3333L49.3333 22.6667L47.3333 22L45.3333 22.6667L44 25.3333V28L44.6667 29.3333L42.6667 30.6667L41.3333 29.3333H40V30.6667H41.3333V32Z" fill="#F0263C" style="fill:#F0263C;fill:color(display-p3 0.9412 0.1490 0.2353);fill-opacity:1;"/>
<path d="M42.6666 36L40 35.3333L38.6666 36V37.3333L37.3333 38.6667H38.6666L37.3333 40L38.6666 41.3333L40 40V38.6667L41.3333 37.3333L42.6666 36Z" fill="#F0263C" style="fill:#F0263C;fill:color(display-p3 0.9412 0.1490 0.2353);fill-opacity:1;"/>
<path d="M41.3333 44H40V45.3333L41.3333 46.6667H42.6667L44 45.3333L45.3333 44L44 42.6667L41.3333 44Z" fill="#F0263C" style="fill:#F0263C;fill:color(display-p3 0.9412 0.1490 0.2353);fill-opacity:1;"/>
<path d="M44 32L45.3334 33.3333L46.6667 34.6667V32L48 36H50.6667H52L53.3334 34.6667H54.6667L56 33.3333L54.6667 32V30.6667H53.3334V32H52L49.3334 30.6667H45.3334L42.6667 32H41.3334V30.6667H40V32L38.6667 33.3333L40 34.6667H41.3334V33.3333L44 32Z" fill="#007ACC" style="fill:#007ACC;fill:color(display-p3 0.0000 0.4784 0.8000);fill-opacity:1;"/>
<path d="M45.3333 44L46.6667 45.3333H48L49.3333 44L50.6667 42.6667H53.3333L54.6667 38.6667L53.3333 37.3333L52 36H50.6667V37.3333L52 38.6667L50.6667 40H49.3333L48 41.3333H46.6667V40H44L42.6667 38.6667H41.3333L42.6667 36L41.3333 37.3333L40 38.6667L41.3333 42.6667H44L45.3333 44Z" fill="#F0F0F0" style="fill:#F0F0F0;fill:color(display-p3 0.9412 0.9412 0.9412);fill-opacity:1;"/>
<path d="M42.6666 38.6667L44 40L45.3333 38.6667L44 33.3333L46.6666 37.3333V34.6667L45.3333 33.3333L44 32L41.3333 33.3333V34.6667L42.6666 36L41.3333 38.6667H42.6666Z" fill="#FFD400" style="fill:#FFD400;fill:color(display-p3 1.0000 0.8314 0.0000);fill-opacity:1;"/>
<path d="M46.6667 32V34.6667V37.3333L44 33.3333L45.3333 38.6667L44 40H46.6667V41.3333H48L49.3333 40H50.6667L52 38.6667L50.6667 37.3333V36H48L46.6667 32Z" fill="#5A2919" style="fill:#5A2919;fill:color(display-p3 0.3529 0.1608 0.0980);fill-opacity:1;"/>
</g>
<defs>
<clipPath id="clip0_6_285">
<rect width="64" height="64" fill="white" style="fill:white;fill-opacity:1;"/>
</clipPath>
</defs>
</svg>
