<svg width="64" height="64" viewBox="0 0 64 64" fill="none" xmlns="http://www.w3.org/2000/svg">
<g clip-path="url(#clip0_6_310)">
<path d="M40.9999 31.6667C40.9999 29.951 40.5093 28.3551 39.6744 26.9921L38.6666 28H37.3333L36 29.3333H34.6667L33.3334 26.6666V27.9999L32.6667 28.6666L33.3334 29.3333L32.6667 30.6666L33 31.9999L38.6813 37.6812C40.118 36.0864 40.9999 33.9822 40.9999 31.6667Z" fill="white" style="fill:white;fill-opacity:1;"/>
<path d="M30.6667 29.3333L31.3333 28.6667L30.6667 28V26.6667L29.6667 28.6667L31 30L30.6667 29.3333Z" fill="white" style="fill:white;fill-opacity:1;"/>
<path d="M9.8844 8.8845L25.9047 24.9048L27.9999 23.3333H29.9999L30.9999 24.3333L31.5554 22.6666H29.3332L30.6665 19.9999H31.3332V15.9999L34.6665 16.6666L32.6665 17.3333L34.6665 18L32.6665 18.6667V20H33.3332L34.6665 22.6667H32.4443L32.9998 24.3334L33.9998 23.3334H35.9998L38.6665 25.3334H41.3332L39.9999 26.6667L39.7811 26.8855C41.3662 28.7003 42.3332 31.0678 42.3332 33.6668C42.3332 35.8388 41.66 37.852 40.5152 39.5154L55.1155 54.1156C58.6178 50.4559 61.2582 45.9687 62.7153 40.9736L23.0265 1.2847C18.0314 2.7417 13.5442 5.382 9.8844 8.8845ZM44 38.6666V31.9999L46.6667 30.6666V29.3333L48 28H49.3333V32L48 33.3333L46.6667 34.6666V38.6666L48 39.9999L46.6667 41.3332H45.3334L42.6667 39.9999L44 38.6666Z" fill="white" style="fill:white;fill-opacity:1;"/>
<path d="M25.3333 46.6667H24L22.6667 45.3334L21.3334 46.0001L18.6667 46.6668L20 45.3335V44.0002L21.3333 42.6669H22.6666V42.4087L20.6165 40.3587L18.6666 41.3336H17.3333L16 40.0003L17.3333 38.667V37.0754L1.7682 21.5101C0.6276 24.7974 0 28.3245 0 32C0 49.6731 14.3268 64 32 64C35.6755 64 39.2026 63.3723 42.4899 62.2318L25.8639 45.6057L25.3333 46.6667Z" fill="#FFD400" style="fill:#FFD400;fill:color(display-p3 1.0000 0.8314 0.0000);fill-opacity:1;"/>
<path d="M64 32C64 14.3268 49.6732 0 32 0C28.8835 0 25.8747 0.4539 23.0265 1.2847L62.7153 40.9735C63.5462 38.1254 64 35.1165 64 32Z" fill="#FFD400" style="fill:#FFD400;fill:color(display-p3 1.0000 0.8314 0.0000);fill-opacity:1;"/>
<path d="M32 44C26.293 44 21.6667 39.3736 21.6667 33.6667C21.6667 31.0677 22.6337 28.7002 24.2188 26.8854L24 26.6666L22.6667 25.3333H25.3334L25.9049 24.9048L9.88439 8.88449C6.25839 12.3547 3.44869 16.6666 1.76819 21.5101L17.3333 37.0751V34.6667L16 33.3334L14.6667 32.0001V28.0001H16L17.3333 29.3334V30.6667L20 32V38.6667L21.3333 40L20.6165 40.3584L22.6666 42.4084V41.3333H23.9999L25.3332 42.6666H26.6665L29.9998 45.3333H33.9998L37.3331 42.6666H38.6664L39.9997 41.3333H41.333V42.6666H42.6663L43.9996 43.9999V45.3332L45.3329 46.6665L42.6662 45.9998L41.3329 45.3331L39.9996 46.6664H38.6663L37.9996 45.3331L35.9996 46.6664L34.6663 47.9997H29.333L27.9997 46.6664L25.9997 45.3331L25.8636 45.6054L42.4896 62.2315C47.333 60.551 51.6449 57.7413 55.1153 54.1152L40.515 39.515C38.6519 42.2224 35.5348 44 32 44Z" fill="black" style="fill:black;fill-opacity:1;"/>
<path d="M32 40.6667C34.6549 40.6667 37.034 39.5101 38.6813 37.6813L33 32L33.3333 33.3333V34.6666L32.6666 35.9999L33.3333 37.3332V38.6665H34.6666L33.3333 39.9998H30.6666L29.3333 38.6665H30.6666V37.3332L31.3333 35.9999L30.6666 34.6666V33.3333L31.3333 30.6666L31 29.9999L29.6667 28.6666L29.3334 29.3333H28.0001L26.6668 28H25.3335L24.3257 26.9921C23.4907 28.3551 23.0002 29.951 23.0002 31.6667C23.0002 36.6372 27.0295 40.6667 32 40.6667Z" fill="black" style="fill:black;fill-opacity:1;"/>
<path d="M48 28L46.6667 29.3333V30.6667L44 32V38.6667L42.6667 40L45.3334 41.3333H46.6667L48 40L46.6667 38.6667V34.6667L48 33.3333L49.3334 32V29.3333V28H48Z" fill="#F0263C" style="fill:#F0263C;fill:color(display-p3 0.9412 0.1490 0.2353);fill-opacity:1;"/>
<path d="M20.6165 40.3584L21.3333 40L20 38.6667V32L17.3333 30.6667V29.3333L16 28H14.6667V29.3333V32L16 33.3333L17.3333 34.6667V37.0751V38.6667L16 40L17.3333 41.3333H18.6667L20.6165 40.3584Z" fill="#F0263C" style="fill:#F0263C;fill:color(display-p3 0.9412 0.1490 0.2353);fill-opacity:1;"/>
<path d="M44 44L42.6667 42.6667H41.3333V41.3333H40L38.6667 42.6667H37.3333L34 45.3333H32H30L26.6667 42.6667H25.3333L24 41.3333H22.6667V42.4084V42.6667H21.3333L20 44V45.3333L18.6667 46.6667L21.3333 46L22.6667 45.3333L24 46.6667H25.3333L25.8639 45.6056L26 45.3333L28 46.6667L29.3333 48H30.6667H32H33.3333H34.6667L36 46.6667L38 45.3333L38.6667 46.6667H40L41.3333 45.3333L42.6667 46L45.3333 46.6667L44 45.3333V44Z" fill="#F0263C" style="fill:#F0263C;fill:color(display-p3 0.9412 0.1490 0.2353);fill-opacity:1;"/>
<path d="M32 44C35.5348 44 38.6522 42.2227 40.5153 39.5153C41.6602 37.8519 42.3333 35.8387 42.3333 33.6667C42.3333 31.0677 41.3663 28.7002 39.7812 26.8854L40 26.6666L41.3333 25.3333H38.6666L35.9999 23.3333H33.9999L32.9999 24.3333L32.4444 22.6666H34.6666L33.3333 19.9999H32.6666V18.6666L34.6666 17.9999L32.6666 17.3332L34.6666 16.6665L31.3333 15.9998V19.9998H30.6666L29.3333 22.6665H31.5555L31 24.3332L30 23.3332H28L25.9048 24.9047L25.3333 25.3332H22.6666L23.9999 26.6665L24.2187 26.8853C22.6336 28.7001 21.6666 31.0676 21.6666 33.6666C21.6666 39.3735 26.293 44 32 44ZM24.3255 26.9921L25.3333 28H26.6666L27.9999 29.3333H29.3332L29.6665 28.6666L30.6665 26.6666V27.9999L31.3332 28.6666L30.6665 29.3333L30.9998 30L31.3331 30.6667L30.6664 33.3334V34.6667L31.3331 36L30.6664 37.3333V38.6666H29.3331L30.6664 39.9999H33.3331L34.6664 38.6666H33.3331V37.3333L32.6664 36L33.3331 34.6667V33.3334L32.9998 32.0001L32.6665 30.6668L33.3332 29.3335L32.6665 28.6668L33.3332 28.0001V26.6668L34.6665 29.3335H35.9998L37.3331 28.0002H38.6664L39.6742 26.9923C40.5092 28.3553 40.9997 29.9512 40.9997 31.6669C40.9997 33.9824 40.1177 36.0867 38.681 37.6815C37.0337 39.5103 34.6546 40.6669 31.9997 40.6669C27.0292 40.6669 22.9997 36.6374 22.9997 31.6669C22.9997 29.9512 23.4906 28.3551 24.3255 26.9921Z" fill="#F0263C" style="fill:#F0263C;fill:color(display-p3 0.9412 0.1490 0.2353);fill-opacity:1;"/>
</g>
<defs>
<clipPath id="clip0_6_310">
<rect width="64" height="64" fill="white" style="fill:white;fill-opacity:1;"/>
</clipPath>
</defs>
</svg>
