<svg width="64" height="64" viewBox="0 0 64 64" fill="none" xmlns="http://www.w3.org/2000/svg">
<g clip-path="url(#clip0_6_346)">
<path d="M58.5243 14.0934L51.5555 18.6666H53.3333L52 19.9999H54.6667L52 21.3332H50.6667L49.3334 22.6665L53.3334 23.9998H49.3334L45.4175 22.6945L45.091 22.9087L44 23.9997L48 25.333L46.6667 26.6663H44L42.6667 25.333L41.3334 26.6663H40.0001L42.0001 27.9996H46.6668L48.0001 26.6663L49.3334 25.333H50.6667L52 26.6663V29.333L50.6667 30.6663H46.6667L44 31.9996L42.6667 33.3329L41.3334 30.6662H40.0001V34.6662L38.0001 35.9995L40.0001 37.3328L41.3334 38.6661L42.6667 37.3328L44 35.9995H46.6667L45.3334 37.3328L46.6667 38.6661V42.6661L45.3334 43.9994H42.6667L41.3334 42.6661V39.9994H37.3334L36.0001 38.6661H33.3334V35.9994H34.6667L29.3334 34.6661H28.0001L25.3334 35.9994L24.0001 37.3327L25.3334 38.666V37.3327L26.6667 35.9994H28L26.6667 37.3327V38.666L28 37.3327H29.3333L30.6666 38.666V41.3327L29.3333 42.666H28L26.6667 41.3327H25.3334L24.0001 42.666L25.3334 43.9993V45.3326H28.0001V46.6659H26.6668V49.3326L25.3335 50.6659H24.0002L22.6669 49.3326V46.6659L24.0002 45.3326L22.6669 43.9993H21.3336V42.666H22.6669V41.3327H21.3336L20.0003 42.666L18.667 43.9993L17.3337 45.3326L14.667 46.6659V45.3326H13.3337L12.0004 46.6659L9.3337 47.9992H6.8575L5.0242 49.2023C10.7083 58.0968 20.6619 63.9992 32.0004 63.9992C49.6736 63.9992 64.0004 49.6724 64.0004 31.9992C64.0004 25.3651 61.981 19.2038 58.5243 14.0934Z" fill="#FF7700" style="fill:#FF7700;fill:color(display-p3 1.0000 0.4667 0.0000);fill-opacity:1;"/>
<path d="M33.3333 30.6667V30.625L33.2698 30.6667H33.3333Z" fill="#FF7700" style="fill:#FF7700;fill:color(display-p3 1.0000 0.4667 0.0000);fill-opacity:1;"/>
<path d="M45.3333 22.6667L45.0911 22.9089L45.4175 22.6947L45.3333 22.6667Z" fill="#FFD400" style="fill:#FFD400;fill:color(display-p3 1.0000 0.8314 0.0000);fill-opacity:1;"/>
<path d="M6.6667 48L8 46.6667H6.6667L12 44H9.3333L13.3333 42.6667L9.3333 41.3334H14.6666L17.3333 40.0001L20 37.3334V36.0001H17.3333L20 34.6668L21.3333 32.0001H20L22.6667 30.6668L25.3334 29.3335L24.0001 28.0002L26.6668 29.3335H29.3335V28.0002L30.6668 30.6669H33.2699L33.3335 30.6252V29.3336H34.6668V28.0003L33.3335 26.667L30.6668 28.0003L32.0001 25.3336H30.6668L32.0001 24.0003L32.6668 22.667H29.3335L32.0002 21.3337L34.6669 20.0004L30.0002 18.6671H36.0002L33.3335 17.3338H38.6668L37.3335 16.0005L42.6668 18.6672H45.3335L46.6668 20.0005H49.3335V17.3338L52.0002 14.6671L50.6669 17.3338V18.6671H51.5557L58.5245 14.0939C54.3614 7.9394 48.1091 3.3201 40.7891 1.2327C37.9953 0.4355 35.0493 0 32 0C15.7463 0 2.3324 12.1211 0.2812 27.8154C0.1021 29.1859 0 30.5807 0 32C0 38.3346 1.8481 44.234 5.0238 49.2031L6.8571 48H6.6667Z" fill="#FFD400" style="fill:#FFD400;fill:color(display-p3 1.0000 0.8314 0.0000);fill-opacity:1;"/>
<path d="M50.6667 17.3333L52 14.6667L49.3333 17.3333V20H46.6667L45.3333 18.6667H42.6667L37.3333 16L38.6667 17.3333H33.3333L36 18.6667H30L34.6667 20L32 21.3333L29.3333 22.6667H32.6667L32 24L30.6667 25.3333H32L30.6667 28L33.3333 26.6667L34.6667 28V29.3333H33.3333V30.625V30.6667H33.2698H32H30.6667L29.3333 28V29.3333H26.6667L24 28L25.3333 29.3333L22.6667 30.6667L20 32H21.3333L20 34.6667L17.3333 36H20V37.3333L17.3333 40L14.6667 41.3333H9.33329L13.3333 42.6667L9.33329 44H12L6.66669 46.6667H7.99999L6.66669 48H6.85709H9.33329L12 46.6667L13.3333 45.3333H14.6667V46.6667L17.3333 45.3333L18.6667 44L20 42.6667L21.3333 41.3333H22.6667V42.6667H21.3333V44H22.6667L24 45.3333L22.6667 46.6667V49.3333L24 50.6667H25.3333L26.6667 49.3333V48V46.6667H28V45.3333H25.3333V44L24 42.6667L25.3333 41.3333H26.6667L28 42.6667H29.3333L30.6667 41.3333V38.6667L29.3333 37.3333H28L26.6667 38.6667V37.3333L28 36H26.6667L25.3333 37.3333V38.6667L24 37.3333L25.3333 36L28 34.6667H29.3333L34.6667 36H33.3333V38.6667H36L37.3333 40H40H41.3333V42.6667L42.6667 44H45.3333L46.6667 42.6667V40V38.6667L45.3333 37.3333L46.6667 36H44L42.6667 37.3333L41.3333 38.6667L40 37.3333L38 36L40 34.6667V32V30.6667H41.3333L42.6667 33.3333L44 32L46.6667 30.6667H48H49.3333H50.6667L52 29.3333V26.6667L50.6667 25.3333H49.3333L48 26.6667L46.6667 28H45.3333H42L40 26.6667H41.3333L42.6667 25.3333L44 26.6667H46.6667L48 25.3333L44 24L45.091 22.909L45.0911 22.9089L45.3333 22.6667L45.4175 22.6947L49.3333 24H53.3333L49.3333 22.6667L50.6667 21.3333H52L54.6667 20H52L53.3333 18.6667H51.5555H50.6667V17.3333Z" fill="white" style="fill:white;fill-opacity:1;"/>
</g>
<defs>
<clipPath id="clip0_6_346">
<rect width="64" height="64" fill="white" style="fill:white;fill-opacity:1;"/>
</clipPath>
</defs>
</svg>
