<svg width="64" height="64" viewBox="0 0 64 64" fill="none" xmlns="http://www.w3.org/2000/svg">
<g clip-path="url(#clip0_6_415)">
<path d="M32 64C49.6731 64 64 49.6731 64 32C64 14.3269 49.6731 0 32 0C14.3269 0 0 14.3269 0 32C0 49.6731 14.3269 64 32 64Z" fill="#F0263C" style="fill:#F0263C;fill:color(display-p3 0.9412 0.1490 0.2353);fill-opacity:1;"/>
<path d="M14.6667 25.3333H13.3333V24H12V22.6667H13.3333V21.3333H14.6667V20H12V21.3333H10.6667V22.6667H9.33331V24H10.6667V26.6667H12V28H13.3333V29.3333H14.6667V28H16V26.6667V24H14.6667V25.3333Z" fill="white" style="fill:white;fill-opacity:1;"/>
<path d="M9.33331 30.6667V32V33.3333H10.6667V34.6667H12V33.3333H13.3333V32V30.6667H12V29.3333H10.6667V30.6667H9.33331Z" fill="white" style="fill:white;fill-opacity:1;"/>
<path d="M13.3333 6.0163C13.0385 6.2285 12.7474 6.4448 12.4601 6.6666H13.3333V6.0163Z" fill="white" style="fill:white;fill-opacity:1;"/>
<path d="M5.33329 16H6.66659V17.3333H7.99989V18.6666H9.3332V17.3333H10.6665V16H11.9998V14.6667H13.3331V16H14.6664V17.3333H15.9997V13.3333H14.6664V12H13.3331V10.6667H14.6664V9.3334H15.9997V4.2917C15.4269 4.6231 14.8633 4.9681 14.3138 5.3334H14.6663V6.6667H13.333V8H11.9997V7.0283C11.0977 7.7517 10.2316 8.5181 9.41339 9.3334H10.6663V10.6667H11.9996V12H10.6663V13.3333H9.33299V14.6666H7.99969V13.3333H6.66639V12.4601C6.11629 13.1723 5.59659 13.9085 5.10699 14.6666H5.33309L5.33329 16Z" fill="white" style="fill:white;fill-opacity:1;"/>
<path d="M1.33328 28H2.66658V29.3333H3.99988V28H5.33318V26.6667H6.66648V24H7.99978V22.6667H6.66648V21.3334H5.33318V20.0001H2.66648V21.3334H3.99978V22.6667H5.33308V24H3.99978V25.3333H2.66648V24H1.33318V22.855C0.963684 24.0957 0.668584 25.3679 0.450684 26.6666H1.33318L1.33328 28Z" fill="white" style="fill:white;fill-opacity:1;"/>
<path d="M7.99999 30.6667H9.33329V29.3333H10.6667V28H9.33329V26.6667V25.3333H7.99999V26.6667V28H6.66669V29.3333H7.99999V30.6667Z" fill="white" style="fill:white;fill-opacity:1;"/>
<path d="M9.3333 12V10.6667H8.1548C8.1022 10.7254 8.0521 10.7862 8 10.8453V12H9.3333Z" fill="white" style="fill:white;fill-opacity:1;"/>
<path d="M14.6667 34.6667H13.3333V36H12V37.3333H10.6667V40H9.33331V41.3333H10.6667V42.6667H12V44H14.6667V42.6667H13.3333V41.3333H12V40H13.3333V38.6667H14.6667V40H16V36H14.6667V34.6667Z" fill="white" style="fill:white;fill-opacity:1;"/>
<path d="M12.4601 57.3333C12.7474 57.5551 13.0386 57.7715 13.3333 57.9836V57.3333H12.4601Z" fill="white" style="fill:white;fill-opacity:1;"/>
<path d="M14.6667 48H13.3334V49.3333H12.0001V48H10.6668V46.6667H9.33348V45.3334H8.00018V46.6667H6.66688V48H5.33358V49.3333H5.10748C5.59708 50.0914 6.11678 50.8276 6.66688 51.5398V50.6666H8.00018V49.3333H9.33348V50.6666H10.6668V51.9999H12.0001V53.3332H10.6668V54.6665H9.41388C10.2321 55.4818 11.0981 56.2481 12.0002 56.9716V55.9999H13.3335V57.3332H14.6668V58.6665H14.3143C14.8638 59.0317 15.4274 59.3767 16.0002 59.7082V54.6665H14.6669V53.3332H13.3336V51.9999H14.6669V50.6666H16.0002V46.6666H14.6669L14.6667 48Z" fill="white" style="fill:white;fill-opacity:1;"/>
<path d="M1.3333 34.6667V33.3334H2.6666V30.6667H1.3333V29.3334H0.1191C0.0465 30.2135 0 31.1011 0 32C0 32.8989 0.0465 33.7865 0.1191 34.6667H1.3333Z" fill="white" style="fill:white;fill-opacity:1;"/>
<path d="M2.66671 40V38.6667H4.00001V40H5.33331V41.3333H4.00001V42.6666H2.66671V43.9999H5.33341V42.6666H6.66671V41.3333H8.00001V40H6.66671V37.3333H5.33341V36H4.00011V34.6667H2.66681V36H1.33351V37.3333H0.450806C0.602206 38.2346 0.783206 39.1259 1.00811 40H2.66671Z" fill="white" style="fill:white;fill-opacity:1;"/>
<path d="M5.3333 34.6667H6.6667V33.3333H8V32V30.6667H6.6667V29.3333H5.3333V30.6667H4V32V33.3333H5.3333V34.6667Z" fill="white" style="fill:white;fill-opacity:1;"/>
<path d="M9.33329 33.3333H7.99999V34.6667H6.66669V36H7.99999V37.3333V38.6667H9.33329V37.3333V36H10.6667V34.6667H9.33329V33.3333Z" fill="white" style="fill:white;fill-opacity:1;"/>
<path d="M9.3333 52H8V53.1547C8.0521 53.2138 8.1022 53.2747 8.1548 53.3333H9.3333V52Z" fill="white" style="fill:white;fill-opacity:1;"/>
<path d="M16 30.6476H14.6667V33.3143H16V30.6476Z" fill="white" style="fill:white;fill-opacity:1;"/>
<path d="M16 42.6667V59.7102C20.7067 62.4354 26.1693 64 32 64C45.932 64 57.7782 55.0939 62.1719 42.6667H16Z" fill="#619B27" style="fill:#619B27;fill:color(display-p3 0.3804 0.6078 0.1529);fill-opacity:1;"/>
</g>
<defs>
<clipPath id="clip0_6_415">
<rect width="64" height="64" fill="white" style="fill:white;fill-opacity:1;"/>
</clipPath>
</defs>
</svg>
