<svg width="64" height="64" viewBox="0 0 64 64" fill="none" xmlns="http://www.w3.org/2000/svg">
<g clip-path="url(#clip0_6_366)">
<path d="M54.4762 9.22839H9.5238C3.6459 15.0306 0 23.0883 0 32C0 40.9117 3.6459 48.9694 9.5238 54.7715H54.4763C60.3541 48.9694 64.0001 40.9116 64.0001 32C64.0001 23.0884 60.3541 15.0306 54.4762 9.22839ZM32 49.3333C22.4271 49.3333 14.6667 41.5729 14.6667 32C14.6667 22.4271 22.4271 14.6667 32 14.6667C41.5729 14.6667 49.3333 22.4271 49.3333 32C49.3333 41.5729 41.5729 49.3333 32 49.3333Z" fill="#2D25C5" style="fill:#2D25C5;fill:color(display-p3 0.1765 0.1451 0.7725);fill-opacity:1;"/>
<path d="M32 0C23.2386 0 15.3026 3.5242 9.5238 9.2284H54.4763C48.6974 3.5242 40.7614 0 32 0Z" fill="#F0263C" style="fill:#F0263C;fill:color(display-p3 0.9412 0.1490 0.2353);fill-opacity:1;"/>
<path d="M32 64C40.7614 64 48.6974 60.4758 54.4762 54.7715H9.5238C15.3026 60.4758 23.2386 64 32 64Z" fill="#F0263C" style="fill:#F0263C;fill:color(display-p3 0.9412 0.1490 0.2353);fill-opacity:1;"/>
<path d="M34.6667 24L33.3333 22.6667V24H34.6667Z" fill="white" style="fill:white;fill-opacity:1;"/>
<path d="M34.6667 25.3333H33.3333V26.6667L34.6667 25.3333Z" fill="white" style="fill:white;fill-opacity:1;"/>
<path d="M30.6667 22.6667L32 24V22.6667H30.6667Z" fill="white" style="fill:white;fill-opacity:1;"/>
<path d="M34.6667 24L36 25.3333V26.6667V28L37.3333 26.6667V25.3333V24L38.6667 22.6667L36 24H34.6667Z" fill="white" style="fill:white;fill-opacity:1;"/>
<path d="M32 25.3333H30.6667V26.6666H32V25.3333Z" fill="white" style="fill:white;fill-opacity:1;"/>
<path d="M30.6667 28H29.3333L28 29.3333H30.6667V28Z" fill="white" style="fill:white;fill-opacity:1;"/>
<path d="M33.3333 29.3333H36L34.6667 28H33.3333V29.3333Z" fill="white" style="fill:white;fill-opacity:1;"/>
<path d="M30.6667 41.3333H33.3333L34.6667 40H32H29.3333L30.6667 41.3333Z" fill="white" style="fill:white;fill-opacity:1;"/>
<path d="M46.3156 31.6489C46.2954 30.8244 46.2136 30.0152 46.0593 29.2305L44.8791 28.5491L44.534 27.2612L45.7439 27.9598C45.5108 27.1684 45.2058 26.4098 44.846 25.6814L43.5472 25.3334L42.8805 24.1787L44.2132 24.5358C43.7862 23.8398 43.3048 23.1831 42.7691 22.572H41.4282L40.4854 21.6292H41.8662C41.2799 21.0713 40.6544 20.5543 39.9806 20.101L38.6668 20.4531L37.5121 19.7864L38.8665 19.4235C38.1541 19.033 37.4004 18.7119 36.6212 18.4455L35.451 19.1211L34.1631 18.776L35.3649 18.0822C34.5829 17.893 33.7776 17.7697 32.9519 17.7151L32.0001 18.6669H30.6668L31.6491 17.6847C30.8246 17.7048 30.0154 17.7866 29.2306 17.9409L28.5492 19.1212L27.2614 19.4663L27.9599 18.2564C27.1685 18.4895 26.4099 18.7946 25.6815 19.1544L25.3335 20.4533L24.1788 21.12L24.5359 19.7873C23.84 20.2143 23.1832 20.6956 22.5721 21.2313V22.5722L21.6292 23.515V22.1343C21.0713 22.7205 20.5543 23.3461 20.101 24.0197L20.4531 25.3336L19.7864 26.4883L19.4235 25.1338C19.033 25.8463 18.7119 26.6001 18.4456 27.3792L19.1211 28.5493L18.776 29.8372L18.0822 28.6354C17.8931 29.4174 17.7697 30.2227 17.715 31.0484L18.6668 32.0002V33.3335L17.6845 32.3513C17.7047 33.1758 17.7865 33.985 17.9408 34.7697L19.121 35.4511L19.4661 36.739L18.2562 36.0404C18.4893 36.8318 18.7943 37.5904 19.1541 38.3188L20.4529 38.6668L21.1196 39.8215L19.7869 39.4644C20.2139 40.1604 20.6953 40.8171 21.231 41.4282H22.5719L23.5147 42.371H22.1339C22.7202 42.9289 23.3457 43.4459 24.0195 43.8992L25.3333 43.5471L26.488 44.2138L25.1336 44.5767C25.846 44.9672 26.5998 45.2882 27.3789 45.5547L28.5491 44.8791L29.837 45.2242L28.6351 45.9181C29.4172 46.1073 30.2225 46.2306 31.0482 46.2852L32 45.3334H33.3333L32.351 46.3156C33.1755 46.2955 33.9847 46.2137 34.7695 46.0594L35.4509 44.8791L36.7387 44.534L36.0402 45.744C36.8316 45.5109 37.5902 45.2058 38.3186 44.846L38.6666 43.5471L39.8213 42.8804L39.4642 44.2131C40.1601 43.7861 40.8169 43.3048 41.428 42.7691V41.4282L42.3709 40.4854V41.8661C42.9288 41.2799 43.4458 40.6543 43.8991 39.9807L43.547 38.6668L44.2137 37.5121L44.5766 38.8666C44.9671 38.1541 45.2881 37.4003 45.5545 36.6212L44.879 35.4511L45.2241 34.1632L45.9179 35.365C46.107 34.583 46.2304 33.7777 46.2851 32.952L45.3333 32.0002V30.6669L46.3156 31.6489ZM42.6667 28L41.3334 29.3333L40.0001 28V37.3333H41.3334V38.6666L40.0001 39.9999L38.6668 41.3332H37.3335L36.0002 42.6665L34.6669 43.9998H33.3336V42.6665H30.6669V43.9998H29.3336L28.0003 42.6665L26.667 41.3332H25.3337L24.0004 39.9999L22.6671 38.6666V37.3333H24.0004V28L22.6671 29.3333L21.3338 28V26.6667H22.6671V28L24.0004 25.3333V24L25.3337 22.6667L26.667 24L28.0003 22.6667H26.667V21.3334H28.0003L29.3336 20.0001H34.6669L37.3336 21.3334L38.6669 22.6667L40.0002 24V25.3333L41.3335 28V26.6667H42.6668L42.6667 28Z" fill="white" style="fill:white;fill-opacity:1;"/>
<path d="M28 29.3333H26.6667V30.6667L27.5942 36.2319L28.1904 36.3809L28 36V29.3333Z" fill="white" style="fill:white;fill-opacity:1;"/>
<path d="M25.3333 36.6667L26.0741 36.2963L25.3333 33.3333V36.6667Z" fill="white" style="fill:white;fill-opacity:1;"/>
<path d="M38.6667 33.3333L37.9259 36.2963L38.6667 36.6667V33.3333Z" fill="white" style="fill:white;fill-opacity:1;"/>
<path d="M35.8096 36.3809L36.4058 36.2319L37.3333 30.6667V29.3333H36V36L35.8096 36.3809Z" fill="white" style="fill:white;fill-opacity:1;"/>
<path d="M32 14.6667C22.4271 14.6667 14.6667 22.4271 14.6667 32C14.6667 41.5729 22.4271 49.3333 32 49.3333C41.5729 49.3333 49.3333 41.5729 49.3333 32C49.3333 22.4271 41.5729 14.6667 32 14.6667ZM47.7999 34.8532L47.4548 36.1411L46.182 36.8759C45.9017 37.6887 45.556 38.471 45.1466 39.2141L46.5231 38.8453L45.8564 40L44.4346 40.3809C43.9547 41.0907 43.4125 41.7544 42.8216 42.3708H44.2565L43.3137 43.3136H41.8322C41.1921 43.8706 40.5071 44.3775 39.7788 44.821L41.1547 45.1897L40 45.8564L38.5803 45.476C37.8196 45.8489 37.0224 46.1571 36.1966 46.3982L37.429 47.1097L36.1411 47.4548L34.8706 46.7213C34.0442 46.8822 33.1935 46.9731 32.325 46.9917L33.3333 48H32L30.9599 46.9599C30.0966 46.9005 29.2533 46.7687 28.4359 46.5686L29.1468 47.7999L27.8589 47.4548L27.124 46.182C26.3112 45.9017 25.5289 45.556 24.7858 45.1466L25.1547 46.5231L24 45.8564L23.619 44.4346C22.9093 43.9547 22.2455 43.4126 21.6291 42.8216V44.2565L20.6863 43.3137V41.8322C20.1293 41.1921 19.6224 40.5071 19.179 39.7789L18.8103 41.1548L18.1436 40.0001L18.5241 38.5805C18.1511 37.8199 17.843 37.0226 17.6019 36.1968L16.8904 37.4292L16.5453 36.1413L17.2787 34.8708C17.1179 34.0443 17.0269 33.1937 17.0084 32.3253L16.0001 33.3336V32.0003L17.0402 30.9602C17.0997 30.0969 17.2314 29.2536 17.4314 28.4362L16.2002 29.1471L16.5453 27.8592L17.8181 27.1243C18.0984 26.3115 18.4441 25.5293 18.8535 24.7862L17.477 25.155L18.1437 24.0003L19.5655 23.6194C20.0454 22.9096 20.5876 22.2459 21.1785 21.6295H19.7436L20.6864 20.6867H22.168C22.8081 20.1297 23.4931 19.6229 24.2213 19.1794L22.8454 18.8107L24.0001 18.144L25.4198 18.5244C26.1805 18.1515 26.9777 17.8433 27.8035 17.6022L26.5711 16.8907L27.859 16.5456L29.1295 17.2791C29.9559 17.1182 30.8066 17.0273 31.6751 17.0087L30.6668 16.0004H32.0001L33.0402 17.0405C33.9035 17.0999 34.7468 17.2317 35.5642 17.4318L34.8533 16.2005L36.1412 16.5456L36.8761 17.8185C37.6889 18.0988 38.4712 18.4445 39.2143 18.8539L38.8454 17.4774L40.0001 18.1441L40.3811 19.5659C41.0908 20.0458 41.7546 20.5879 42.371 21.1789V19.744L43.3138 20.6868V22.1684C43.8708 22.8085 44.3777 23.4935 44.8211 24.2217L45.1898 22.8458L45.8565 24.0005L45.476 25.4201C45.849 26.1807 46.1571 26.978 46.3982 27.8038L47.1097 26.5714L47.4548 27.8593L46.7214 29.1298C46.8822 29.9563 46.9732 30.8069 46.9917 31.6754L48 30.6671V32.0004L46.9599 33.0405C46.9004 33.9038 46.7687 34.7471 46.5687 35.5645L47.7999 34.8532Z" fill="white" style="fill:white;fill-opacity:1;"/>
<path d="M30.6666 21.3333H29.3333V22.6666H30.6666V21.3333Z" fill="white" style="fill:white;fill-opacity:1;"/>
<path d="M26.6667 26.6667L28 28V26.6667L29.3333 25.3333H28L26.6667 24V25.3333V26.6667Z" fill="white" style="fill:white;fill-opacity:1;"/>
<path d="M32 25.3333V24H30.6667H29.3333V25.3333H30.6667H32Z" fill="#FFAD66" style="fill:#FFAD66;fill:color(display-p3 1.0000 0.6784 0.4000);fill-opacity:1;"/>
<path d="M30.6667 29.3333H32H33.3333V28H32V26.6667L30.6667 28V29.3333Z" fill="#FFAD66" style="fill:#FFAD66;fill:color(display-p3 1.0000 0.6784 0.4000);fill-opacity:1;"/>
<path d="M33.3333 22.6667H32V24H33.3333V22.6667Z" fill="#FFAD66" style="fill:#FFAD66;fill:color(display-p3 1.0000 0.6784 0.4000);fill-opacity:1;"/>
<path d="M33.3333 25.3333H32V26.6666H33.3333V25.3333Z" fill="#FFAD66" style="fill:#FFAD66;fill:color(display-p3 1.0000 0.6784 0.4000);fill-opacity:1;"/>
<path d="M30.6667 21.3333V22.6667H32L30.6667 21.3333Z" fill="#FFAD66" style="fill:#FFAD66;fill:color(display-p3 1.0000 0.6784 0.4000);fill-opacity:1;"/>
<path d="M26.6667 29.3333H28L29.3333 28H28L26.6667 26.6667V25.3333V24L25.3333 22.6667L24 24V25.3333L22.6667 28V26.6667H21.3333V28L22.6667 29.3333L24 28V30.6667H26.6667V29.3333Z" fill="#CC9500" style="fill:#CC9500;fill:color(display-p3 0.8000 0.5843 0.0000);fill-opacity:1;"/>
<path d="M41.3333 28L40 25.3333V24L38.6667 22.6667L37.3333 24V25.3333V26.6667L36 28H34.6667L36 29.3333H37.3333V30.6667H40V28L41.3333 29.3333L42.6667 28V26.6667H41.3333V28Z" fill="#5A2919" style="fill:#5A2919;fill:color(display-p3 0.3529 0.1608 0.0980);fill-opacity:1;"/>
<path d="M29.3333 41.3333V40H26.6667L29.3333 41.3333Z" fill="#2D25C5" style="fill:#2D25C5;fill:color(display-p3 0.1765 0.1451 0.7725);fill-opacity:1;"/>
<path d="M37.3333 40H34.6667V41.3333L37.3333 40Z" fill="#2D25C5" style="fill:#2D25C5;fill:color(display-p3 0.1765 0.1451 0.7725);fill-opacity:1;"/>
<path d="M30.6666 42.6667H29.3333V44H30.6666V42.6667Z" fill="#2D25C5" style="fill:#2D25C5;fill:color(display-p3 0.1765 0.1451 0.7725);fill-opacity:1;"/>
<path d="M34.6666 42.6667H33.3333V44H34.6666V42.6667Z" fill="#2D25C5" style="fill:#2D25C5;fill:color(display-p3 0.1765 0.1451 0.7725);fill-opacity:1;"/>
<path d="M37.3333 40L34.6667 41.3333V40L33.3333 41.3333H30.6667L29.3333 40V41.3333L26.6667 40H25.3333H24L25.3333 41.3333H26.6667L28 42.6667L29.3333 44V42.6667H30.6667H32H33.3333H34.6667V44L36 42.6667L37.3333 41.3333H38.6667L40 40H38.6667H37.3333Z" fill="#FFD400" style="fill:#FFD400;fill:color(display-p3 1.0000 0.8314 0.0000);fill-opacity:1;"/>
<path d="M36 25.3333L34.6667 24H33.3333H32V25.3333H33.3333H34.6667L33.3333 26.6667H32V28H33.3333H34.6667H36V26.6667V25.3333Z" fill="#619B27" style="fill:#619B27;fill:color(display-p3 0.3804 0.6078 0.1529);fill-opacity:1;"/>
<path d="M32 26.6667H30.6667V25.3333H29.3333L28 26.6667V28H29.3333H30.6667L32 26.6667Z" fill="#619B27" style="fill:#619B27;fill:color(display-p3 0.3804 0.6078 0.1529);fill-opacity:1;"/>
<path d="M48 32V30.6667L46.9917 31.675C46.9731 30.8066 46.8822 29.9559 46.7214 29.1294L47.4548 27.8589L47.1097 26.571L46.3982 27.8034C46.1571 26.9775 45.849 26.1803 45.476 25.4197L45.8565 24.0001L45.1898 22.8454L44.8211 24.2213C44.3777 23.4931 43.8708 22.8081 43.3138 22.168V20.6864L42.371 19.7436V21.1785C41.7545 20.5875 41.0908 20.0454 40.3811 19.5655L40.0001 18.1437L38.8454 17.477L39.2143 18.8535C38.4711 18.444 37.6889 18.0983 36.8761 17.8181L36.1412 16.5452L34.8533 16.2001L35.5642 17.4314C34.7468 17.2314 33.9035 17.0996 33.0402 17.0401L32.0001 16H30.6668L31.6751 17.0083C30.8066 17.0269 29.9559 17.1178 29.1295 17.2787L27.859 16.5452L26.5711 16.8903L27.8035 17.6018C26.9777 17.8429 26.1805 18.1511 25.4198 18.524L24.0001 18.1436L22.8454 18.8103L24.2213 19.179C23.4931 19.6225 22.8081 20.1293 22.168 20.6863H20.6864L19.7436 21.6291H21.1785C20.5875 22.2456 20.0454 22.9093 19.5655 23.619L18.1437 23.9999L17.477 25.1546L18.8535 24.7858C18.4441 25.5289 18.0984 26.3111 17.8181 27.1239L16.5453 27.8588L16.2002 29.1467L17.4314 28.4358C17.2314 29.2532 17.0997 30.0965 17.0402 30.9598L16.0001 31.9999V33.3332L17.0084 32.3249C17.027 33.1933 17.1179 34.044 17.2787 34.8704L16.5453 36.1409L16.8904 37.4288L17.6019 36.1964C17.843 37.0223 18.1511 37.8195 18.5241 38.5801L18.1436 39.9997L18.8103 41.1544L19.179 39.7785C19.6224 40.5067 20.1293 41.1917 20.6863 41.8318V43.3133L21.6291 44.2561V42.8212C22.2456 43.4122 22.9093 43.9543 23.619 44.4342L24 45.856L25.1547 46.5227L24.7858 45.1462C25.529 45.5557 26.3112 45.9014 27.124 46.1816L27.8589 47.4544L29.1468 47.7995L28.4359 46.5682C29.2533 46.7682 30.0966 46.9 30.9599 46.9595L32 47.9996H33.3333L32.325 46.9913C33.1935 46.9727 34.0442 46.8818 34.8706 46.7209L36.1411 47.4544L37.429 47.1093L36.1966 46.3978C37.0224 46.1567 37.8196 45.8485 38.5803 45.4756L40 45.856L41.1547 45.1893L39.7788 44.8206C40.5071 44.3771 41.192 43.8703 41.8322 43.3132H43.3137L44.2565 42.3704H42.8216C43.4126 41.7539 43.9547 41.0902 44.4346 40.3805L45.8564 39.9996L46.5231 38.8449L45.1466 39.2137C45.556 38.4706 45.9017 37.6883 46.182 36.8755L47.4548 36.1407L47.7999 34.8528L46.5687 35.5637C46.7687 34.7464 46.9004 33.903 46.9599 33.0397L48 32ZM46.2852 32.9518C46.2305 33.7775 46.1071 34.5828 45.918 35.3648L45.2242 34.163L44.8791 35.4509L45.5546 36.621C45.2882 37.4001 44.9672 38.1539 44.5767 38.8664L44.2138 37.5119L43.5471 38.6666L43.8992 39.9805C43.4459 40.6542 42.929 41.2797 42.371 41.8659V40.4852L41.4281 41.428V42.7689C40.817 43.3046 40.1602 43.7859 39.4643 44.2129L39.8214 42.8802L38.6667 43.5469L38.3187 44.8458C37.5903 45.2056 36.8317 45.5107 36.0403 45.7438L36.7388 44.5338L35.451 44.8789L34.7696 46.0592C33.9849 46.2135 33.1757 46.2953 32.3511 46.3154L33.3334 45.3332H32.0001L31.0483 46.285C30.2226 46.2304 29.4173 46.107 28.6352 45.9179L29.8371 45.224L28.5492 44.8789L27.379 45.5545C26.5999 45.2881 25.8461 44.9671 25.1337 44.5765L26.4881 44.2136L25.3334 43.5469L24.0196 43.899C23.3459 43.4457 22.7203 42.9288 22.134 42.3708H23.5148L22.572 41.428H21.2311C20.6954 40.8169 20.214 40.1601 19.787 39.4642L21.1197 39.8213L20.453 38.6666L19.1542 38.3186C18.7943 37.5902 18.4893 36.8316 18.2563 36.0402L19.4662 36.7388L19.1211 35.4509L17.9409 34.7695C17.7865 33.9848 17.7047 33.1756 17.6846 32.3511L18.6669 33.3333V32L17.7151 31.0482C17.7698 30.2225 17.8932 29.4172 18.0823 28.6352L18.7761 29.837L19.1212 28.5491L18.4457 27.379C18.7121 26.5999 19.0331 25.8461 19.4236 25.1336L19.7865 26.4881L20.4532 25.3334L20.1011 24.0195C20.5544 23.3458 21.0713 22.7203 21.6293 22.1341V23.5148L22.5722 22.572V21.2311C23.1833 20.6954 23.8401 20.2141 24.536 19.7871L24.1789 21.1198L25.3336 20.4531L25.6816 19.1542C26.41 18.7944 27.1686 18.4893 27.96 18.2562L27.2615 19.4661L28.5493 19.121L29.2307 17.9407C30.0154 17.7864 30.8246 17.7046 31.6492 17.6845L30.6669 18.6667H32.0002L32.952 17.7149C33.7777 17.7695 34.583 17.8929 35.365 18.082L34.1632 18.7758L35.4511 19.1209L36.6213 18.4453C37.4004 18.7117 38.1542 19.0328 38.8666 19.4233L37.5122 19.7862L38.6669 20.4529L39.9807 20.1008C40.6544 20.5541 41.28 21.071 41.8663 21.629H40.4855L41.4283 22.5718H42.7692C43.3049 23.1829 43.7863 23.8397 44.2133 24.5356L42.8806 24.1785L43.5473 25.3332L44.8461 25.6812C45.206 26.4096 45.511 27.1682 45.744 27.9596L44.5341 27.261L44.8792 28.5489L46.0594 29.2303C46.2138 30.015 46.2956 30.8242 46.3157 31.6487L45.3334 30.6665V31.9998L46.2852 32.9518Z" fill="#619B27" style="fill:#619B27;fill:color(display-p3 0.3804 0.6078 0.1529);fill-opacity:1;"/>
<path d="M32 29.3333V33.3333L36 36V29.3333H32ZM34.6667 32H33.3334V30.6667H34.6667V32Z" fill="#FFD400" style="fill:#FFD400;fill:color(display-p3 1.0000 0.8314 0.0000);fill-opacity:1;"/>
<path d="M32 33.3333V29.3333H28V36L32 33.3333ZM29.3333 30.6666H30.6666V31.9999H29.3333V30.6666Z" fill="#F0F0F0" style="fill:#F0F0F0;fill:color(display-p3 0.9412 0.9412 0.9412);fill-opacity:1;"/>
<path d="M30.6666 30.6667H29.3333V32H30.6666V30.6667Z" fill="#FFAD66" style="fill:#FFAD66;fill:color(display-p3 1.0000 0.6784 0.4000);fill-opacity:1;"/>
<path d="M34.6666 30.6667H33.3333V32H34.6666V30.6667Z" fill="#C8C8C8" style="fill:#C8C8C8;fill:color(display-p3 0.7843 0.7843 0.7843);fill-opacity:1;"/>
<path d="M26.6667 40H29.3333H32L29.3333 38.6667L28.6667 37.3333L28.1904 36.3809L27.5942 36.2319L28 38.6667H26.6667L26.0741 36.2963L25.3333 36.6667V38.6667H24V37.3333H22.6667V38.6667L24 40H25.3333H26.6667Z" fill="#619B27" style="fill:#619B27;fill:color(display-p3 0.3804 0.6078 0.1529);fill-opacity:1;"/>
<path d="M38.6667 38.6667V36.6667L37.9259 36.2963L37.3333 38.6667H36L36.4058 36.2319L35.8096 36.3809L35.3333 37.3333L34.6667 38.6667L32 40H34.6667H37.3333H38.6667H40L41.3333 38.6667V37.3333H40V38.6667H38.6667Z" fill="#619B27" style="fill:#619B27;fill:color(display-p3 0.3804 0.6078 0.1529);fill-opacity:1;"/>
<path d="M32 33.3333L28 36L28.1904 36.3809L28.6667 37.3333H29.3333L30.6667 36V34.6667H33.3333L34.6667 37.3333H35.3333L35.8096 36.3809L36 36L32 33.3333Z" fill="#4DAFE3" style="fill:#4DAFE3;fill:color(display-p3 0.3020 0.6863 0.8902);fill-opacity:1;"/>
<path d="M33.3333 34.6667H30.6667V36L29.3333 37.3333H34.6667L33.3333 34.6667Z" fill="#C8C8C8" style="fill:#C8C8C8;fill:color(display-p3 0.7843 0.7843 0.7843);fill-opacity:1;"/>
<path d="M29.3333 37.3333H28.6667L29.3333 38.6667L32 40L34.6667 38.6667L35.3333 37.3333H34.6667H29.3333Z" fill="#007ACC" style="fill:#007ACC;fill:color(display-p3 0.0000 0.4784 0.8000);fill-opacity:1;"/>
<path d="M36.4058 36.2319L36 38.6667H37.3333L37.9259 36.2963L38.6667 33.3333V36.6667V38.6667H40V37.3333V36V30.6667H37.3333L36.4058 36.2319Z" fill="#C8C8C8" style="fill:#C8C8C8;fill:color(display-p3 0.7843 0.7843 0.7843);fill-opacity:1;"/>
<path d="M25.3333 38.6667V36.6667V33.3333L26.0741 36.2963L26.6667 38.6667H28L27.5942 36.2319L26.6667 30.6667H24V36V37.3333V38.6667H25.3333Z" fill="#C8C8C8" style="fill:#C8C8C8;fill:color(display-p3 0.7843 0.7843 0.7843);fill-opacity:1;"/>
<path d="M29.3333 25.3333V24H30.6667H32L30.6667 22.6667H29.3333V21.3333H30.6667L32 22.6667H33.3333L34.6667 24H36L38.6667 22.6667L37.3333 21.3333L34.6667 20H32H29.3333L28 21.3333H26.6667V22.6667H28L26.6667 24L28 25.3333H29.3333Z" fill="#619B27" style="fill:#619B27;fill:color(display-p3 0.3804 0.6078 0.1529);fill-opacity:1;"/>
</g>
<defs>
<clipPath id="clip0_6_366">
<rect width="64" height="64" fill="white" style="fill:white;fill-opacity:1;"/>
</clipPath>
</defs>
</svg>
