<svg width="64" height="64" viewBox="0 0 64 64" fill="none" xmlns="http://www.w3.org/2000/svg">
<g clip-path="url(#clip0_6_564)">
<path d="M32 64C49.6731 64 64 49.6731 64 32C64 14.3269 49.6731 0 32 0C14.3269 0 0 14.3269 0 32C0 49.6731 14.3269 64 32 64Z" fill="#191977" style="fill:#191977;fill:color(display-p3 0.0980 0.0980 0.4667);fill-opacity:1;"/>
<path d="M25.3333 25.3233H63.2996C62.2463 20.3466 60.0383 15.7995 56.9717 11.9698H12L25.3333 25.3233Z" fill="white" style="fill:white;fill-opacity:1;"/>
<path d="M12 52.0302H56.9717C60.0383 48.2005 62.2463 43.6535 63.2996 38.6767H25.3333L12 52.0302Z" fill="white" style="fill:white;fill-opacity:1;"/>
<path d="M25.3333 38.6767L32 32L25.3333 25.3233L12 11.9698L9.3811 9.3469L9.3788 9.3446L9.3726 9.3383C8.5427 10.1695 7.764 11.051 7.0289 11.969C7.0291 11.9688 7.0287 11.9692 7.0289 11.969C7.0283 11.9697 7.0272 11.9712 7.0266 11.9718C4.6665 14.9198 2.8179 18.2933 1.6105 21.961C1.6103 21.9617 1.6101 21.9623 1.6098 21.963C0.5704 25.1214 0 28.4931 0 32C0 35.5069 0.5704 38.8786 1.6099 42.0369C1.6101 42.0376 1.6103 42.0383 1.6106 42.0389C2.818 45.7065 4.6665 49.08 7.0267 52.0281C7.0273 52.0288 7.0278 52.0295 7.0284 52.0302C7.0282 52.03 7.0286 52.0304 7.0284 52.0302C7.7635 52.9482 8.5428 53.8304 9.3727 54.6616L9.3789 54.6553L9.3812 54.653L12.0001 52.0301L25.3333 38.6767ZM15.1536 29.5896H21.0441L16.2786 33.0572L18.0989 38.6678L13.3334 35.2003L8.5679 38.6678L10.3882 33.0572L5.6227 29.5896H11.5132L13.3335 23.9789L15.1536 29.5896Z" fill="#F0263C" style="fill:#F0263C;fill:color(display-p3 0.9412 0.1490 0.2353);fill-opacity:1;"/>
<path d="M11.5131 29.5896H5.62262L10.3881 33.0572L8.56782 38.6678L13.3333 35.2003L18.0988 38.6678L16.2786 33.0572L21.0441 29.5896H15.1536L13.3333 23.979L11.5131 29.5896Z" fill="white" style="fill:white;fill-opacity:1;"/>
</g>
<defs>
<clipPath id="clip0_6_564">
<rect width="64" height="64" fill="white" style="fill:white;fill-opacity:1;"/>
</clipPath>
</defs>
</svg>
