<svg width="64" height="64" viewBox="0 0 64 64" fill="none" xmlns="http://www.w3.org/2000/svg">
<g clip-path="url(#clip0_6_531)">
<path d="M64 32C64 14.3269 49.6731 0 32 0C14.3269 0 0 14.3269 0 32C0 32.6724 0.0276 33.3379 0.0685 34H63.9315C63.9724 33.3379 64 32.6724 64 32Z" fill="#191977" style="fill:#191977;fill:color(display-p3 0.0980 0.0980 0.4667);fill-opacity:1;"/>
<path d="M33.6621 63.9572C33.1094 63.9766 32.5578 64 32 64C32.5575 64 33.1116 63.9854 33.6621 63.9572Z" fill="#191977" style="fill:#191977;fill:color(display-p3 0.0980 0.0980 0.4667);fill-opacity:1;"/>
<path d="M32 64C31.4423 64 30.8906 63.9766 30.3379 63.9572C30.8884 63.9854 31.4425 64 32 64Z" fill="#191977" style="fill:#191977;fill:color(display-p3 0.0980 0.0980 0.4667);fill-opacity:1;"/>
<path d="M2.60999 44.6667H61.3899C62.1261 42.961 62.7131 41.1773 63.1457 39.3334H0.854187C1.28679 41.1773 1.87389 42.961 2.60999 44.6667Z" fill="#F0263C" style="fill:#F0263C;fill:color(display-p3 0.9412 0.1490 0.2353);fill-opacity:1;"/>
<path d="M63.1458 39.3333C63.5513 37.6047 63.8189 35.8238 63.9315 34H0.0684814C0.181081 35.8239 0.448681 37.6048 0.854181 39.3333H63.1458Z" fill="white" style="fill:white;fill-opacity:1;"/>
<path d="M5.54219 50H58.4577C59.5967 48.3291 60.5796 46.5441 61.3899 44.6667H2.60999C3.42029 46.5441 4.40319 48.3291 5.54219 50Z" fill="white" style="fill:white;fill-opacity:1;"/>
<path d="M58.4578 50H5.54218C11.0103 58.0218 20.0287 63.4296 30.3379 63.9572C30.8906 63.9766 31.4422 64 32 64C32.5578 64 33.1094 63.9766 33.6621 63.9572C43.9713 63.4297 52.9897 58.0218 58.4578 50Z" fill="#191977" style="fill:#191977;fill:color(display-p3 0.0980 0.0980 0.4667);fill-opacity:1;"/>
<path d="M28.0002 24.3098L25.6431 26.6665L27.9999 29.0236L30.357 26.6669L28.0002 24.3098Z" fill="#FFD400" style="fill:#FFD400;fill:color(display-p3 1.0000 0.8314 0.0000);fill-opacity:1;"/>
<path d="M37.3335 26.9764L34.9764 29.3332L37.3331 31.6903L39.6902 29.3335L37.3335 26.9764Z" fill="#FFD400" style="fill:#FFD400;fill:color(display-p3 1.0000 0.8314 0.0000);fill-opacity:1;"/>
<path d="M42.6668 34.3097L40.3098 36.6665L42.6665 39.0236L45.0236 36.6668L42.6668 34.3097Z" fill="#FFD400" style="fill:#FFD400;fill:color(display-p3 1.0000 0.8314 0.0000);fill-opacity:1;"/>
<path d="M42.6668 44.9764L40.3098 47.3332L42.6665 49.6903L45.0236 47.3335L42.6668 44.9764Z" fill="#FFD400" style="fill:#FFD400;fill:color(display-p3 1.0000 0.8314 0.0000);fill-opacity:1;"/>
<path d="M28.0002 54.9765L25.6431 57.3332L27.9999 59.6903L30.357 57.3336L28.0002 54.9765Z" fill="#FFD400" style="fill:#FFD400;fill:color(display-p3 1.0000 0.8314 0.0000);fill-opacity:1;"/>
<path d="M37.3335 51.6431L34.9764 53.9999L37.3331 56.357L39.6902 54.0002L37.3335 51.6431Z" fill="#FFD400" style="fill:#FFD400;fill:color(display-p3 1.0000 0.8314 0.0000);fill-opacity:1;"/>
<path d="M18.6669 26.9764L16.3098 29.3331L18.6666 31.6902L21.0237 29.3335L18.6669 26.9764Z" fill="#FFD400" style="fill:#FFD400;fill:color(display-p3 1.0000 0.8314 0.0000);fill-opacity:1;"/>
<path d="M13.3335 34.3098L10.9764 36.6666L13.3331 39.0237L15.6902 36.6669L13.3335 34.3098Z" fill="#FFD400" style="fill:#FFD400;fill:color(display-p3 1.0000 0.8314 0.0000);fill-opacity:1;"/>
<path d="M13.3335 44.9764L10.9764 47.3332L13.3331 49.6903L15.6902 47.3335L13.3335 44.9764Z" fill="#FFD400" style="fill:#FFD400;fill:color(display-p3 1.0000 0.8314 0.0000);fill-opacity:1;"/>
<path d="M18.6668 51.6431L16.3098 53.9998L18.6665 56.3569L21.0236 54.0002L18.6668 51.6431Z" fill="#FFD400" style="fill:#FFD400;fill:color(display-p3 1.0000 0.8314 0.0000);fill-opacity:1;"/>
</g>
<defs>
<clipPath id="clip0_6_531">
<rect width="64" height="64" fill="white" style="fill:white;fill-opacity:1;"/>
</clipPath>
</defs>
</svg>
