<svg width="64" height="64" viewBox="0 0 64 64" fill="none" xmlns="http://www.w3.org/2000/svg">
<g clip-path="url(#clip0_6_626)">
<path d="M38.6667 25.3333V0.7003C36.5157 0.2444 34.2867 0 32 0C29.7133 0 27.4843 0.2444 25.3333 0.7003V25.3333H0.7004C0.2444 27.4843 0 29.7133 0 32C0 34.2867 0.2444 36.5157 0.7004 38.6667H25.3334V63.2997C27.4843 63.7556 29.7133 64.0001 32.0001 64.0001C34.2869 64.0001 36.5158 63.7557 38.6668 63.2997V38.6667H63.2998C63.7557 36.5158 64.0001 34.2868 64.0001 32C64.0001 29.7132 63.7557 27.4843 63.2998 25.3333H38.6667Z" fill="white" style="fill:white;fill-opacity:1;"/>
<path d="M38.6668 36L37.3334 37.3333L36.0001 38.6667H35.3334L34.6668 37.3333H29.3334L28.6668 38.6667H28.0001L26.6668 37.3333L25.3334 36V38L26.6668 38.6667L27.3334 40H29.3334L30.0001 38.6667H34.0001L34.6668 40H36.6668L37.3334 38.6667L38.6668 38V36Z" fill="#F0263C" style="fill:#F0263C;fill:color(display-p3 0.9412 0.1490 0.2353);fill-opacity:1;"/>
<path d="M38.6667 0.700302V25.3333H63.2999C60.6879 13.0118 50.9881 3.3121 38.6667 0.700302Z" fill="#F0263C" style="fill:#F0263C;fill:color(display-p3 0.9412 0.1490 0.2353);fill-opacity:1;"/>
<path d="M38.6667 63.2996C50.9882 60.6878 60.688 50.9882 63.2999 38.6666H38.6667V63.2996Z" fill="#191977" style="fill:#191977;fill:color(display-p3 0.0980 0.0980 0.4667);fill-opacity:1;"/>
<path d="M25.3333 0.700302C13.0117 3.3121 3.31224 13.0118 0.700439 25.3333H25.3334L25.3333 0.700302Z" fill="#191977" style="fill:#191977;fill:color(display-p3 0.0980 0.0980 0.4667);fill-opacity:1;"/>
<path d="M25.3333 63.2996V38.6666H0.700439C3.31224 50.9881 13.0117 60.6877 25.3333 63.2996Z" fill="#F0263C" style="fill:#F0263C;fill:color(display-p3 0.9412 0.1490 0.2353);fill-opacity:1;"/>
<path d="M30 25.3333L30.6667 24H33.3333L34 25.3333H36L37.3333 26.6667H40L37.3333 25.3333V24H34.6667V22.6667H29.3333V24H26.6667V25.3333L24 26.6667H26.6667L28 25.3333H30Z" fill="#191977" style="fill:#191977;fill:color(display-p3 0.0980 0.0980 0.4667);fill-opacity:1;"/>
<path d="M33.6 30.2667L34.6668 30V31.3333H36.0001V30V28.6667V28L37.3334 26.6667H36.0001L33.6 30.2667Z" fill="#F0263C" style="fill:#F0263C;fill:color(display-p3 0.9412 0.1490 0.2353);fill-opacity:1;"/>
<path d="M33 28.6667H32.6667V29.3333L32.9333 29.7333L36 26.6667H32.6667V28H33V28.6667Z" fill="#F0263C" style="fill:#F0263C;fill:color(display-p3 0.9412 0.1490 0.2353);fill-opacity:1;"/>
<path d="M26.6667 35.3333V34L28 32.6667L26.6667 32L28 30H26.6667L28 28.6667H26.6667V27.3333L25.3333 28.6667H24L25.3333 31.3333H24L25.3333 32.6667H24L25.3333 34L24 34.6667L25.3333 35.3333L29.3333 37.3333L28 35.3333H26.6667Z" fill="#1E5B00" style="fill:#1E5B00;fill:color(display-p3 0.1176 0.3569 0.0000);fill-opacity:1;"/>
<path d="M36 30L37.3334 32L36 32.6667L37.3334 34V35.3333H36L34.6667 37.3333L38.6667 35.3333L40 34.6667L38.6667 34L40 32.6667H38.6667L40 31.3333H38.6667L40 28.6667H38.6667L37.3334 27.3333V28.6667H36L37.3334 30H36Z" fill="#1E5B00" style="fill:#1E5B00;fill:color(display-p3 0.1176 0.3569 0.0000);fill-opacity:1;"/>
<path d="M34.6667 33.3333V34.6667H32.6667V36.6667L34.6667 36L36 34.6667V32.6667H34.6667V33.3333Z" fill="#191977" style="fill:#191977;fill:color(display-p3 0.0980 0.0980 0.4667);fill-opacity:1;"/>
<path d="M28 31.3333H29.3333V32.6667H30.6667L30 31.3333L30.7407 30.7778L30.4001 30.2667L28 26.6667H26.6667L28 28V28.6667V30V31.3333Z" fill="#191977" style="fill:#191977;fill:color(display-p3 0.0980 0.0980 0.4667);fill-opacity:1;"/>
<path d="M31.3333 28.6667H31V28H31.3333V26.6667H28L31.3333 30V28.6667Z" fill="#191977" style="fill:#191977;fill:color(display-p3 0.0980 0.0980 0.4667);fill-opacity:1;"/>
<path d="M34.6668 32.6667V31.3333V30L33.6 30.2667L33.4446 30.5L34.0001 31.3333V32L31.3334 34V34.1667L32.0001 34.6667L34.6668 32.6667Z" fill="#191977" style="fill:#191977;fill:color(display-p3 0.0980 0.0980 0.4667);fill-opacity:1;"/>
<path d="M34.6667 33.3333V32.6667L32 34.6667H32.6667H34.6667V33.3333Z" fill="#F0263C" style="fill:#F0263C;fill:color(display-p3 0.9412 0.1490 0.2353);fill-opacity:1;"/>
<path d="M31.3333 34L30.6667 32.6667H29.3333H28V34.6667L29.3333 36L31.3333 36.6667V34.6667H32L31.3333 34.1667V34Z" fill="#F0263C" style="fill:#F0263C;fill:color(display-p3 0.9412 0.1490 0.2353);fill-opacity:1;"/>
<path d="M33.4445 30.5L33.5999 30.2667L36 26.6667L32.9333 29.7333L33.4445 30.5Z" fill="#FFD400" style="fill:#FFD400;fill:color(display-p3 1.0000 0.8314 0.0000);fill-opacity:1;"/>
<path d="M31.5238 30.1905L31.3333 30L28 26.6667L30.4001 30.2667L30.7407 30.7778L31.5238 30.1905Z" fill="#FFD400" style="fill:#FFD400;fill:color(display-p3 1.0000 0.8314 0.0000);fill-opacity:1;"/>
<path d="M31 28.6667H31.3333H31.6667V30.0833L32.3333 29.5833V28.6667H32.6667H33V28H32.6667H32.3333V27.3333H31.6667V28H31.3333H31V28.6667Z" fill="#FFD400" style="fill:#FFD400;fill:color(display-p3 1.0000 0.8314 0.0000);fill-opacity:1;"/>
<path d="M31.3333 33.3333L34 31.3333L33.4445 30.5L32.9333 29.7333L32.6667 29.3333L32.3333 29.5833L31.6667 30.0833L31.5238 30.1905L30.7407 30.7778L30 31.3333L31.3333 33.3333Z" fill="#F0F0F0" style="fill:#F0F0F0;fill:color(display-p3 0.9412 0.9412 0.9412);fill-opacity:1;"/>
<path d="M34 32V31.3333L31.3333 33.3333L30 31.3333L30.6667 32.6667L31.3333 34L34 32Z" fill="#999999" style="fill:#999999;fill:color(display-p3 0.6000 0.6000 0.6000);fill-opacity:1;"/>
</g>
<defs>
<clipPath id="clip0_6_626">
<rect width="64" height="64" fill="white" style="fill:white;fill-opacity:1;"/>
</clipPath>
</defs>
</svg>
