<svg width="64" height="64" viewBox="0 0 64 64" fill="none" xmlns="http://www.w3.org/2000/svg">
<g clip-path="url(#clip0_6_741)">
<path d="M62.1719 21.3333H43.9227C46.457 24.1642 48 27.9013 48 32C48 36.0987 46.457 39.8358 43.9227 42.6667H62.1719C63.3518 39.3296 64 35.7412 64 32C64 28.2588 63.3517 24.6705 62.1719 21.3333Z" fill="#FFD400" style="fill:#FFD400;fill:color(display-p3 1.0000 0.8314 0.0000);fill-opacity:1;"/>
<path d="M16 32C16 27.9013 17.543 24.1642 20.0773 21.3333H1.8281C0.6483 24.6705 0 28.2588 0 32C0 35.7412 0.6483 39.3295 1.8281 42.6667H20.0773C17.543 39.8358 16 36.0987 16 32Z" fill="#FFD400" style="fill:#FFD400;fill:color(display-p3 1.0000 0.8314 0.0000);fill-opacity:1;"/>
<path d="M32 16C36.7379 16 40.993 18.061 43.9227 21.3333H62.1719C57.7782 8.9061 45.932 0 32 0C18.068 0 6.22183 8.9061 1.82812 21.3333H20.0773C23.007 18.0609 27.2621 16 32 16Z" fill="#619B27" style="fill:#619B27;fill:color(display-p3 0.3804 0.6078 0.1529);fill-opacity:1;"/>
<path d="M32 48C27.2621 48 23.007 45.939 20.0773 42.6667H1.82812C6.22183 55.0939 18.068 64 32 64C45.932 64 57.7782 55.0939 62.1719 42.6667H43.9227C40.993 45.9391 36.7379 48 32 48Z" fill="#F0263C" style="fill:#F0263C;fill:color(display-p3 0.9412 0.1490 0.2353);fill-opacity:1;"/>
<path d="M33.1338 36.3438L37.2621 39.3425L35.6853 34.4903C34.4784 35.3669 33.4066 36.1456 33.1338 36.3438Z" fill="#2D25C5" style="fill:#2D25C5;fill:color(display-p3 0.1765 0.1451 0.7725);fill-opacity:1;"/>
<path d="M36.3866 32.3327L40.5137 29.334H35.4118L36.3862 32.3327H36.3866Z" fill="#2D25C5" style="fill:#2D25C5;fill:color(display-p3 0.1765 0.1451 0.7725);fill-opacity:1;"/>
<path d="M32 23.1484L30.4235 28.0007H33.6305L32 23.1484Z" fill="#2D25C5" style="fill:#2D25C5;fill:color(display-p3 0.1765 0.1451 0.7725);fill-opacity:1;"/>
<path d="M34.0098 29.334H29.9902H29.9901L28.7479 33.1566L32 35.5195L35.2521 33.1566L34.0099 29.334H34.0098Z" fill="#2D25C5" style="fill:#2D25C5;fill:color(display-p3 0.1765 0.1451 0.7725);fill-opacity:1;"/>
<path d="M27.6138 32.3327L28.5882 29.334H23.4863L27.6134 32.3327H27.6138Z" fill="#2D25C5" style="fill:#2D25C5;fill:color(display-p3 0.1765 0.1451 0.7725);fill-opacity:1;"/>
<path d="M26.738 39.3424L30.8663 36.3437C30.5935 36.1455 29.5217 35.3668 28.3149 34.4902L26.738 39.3424Z" fill="#2D25C5" style="fill:#2D25C5;fill:color(display-p3 0.1765 0.1451 0.7725);fill-opacity:1;"/>
<path d="M32 16C27.2621 16 23.007 18.061 20.0773 21.3333C17.543 24.1642 16 27.9013 16 32C16 36.0987 17.543 39.8358 20.0773 42.6667C23.007 45.9391 27.2621 48 32 48C36.7379 48 40.993 45.939 43.9227 42.6667C46.457 39.8358 48 36.0987 48 32C48 27.9013 46.457 24.1642 43.9227 21.3333C40.993 18.0609 36.7379 16 32 16ZM24.7018 20.9876L28.735 26.5388L27.6565 27.3222L23.6236 21.7714L24.7018 20.9876ZM19.1133 35.653L25.5243 33.5699L25.9364 34.838L19.5248 36.9213L19.1133 35.653ZM31.3334 45.5V38.8333H32.6667V45.5H31.3334ZM44.4753 36.9212L38.0637 34.8379L38.4758 33.5698L44.8868 35.6529L44.4753 36.9212ZM36.8195 33.666L37.9572 37.1676L39.798 42.8333L32 37.1676L24.202 42.8333C24.202 42.8333 25.1737 39.8424 26.0428 37.1676L27.1805 33.666L19.3825 28.0006H29.0215L32 18.8333L34.9785 28.0006H44.6175L36.8195 33.666ZM40.3763 21.7715L36.3434 27.3223L35.2649 26.5389L39.2981 20.9877L40.3763 21.7715Z" fill="#2D25C5" style="fill:#2D25C5;fill:color(display-p3 0.1765 0.1451 0.7725);fill-opacity:1;"/>
<path d="M32 18.8333L29.0215 28.0006H19.3825L27.1805 33.666L26.0428 37.1676C25.1737 39.8424 24.202 42.8333 24.202 42.8333L32 37.1676L39.798 42.8333L37.9572 37.1676L36.8195 33.666L44.6175 28.0006H34.9785L32 18.8333ZM32 23.1484L33.6305 28.0006H30.4235L32 23.1484ZM23.4863 29.3339H28.5882L27.6138 32.3326L23.4863 29.3339ZM26.7379 39.3424L28.3147 34.4902C29.5216 35.3668 30.5933 36.1455 30.8661 36.3437L26.7379 39.3424ZM37.262 39.3424L33.1337 36.3437C33.4065 36.1455 34.4783 35.3668 35.6851 34.4902L37.262 39.3424ZM40.5136 29.3339L36.3865 32.3326L35.4118 29.3339H40.5136ZM31.9999 35.5194L28.7478 33.1564L29.99 29.3338H34.0099L35.2521 33.1564L31.9999 35.5194Z" fill="#FFD400" style="fill:#FFD400;fill:color(display-p3 1.0000 0.8314 0.0000);fill-opacity:1;"/>
<path d="M25.5243 33.5698L19.113 35.6531L19.525 36.9211L25.9363 34.8379L25.5243 33.5698Z" fill="#FFD400" style="fill:#FFD400;fill:color(display-p3 1.0000 0.8314 0.0000);fill-opacity:1;"/>
<path d="M24.7021 20.9877L23.6237 21.7712L27.6564 27.3224L28.7348 26.5389L24.7021 20.9877Z" fill="#FFD400" style="fill:#FFD400;fill:color(display-p3 1.0000 0.8314 0.0000);fill-opacity:1;"/>
<path d="M39.2979 20.9878L35.2651 26.539L36.3436 27.3224L40.3763 21.7712L39.2979 20.9878Z" fill="#FFD400" style="fill:#FFD400;fill:color(display-p3 1.0000 0.8314 0.0000);fill-opacity:1;"/>
<path d="M32.6666 38.8333H31.3333V45.5H32.6666V38.8333Z" fill="#FFD400" style="fill:#FFD400;fill:color(display-p3 1.0000 0.8314 0.0000);fill-opacity:1;"/>
<path d="M38.4757 33.5698L38.0637 34.8379L44.4751 36.9211L44.8871 35.653L38.4757 33.5698Z" fill="#FFD400" style="fill:#FFD400;fill:color(display-p3 1.0000 0.8314 0.0000);fill-opacity:1;"/>
</g>
<defs>
<clipPath id="clip0_6_741">
<rect width="64" height="64" fill="white" style="fill:white;fill-opacity:1;"/>
</clipPath>
</defs>
</svg>
