<?xml version="1.0" encoding="UTF-8"?>
<svg version="1.1" xmlns="http://www.w3.org/2000/svg" width="512" height="512">
<path d="M0 0 C12.76248088 11.15244483 22.57045806 23.69033399 29.1875 39.3046875 C29.50162842 40.03453857 29.81575684 40.76438965 30.1394043 41.51635742 C30.90212442 43.29022651 31.65874883 45.06671461 32.4140625 46.84375 C33.36682571 46.84739563 34.31958893 46.85104126 35.30122375 46.85479736 C44.31899402 46.89188068 53.336427 46.94979774 62.35394001 47.02765274 C66.98898461 47.06701345 71.62384248 47.09925751 76.2590332 47.11474609 C80.73967547 47.1299883 85.21980395 47.16456631 89.70021629 47.21205902 C91.40201517 47.22679532 93.10388743 47.23478652 94.80574989 47.23563385 C107.74920179 47.24854888 118.66222645 48.15628174 128.46875 57.55859375 C134.93095003 65.14973234 136.58163699 73.04434769 136.51171875 82.76953125 C136.50959633 83.89091743 136.50959633 83.89091743 136.50743103 85.03495789 C136.50186014 87.40876365 136.4893131 89.78247303 136.4765625 92.15625 C136.47154373 93.77148301 136.46698149 95.3867175 136.46289062 97.00195312 C136.45190025 100.94925555 136.43465582 104.89648647 136.4140625 108.84375 C137.57341309 108.82803955 138.73276367 108.8123291 139.92724609 108.79614258 C144.26962204 108.74143257 148.61196814 108.70725192 152.95458984 108.67895508 C154.82638693 108.66396135 156.69814944 108.6435595 158.56982422 108.61743164 C183.28388313 108.28132044 183.28388313 108.28132044 193.37109375 116.76171875 C202.05496817 125.61163284 203.73812843 135.93441559 203.64111328 147.86157227 C203.64140533 148.81873642 203.64169739 149.77590057 203.64199829 150.7620697 C203.6406159 153.89486063 203.62510639 157.02740738 203.609375 160.16015625 C203.60564099 162.34447601 203.60279585 164.52879746 203.60079956 166.71311951 C203.59319367 172.43906343 203.57357147 178.16490456 203.5513916 183.89080811 C203.53086741 189.74294647 203.52178382 195.59510158 203.51171875 201.44726562 C203.49032258 212.91280537 203.45622361 224.37826911 203.4140625 235.84375 C203.98850098 235.82280273 204.56293945 235.80185547 205.15478516 235.78027344 C207.78269624 235.69661236 210.4103264 235.6449354 213.0390625 235.59375 C213.94269531 235.56023437 214.84632813 235.52671875 215.77734375 235.4921875 C221.5131299 235.4084534 224.98353701 235.82567583 229.4140625 239.84375 C233.12296671 244.27375021 233.9150108 247.32963545 233.91577148 253.05493164 C233.92117447 253.75003342 233.92657745 254.44513519 233.93214417 255.16130066 C233.94457904 257.44261188 233.92817892 259.7226481 233.91015625 262.00390625 C233.91031134 263.59761114 233.91180205 265.19131642 233.91456604 266.78501892 C233.91594761 270.11799888 233.9034316 273.45054725 233.88061523 276.78344727 C233.85220788 281.04954002 233.85497726 285.31491737 233.86770535 289.58106327 C233.87466871 292.86940086 233.86686618 296.15757386 233.85444832 299.44589043 C233.84994182 301.01871547 233.84959001 302.59155823 233.85351372 304.16438484 C233.85643309 306.36394455 233.83988677 308.56252691 233.81811523 310.76196289 C233.81271225 312.01183487 233.80730927 313.26170685 233.80174255 314.54945374 C233.23628872 319.3543758 231.18786971 322.5617006 227.4765625 325.59375 C223.64527277 328.40857511 220.97426096 328.97678181 216.3046875 328.94140625 C215.55058594 328.93818359 214.79648437 328.93496094 214.01953125 328.93164062 C213.24222656 328.92326172 212.46492188 328.91488281 211.6640625 328.90625 C210.87128906 328.90173828 210.07851563 328.89722656 209.26171875 328.89257812 C207.31246742 328.88083565 205.36325512 328.86290146 203.4140625 328.84375 C203.42405525 330.62661407 203.42405525 330.62661407 203.43424988 332.44549561 C203.49524907 343.68486306 203.54012516 354.92419661 203.56949902 366.16369247 C203.58510841 371.94106737 203.60625993 377.71830789 203.64038086 383.49560547 C203.67314334 389.0782731 203.69095101 394.66081202 203.69869423 400.24356842 C203.70420753 402.36606113 203.71497315 404.48854736 203.73125267 406.6109848 C203.9391631 434.85850151 203.9391631 434.85850151 196.140625 444.09765625 C187.72987234 452.60355317 179.14563096 455.13802415 167.3657439 455.24427572 C164.9248498 455.24986715 162.48424491 455.2407489 160.04336548 455.23143005 C158.26564522 455.23560574 156.48792764 455.24108454 154.71021497 455.24774987 C149.83765423 455.26219241 144.96526281 455.25796344 140.09269285 455.25058305 C134.83286168 455.24585075 129.57306711 455.2583618 124.31324768 455.26860046 C114.01361424 455.28579261 103.7140418 455.28662759 93.41439773 455.28138756 C85.04227423 455.27734537 76.67016875 455.27879001 68.29804611 455.28413582 C66.51036811 455.28525845 66.51036811 455.28525845 64.68657541 455.28640376 C62.26542525 455.28793525 59.8442751 455.2894736 57.42312495 455.29101873 C34.72024868 455.30474531 12.01740686 455.29930499 -10.68546863 455.28783352 C-31.45121576 455.27790123 -52.21687379 455.2908415 -72.98260717 455.31476771 C-94.30967853 455.33915539 -115.63670838 455.34876738 -136.9637934 455.34211498 C-148.93540578 455.338622 -160.90694964 455.34086009 -172.87855148 455.35836601 C-183.0698144 455.37308381 -193.26096053 455.37372888 -203.45222114 455.3562951 C-208.65055359 455.34777929 -213.84867738 455.34564989 -219.04699898 455.36094666 C-223.80910711 455.37478617 -228.57082768 455.37003989 -233.33291335 455.35070742 C-235.05220843 455.34694487 -236.77153449 455.34987674 -238.49080198 455.36031907 C-249.57229872 455.42281917 -260.75281479 455.12533719 -269.4609375 447.28125 C-270.13898438 446.70246094 -270.81703125 446.12367188 -271.515625 445.52734375 C-278.37826261 436.6318116 -279.31502894 427.83030927 -279.22758484 416.89674377 C-279.23407308 415.4067389 -279.24273321 413.9167422 -279.25335914 412.42676109 C-279.27605299 408.35862747 -279.26783275 404.29106968 -279.25421989 400.22291744 C-279.24493284 395.82538287 -279.26447803 391.42795979 -279.28019714 387.03045654 C-279.3062406 378.42585448 -279.30520896 369.82146166 -279.29415896 361.21683521 C-279.28558903 354.22108963 -279.28644039 347.22540445 -279.29395485 340.22965813 C-279.29500974 339.23270778 -279.29606463 338.23575744 -279.29715148 337.20859648 C-279.29932248 335.18308511 -279.30150926 333.15757376 -279.30371163 331.13206243 C-279.32312701 312.15269706 -279.31115742 293.17344893 -279.28892568 274.19409316 C-279.27067687 257.92285036 -279.28157847 241.6518345 -279.31323242 225.38061523 C-279.35002079 206.46915323 -279.36700768 187.55783292 -279.35382015 168.64633507 C-279.35247909 166.62810928 -279.35117011 164.60988347 -279.34989357 162.59165764 C-279.3492629 161.59874724 -279.34863224 160.60583685 -279.34798246 159.58283826 C-279.34495931 152.59918921 -279.35619741 145.61564735 -279.37314415 138.63202095 C-279.39349917 130.11584397 -279.39255361 121.59998713 -279.36451175 113.08382673 C-279.35076812 108.74192419 -279.34649185 104.40057998 -279.36846161 100.05869865 C-279.38833778 96.07787712 -279.38013185 92.09810253 -279.35026727 88.11735248 C-279.34429782 86.68343163 -279.34826982 85.2494244 -279.3636305 83.8155734 C-279.46740381 73.36029152 -277.73855979 64.55725421 -270.54518622 56.58085543 C-262.98193941 49.40496552 -254.77758767 47.6806553 -244.58276367 47.73022461 C-243.39660965 47.73000557 -243.39660965 47.73000557 -242.18649292 47.7297821 C-239.58393571 47.73047638 -236.98145089 47.738246 -234.37890625 47.74609375 C-232.57001281 47.74795965 -230.76111886 47.74938274 -228.95222473 47.75038147 C-224.19949947 47.75419306 -219.44680494 47.76401175 -214.6940918 47.77508545 C-209.8409873 47.78532877 -204.98787782 47.78988535 -200.13476562 47.79492188 C-190.61847611 47.80563525 -181.10220936 47.82269535 -171.5859375 47.84375 C-171.45396973 47.09303223 -171.32200195 46.34231445 -171.18603516 45.56884766 C-170.36298121 41.83128537 -168.68941866 38.60375927 -166.9609375 35.21875 C-166.5990332 34.50871826 -166.23712891 33.79868652 -165.86425781 33.06713867 C-152.08189592 6.38721596 -129.89952834 -11.52782378 -101.5859375 -21.15625 C-66.14599011 -31.2257578 -28.34799635 -23.63760421 0 0 Z " fill="#6BD9E6" transform="translate(278.5859375,41.15625)"/>
<path d="M0 0 C20.30303213 17.74172653 31.60431143 38.56775198 36.4140625 64.84375 C36.60742188 65.75898437 36.80078125 66.67421875 37 67.6171875 C37.65049712 72.68615559 37.63966381 77.73832434 37.6640625 82.84375 C37.695 84.41576172 37.695 84.41576172 37.7265625 86.01953125 C37.76887034 94.68206225 36.31488071 100.97326503 34.4140625 109.84375 C-34.2259375 109.84375 -102.8659375 109.84375 -173.5859375 109.84375 C-179.56324982 94.90046921 -178.44742448 77.36813916 -175.5859375 61.84375 C-175.46766602 61.18503906 -175.34939453 60.52632813 -175.22753906 59.84765625 C-170.25627649 33.08126541 -154.60619238 9.60864756 -132.29785156 -5.99951172 C-91.58865133 -33.50666955 -37.98449338 -31.67287062 0 0 Z " fill="#FEE076" transform="translate(278.5859375,41.15625)"/>
<path d="M0 0 C7.60947631 4.22748684 12.0036703 10.19912263 14.625 18.5 C15.66689834 26.35765001 13.69055488 33.61178596 9.4375 40.25 C5.34763736 45.55943012 -0.88087968 49.07129353 -7.375 50.5 C-16.33956253 51.49947953 -23.10502738 49.26528719 -30.1875 43.75 C-32.77253943 41.63090595 -34.02539097 39.33783446 -35.4753418 36.37792969 C-35.83210495 35.65305359 -36.1888681 34.92817749 -36.55644226 34.18133545 C-36.96162834 33.3490744 -36.96162834 33.3490744 -37.375 32.5 C-47.11840901 31.91644031 -56.85568965 31.4746029 -66.61285305 31.2046957 C-71.14643435 31.07500912 -75.66795361 30.8999677 -80.19458008 30.61401367 C-99.85063519 28.52432189 -99.85063519 28.52432189 -117.62786865 34.85119629 C-123.16766621 40.33211934 -126.58382982 47.24243496 -129.79359436 54.26387024 C-132.35653381 59.50857434 -135.73904349 64.13784099 -139.125 68.875 C-140.35680959 70.673085 -141.58519496 72.47352559 -142.80859375 74.27734375 C-145.15098871 77.70975778 -147.49742816 81.13935123 -149.84765625 84.56640625 C-150.4106543 85.3877002 -150.97365234 86.20899414 -151.55371094 87.05517578 C-152.58081525 88.55285717 -153.60869589 90.05000675 -154.63769531 91.54638672 C-159.62421714 98.81713338 -164.48279736 106.16169604 -169.375 113.5 C-107.995 113.5 -46.615 113.5 16.625 113.5 C16.955 111.85 17.285 110.2 17.625 108.5 C19.48046875 105.9296875 19.48046875 105.9296875 21.8125 103.375 C22.56917969 102.52679688 23.32585937 101.67859375 24.10546875 100.8046875 C28.0562977 97.19075094 32.31173364 95.11782167 37.625 94.5 C38.24890625 94.41234375 38.8728125 94.3246875 39.515625 94.234375 C46.84345378 93.65447488 52.56979463 96.5839555 58.625 100.5 C63.92053637 105.04793124 67.15817281 110.54234285 67.9765625 117.48046875 C68.37097896 126.33408038 66.72685507 132.87338735 60.79296875 139.56640625 C54.93037579 145.10522682 49.27891181 147.55959555 41.25 148 C33.88136674 147.78508153 28.29252881 144.76160051 22.75 140.0625 C16.625 132.67647059 16.625 132.67647059 16.625 128.5 C-45.085 128.5 -106.795 128.5 -170.375 128.5 C-160.33927464 143.25841965 -150.30165968 158.01525873 -140.24414062 172.75878906 C-138.30226981 175.60666334 -136.36190824 178.45556116 -134.421875 181.3046875 C-133.76525879 182.26866455 -133.10864258 183.2326416 -132.43212891 184.22583008 C-131.19965038 186.03530291 -129.96751785 187.84501148 -128.73583984 189.6550293 C-127.60928012 191.3085796 -126.46753732 192.95191772 -125.3087616 194.58305359 C-123.375 197.5 -123.375 197.5 -121.68223572 200.80984497 C-118.66973569 206.20969486 -116.64105038 209.79961127 -110.55688477 211.68009949 C-105.85243614 212.26439962 -101.1619709 212.12096924 -96.43359375 211.98828125 C-94.69767431 211.98646978 -92.96174027 211.99040127 -91.22584534 211.99980164 C-86.68184886 212.00912744 -82.14226588 211.94103822 -77.59918213 211.85620117 C-72.95362992 211.78334892 -68.30814277 211.78453882 -63.66210938 211.77929688 C-54.56496895 211.75822006 -45.47077124 211.65526856 -36.375 211.5 C-36.23707031 210.71753906 -36.09914062 209.93507813 -35.95703125 209.12890625 C-34.63645555 203.16415828 -29.21097883 198.72189031 -24.25 195.5 C-17.67175313 192.19406673 -10.65760655 192.58316029 -3.6015625 194.09375 C4.5720983 196.80992036 9.33719913 202.63933604 13.625 209.875 C15.78085703 217.68998174 15.3022523 224.8162799 11.9453125 232.2109375 C8.51862433 238.15188209 3.66108222 242.31631422 -2.71875 244.83984375 C-9.4992183 246.52498955 -17.33485457 246.84865971 -23.8125 243.9375 C-29.08576943 240.75085761 -34.01615668 236.27115066 -36.375 230.5 C-36.375 229.51 -36.375 228.52 -36.375 227.5 C-37.41403473 227.51110306 -38.45306946 227.52220612 -39.52359009 227.53364563 C-49.32257591 227.63506904 -59.12145503 227.70998815 -68.92084694 227.75906086 C-73.95868456 227.78513811 -78.99609794 227.82050212 -84.03369141 227.87719727 C-88.89665258 227.9315836 -93.7592061 227.96143463 -98.62244797 227.97438622 C-100.47641796 227.9836142 -102.33036602 228.00163466 -104.18416214 228.02865028 C-106.78423254 228.06502939 -109.38262558 228.06994177 -111.98291016 228.06762695 C-113.12874573 228.09459152 -113.12874573 228.09459152 -114.29772949 228.12210083 C-120.132866 228.06601034 -122.42207926 226.47610414 -126.375 222.5 C-128.10327148 220.35375977 -128.10327148 220.35375977 -129.49609375 218.19140625 C-130.03097412 217.37357666 -130.56585449 216.55574707 -131.11694336 215.71313477 C-131.67647705 214.83842529 -132.23601074 213.96371582 -132.8125 213.0625 C-134.05091007 211.16590005 -135.29053262 209.27009136 -136.53125 207.375 C-137.48257813 205.91513672 -137.48257813 205.91513672 -138.453125 204.42578125 C-141.51476034 199.76487705 -144.66167651 195.16338788 -147.8125 190.5625 C-149.06902554 188.72396867 -150.32553588 186.88542695 -151.58203125 185.046875 C-152.20674316 184.13357422 -152.83145508 183.22027344 -153.47509766 182.27929688 C-156.65522065 177.62721256 -159.82695238 172.9694116 -163 168.3125 C-166.66035658 162.94187502 -170.32324871 157.57303184 -173.99609375 152.2109375 C-174.57601074 151.36426514 -175.15592773 150.51759277 -175.75341797 149.64526367 C-176.8313342 148.07214353 -177.90973852 146.49935765 -178.98876953 144.92700195 C-179.47845215 144.2124585 -179.96813477 143.49791504 -180.47265625 142.76171875 C-180.93025833 142.11076736 -181.38786041 141.45981598 -181.85932922 140.78913879 C-183.375 138.5 -183.375 138.5 -184.59657288 136.15365601 C-187.18771598 131.38315952 -187.18771598 131.38315952 -191.68562317 128.6733551 C-194.50006818 128.36199697 -197.19272934 128.33100384 -200.0234375 128.40234375 C-201.03596588 128.39288223 -202.04849426 128.38342072 -203.09170532 128.37367249 C-206.31263647 128.35314126 -209.52935333 128.3944458 -212.75 128.4375 C-214.93881164 128.43442446 -217.12762158 128.42730814 -219.31640625 128.41601562 C-224.67038111 128.39719769 -230.0214284 128.43381661 -235.375 128.5 C-235.375 123.55 -235.375 118.6 -235.375 113.5 C-234.01407227 113.56396973 -232.65314453 113.62793945 -231.25097656 113.69384766 C-226.15203379 113.90904023 -221.05655587 114.00263462 -215.95361328 114.06152344 C-213.75515791 114.10344792 -211.55705296 114.1773989 -209.36083984 114.28515625 C-197.1552648 115.22202555 -197.1552648 115.22202555 -186.25039673 110.80273438 C-182.49383946 106.53996027 -179.89374588 101.72942825 -177.43157959 96.63568115 C-176.14288949 94.03083132 -174.58768694 91.71214968 -172.88671875 89.359375 C-172.41637207 88.67383545 -171.94602539 87.9882959 -171.46142578 87.28198242 C-170.99978027 86.61142822 -170.53813477 85.94087402 -170.0625 85.25 C-168.9698698 83.65767715 -167.8774299 82.0652237 -166.78515625 80.47265625 C-166.22973145 79.66328613 -165.67430664 78.85391602 -165.10205078 78.02001953 C-162.06004837 73.58129337 -159.03043445 69.13412814 -156 64.6875 C-155.37738281 63.77452148 -154.75476563 62.86154297 -154.11328125 61.92089844 C-150.88474224 57.18604005 -147.66015076 52.44855397 -144.44140625 47.70703125 C-125.07567532 19.20067532 -125.07567532 19.20067532 -122.375 16.5 C-119.72761911 16.40488734 -117.10640999 16.37444365 -114.45874023 16.38647461 C-113.62954071 16.38632858 -112.80034119 16.38618256 -111.9460144 16.3860321 C-109.19184802 16.38673149 -106.43774839 16.39452507 -103.68359375 16.40234375 C-101.77930234 16.40420784 -99.87501045 16.40563178 -97.97071838 16.40663147 C-92.94832037 16.41045737 -87.92595108 16.42028827 -82.90356445 16.43133545 C-77.7827188 16.44154802 -72.66186852 16.44612876 -67.54101562 16.45117188 C-57.48566443 16.46191047 -47.4303346 16.47898776 -37.375 16.5 C-36.92253906 15.08182983 -36.92253906 15.08182983 -36.4609375 13.63500977 C-34.2350545 7.20907372 -29.52978041 2.82097421 -23.6875 -0.5 C-15.49929888 -4.1295657 -8.09103804 -3.65498624 0 0 Z " fill="#F0FAFE" transform="translate(235.375,201.5)"/>
<path d="M0 0 C1.33309204 -0.01073296 1.33309204 -0.01073296 2.69311523 -0.02168274 C4.1441716 -0.02571609 4.1441716 -0.02571609 5.62454224 -0.02983093 C7.16177948 -0.03968773 7.16177948 -0.03968773 8.73007202 -0.04974365 C12.12084019 -0.06945208 15.51156417 -0.08113224 18.90237427 -0.09111023 C20.06066868 -0.09518576 21.21896309 -0.09926128 22.41235733 -0.10346031 C28.54004996 -0.12430799 34.66772026 -0.13861683 40.79544067 -0.147995 C47.12631711 -0.1590722 53.45684331 -0.19349131 59.78759575 -0.23316669 C64.65519876 -0.25929436 69.5227177 -0.2676833 74.39038467 -0.27127647 C76.72438047 -0.27615034 79.05837231 -0.28778694 81.39229965 -0.30631447 C84.65749796 -0.33062898 87.92178136 -0.32975487 91.18704224 -0.32279968 C92.15036469 -0.33560974 93.11368713 -0.3484198 94.10620117 -0.36161804 C99.74100091 -0.31786979 103.1775493 0.22076102 107.53518677 4.14717102 C111.24409098 8.57717123 112.03613507 11.63305647 112.03689575 17.35835266 C112.04500023 18.40100533 112.04500023 18.40100533 112.05326843 19.46472168 C112.06570331 21.7460329 112.04930318 24.02606912 112.03128052 26.30732727 C112.03143561 27.90103216 112.03292632 29.49473744 112.03569031 31.08843994 C112.03707188 34.42141991 112.02455586 37.75396827 112.0017395 41.08686829 C111.97333214 45.35296104 111.97610153 49.61833839 111.98882961 53.88448429 C111.99579298 57.17282188 111.98799045 60.46099488 111.97557259 63.74931145 C111.97106608 65.32213649 111.97071428 66.89497925 111.97463799 68.46780586 C111.97755736 70.66736557 111.96101104 72.86594793 111.9392395 75.06538391 C111.93383652 76.31525589 111.92843353 77.56512787 111.92286682 78.85287476 C111.35741299 83.65779682 109.30899398 86.86512163 105.59768677 89.89717102 C101.69053665 92.76773029 98.97192872 93.27784433 94.21118164 93.24964905 C93.35347672 93.24694504 92.49577179 93.24424103 91.61207581 93.24145508 C90.67904129 93.2332222 89.74600677 93.22498932 88.78469849 93.21650696 C87.79555954 93.21171829 86.80642059 93.20692963 85.78730774 93.20199585 C82.51309815 93.18429536 79.23901964 93.15854564 75.96487427 93.13154602 C73.6852623 93.11484849 71.40565007 93.0981864 69.1260376 93.08155823 C64.34278259 93.04507004 59.559592 93.00384859 54.77639771 92.9601593 C48.66358743 92.90530816 42.55081495 92.86868398 36.43784904 92.83652878 C31.72611353 92.80857945 27.01455648 92.76751786 22.30295181 92.72292328 C20.05047269 92.70379552 17.7979473 92.68946521 15.54540634 92.68012238 C12.3839899 92.6656986 9.22326058 92.63272203 6.06204224 92.59541321 C4.68070854 92.59520927 4.68070854 92.59520927 3.27146912 92.59500122 C-9.87032791 92.38489287 -20.83786589 87.27714371 -30.39450073 78.36982727 C-39.60040076 68.48651195 -43.13818756 56.0366142 -43.00338745 42.7973175 C-42.51775728 31.250789 -37.13298629 21.63693404 -29.46481323 13.14717102 C-21.32161205 5.89387057 -11.15449146 0.06189105 0 0 Z " fill="#5845A0" transform="translate(400.4648132324219,276.8528289794922)"/>
<path d="M0 0 C1.51013672 0.49306641 1.51013672 0.49306641 3.05078125 0.99609375 C21.64942455 7.43322898 36.47834195 19.79958546 46 37 C46.45890625 37.763125 46.9178125 38.52625 47.390625 39.3125 C53.57404734 50.33836153 55.34762562 62.66272061 55.5 75.125 C55.51844971 75.9819043 55.53689941 76.83880859 55.5559082 77.72167969 C55.47461241 86.28912924 53.36319733 92.13801002 51 101 C35.49 101 19.98 101 4 101 C4 95.39 4 89.78 4 84 C1.5980624 76.7941872 -2.68930153 72.22749927 -9.47241211 68.72241211 C-12.19062736 67.5270749 -14.92587309 66.40367941 -17.6875 65.3125 C-19.54759523 64.56359724 -21.40575272 63.80985943 -23.26171875 63.05078125 C-24.48314575 62.56605347 -24.48314575 62.56605347 -25.72924805 62.0715332 C-28.15140886 60.92855247 -30.03794507 59.82953962 -32 58 C-32.8719346 51.13351499 -32.8719346 51.13351499 -30.125 47.5625 C-26.20857379 44.68277484 -22.75846987 44.48604981 -18 45 C-14.67069777 46.38197451 -11.99614997 48.00256668 -9 50 C-5.42823885 49.91832511 -5.42823885 49.91832511 -2 49 C0.34549674 45.48175489 0.57991403 44.14224306 0 40 C-3.76281065 34.73206509 -9.10230311 33.04987911 -15 31 C-15.103125 29.906875 -15.20625 28.81375 -15.3125 27.6875 C-15.75451674 24.17356341 -15.75451674 24.17356341 -17.125 22.0625 C-20.1053157 20.37365444 -22.65435012 20.70128126 -26 21 C-26.99 21.66 -27.98 22.32 -29 23 C-29.0928125 24.918125 -29.0928125 24.918125 -29.1875 26.875 C-29.375 29.05078125 -29.375 29.05078125 -30 31 C-31.86718088 32.34203626 -33.74149407 33.08456209 -35.8671875 33.953125 C-40.68419403 36.31751648 -43.30517231 40.77247109 -45.875 45.3125 C-47.92828549 52.04271353 -47.8941662 57.71987404 -45.125 64.25 C-41.10028682 71.36808777 -34.72656506 73.83360025 -27.48828125 76.96484375 C-26.68865967 77.31208496 -25.88903809 77.65932617 -25.06518555 78.01708984 C-23.46572756 78.70232037 -21.85917848 79.37127999 -20.24536133 80.02197266 C-15.67793378 81.93583932 -12.57386584 83.54549618 -10 88 C-9.65234375 90.28125 -9.65234375 90.28125 -9.9375 92.5 C-10.00839844 93.2321875 -10.07929688 93.964375 -10.15234375 94.71875 C-11.41598902 98.11952805 -13.19478947 99.71349906 -16 102 C-18.81639867 102.47034074 -21.01551059 102.6375656 -23.81958008 102.56762695 C-24.97647339 102.56872215 -24.97647339 102.56872215 -26.15673828 102.56983948 C-28.69506222 102.56636796 -31.23152967 102.52753062 -33.76953125 102.48828125 C-35.5335744 102.4789515 -37.29763053 102.47183615 -39.06169128 102.46684265 C-43.69640096 102.44778548 -48.33032258 102.39869609 -52.96472168 102.34332275 C-57.69707581 102.29210241 -62.42955773 102.26932268 -67.16210938 102.24414062 C-76.44175179 102.19057581 -85.72081027 102.10527877 -95 102 C-95.4767582 100.74796515 -95.95164953 99.49521933 -96.42578125 98.2421875 C-96.69044189 97.54464355 -96.95510254 96.84709961 -97.2277832 96.12841797 C-103.61322551 78.52858047 -100.47496525 57.0366222 -92.79296875 40.3828125 C-82.53214499 21.02361124 -66.09116848 6.38534971 -45.0625 -0.328125 C-30.76328686 -4.40041497 -14.03297387 -5.37386751 0 0 Z " fill="#FE992B" transform="translate(231,49)"/>
<path d="M0 0 C1.33260864 0.00737183 1.33260864 0.00737183 2.69213867 0.01489258 C32.84790022 0.53931722 58.9253046 13.48922066 80.12109375 34.61328125 C95.10765466 50.4829324 102.93016 69.10301186 106.8125 90.3125 C107.00585938 91.22773437 107.19921875 92.14296875 107.3984375 93.0859375 C108.04893462 98.15490559 108.03810131 103.20707434 108.0625 108.3125 C108.0934375 109.88451172 108.0934375 109.88451172 108.125 111.48828125 C108.16730784 120.15081225 106.71331821 126.44201503 104.8125 135.3125 C72.4725 135.3125 40.1325 135.3125 6.8125 135.3125 C8.1325 133.6625 9.4525 132.0125 10.8125 130.3125 C11.66906437 128.07786052 11.66906437 128.07786052 11.875 125.8125 C11.98972656 125.0803125 12.10445312 124.348125 12.22265625 123.59375 C11.5630684 119.9251852 9.67069677 118.62767607 6.8125 116.3125 C3.9762561 114.79147698 1.04283795 113.58361914 -1.9375 112.375 C-20.26806937 104.50302146 -20.26806937 104.50302146 -24.37109375 94.953125 C-26.36356314 88.50858286 -25.92329271 83.27588089 -23.1875 77.125 C-20.46608935 72.22336832 -16.97593434 68.27806445 -12.1875 65.3125 C-9.4375 64.62890625 -9.4375 64.62890625 -7.1875 64.3125 C-7.27 63.054375 -7.3525 61.79625 -7.4375 60.5 C-7.41682408 56.60603482 -7.41682408 56.60603482 -5.625 54.3125 C-2.23966491 52.92364458 0.18762765 52.85939096 3.8125 53.3125 C6.25 54.875 6.25 54.875 7.8125 57.3125 C8.0625 61.0625 8.0625 61.0625 7.8125 64.3125 C8.616875 64.35375 9.42125 64.395 10.25 64.4375 C15.15012141 65.64103859 18.87983219 68.19120366 22.8125 71.3125 C24.25680855 74.20111709 24.18938506 76.10897701 23.8125 79.3125 C21.75 82.25 21.75 82.25 18.8125 84.3125 C14.07511675 84.3125 11.36773303 83.3598426 7.8125 80.3125 C3.3333651 78.81945503 -1.17965951 78.59173675 -5.625 80.1875 C-7.34643274 81.24324101 -7.34643274 81.24324101 -8.1875 83.3125 C-8.2564472 84.68592831 -8.27217708 86.06252102 -8.25 87.4375 C-8.229375 88.71625 -8.20875 89.995 -8.1875 91.3125 C-6.10684465 92.38052871 -4.02356653 93.44261927 -1.9375 94.5 C-1.30505371 94.82242676 -0.67260742 95.14485352 -0.02099609 95.47705078 C3.97754078 97.48582763 7.97783301 99.15328633 12.1875 100.6875 C19.03066375 103.45038162 23.68489747 108.10580704 27.01171875 114.68359375 C27.97752438 117.85426296 28.04219973 120.5642394 28 123.875 C27.99355469 124.99003906 27.98710937 126.10507813 27.98046875 127.25390625 C27.8125 130.3125 27.8125 130.3125 26.8125 134.3125 C42.3225 134.3125 57.8325 134.3125 73.8125 134.3125 C76.49690397 121.25968554 76.49690397 121.25968554 77.1875 108.3125 C77.18097412 107.38042725 77.17444824 106.44835449 77.16772461 105.48803711 C77.03565213 98.60901518 76.1688901 92.18479304 74.56640625 85.50390625 C73.8125 82.3125 73.8125 82.3125 73.37109375 78.83984375 C69.80491444 56.32054361 52.24190199 34.77469428 34.32421875 21.73828125 C19.88322622 11.63475961 4.14920851 5.39162425 -13.1875 2.3125 C-8.76275157 -0.18336862 -4.97976384 -0.03240627 0 0 Z " fill="#FDC245" transform="translate(208.1875,15.6875)"/>
<path d="M0 0 C9.97987846 -0.09304068 19.95965223 -0.16393688 29.93987751 -0.20724869 C34.5750654 -0.22804547 39.20995464 -0.25621693 43.8449707 -0.30175781 C48.32539456 -0.34549987 52.80553274 -0.36919646 57.28615379 -0.37950897 C58.98804401 -0.3868498 60.68992016 -0.40118362 62.39168739 -0.42292023 C75.3812469 -0.58210426 86.20473931 0.27089701 96.0546875 9.71484375 C108.63641528 24.49458421 104 43.2399739 104 62 C70.34 62 36.68 62 2 62 C3 51 3 51 4 48 C5.06940995 33.99441728 4.09930644 20.42881227 0.875 6.7890625 C0 3 0 3 0 0 Z " fill="#5846A0" transform="translate(311,89)"/>
<path d="M0 0 C1.18615402 -0.00021904 1.18615402 -0.00021904 2.39627075 -0.0004425 C4.99882796 0.00025177 7.60131278 0.00802139 10.20385742 0.01586914 C12.01275086 0.01773504 13.82164481 0.01915813 15.63053894 0.02015686 C20.3832642 0.02396845 25.13595873 0.03378714 29.88867188 0.04486084 C34.74177637 0.05510416 39.59488585 0.05966074 44.44799805 0.06469727 C53.96428756 0.07541064 63.48055431 0.09247074 72.99682617 0.11352539 C72.58110352 2.01424805 72.58110352 2.01424805 72.15698242 3.95336914 C71.79086326 5.65253754 71.42499105 7.35175917 71.05932617 9.05102539 C70.87692383 9.88182617 70.69452148 10.71262695 70.5065918 11.56860352 C66.8602747 28.60684887 67.53822345 45.099227 70.99682617 62.11352539 C60.73890707 62.20649651 50.48108939 62.27742743 40.22283363 62.32077408 C35.45870632 62.34158581 30.69486879 62.36978528 25.9309082 62.4152832 C21.3272965 62.45897103 16.72396228 62.48271066 12.12015915 62.49303436 C10.36999524 62.50038478 8.61984529 62.51473785 6.86980057 62.53644562 C-5.65544022 62.68553124 -15.70327935 62.07607693 -25.24926758 53.03149414 C-32.3460483 45.27087201 -34.65080909 36.66224371 -34.44067383 26.27368164 C-33.26359633 17.77139863 -28.70696086 10.69142419 -22.01879883 5.44555664 C-15.06884256 0.85265918 -8.19127363 -0.03982764 0 0 Z " fill="#5845A0" transform="translate(34.003173828125,88.886474609375)"/>
<path d="M0 0 C4.39656173 -0.02465504 8.7930872 -0.04283842 13.18969727 -0.05493164 C14.68644918 -0.05997121 16.18319616 -0.06680287 17.67993164 -0.07543945 C19.82699807 -0.08752159 21.97399962 -0.09323191 24.12109375 -0.09765625 C26.06133423 -0.10551147 26.06133423 -0.10551147 28.04077148 -0.11352539 C31 0 31 0 32 1 C32.11130869 3.94991019 32.15740384 6.8766184 32.16113281 9.82739258 C32.16858017 11.21784286 32.16858017 11.21784286 32.17617798 12.63638306 C32.19085416 15.72243989 32.19761422 18.80844515 32.203125 21.89453125 C32.20887646 24.03911847 32.2146342 26.18370566 32.22039795 28.32829285 C32.23092648 32.83857463 32.23675553 37.34883851 32.24023438 41.85913086 C32.24569207 47.61437445 32.26965355 53.3693782 32.29820633 59.124547 C32.31692397 63.56262374 32.32204337 68.00064409 32.32357025 72.43875694 C32.3265819 74.55845117 32.33455968 76.67814477 32.34775543 78.79780006 C32.51082684 107.03166205 32.51082684 107.03166205 24.7265625 116.25390625 C17.54626906 123.51542473 10.40130164 127.06253668 0.07887268 127.28166199 C-3.63612418 127.30096088 -7.34812748 127.25061694 -11.0625 127.1875 C-12.61131511 127.17242519 -14.16014441 127.15874173 -15.70898438 127.14648438 C-19.47301178 127.11370138 -23.23634638 127.06207498 -27 127 C-24.29659867 125.19773244 -22.8959775 124.64377922 -19.875 123.875 C-12.67108439 121.53637161 -6.9780873 116.46760544 -3.5 109.75 C-1.71305152 105.74591174 -0.87958257 102.03157765 -0.84178162 97.64666748 C-0.8319928 96.78292511 -0.82220398 95.91918274 -0.81211853 95.02926636 C-0.80636307 94.08987213 -0.8006076 93.15047791 -0.79467773 92.18261719 C-0.78477814 91.18716888 -0.77487854 90.19172058 -0.76467896 89.16610718 C-0.73309605 85.8763873 -0.70831911 82.58665298 -0.68359375 79.296875 C-0.66302146 77.01572291 -0.64202491 74.73457461 -0.62062073 72.45343018 C-0.5654285 66.44965687 -0.5160066 60.44584932 -0.46777344 54.4420166 C-0.41753766 48.31548007 -0.36186242 42.18899326 -0.30664062 36.0625 C-0.19909387 24.04170914 -0.09764111 12.02087511 0 0 Z " fill="#02C7DD" transform="translate(450,369)"/>
<path d="M0 0 C4.80139866 -0.07484195 9.60244862 -0.12892454 14.40429688 -0.16479492 C16.03358891 -0.17976766 17.66284145 -0.20015321 19.29199219 -0.22631836 C31.56544164 -0.41832631 42.11209663 -0.3587462 51.95703125 7.91796875 C60.64090567 16.76788284 62.32406593 27.09066559 62.22705078 39.01782227 C62.22734283 39.97498642 62.22763489 40.93215057 62.22793579 41.9183197 C62.2265534 45.05111063 62.21104389 48.18365738 62.1953125 51.31640625 C62.19157849 53.50072601 62.18873335 55.68504746 62.18673706 57.86936951 C62.17913117 63.59531343 62.15950897 69.32115456 62.1373291 75.04705811 C62.11680491 80.89919647 62.10772132 86.75135158 62.09765625 92.60351562 C62.07626007 104.06906266 62.04110289 115.53450666 62 127 C51.44 127 40.88 127 30 127 C30.00112793 123.94266602 30.00225586 120.88533203 30.00341797 117.73535156 C30.00278868 107.60114234 29.96922493 97.46723132 29.9197216 87.33314896 C29.89072664 81.19253719 29.87261064 75.0523055 29.87988281 68.91162109 C29.88650012 62.9785371 29.86385347 57.04620256 29.82144547 51.11327362 C29.8103571 48.85685648 29.80957522 46.60036295 29.81957626 44.34394073 C30.05932819 25.85108442 30.05932819 25.85108442 21.28805542 10.03668213 C15.79099314 4.54452803 7.59424808 1.79939453 0 1 C0 0.67 0 0.34 0 0 Z " fill="#02C7DD" transform="translate(420,150)"/>
<path d="M0 0 C4.44736742 -0.09932276 8.89413713 -0.17168003 13.34228516 -0.21972656 C14.85346736 -0.23976791 16.36457272 -0.26700905 17.87548828 -0.30175781 C20.05520643 -0.35061109 22.23389431 -0.37304224 24.4140625 -0.390625 C25.7232666 -0.41157227 27.0324707 -0.43251953 28.38134766 -0.45410156 C33.869334 0.23458111 36.74117189 2.41556791 40.14213562 6.69621277 C42.30465997 10.54176813 42.50112625 12.82525881 42.50170898 17.21118164 C42.50711197 17.90628342 42.51251495 18.60138519 42.51808167 19.31755066 C42.53051654 21.59886188 42.51411642 23.8788981 42.49609375 26.16015625 C42.49624884 27.75386114 42.49773955 29.34756642 42.50050354 30.94126892 C42.50188511 34.27424888 42.4893691 37.60679725 42.46655273 40.93969727 C42.43814538 45.20579002 42.44091476 49.47116737 42.45364285 53.73731327 C42.46060621 57.02565086 42.45280368 60.31382386 42.44038582 63.60214043 C42.43587932 65.17496547 42.43552751 66.74780823 42.43945122 68.32063484 C42.44237059 70.52019455 42.42582427 72.71877691 42.40405273 74.91821289 C42.39864975 76.16808487 42.39324677 77.41795685 42.38768005 78.70570374 C41.82222622 83.5106258 39.77380721 86.7179506 36.0625 89.75 C31.05979416 93.42545735 26.56103444 93.16018743 20.5 93.125 C19.70352051 93.12306641 18.90704102 93.12113281 18.08642578 93.11914062 C11.69079503 93.07273008 5.35943563 92.69829097 -1 92 C2 90 2 90 4.0489502 89.07162476 C7.66476259 87.08562006 8.89268965 83.77430363 10 80 C10.57692141 74.77634463 10.56412819 69.58250305 10.53125 64.3359375 C10.53394892 62.81474561 10.53783466 61.29355541 10.54284668 59.77236938 C10.54871945 56.59677576 10.54024896 53.42163449 10.52148438 50.24609375 C10.49865638 46.18627765 10.51185527 42.12751724 10.53577423 38.06773949 C10.55025961 34.93118395 10.5456145 31.79487696 10.53526306 28.65831375 C10.53260533 27.16166685 10.53583183 25.66499698 10.54518127 24.16837692 C10.55539752 22.07437448 10.53978096 19.98206092 10.51757812 17.88818359 C10.51439575 16.69985931 10.51121338 15.51153503 10.50793457 14.28720093 C9.88979696 10.28679881 8.51289301 8.14175215 6 5 C4.04148656 3.60644236 2.04872887 2.25717453 0 1 C0 0.67 0 0.34 0 0 Z " fill="#493887" transform="translate(470,277)"/>
<path d="M0 0 C5.91953622 4.13052083 9.47633721 9.99863554 11.63671875 16.83984375 C12.67861709 24.69749376 10.70227363 31.95162971 6.44921875 38.58984375 C2.35935611 43.89927387 -3.86916093 47.41113728 -10.36328125 48.83984375 C-19.32784378 49.83932328 -26.09330863 47.60513094 -33.17578125 42.08984375 C-37.88055206 37.79987872 -40.96115535 31.61408257 -41.63671875 25.2734375 C-41.93009507 16.61883612 -40.38168864 10.29540006 -34.49609375 3.76953125 C-24.06197262 -5.9337954 -12.35267658 -6.8625981 0 0 Z " fill="#FDE078" transform="translate(238.36328125,203.16015625)"/>
<path d="M0 0 C6.29533789 4.01784363 11.30195106 10.25765853 13.2890625 17.4609375 C14.32863144 25.97487556 12.93637757 33.52855805 7.78125 40.5 C2.75898417 45.98945335 -2.7073617 49.01558561 -10.1171875 49.83984375 C-19.6518723 50.15562925 -25.43928176 48.62988375 -32.4609375 42.2734375 C-37.61861783 36.70267064 -39.9038524 31.10965801 -40.2734375 23.5234375 C-39.98837887 16.29582187 -37.70906179 10.72378323 -32.80859375 5.390625 C-30.85458747 3.59788987 -28.86176369 2.00953235 -26.7109375 0.4609375 C-25.8240625 -0.1784375 -24.9371875 -0.8178125 -24.0234375 -1.4765625 C-16.15408202 -4.00069539 -7.50552542 -3.44716314 0 0 Z " fill="#FDE078" transform="translate(236.7109375,397.5390625)"/>
<path d="M0 0 C7.32782878 -0.57990012 13.05416963 2.3495805 19.109375 6.265625 C24.40491137 10.81355624 27.64254781 16.30796785 28.4609375 23.24609375 C28.85535396 32.09970538 27.21123007 38.63901235 21.27734375 45.33203125 C15.41475079 50.87085182 9.76328681 53.32522055 1.734375 53.765625 C-5.63425826 53.55070653 -11.22309619 50.52722551 -16.765625 45.828125 C-23.90240868 37.22200351 -24.68355766 30.10614718 -23.890625 19.265625 C-21.98437307 11.85880274 -16.16660253 6.23121152 -9.765625 2.390625 C-6.43099626 1.08577028 -3.5228156 0.49494104 0 0 Z " fill="#FDE078" transform="translate(274.890625,295.734375)"/>
<path d="M0 0 C2.4375 1.5625 2.4375 1.5625 4 4 C4.25 7.75 4.25 7.75 4 11 C4.804375 11.04125 5.60875 11.0825 6.4375 11.125 C11.33762141 12.32853859 15.06733219 14.87870366 19 18 C20.44430855 20.88861709 20.37688506 22.79647701 20 26 C17.9375 28.9375 17.9375 28.9375 15 31 C10.26261675 31 7.55523303 30.0473426 4 27 C-0.4791349 25.50695503 -4.99215951 25.27923675 -9.4375 26.875 C-11.15893274 27.93074101 -11.15893274 27.93074101 -12 30 C-12.0689472 31.37342831 -12.08467708 32.75002102 -12.0625 34.125 C-12.041875 35.40375 -12.02125 36.6825 -12 38 C-9.91934465 39.06802871 -7.83606653 40.13011927 -5.75 41.1875 C-4.80133057 41.67114014 -4.80133057 41.67114014 -3.83349609 42.16455078 C0.16504078 44.17332763 4.16533301 45.84078633 8.375 47.375 C15.21471189 50.13648796 19.88202839 54.79174268 23.1953125 61.375 C24.15905048 64.51884427 24.26535341 67.21437051 24.25 70.5 C24.25773437 72.15515625 24.25773437 72.15515625 24.265625 73.84375 C24 77 24 77 22 82 C15.73 82 9.46 82 3 82 C4.32 80.35 5.64 78.7 7 77 C7.85656437 74.76536052 7.85656437 74.76536052 8.0625 72.5 C8.17722656 71.7678125 8.29195312 71.035625 8.41015625 70.28125 C7.7505684 66.6126852 5.85819677 65.31517607 3 63 C0.1637561 61.47897698 -2.76966205 60.27111914 -5.75 59.0625 C-24.08056937 51.19052146 -24.08056937 51.19052146 -28.18359375 41.640625 C-30.17606314 35.19608286 -29.73579271 29.96338089 -27 23.8125 C-24.27858935 18.91086832 -20.78843434 14.96556445 -16 12 C-13.25 11.31640625 -13.25 11.31640625 -11 11 C-11.0825 9.741875 -11.165 8.48375 -11.25 7.1875 C-11.22932408 3.29353482 -11.22932408 3.29353482 -9.4375 1 C-6.05216491 -0.38885542 -3.62487235 -0.45310904 0 0 Z " fill="#FEDF76" transform="translate(212,69)"/>
<path d="M0 0 C4.78306186 -0.09992737 9.56549757 -0.17195954 14.34936523 -0.21972656 C15.97186893 -0.23966813 17.59430242 -0.26683174 19.21655273 -0.30175781 C32.33055917 -0.57673544 43.10308569 0.17343341 53.0546875 9.71484375 C59.51688753 17.30598234 61.16757449 25.20059769 61.09765625 34.92578125 C61.0962413 35.67337204 61.09482635 36.42096283 61.09336853 37.19120789 C61.08779764 39.56501365 61.0752506 41.93872303 61.0625 44.3125 C61.05748123 45.92773301 61.05291899 47.5429675 61.04882812 49.15820312 C61.03869117 53.10553522 61.0191103 57.05266047 61 61 C50.44 61 39.88 61 29 61 C28.94392578 57.25849609 28.94392578 57.25849609 28.88671875 53.44140625 C28.84037436 50.99869519 28.78918801 48.55612959 28.73754883 46.11352539 C28.70450087 44.42904663 28.6764077 42.7444625 28.65356445 41.05981445 C28.41635251 23.47135512 28.41635251 23.47135512 19.171875 8.9453125 C13.57473897 3.93205037 7.27328651 2.27955966 0 1 C0 0.67 0 0.34 0 0 Z " fill="#493887" transform="translate(354,89)"/>
<path d="M0 0 C4.4842661 2.61512341 7.72396884 5.24487 9.83984375 10.09375 C10.58333579 15.72415323 10.64143575 20.43118881 8.15234375 25.59375 C3.23072313 30.91442094 0.16848405 32.76088597 -6.91015625 33.46875 C-11.93448388 33.37501254 -15.483116 31.44538846 -19.16015625 28.09375 C-22.63862391 23.59910077 -23.83463459 18.90449793 -23.54296875 13.265625 C-22.636623 8.12350011 -20.24207027 4.93278537 -16.09765625 1.71875 C-10.90874984 -1.15170886 -5.5972551 -2.34821552 0 0 Z " fill="#FDDF76" transform="translate(410.16015625,306.90625)"/>
<path d="M0 0 C5.42158831 2.27041243 9.62350263 5.55386019 12 11 C12.74349204 16.63040323 12.801592 21.33743881 10.3125 26.5 C3.89217252 33.44089457 3.89217252 33.44089457 -1 34 C-3.6727575 34.06694768 -6.32514123 34.04458098 -9 34 C-9.33 33.34 -9.66 32.68 -10 32 C-9.51789063 31.61328125 -9.03578125 31.2265625 -8.5390625 30.828125 C-7.90742188 30.30734375 -7.27578125 29.7865625 -6.625 29.25 C-5.99851562 28.73953125 -5.37203125 28.2290625 -4.7265625 27.703125 C-1.68586927 24.70370815 -0.70012356 21.91695659 -0.625 17.6875 C-0.77812603 11.47058321 -3.42720073 7.45919328 -7.75 3.0625 C-8.4925 2.381875 -9.235 1.70125 -10 1 C-6.74281494 -0.62859253 -3.5193391 -0.54333656 0 0 Z " fill="#FBC046" transform="translate(408,306)"/>
</svg>
