<svg width="64" height="64" viewBox="0 0 64 64" fill="none" xmlns="http://www.w3.org/2000/svg">
<g clip-path="url(#clip0_6_831)">
<path d="M32 64C49.6731 64 64 49.6731 64 32C64 14.3269 49.6731 0 32 0C14.3269 0 0 14.3269 0 32C0 49.6731 14.3269 64 32 64Z" fill="#4DAFE3" style="fill:#4DAFE3;fill:color(display-p3 0.3020 0.6863 0.8902);fill-opacity:1;"/>
<path d="M20 6.6667H24.4036L32 1.6025V0C31.1335 0 30.2777 0.0444 29.4284 0.1119L20 6.3975V6.6667Z" fill="#F0263C" style="fill:#F0263C;fill:color(display-p3 0.9412 0.1490 0.2353);fill-opacity:1;"/>
<path d="M20 14.6667V14.9358L29.5964 21.3333H32V19.7309L24.4036 14.6667H20Z" fill="#F0263C" style="fill:#F0263C;fill:color(display-p3 0.9412 0.1490 0.2353);fill-opacity:1;"/>
<path d="M12 14.9358V14.6667H7.59645L3.54415 17.3682C2.88725 18.6431 2.31165 19.9659 1.82825 21.3333H2.40375L12 14.9358Z" fill="#F0263C" style="fill:#F0263C;fill:color(display-p3 0.9412 0.1490 0.2353);fill-opacity:1;"/>
<path d="M13.3334 21.3333H18.6667V13.3333H32V8H18.6667V2.9114C16.7831 3.7763 14.9987 4.8178 13.3334 6.0163V8H10.8454C9.04316 9.5898 7.42306 11.3787 6.01636 13.3333H13.3335L13.3334 21.3333Z" fill="#F0263C" style="fill:#F0263C;fill:color(display-p3 0.9412 0.1490 0.2353);fill-opacity:1;"/>
<path d="M26.4614 0.4875C24.2186 0.8791 22.0564 1.5023 20 2.335V4.7952L26.4614 0.4875Z" fill="#191977" style="fill:#191977;fill:color(display-p3 0.0980 0.0980 0.4667);fill-opacity:1;"/>
<path d="M32 18.1285V14.6667H26.8073L32 18.1285Z" fill="#191977" style="fill:#191977;fill:color(display-p3 0.0980 0.0980 0.4667);fill-opacity:1;"/>
<path d="M4.80725 21.3333H12V16.5382L4.80725 21.3333Z" fill="#191977" style="fill:#191977;fill:color(display-p3 0.0980 0.0980 0.4667);fill-opacity:1;"/>
<path d="M32 6.6667V3.2048L26.8073 6.6667H32Z" fill="#191977" style="fill:#191977;fill:color(display-p3 0.0980 0.0980 0.4667);fill-opacity:1;"/>
<path d="M20 21.3333H27.1927L20 16.5382V21.3333Z" fill="#191977" style="fill:#191977;fill:color(display-p3 0.0980 0.0980 0.4667);fill-opacity:1;"/>
<path d="M18.6667 2.9114V8H32V6.6667H26.8073L32 3.2049V1.6025L24.4036 6.6667H20V6.3976L29.4284 0.1119C28.4256 0.1917 27.4362 0.3173 26.4614 0.4875L20 4.7952V2.335C19.5501 2.5172 19.1061 2.7097 18.6667 2.9114Z" fill="white" style="fill:white;fill-opacity:1;"/>
<path d="M13.3333 6.0163C12.4708 6.637 11.6404 7.2985 10.8453 8H13.3333V6.0163Z" fill="white" style="fill:white;fill-opacity:1;"/>
<path d="M18.6667 21.3333H20V16.5382L27.1927 21.3333H29.5964L20 14.9358V14.6667H24.4036L32 19.7309V18.1285L26.8073 14.6667H32V13.3333H18.6667V21.3333Z" fill="white" style="fill:white;fill-opacity:1;"/>
<path d="M2.40364 21.3333H4.80724L11.9999 16.5381V21.3333H13.3332V13.3333H6.01614C5.70214 13.7697 5.39924 14.2142 5.10714 14.6666C5.08574 14.6997 5.06454 14.733 5.04334 14.7662C4.50424 15.6076 4.00394 16.4754 3.54394 17.3682L7.59624 14.6667H11.9998V14.9358L2.40364 21.3333Z" fill="white" style="fill:white;fill-opacity:1;"/>
<path d="M42.6667 32L41.8097 31.1428L40.6667 32.6666L39.5238 31.1428L38.6667 32L40 33.3333H39.1112L40 34.6666H41.3334L42.2222 33.3333H41.3334L42.6667 32Z" fill="white" style="fill:white;fill-opacity:1;"/>
<path d="M37.3333 33.3333V30.6666H39.1667L38.6667 30H42.6667L42.1667 30.6666H44V33.3333L41.3333 36H44.6667V29.3333H36V36H40L37.3333 33.3333Z" fill="white" style="fill:white;fill-opacity:1;"/>
<path d="M42.6667 38.6666L42 40.6666L44 40L42.6667 42.6666L44 44L42.6667 45.3333L42 43.3333L40 42.6666L39.3333 40.6666L38 40L40 39.3333L40.6667 40.6666L42.6667 38.6666H36L37.3333 42.6666L41.3333 45.3333L44.6667 46.7619V38.6666H42.6667Z" fill="white" style="fill:white;fill-opacity:1;"/>
<path d="M47.3333 44L48.8571 42.8571L48.6666 42.6666V41.3333L50 40L50.6666 39.3333L51.9048 40.5714L52.6666 40H54L52.4762 41.1428L53.3333 42L52.6666 42.6666L51.3333 44H50L49.4285 43.4286L48.6666 44H47.3333V46.7619L50.6666 45.3333L54.6666 42.6666L56 38.6666H47.3333V44Z" fill="white" style="fill:white;fill-opacity:1;"/>
<path d="M47.3333 36H50.6666V34L49.3333 34.6666L50 33.3333H48L49.3333 32H48L49.3333 30.6666H50.6666H52H53.3333L54.6666 32H53.3333L54.6666 33.3333H52.6666L53.3333 34.6666L52 34V36H56V29.3333H47.3333V36Z" fill="white" style="fill:white;fill-opacity:1;"/>
<path d="M49.3333 30.6666L48 32H49.3333L48 33.3333H50L49.3333 34.6666L50.6667 34V30.6666H49.3333Z" fill="#1E5B00" style="fill:#1E5B00;fill:color(display-p3 0.1176 0.3569 0.0000);fill-opacity:1;"/>
<path d="M53.3333 34.6666L52.6667 33.3333H54.6667L53.3333 32H54.6667L53.3333 30.6666H52V34L53.3333 34.6666Z" fill="#1E5B00" style="fill:#1E5B00;fill:color(display-p3 0.1176 0.3569 0.0000);fill-opacity:1;"/>
<path d="M52 30.6666H50.6667V34V36H52V34V30.6666Z" fill="#5A2919" style="fill:#5A2919;fill:color(display-p3 0.3529 0.1608 0.0980);fill-opacity:1;"/>
<path d="M42.2221 33.3333L41.3333 34.6666H40L39.1111 33.3333H37.3333L40 36H41.3333L44 33.3333H42.2221Z" fill="#5A2919" style="fill:#5A2919;fill:color(display-p3 0.3529 0.1608 0.0980);fill-opacity:1;"/>
<path d="M40 33.3333L38.6666 32L39.5238 31.1428L40.6666 32.6666L41.8096 31.1428L42.6666 32L41.3333 33.3333H42.2221H44V30.6666H42.1666L42.6666 30H38.6666L39.1666 30.6666H37.3333V33.3333H39.1111H40Z" fill="#1E5B00" style="fill:#1E5B00;fill:color(display-p3 0.1176 0.3569 0.0000);fill-opacity:1;"/>
<path d="M49.4285 43.4286L48.8571 42.8571L47.3333 44H48.6666L49.4285 43.4286Z" fill="#960A3C" style="fill:#960A3C;fill:color(display-p3 0.5882 0.0392 0.2353);fill-opacity:1;"/>
<path d="M54 40H52.6667L51.9048 40.5714L52.4762 41.1428L54 40Z" fill="#960A3C" style="fill:#960A3C;fill:color(display-p3 0.5882 0.0392 0.2353);fill-opacity:1;"/>
<path d="M50 44H51.3334L52.6667 42.6666L50 40L48.6667 41.3333V42.6666L48.8572 42.8571L49.4286 43.4286L50 44Z" fill="#1E5B00" style="fill:#1E5B00;fill:color(display-p3 0.1176 0.3569 0.0000);fill-opacity:1;"/>
<path d="M53.3333 42L52.4762 41.1428L51.9048 40.5714L50.6667 39.3333L50 40L52.6667 42.6666L53.3333 42Z" fill="#FFD400" style="fill:#FFD400;fill:color(display-p3 1.0000 0.8314 0.0000);fill-opacity:1;"/>
<path d="M40 39.3333L38 40L39.3333 40.6666L40 42.6666L42 43.3333L42.6667 45.3333L44 44L42.6667 42.6666L44 40L42 40.6666L42.6667 38.6666L40.6667 40.6666L40 39.3333Z" fill="#C8C8C8" style="fill:#C8C8C8;fill:color(display-p3 0.7843 0.7843 0.7843);fill-opacity:1;"/>
<path d="M36 21.3333V29.3333H44.6667V36H36V38.6667H44.6667V46.762L46 47.3334L47.3333 46.762V38.6667H56V36H47.3333V29.3333H56V21.3333H36ZM53.3333 25.3333L54.6666 26.6666V27.9999H51.9999L53.3332 26.6666H50.6665L47.9998 27.9999H45.3331L47.9998 26.6666H44.6665L41.3332 27.9999H37.3332V26.6666H39.9999L39.3332 24.6666H37.3332V23.3333H39.9999L41.3332 25.3333V22.6666H43.9999V23.9999H51.9999L48.6666 22.6666H51.9999L54.6666 23.9999L50.6666 25.3332L53.3333 25.3333Z" fill="#F0263C" style="fill:#F0263C;fill:color(display-p3 0.9412 0.1490 0.2353);fill-opacity:1;"/>
<path d="M52 22.6666H48.6666L52 24H44V22.6666H41.3333V25.3333L40 23.3333H37.3333V24.6666H39.3333L40 26.6666H37.3333V28H41.3333L44.6666 26.6666H48L45.3333 28H47.3333H48L50.6666 26.6666H53.3333L52 28H53.3333H54.6666V26.6666L53.3333 25.3333H50.6666L54.6666 24L52 22.6666Z" fill="#FFD400" style="fill:#FFD400;fill:color(display-p3 1.0000 0.8314 0.0000);fill-opacity:1;"/>
</g>
<defs>
<clipPath id="clip0_6_831">
<rect width="64" height="64" fill="white" style="fill:white;fill-opacity:1;"/>
</clipPath>
</defs>
</svg>
