<svg width="64" height="64" viewBox="0 0 64 64" fill="none" xmlns="http://www.w3.org/2000/svg">
<g clip-path="url(#clip0_6_877)">
<path d="M32 64C49.6731 64 64 49.6731 64 32C64 14.3269 49.6731 0 32 0C14.3269 0 0 14.3269 0 32C0 49.6731 14.3269 64 32 64Z" fill="#191977" style="fill:#191977;fill:color(display-p3 0.0980 0.0980 0.4667);fill-opacity:1;"/>
<path d="M32 8V6.6667H26.8073L32 3.2049V1.6025L24.4036 6.6667H20V6.3976L29.4284 0.1119C28.4256 0.1917 27.4362 0.3173 26.4614 0.4875L20 4.7952V2.335C19.5501 2.5172 19.1061 2.7097 18.6667 2.9114V8H32Z" fill="white" style="fill:white;fill-opacity:1;"/>
<path d="M13.3333 6.0163C12.4708 6.637 11.6404 7.2985 10.8453 8H13.3333V6.0163Z" fill="white" style="fill:white;fill-opacity:1;"/>
<path d="M18.6667 21.3333H20V16.5382L27.1927 21.3333H29.5964L20 14.9358V14.6667H24.4036L32 19.7309V18.1285L26.8073 14.6667H32V13.3333H18.6667V21.3333Z" fill="white" style="fill:white;fill-opacity:1;"/>
<path d="M6.01639 13.3333C5.70239 13.7697 5.39949 14.2142 5.10739 14.6666C5.08599 14.6997 5.06479 14.733 5.04359 14.7662C4.50449 15.6076 4.00419 16.4754 3.54419 17.3682L7.59649 14.6667H12.0001V14.9358L2.40369 21.3333H4.80729L12 16.5381V21.3333H13.3333V13.3333H6.01639Z" fill="white" style="fill:white;fill-opacity:1;"/>
<path d="M20 6.6667H24.4036L32 1.6025V0C31.1335 0 30.2777 0.0444 29.4284 0.1119L20 6.3975V6.6667Z" fill="#F0263C" style="fill:#F0263C;fill:color(display-p3 0.9412 0.1490 0.2353);fill-opacity:1;"/>
<path d="M20 14.6667V14.9358L29.5964 21.3333H32V19.7309L24.4036 14.6667H20Z" fill="#F0263C" style="fill:#F0263C;fill:color(display-p3 0.9412 0.1490 0.2353);fill-opacity:1;"/>
<path d="M12 14.9358V14.6667H7.59645L3.54415 17.3682C2.88725 18.6431 2.31165 19.9659 1.82825 21.3333H2.40375L12 14.9358Z" fill="#F0263C" style="fill:#F0263C;fill:color(display-p3 0.9412 0.1490 0.2353);fill-opacity:1;"/>
<path d="M13.3334 21.3333H18.6667V13.3333H32V8H18.6667V2.9114C16.7831 3.7763 14.9987 4.8178 13.3334 6.0163V8H10.8454C9.04316 9.5898 7.42306 11.3787 6.01636 13.3333H13.3335L13.3334 21.3333Z" fill="#F0263C" style="fill:#F0263C;fill:color(display-p3 0.9412 0.1490 0.2353);fill-opacity:1;"/>
<path d="M40 45.3333L39.3333 47.3333L40 48L41.3333 48.6667V45.6667L39.1111 44H38.6666L37.3333 45.3333L38.6666 46.6667L40 45.3333Z" fill="#FFAD66" style="fill:#FFAD66;fill:color(display-p3 1.0000 0.6784 0.4000);fill-opacity:1;"/>
<path d="M37.3333 49.3333V48L36 46.6667V49.3333L37.3333 50.6667H38.6667L39.5555 50.2222L38.6667 49.3333H37.3333Z" fill="#FFAD66" style="fill:#FFAD66;fill:color(display-p3 1.0000 0.6784 0.4000);fill-opacity:1;"/>
<path d="M52 48.6667L53.3333 48L54 47.3333L53.3333 45.3333L54.6667 46.6667L56 45.3333L54.6667 44H54.2222L52 45.6667V48.6667Z" fill="#FFAD66" style="fill:#FFAD66;fill:color(display-p3 1.0000 0.6784 0.4000);fill-opacity:1;"/>
<path d="M56 49.3333H54.6667L53.7778 50.2222L54.6667 50.6667H56L57.3333 49.3333V46.6667L56 48V49.3333Z" fill="#FFAD66" style="fill:#FFAD66;fill:color(display-p3 1.0000 0.6784 0.4000);fill-opacity:1;"/>
<path d="M48 42.6667H49.3333L48 41.3333V42.6667Z" fill="#6D8DE4" style="fill:#6D8DE4;fill:color(display-p3 0.4275 0.5529 0.8941);fill-opacity:1;"/>
<path d="M44 42.6667H46.6667V41.3333H45.3333L44 42.6667Z" fill="#6D8DE4" style="fill:#6D8DE4;fill:color(display-p3 0.4275 0.5529 0.8941);fill-opacity:1;"/>
<path d="M40 42.6667V41.3333H38.6667H38.3743L38.512 41.884L41.3333 44L40 42.6667Z" fill="#6D8DE4" style="fill:#6D8DE4;fill:color(display-p3 0.4275 0.5529 0.8941);fill-opacity:1;"/>
<path d="M52 44L54.8213 41.884L54.959 41.3333H54.6667H53.3333L52 42.6667V44Z" fill="#6D8DE4" style="fill:#6D8DE4;fill:color(display-p3 0.4275 0.5529 0.8941);fill-opacity:1;"/>
<path d="M52 40L53.3333 38.6667H54.6667L55.4338 39.4338L55.9671 37.3005L54.6667 36H53.3333L52 37.3333V38.6667V40Z" fill="#6D8DE4" style="fill:#6D8DE4;fill:color(display-p3 0.4275 0.5529 0.8941);fill-opacity:1;"/>
<path d="M45.3333 36L44 37.3333V38.6667L45.3333 36Z" fill="#6D8DE4" style="fill:#6D8DE4;fill:color(display-p3 0.4275 0.5529 0.8941);fill-opacity:1;"/>
<path d="M40 36H38.6667L37.3662 37.3005L37.8995 39.4338L38.6667 38.6667H40L40.8888 36.8889L40 36Z" fill="#6D8DE4" style="fill:#6D8DE4;fill:color(display-p3 0.4275 0.5529 0.8941);fill-opacity:1;"/>
<path d="M48 38.6667L48.8888 36.8889L48.4445 36.4445L48 37.3333V38.6667Z" fill="#6D8DE4" style="fill:#6D8DE4;fill:color(display-p3 0.4275 0.5529 0.8941);fill-opacity:1;"/>
<path d="M50.6666 32L51.9999 33.3333V32H50.6666Z" fill="#6D8DE4" style="fill:#6D8DE4;fill:color(display-p3 0.4275 0.5529 0.8941);fill-opacity:1;"/>
<path d="M37.3333 22.6667V34.6667L38.6666 33.3333H40L40.6666 34L41.3333 33.3333V32L42.6666 33.3333V32L41.3333 29.3333V28V26.6667H40V25.3333L41.3333 24H44L45.3333 25.3333H52L53.3333 26.6667L53.3016 29.2698L52.6666 30.6667L53.3333 32V33.3333L54.6666 32V33.3333L56 34.6667V22.6667H37.3333Z" fill="#6D8DE4" style="fill:#6D8DE4;fill:color(display-p3 0.4275 0.5529 0.8941);fill-opacity:1;"/>
<path d="M48 30.6667H45.3333V32L46.6666 33.3333L47.7029 32.0635L47.7085 32.0805L47.7142 32.0635L48 33.3333L49.3333 32L48 30.6667Z" fill="#6D8DE4" style="fill:#6D8DE4;fill:color(display-p3 0.4275 0.5529 0.8941);fill-opacity:1;"/>
<path d="M45.3333 41.3333H46.6667V40H44V42.6667L45.3333 41.3333Z" fill="white" style="fill:white;fill-opacity:1;"/>
<path d="M49.3333 42.6667L50.6667 40H48V41.3333L49.3333 42.6667Z" fill="white" style="fill:white;fill-opacity:1;"/>
<path d="M42.6666 42V40H41.3333V41.3333L42.6666 42Z" fill="white" style="fill:white;fill-opacity:1;"/>
<path d="M52 42.6667L53.3333 41.3333H52V42.6667Z" fill="white" style="fill:white;fill-opacity:1;"/>
<path d="M43.9999 32H42.6666L43.9999 33.3333L44.2221 32.0635L45.3332 33.3333V32H43.9999Z" fill="#FFAD66" style="fill:#FFAD66;fill:color(display-p3 1.0000 0.6784 0.4000);fill-opacity:1;"/>
<path d="M49.3333 33.3333L50.6666 32H49.3333V33.3333Z" fill="#FFAD66" style="fill:#FFAD66;fill:color(display-p3 1.0000 0.6784 0.4000);fill-opacity:1;"/>
<path d="M52 33.3333L53.3333 32L52.6667 30.6667L52 32V33.3333Z" fill="#FFAD66" style="fill:#FFAD66;fill:color(display-p3 1.0000 0.6784 0.4000);fill-opacity:1;"/>
<path d="M53.3333 33.3333H54.6666V32L53.3333 33.3333Z" fill="#619B27" style="fill:#619B27;fill:color(display-p3 0.3804 0.6078 0.1529);fill-opacity:1;"/>
<path d="M45.3333 33.3333H46.6666L45.3333 32V33.3333Z" fill="#619B27" style="fill:#619B27;fill:color(display-p3 0.3804 0.6078 0.1529);fill-opacity:1;"/>
<path d="M47.7084 32.0805L47.7028 32.0635L46.6666 33.3333H47.9999L47.7142 32.0635L47.7084 32.0805Z" fill="#619B27" style="fill:#619B27;fill:color(display-p3 0.3804 0.6078 0.1529);fill-opacity:1;"/>
<path d="M43.9999 33.3333L42.6666 32V33.3333L41.3332 32V33.3333L40.6666 34L41.3332 34.6667H43.9999L45.3332 33.3333L44.2221 32.0635L43.9999 33.3333Z" fill="#619B27" style="fill:#619B27;fill:color(display-p3 0.3804 0.6078 0.1529);fill-opacity:1;"/>
<path d="M52 33.3333L50.6667 32L49.3333 33.3333V32L48 33.3333L49.3333 34.6667H52L53.3333 33.3333V32L52 33.3333Z" fill="#619B27" style="fill:#619B27;fill:color(display-p3 0.3804 0.6078 0.1529);fill-opacity:1;"/>
<path d="M45.3333 32V30.6667H48L49.3333 32H50.6666H52L52.6666 30.6667L53.3016 29.2698L53.3333 26.6667L52 25.3333H45.3333L44 24H41.3333L42.6666 25.3333V26L41.3968 26.6667H41.3333V28V29.3333L42.6666 32H44H45.3333Z" fill="#C8C8C8" style="fill:#C8C8C8;fill:color(display-p3 0.7843 0.7843 0.7843);fill-opacity:1;"/>
<path d="M42.6667 26V25.3333L41.3333 24L40 25.3333V26.6667H41.3333H41.3968L42.6667 26Z" fill="#FFAD66" style="fill:#FFAD66;fill:color(display-p3 1.0000 0.6784 0.4000);fill-opacity:1;"/>
<path d="M54 47.3333L53.3333 48L52 48.6667L50.6667 49.3333H42.6667L41.3333 48.6667L40 48L39.3333 47.3333L38.6667 46.6667L37.3333 45.3333L36 46.6667L37.3333 48L38.6667 49.3333L39.5555 50.2222L40 50.6667L44 52H49.3333L53.3333 50.6667L53.7778 50.2222L54.6667 49.3333L56 48L57.3333 46.6667L56 45.3333L54.6667 46.6667L54 47.3333Z" fill="#FFD400" style="fill:#FFD400;fill:color(display-p3 1.0000 0.8314 0.0000);fill-opacity:1;"/>
<path d="M45.3333 36L44 38.6667V37.3333L45.3333 34.6667L41.3333 36L40.8888 36.8889L40 38.6667L41.3333 40H42.6667H44H46.6667H48H50.6667H52V38.6667V37.3333L53.3333 34.6667L49.3333 36L48.8888 36.8889L48 38.6667V37.3333L48.4445 36.4445L49.3333 34.6667L45.3333 36Z" fill="#FFD400" style="fill:#FFD400;fill:color(display-p3 1.0000 0.8314 0.0000);fill-opacity:1;"/>
<path d="M36 21.3333V37.3333L36.8333 40.6666L37.3333 42.6666L39.1111 43.9999L41.3333 45.6666L42.6666 46.6666L46.6666 47.9999L50.6666 46.6666L51.9999 45.6666L54.2221 43.9999L55.9999 42.6666L56.4999 40.6666L57.3332 37.3333V21.3333H36ZM56 34.6666L54.6667 33.3333H53.3334L52.0001 34.6666H49.3334L48.4446 36.4444L48.8889 36.8888L49.3334 35.9999L53.3334 34.6666L52.0001 37.3333L53.3334 36H54.6667L55.9672 37.3005L55.4339 39.4338L54.6667 38.6666H53.3334L52.0001 39.9999H53.3334V41.3332H54.9591L54.8214 41.8839L52.0001 43.9999L50.6668 45.3332L46.6668 46.6665L42.6668 45.3332L41.3335 43.9999L38.5122 41.8839L38.3745 41.3332H40.0002L38.6669 39.9999H41.3336L40.0003 38.6666H38.667L37.8998 39.4338L37.3665 37.3005L38.667 36H40.0003L40.8891 36.8889L41.3336 36L45.3336 34.6667L44.0003 37.3334L45.3336 36.0001L49.3334 34.6666L48.0003 33.3335H45.3336L44.0003 34.6668H41.3336L40.6669 34.0001L40.0002 33.3334H38.6669L37.3336 34.6667V22.6667H56.0003L56 34.6666Z" fill="white" style="fill:white;fill-opacity:1;"/>
<path d="M49.3332 42.6667H47.9999V41.3333V40H46.6666V41.3333V42.6667H43.9999V40H42.6666V42L41.3332 41.3333V40H38.6666L39.9999 41.3333V42.6667L41.3332 44L42.6666 45.3333L46.6666 46.6667L50.6666 45.3333L51.9999 44V42.6667V41.3333H53.3332V40H51.9999H50.6666L49.3332 42.6667Z" fill="#CC9500" style="fill:#CC9500;fill:color(display-p3 0.8000 0.5843 0.0000);fill-opacity:1;"/>
</g>
<defs>
<clipPath id="clip0_6_877">
<rect width="64" height="64" fill="white" style="fill:white;fill-opacity:1;"/>
</clipPath>
</defs>
</svg>
