<svg width="64" height="64" viewBox="0 0 64 64" fill="none" xmlns="http://www.w3.org/2000/svg">
<g clip-path="url(#clip0_6_950)">
<path d="M32 64C49.6731 64 64 49.6731 64 32C64 14.3269 49.6731 0 32 0C14.3269 0 0 14.3269 0 32C0 49.6731 14.3269 64 32 64Z" fill="white" style="fill:white;fill-opacity:1;"/>
<path d="M36 28V0.2577C34.6886 0.0941 33.3557 0 32 0C30.6443 0 29.3114 0.0941 28 0.2577V28H0.2577C0.0941 29.3114 0 30.6443 0 32C0 33.3557 0.0941 34.6886 0.2577 36H28V63.7423C29.3114 63.906 30.6443 64 32 64C33.3557 64 34.6886 63.9059 36 63.7423V36H63.7423C63.906 34.6886 64 33.3557 64 32C64 30.6443 63.9059 29.3114 63.7423 28H36Z" fill="#F0263C" style="fill:#F0263C;fill:color(display-p3 0.9412 0.1490 0.2353);fill-opacity:1;"/>
<path d="M21.3333 13.3333L17.3333 14.6667L18.6667 10.6667H13.3333L14.6667 14.6667L10.6667 13.3333V18.6667L14.6667 17.3333L13.3333 21.3333H18.6667L17.3333 17.3333L21.3333 18.6667V13.3333Z" fill="#F0263C" style="fill:#F0263C;fill:color(display-p3 0.9412 0.1490 0.2353);fill-opacity:1;"/>
<path d="M53.3334 13.3333L49.3334 14.6667L50.6667 10.6667H45.3334L46.6667 14.6667L42.6667 13.3333V18.6667L46.6667 17.3333L45.3334 21.3333H50.6667L49.3334 17.3333L53.3334 18.6667V13.3333Z" fill="#F0263C" style="fill:#F0263C;fill:color(display-p3 0.9412 0.1490 0.2353);fill-opacity:1;"/>
<path d="M21.3333 45.3333L17.3333 46.6667L18.6667 42.6667H13.3333L14.6667 46.6667L10.6667 45.3333V50.6667L14.6667 49.3333L13.3333 53.3333H18.6667L17.3333 49.3333L21.3333 50.6667V45.3333Z" fill="#F0263C" style="fill:#F0263C;fill:color(display-p3 0.9412 0.1490 0.2353);fill-opacity:1;"/>
<path d="M53.3334 45.3333L49.3334 46.6667L50.6667 42.6667H45.3334L46.6667 46.6667L42.6667 45.3333V50.6667L46.6667 49.3333L45.3334 53.3333H50.6667L49.3334 49.3333L53.3334 50.6667V45.3333Z" fill="#F0263C" style="fill:#F0263C;fill:color(display-p3 0.9412 0.1490 0.2353);fill-opacity:1;"/>
</g>
<defs>
<clipPath id="clip0_6_950">
<rect width="64" height="64" fill="white" style="fill:white;fill-opacity:1;"/>
</clipPath>
</defs>
</svg>
