<svg width="64" height="64" viewBox="0 0 64 64" fill="none" xmlns="http://www.w3.org/2000/svg">
<g clip-path="url(#clip0_6_1019)">
<path d="M32 0C14.3268 0 0 14.3269 0 32C0 35.7343 0.6462 39.3162 1.8218 42.6481H31.3334V41.3334H23.3334V40.0001H14.6667V38.6668L17.3334 37.3335V25.3335H16.0001V24.0002H14.6668V21.3335H16.0001V22.6668H17.3334V21.3335H18.6667V13.3335H17.3334V10.6668H18.6667V12.0001H20.3334V10.6668H22.3334V12.0001H24.0001V10.6668H25.3334V13.3335H24.0001V21.3335H25.3334V22.6668H26.6667V21.3335H28V11.3335H26.6667V8.0002H28V9.3335H29.3333V8.0002H31.3333V9.3335H32.6666V8.0002H34.6666V9.3335H35.9999V8.0002H37.3332V11.3335H35.9999V21.3335H37.3332V22.6668H38.6665V21.3335H39.9998V13.3335H38.6665V10.6668H39.9998V12.0001H41.6665V10.6668H43.6665V12.0001H45.3332V10.6668H46.6665V13.3335H45.3332V21.3335H46.6665V22.6668H47.9998V21.3335H49.3331V24.0002H47.9998V25.3335H46.6665V37.3335L49.3332 38.6668V40.0001H40.6665V41.3334H32.6665V42.6481H62.1781C63.3539 39.3162 63.9999 35.7343 63.9999 32C64 14.3269 49.6732 0 32 0Z" fill="white" style="fill:white;fill-opacity:1;"/>
<path d="M32.6667 44H33.3334L34.6667 45.3333H36V46.6666H34.6667L33.3334 47.9999H32.6667V60.6666H30V59.9999H28V60.6666H26.6667V57.9999H28V58.6666H30V57.9999H31.3333V57.3332H30V56.6665H28V57.3332H26.6667V54.6665H28V55.3332H30V54.6665H31.3333V47.9998H30.6666L29.3333 46.6665H28V45.3332H29.3333L30.6666 43.9999H31.3333V42.648H1.82178C6.21028 55.0848 18.0612 63.9999 32 63.9999C45.9388 63.9999 57.7897 55.0848 62.1782 42.648H32.6666L32.6667 44Z" fill="#F0263C" style="fill:#F0263C;fill:color(display-p3 0.9412 0.1490 0.2353);fill-opacity:1;"/>
<path d="M29.3333 40V38.6667H28V32L29.3333 29.3333H34.6666L35.9999 32V38.6667H34.6666V40H33.3333V41.3333H40.6666V40H49.3333V38.6667L46.6666 37.3334V25.3334H47.9999V24.0001H49.3332V21.3334H47.9999V22.6667H46.6666V21.3334H45.3333V13.3334H46.6666V10.6667H45.3333V12H43.6666V10.6667H41.6666V12H39.9999V10.6667H38.6666V13.3334H39.9999V21.3334H38.6666V22.6667H37.3333V21.3334H36V11.3334H37.3333V8.0001H36V9.3334H34.6667V8.0001H32.6667V9.3334H31.3334V8.0001H29.3334V9.3334H28.0001V8.0001H26.6668V11.3334H28.0001V21.3334H26.6668V22.6667H25.3335V21.3334H24.0002V13.3334H25.3335V10.6667H24.0002V12H22.3335V10.6667H20.3335V12H18.6668V10.6667H17.3335V13.3334H18.6668V21.3334H17.3335V22.6667H16.0002V21.3334H14.6669V24.0001H16.0002V25.3334H17.3335V37.3334L14.6668 38.6667V40H23.3335V41.3333H30.6668V40H29.3333ZM40.6666 18.6667L41.9999 17.3334H43.3332L44.6665 18.6667V23.3334H40.6665L40.6666 18.6667ZM40.6666 34L41.9999 32.6667H43.3332L44.6665 34V38.6667H40.6665L40.6666 34ZM33.3333 13.3333H34.6666V16H33.3333V13.3333ZM31.3333 12H32.6666V16H31.3333V12ZM32.6666 17.3333L33.9999 18.6666V23.3333H29.9999V18.6666L31.3332 17.3333H32.6666ZM29.3333 13.3333H30.6666V16H29.3333V13.3333ZM23.3333 38.6666H19.3333V33.9999L20.6666 32.6666H21.9999L23.3332 33.9999L23.3333 38.6666ZM23.3333 23.3333H19.3333V18.6666L20.6666 17.3333H21.9999L23.3332 18.6666L23.3333 23.3333Z" fill="#F0263C" style="fill:#F0263C;fill:color(display-p3 0.9412 0.1490 0.2353);fill-opacity:1;"/>
<path d="M30.6667 38.6667V40H32H33.3333V38.6667H30.6667Z" fill="#F0263C" style="fill:#F0263C;fill:color(display-p3 0.9412 0.1490 0.2353);fill-opacity:1;"/>
<path d="M20.6667 32.6667L19.3333 34V38.6667H23.3333V34L22 32.6667H20.6667Z" fill="black" style="fill:black;fill-opacity:1;"/>
<path d="M20.6667 17.3333L19.3333 18.6667V23.3333H23.3333V18.6667L22 17.3333H20.6667Z" fill="black" style="fill:black;fill-opacity:1;"/>
<path d="M44.6667 34L43.3333 32.6667H42L40.6667 34V38.6667H44.6667V34Z" fill="black" style="fill:black;fill-opacity:1;"/>
<path d="M44.6667 18.6667L43.3333 17.3333H42L40.6667 18.6667V23.3333H44.6667V18.6667Z" fill="black" style="fill:black;fill-opacity:1;"/>
<path d="M30 23.3333H34V18.6667L32.6667 17.3333H31.3333L30 18.6667V23.3333Z" fill="black" style="fill:black;fill-opacity:1;"/>
<path d="M33.3333 38.6667H34.6667V37.3333H36V32L34.6667 29.3333H29.3333L28 32V37.3333H29.3333V38.6667H30.6667H33.3333Z" fill="black" style="fill:black;fill-opacity:1;"/>
<path d="M30.6666 13.3333H29.3333V16H30.6666V13.3333Z" fill="black" style="fill:black;fill-opacity:1;"/>
<path d="M32.6666 12H31.3333V16H32.6666V12Z" fill="black" style="fill:black;fill-opacity:1;"/>
<path d="M34.6666 13.3333H33.3333V16H34.6666V13.3333Z" fill="black" style="fill:black;fill-opacity:1;"/>
<path d="M29.3333 37.3333H28V38.6666H29.3333V37.3333Z" fill="#FFD400" style="fill:#FFD400;fill:color(display-p3 1.0000 0.8314 0.0000);fill-opacity:1;"/>
<path d="M36 37.3333H34.6667V38.6666H36V37.3333Z" fill="#FFD400" style="fill:#FFD400;fill:color(display-p3 1.0000 0.8314 0.0000);fill-opacity:1;"/>
<path d="M30.6666 38.6667H29.3333V40H30.6666V38.6667Z" fill="#FFD400" style="fill:#FFD400;fill:color(display-p3 1.0000 0.8314 0.0000);fill-opacity:1;"/>
<path d="M34.6666 38.6667H33.3333V40H34.6666V38.6667Z" fill="#FFD400" style="fill:#FFD400;fill:color(display-p3 1.0000 0.8314 0.0000);fill-opacity:1;"/>
<path d="M30.6667 44L29.3333 45.3333H28V46.6667H29.3333L30.6667 48H31.3333V54.6667H30V55.3333H28V54.6667H26.6667V57.3333H28V56.6667H30V57.3333H31.3333V58H30V58.6667H28V58H26.6667V60.6667H28V60H30V60.6667H31.3333H32.6667V48H33.3333L34.6667 46.6667H36V45.3333H34.6667L33.3333 44H32.6667V42.6481V41.3333H33.3333V40H32H30.6667V41.3333H31.3333V42.6481V44H30.6667Z" fill="#FFD400" style="fill:#FFD400;fill:color(display-p3 1.0000 0.8314 0.0000);fill-opacity:1;"/>
</g>
<defs>
<clipPath id="clip0_6_1019">
<rect width="64" height="64" fill="white" style="fill:white;fill-opacity:1;"/>
</clipPath>
</defs>
</svg>
