<svg width="64" height="64" viewBox="0 0 64 64" fill="none" xmlns="http://www.w3.org/2000/svg">
<g clip-path="url(#clip0_6_1296)">
<path d="M21.3333 1.828V62.1719C24.6704 63.3518 28.2588 64 32 64C35.7412 64 39.3295 63.3518 42.6667 62.1719V1.828C39.3295 0.6482 35.7412 0 32 0C28.2588 0 24.6705 0.6482 21.3333 1.828Z" fill="white" style="fill:white;fill-opacity:1;"/>
<path d="M21.3333 62.1719V1.828C8.9061 6.2218 0 18.068 0 32C0 45.932 8.9061 57.7782 21.3333 62.1719Z" fill="#4DAFE3" style="fill:#4DAFE3;fill:color(display-p3 0.3020 0.6863 0.8902);fill-opacity:1;"/>
<path d="M42.6667 1.828V62.1719C55.0939 57.7781 64 45.9319 64 32C64 18.0681 55.0939 6.2218 42.6667 1.828Z" fill="#4DAFE3" style="fill:#4DAFE3;fill:color(display-p3 0.3020 0.6863 0.8902);fill-opacity:1;"/>
<path d="M36.6667 31.3333L37.3334 30.6666L36.6667 31V31.3333Z" fill="#C8C8C8" style="fill:#C8C8C8;fill:color(display-p3 0.7843 0.7843 0.7843);fill-opacity:1;"/>
<path d="M35.3334 32.6666L35.2382 32.6984L35.2729 32.7272L35.3334 32.6666Z" fill="#C8C8C8" style="fill:#C8C8C8;fill:color(display-p3 0.7843 0.7843 0.7843);fill-opacity:1;"/>
<path d="M36 33.3333V34.6666L36.4445 35.5555L36.8888 36.4444L37.3333 37.3333L38.6667 36L38.2222 35.5555L37.3333 34.6666L36 33.3333Z" fill="#5A2919" style="fill:#5A2919;fill:color(display-p3 0.3529 0.1608 0.0980);fill-opacity:1;"/>
<path d="M28.4705 27.0588L28 26.6666L26 26L28.0931 27.8139L28.4705 27.0588Z" fill="#999999" style="fill:#999999;fill:color(display-p3 0.6000 0.6000 0.6000);fill-opacity:1;"/>
<path d="M34.8889 33.7037L35.2983 32.7485L35.2729 32.7272L35.2382 32.6984L34.1482 33.0617L34.5567 33.4158L34.8889 33.7037Z" fill="#999999" style="fill:#999999;fill:color(display-p3 0.6000 0.6000 0.6000);fill-opacity:1;"/>
<path d="M36 34.6666V33.3333L35.5348 34.2635L36 34.6666Z" fill="#999999" style="fill:#999999;fill:color(display-p3 0.6000 0.6000 0.6000);fill-opacity:1;"/>
<path d="M27.5556 35.5555L28.0001 34.6666V33.3333L26.6668 34.6666L25.7779 35.5555L25.3334 36L26.6668 37.3333L27.1113 36.4444L27.5556 35.5555Z" fill="#5A2919" style="fill:#5A2919;fill:color(display-p3 0.3529 0.1608 0.0980);fill-opacity:1;"/>
<path d="M38.0001 26L36.0001 26.6666L35.1796 27.3504L35.6769 28.0134L38.0001 26Z" fill="#999999" style="fill:#999999;fill:color(display-p3 0.6000 0.6000 0.6000);fill-opacity:1;"/>
<path d="M29.3333 33.3333H28V34.6666L29.4434 33.4158L29.3333 33.3333Z" fill="#999999" style="fill:#999999;fill:color(display-p3 0.6000 0.6000 0.6000);fill-opacity:1;"/>
<path d="M34.6668 28H34.4002L33.3334 28.8889V29.3333L33.7143 29.7143L35.143 28.4762L34.6668 28Z" fill="#999999" style="fill:#999999;fill:color(display-p3 0.6000 0.6000 0.6000);fill-opacity:1;"/>
<path d="M36.0001 37.3333H34.6668L32.0001 38.6666L29.3334 37.3333H28.0001H26.6668H25.3334L26.6668 38.6666H28.0001V40L29.3334 38.6666V40L30.6668 38.6666L32.0001 40L33.3334 38.6666L34.6668 40V38.6666L36.0001 40V38.6666H37.3334L38.6668 37.3333H37.3334H36.0001Z" fill="#1E5B00" style="fill:#1E5B00;fill:color(display-p3 0.1176 0.3569 0.0000);fill-opacity:1;"/>
<path d="M36.6668 36L36.4446 35.5555L36.0001 36L35.3334 36.6666L36.0001 37.3333L36.8889 36.4444L36.6668 36Z" fill="#1E5B00" style="fill:#1E5B00;fill:color(display-p3 0.1176 0.3569 0.0000);fill-opacity:1;"/>
<path d="M40.0001 30.6666V29.3333L41.3334 28H40.0001V26.6666L38.6668 25.3333L37.3334 24V25.3333L38.0001 26L38.6668 26.6666H37.3334L38.6668 28H37.3334L38.6668 29.3333V30.6666H37.3334L38.6668 32V33.3333L37.3334 32V34.6666L38.2223 35.5555L40.0001 34.6666H38.6668L41.3334 33.3333H40.0001L41.3334 32H40.0001L41.3334 30.6666H40.0001Z" fill="#1E5B00" style="fill:#1E5B00;fill:color(display-p3 0.1176 0.3569 0.0000);fill-opacity:1;"/>
<path d="M28 36L27.5555 35.5555L27.3333 36L27.1112 36.4444L28 37.3333L28.6667 36.6666L28 36Z" fill="#1E5B00" style="fill:#1E5B00;fill:color(display-p3 0.1176 0.3569 0.0000);fill-opacity:1;"/>
<path d="M25.7778 35.5555L26.6667 34.6666V32L25.3333 33.3333V32L26.6667 30.6666H25.3333V29.3333L26.6667 28H25.3333L26.6667 26.6666H25.3333L26 26L26.6667 25.3333V24L25.3333 25.3333L24 26.6666V28H22.6667L24 29.3333V30.6666H22.6667L24 32H22.6667L24 33.3333H22.6667L25.3333 34.6666H24L25.7778 35.5555Z" fill="#1E5B00" style="fill:#1E5B00;fill:color(display-p3 0.1176 0.3569 0.0000);fill-opacity:1;"/>
<path d="M32.0001 25.3333V24H30.6668L29.3334 25.3333H30.6668H32.0001Z" fill="#1E5B00" style="fill:#1E5B00;fill:color(display-p3 0.1176 0.3569 0.0000);fill-opacity:1;"/>
<path d="M34.1818 36.9697L33.6577 36.5766L33.3333 37.3333L32 38.6666L34 37.3333L34.1818 36.9697Z" fill="#1E5B00" style="fill:#1E5B00;fill:color(display-p3 0.1176 0.3569 0.0000);fill-opacity:1;"/>
<path d="M34.4001 28H34.6667L35.1429 28.4762L36 29.3333V30.6666L34.6667 32L33.3333 33.3333L34.1481 33.0617L35.2381 32.6984L35.3333 32.6666L35.2982 32.7485L34.8888 33.7037L34.0902 35.5676L34.6667 36L35.5348 34.2635L36 33.3333L36.6667 32V31.3333V31V29.3333L35.6768 28.0134L35.1795 27.3504L34.6667 26.6666L33.3333 25.3333H32L33.3333 28H34.4001Z" fill="#1E5B00" style="fill:#1E5B00;fill:color(display-p3 0.1176 0.3569 0.0000);fill-opacity:1;"/>
<path d="M29.3333 32L26.6667 30.6666L28 32H29.3333Z" fill="#C8C8C8" style="fill:#C8C8C8;fill:color(display-p3 0.7843 0.7843 0.7843);fill-opacity:1;"/>
<path d="M34.0903 35.5676L32.8889 34.6666L34.5567 33.4158L34.1482 33.0617L33.3334 33.3333H32.8889L32.0001 34L31.1113 33.3333H29.3334L29.4435 33.4158L31.1113 34.6666L29.3334 36V37.3333L32.0001 35.3333L33.6578 36.5766L34.1819 36.9697L34.6668 37.3333V36L34.0903 35.5676Z" fill="#C8C8C8" style="fill:#C8C8C8;fill:color(display-p3 0.7843 0.7843 0.7843);fill-opacity:1;"/>
<path d="M34.6667 36V37.3333H36L35.3334 36.6666L34.6667 36Z" fill="#FFD400" style="fill:#FFD400;fill:color(display-p3 1.0000 0.8314 0.0000);fill-opacity:1;"/>
<path d="M28.6667 36.6666L28 37.3333H29.3333V36L28.6667 36.6666Z" fill="#FFD400" style="fill:#FFD400;fill:color(display-p3 1.0000 0.8314 0.0000);fill-opacity:1;"/>
<path d="M28 28V29.3333L29.3333 32H28V33.3333H29.3333H31.1112H32.8888H33.3333L34.6667 32V30.6666L33.7142 29.7143L33.3333 29.3333V28.8889V28L32 26.6666H28.6667L28.4705 27.0588L28.0931 27.8139L28 28Z" fill="#FFE566" style="fill:#FFE566;fill:color(display-p3 1.0000 0.8980 0.4000);fill-opacity:1;"/>
<path d="M32 25.3333H30.6667L32 26.6666L33.3333 28L32 25.3333Z" fill="#5A2919" style="fill:#5A2919;fill:color(display-p3 0.3529 0.1608 0.0980);fill-opacity:1;"/>
</g>
<defs>
<clipPath id="clip0_6_1296">
<rect width="64" height="64" fill="white" style="fill:white;fill-opacity:1;"/>
</clipPath>
</defs>
</svg>
