<svg width="64" height="64" viewBox="0 0 64 64" fill="none" xmlns="http://www.w3.org/2000/svg">
<g clip-path="url(#clip0_6_1230)">
<path d="M32 64C49.6731 64 64 49.6731 64 32C64 14.3269 49.6731 0 32 0C14.3269 0 0 14.3269 0 32C0 49.6731 14.3269 64 32 64Z" fill="#619B27" style="fill:#619B27;fill:color(display-p3 0.3804 0.6078 0.1529);fill-opacity:1;"/>
<path d="M32 32L9.3788 9.3788L9.3726 9.3726C3.582 15.1634 0 23.1637 0 32C0 40.8363 3.5815 48.8361 9.372 54.6268L9.3787 54.6211L32 32Z" fill="#F0263C" style="fill:#F0263C;fill:color(display-p3 0.9412 0.1490 0.2353);fill-opacity:1;"/>
<path d="M12.1613 6.90141C12.1493 6.91091 12.1381 6.92131 12.1261 6.93071C12.1382 6.92111 12.1506 6.91171 12.1627 6.90211L12.1613 6.90141Z" fill="#FFD400" style="fill:#FFD400;fill:color(display-p3 1.0000 0.8314 0.0000);fill-opacity:1;"/>
<path d="M11.8342 7.17461C11.5843 7.37751 11.3369 7.58351 11.0931 7.79341L35.2998 32.0001L11.0914 56.2084C11.2519 56.3473 11.4159 56.4822 11.5792 56.6179L58.8974 32.0001L11.8342 7.17461Z" fill="#FFD400" style="fill:#FFD400;fill:color(display-p3 1.0000 0.8314 0.0000);fill-opacity:1;"/>
<path d="M11.0931 7.7933L11.0907 7.7909L11.0889 7.7889C11.0402 7.831 10.9931 7.875 10.9445 7.9173C10.8342 8.0134 10.7259 8.1117 10.6167 8.209C10.1926 8.5869 9.77416 8.971 9.37256 9.3725L32 31.9999L9.37876 54.6211L9.37256 54.6273C9.92306 55.1778 10.4996 55.7015 11.0888 56.2109L11.0914 56.2083L35.2998 32L11.0931 7.7933Z" fill="black" style="fill:black;fill-opacity:1;"/>
<path d="M13.9169 5.6014C13.3159 6.0139 12.7334 6.4508 12.1629 6.9023C12.1507 6.9119 12.1384 6.9213 12.1263 6.9309C12.0256 7.0109 11.9218 7.0871 11.8221 7.1682L11.8343 7.1746L58.8975 32L11.5793 56.6178L11.5664 56.6246C12.2341 57.1793 12.9284 57.7022 13.6403 58.202L64 32.0001L13.9169 5.6014Z" fill="white" style="fill:white;fill-opacity:1;"/>
</g>
<defs>
<clipPath id="clip0_6_1230">
<rect width="64" height="64" fill="white" style="fill:white;fill-opacity:1;"/>
</clipPath>
</defs>
</svg>
