<svg width="64" height="64" viewBox="0 0 64 64" fill="none" xmlns="http://www.w3.org/2000/svg">
<g clip-path="url(#clip0_6_1343)">
<path d="M1.828 21.3333C0.6482 24.6705 0 28.2588 0 32C0 35.7412 0.6482 39.3295 1.828 42.6667H62.1719C63.3518 39.3296 64 35.7412 64 32C64 28.2588 63.3518 24.6705 62.1719 21.3333H1.828Z" fill="white" style="fill:white;fill-opacity:1;"/>
<path d="M62.1719 42.6667H1.828C6.2218 55.0939 18.068 64 32 64C45.932 64 57.7782 55.0939 62.1719 42.6667Z" fill="#4DAFE3" style="fill:#4DAFE3;fill:color(display-p3 0.3020 0.6863 0.8902);fill-opacity:1;"/>
<path d="M1.828 21.3333H62.1719C57.7782 8.9061 45.9319 0 32 0C18.0681 0 6.2218 8.9061 1.828 21.3333Z" fill="#4DAFE3" style="fill:#4DAFE3;fill:color(display-p3 0.3020 0.6863 0.8902);fill-opacity:1;"/>
<path d="M32 28.3334L28.3334 32L32 35.6666L35.6667 32L32 28.3334Z" fill="#4DAFE3" style="fill:#4DAFE3;fill:color(display-p3 0.3020 0.6863 0.8902);fill-opacity:1;"/>
<path d="M13.9999 23.3333L10.6666 26.6666L13.9999 29.9999L17.3332 26.6666L13.9999 23.3333Z" fill="#4DAFE3" style="fill:#4DAFE3;fill:color(display-p3 0.3020 0.6863 0.8902);fill-opacity:1;"/>
<path d="M14 34L10.6667 37.3333L14 40.6666L17.3333 37.3333L14 34Z" fill="#4DAFE3" style="fill:#4DAFE3;fill:color(display-p3 0.3020 0.6863 0.8902);fill-opacity:1;"/>
<path d="M50 23.3333L46.6667 26.6666L50 29.9999L53.3333 26.6666L50 23.3333Z" fill="#4DAFE3" style="fill:#4DAFE3;fill:color(display-p3 0.3020 0.6863 0.8902);fill-opacity:1;"/>
<path d="M50 34L46.6667 37.3333L50 40.6666L53.3333 37.3333L50 34Z" fill="#4DAFE3" style="fill:#4DAFE3;fill:color(display-p3 0.3020 0.6863 0.8902);fill-opacity:1;"/>
</g>
<defs>
<clipPath id="clip0_6_1343">
<rect width="64" height="64" fill="white" style="fill:white;fill-opacity:1;"/>
</clipPath>
</defs>
</svg>
