<svg width="64" height="64" viewBox="0 0 64 64" fill="none" xmlns="http://www.w3.org/2000/svg">
<g clip-path="url(#clip0_6_1275)">
<path d="M20 21.3333H44V32H64C64 14.3269 49.6731 0 32 0C14.3269 0 0 14.3269 0 32H20V21.3333Z" fill="#2D25C5" style="fill:#2D25C5;fill:color(display-p3 0.1765 0.1451 0.7725);fill-opacity:1;"/>
<path d="M44 32V42.6667H20V32H0C0 49.6731 14.3269 64 32 64C49.6731 64 64 49.6731 64 32H44Z" fill="#F0263C" style="fill:#F0263C;fill:color(display-p3 0.9412 0.1490 0.2353);fill-opacity:1;"/>
<path d="M20 21.3333V32V42.6667H44V32V21.3333H20Z" fill="white" style="fill:white;fill-opacity:1;"/>
<path d="M33.3334 22.6667H30.6667V24H33.3334V22.6667Z" fill="#2D25C5" style="fill:#2D25C5;fill:color(display-p3 0.1765 0.1451 0.7725);fill-opacity:1;"/>
<path d="M40 40L37.3333 41.3333L36 38.6667H34.6667H34.1333L34.6667 41.3333H29.3333L29.8667 38.6667H29.3333H28L26.6667 41.3333L24 40L20 41.3333V42.6667H44V41.3333L40 40Z" fill="#1E5B00" style="fill:#1E5B00;fill:color(display-p3 0.1176 0.3569 0.0000);fill-opacity:1;"/>
<path d="M28 38.6667H29.3333H29.8667L29.9395 38.303L28 37.3333H25.3333H22.6667V38.6667H24V40L26.6667 41.3333L28 38.6667Z" fill="#CC9500" style="fill:#CC9500;fill:color(display-p3 0.8000 0.5843 0.0000);fill-opacity:1;"/>
<path d="M34.0605 38.303L34.1333 38.6667H34.6667H36L37.3333 41.3333L40 40V38.6667H41.3333V37.3333H38.6667H36L34.0605 38.303Z" fill="#CC9500" style="fill:#CC9500;fill:color(display-p3 0.8000 0.5843 0.0000);fill-opacity:1;"/>
<path d="M31.077 32.6154L31 33L28 32L29.3333 34.6667H26.6667L28 37.3333L29.9395 38.303L31.077 32.6154Z" fill="#F0263C" style="fill:#F0263C;fill:color(display-p3 0.9412 0.1490 0.2353);fill-opacity:1;"/>
<path d="M29.3333 34.6667L28 32L31 33L31.077 32.6154L31.1971 32.0143L31.2857 31.5714L25.3333 28L26.6667 30.6667H24L25.3333 33.3333H22.6667L25.3333 37.3333H28L26.6667 34.6667H29.3333Z" fill="#2D25C5" style="fill:#2D25C5;fill:color(display-p3 0.1765 0.1451 0.7725);fill-opacity:1;"/>
<path d="M34.6667 34.6667L36 32L33 33L32.923 32.6154L34.0605 38.303L36 37.3333L37.3333 34.6667H34.6667Z" fill="#F0263C" style="fill:#F0263C;fill:color(display-p3 0.9412 0.1490 0.2353);fill-opacity:1;"/>
<path d="M38.6667 33.3333L40 30.6667H37.3333L38.6667 28L32.7143 31.5714L32.8029 32.0143L32.923 32.6154L33 33L36 32L35.9805 32.0391L34.6667 34.6667H37.3333L36 37.3333H38.6667L41.3333 33.3333H38.6667Z" fill="#2D25C5" style="fill:#2D25C5;fill:color(display-p3 0.1765 0.1451 0.7725);fill-opacity:1;"/>
<path d="M32.8029 32.0143L32.7143 31.5714L32.2667 29.3333H31.7333L31.2857 31.5714L31.1971 32.0143L31.077 32.6154L29.9395 38.303L29.8667 38.6667L29.3333 41.3333H34.6667L34.1333 38.6667L34.0605 38.303L32.923 32.6154L32.8029 32.0143Z" fill="#CC9500" style="fill:#CC9500;fill:color(display-p3 0.8000 0.5843 0.0000);fill-opacity:1;"/>
<path d="M34.6667 29.3333L33.3333 28H36L34.6667 26.6667H38.6667L36 25.3333L37.3333 22.6667L32 24.4762L26.6667 22.6667L28 25.3333L25.3333 26.6667H29.3333L28 28H30.6667L29.3333 29.3333H31.7333H32.2667H34.6667Z" fill="#1E5B00" style="fill:#1E5B00;fill:color(display-p3 0.1176 0.3569 0.0000);fill-opacity:1;"/>
</g>
<defs>
<clipPath id="clip0_6_1275">
<rect width="64" height="64" fill="white" style="fill:white;fill-opacity:1;"/>
</clipPath>
</defs>
</svg>
