<svg width="64" height="64" viewBox="0 0 64 64" fill="none" xmlns="http://www.w3.org/2000/svg">
<g clip-path="url(#clip0_6_1438)">
<path d="M32 64C49.6731 64 64 49.6731 64 32C64 14.3269 49.6731 0 32 0C14.3269 0 0 14.3269 0 32C0 49.6731 14.3269 64 32 64Z" fill="white" style="fill:white;fill-opacity:1;"/>
<path d="M28 20V21.3333H29.3333V20V18.6667H28V20Z" fill="#619B27" style="fill:#619B27;fill:color(display-p3 0.3804 0.6078 0.1529);fill-opacity:1;"/>
<path d="M28 17.3333H26.6667V18.6666H28V17.3333Z" fill="#619B27" style="fill:#619B27;fill:color(display-p3 0.3804 0.6078 0.1529);fill-opacity:1;"/>
<path d="M14.6667 20V21.3333H16V20V18.6667H14.6667V20Z" fill="#619B27" style="fill:#619B27;fill:color(display-p3 0.3804 0.6078 0.1529);fill-opacity:1;"/>
<path d="M14.6667 17.3333H13.3334V18.6666H14.6667V17.3333Z" fill="#619B27" style="fill:#619B27;fill:color(display-p3 0.3804 0.6078 0.1529);fill-opacity:1;"/>
<path d="M61.3334 19.2081V21.3333H62.1719C61.9171 20.6125 61.6373 19.9041 61.3334 19.2081Z" fill="#619B27" style="fill:#619B27;fill:color(display-p3 0.3804 0.6078 0.1529);fill-opacity:1;"/>
<path d="M54.6667 20V21.3333H56V20V18.6667H54.6667V20Z" fill="#619B27" style="fill:#619B27;fill:color(display-p3 0.3804 0.6078 0.1529);fill-opacity:1;"/>
<path d="M2.66675 21.3333V19.2081C2.36275 19.9041 2.08305 20.6126 1.82825 21.3333H2.66675Z" fill="#619B27" style="fill:#619B27;fill:color(display-p3 0.3804 0.6078 0.1529);fill-opacity:1;"/>
<path d="M54.6667 17.3333H53.3334V18.6666H54.6667V17.3333Z" fill="#619B27" style="fill:#619B27;fill:color(display-p3 0.3804 0.6078 0.1529);fill-opacity:1;"/>
<path d="M41.3334 20V21.3333H42.6668V20V18.6667H41.3334V20Z" fill="#619B27" style="fill:#619B27;fill:color(display-p3 0.3804 0.6078 0.1529);fill-opacity:1;"/>
<path d="M41.3333 17.3333H40V18.6666H41.3333V17.3333Z" fill="#619B27" style="fill:#619B27;fill:color(display-p3 0.3804 0.6078 0.1529);fill-opacity:1;"/>
<path d="M60.0001 16.5073C54.5424 6.665 44.0516 0 32.0001 0C19.9486 0 9.4578 6.665 4.0001 16.5073C3.8491 16.7796 3.7052 17.0562 3.5619 17.3333C3.3352 17.7721 3.1182 18.2164 2.9115 18.6666H4V19.9999H6.6667V18.6666H8V21.3333H9.3333V18.6666H10.6666V19.9999H13.3333V18.6666H12V17.3333H13.3333V16H17.3333V17.3333H20V16H24V17.3333H22.6667V18.6481H21.3334V17.3333H20L20.0001 18.6481H17.3334L17.3333 17.3333H16.0001V18.6666H17.3334V19.9999H20.0001V18.6666H21.3334V21.3333H22.6667V18.6666H24V19.9999H26.6667V18.6666H25.3334V17.3333H26.6667V16H30.6667V17.3333H33.3334V16H37.3334V17.3333H36.0001V18.6481H34.6668V17.3333H33.3334L33.3335 18.6481H30.6668L30.6667 17.3333H29.3335V18.6666H30.6668V19.9999H33.3335V18.6666H34.6668V21.3333H36.0001V18.6666H37.3334V19.9999H40.0001V18.6666H38.6668V17.3333H40.0001V16H44.0001V17.3333H46.6668V16H50.6668V17.3333H49.3335V18.6481H48.0002V17.3333H46.6668L46.6669 18.6481H44.0002L44.0001 17.3333H42.6669V18.6666H44.0002V19.9999H46.6669V18.6666H48.0002V21.3333H49.3335V18.6666H50.6668V19.9999H53.3335V18.6666H52.0002V17.3333H53.3335V16H57.3335V17.3333H60.0002V18.6481H57.3335V17.3333H56.0002V18.6666H57.3335V19.9999H60.0002V18.6666H61.0887C60.882 18.2163 60.665 17.772 60.4383 17.3333C60.2951 17.0562 60.1512 16.7796 60.0001 16.5073ZM10.6668 17.3333H9.3335V18.6481H8.0002V17.3333H6.6669V18.6481H4.0002V17.3333H6.6669V16H10.6669L10.6668 17.3333Z" fill="#619B27" style="fill:#619B27;fill:color(display-p3 0.3804 0.6078 0.1529);fill-opacity:1;"/>
<path d="M41.3333 45.3333H40V46.6666H41.3333V45.3333Z" fill="#F0263C" style="fill:#F0263C;fill:color(display-p3 0.9412 0.1490 0.2353);fill-opacity:1;"/>
<path d="M42.6668 44V42.6667H41.3334V44V45.3333H42.6668V44Z" fill="#F0263C" style="fill:#F0263C;fill:color(display-p3 0.9412 0.1490 0.2353);fill-opacity:1;"/>
<path d="M54.6667 45.3333H53.3334V46.6666H54.6667V45.3333Z" fill="#F0263C" style="fill:#F0263C;fill:color(display-p3 0.9412 0.1490 0.2353);fill-opacity:1;"/>
<path d="M56 44V42.6667H54.6667V44V45.3333H56V44Z" fill="#F0263C" style="fill:#F0263C;fill:color(display-p3 0.9412 0.1490 0.2353);fill-opacity:1;"/>
<path d="M28 45.3333H26.6667V46.6666H28V45.3333Z" fill="#F0263C" style="fill:#F0263C;fill:color(display-p3 0.9412 0.1490 0.2353);fill-opacity:1;"/>
<path d="M29.3333 44V42.6667H28V44V45.3333H29.3333V44Z" fill="#F0263C" style="fill:#F0263C;fill:color(display-p3 0.9412 0.1490 0.2353);fill-opacity:1;"/>
<path d="M14.6667 45.3333H13.3334V46.6666H14.6667V45.3333Z" fill="#F0263C" style="fill:#F0263C;fill:color(display-p3 0.9412 0.1490 0.2353);fill-opacity:1;"/>
<path d="M16 44V42.6667H14.6667V44V45.3333H16V44Z" fill="#F0263C" style="fill:#F0263C;fill:color(display-p3 0.9412 0.1490 0.2353);fill-opacity:1;"/>
<path d="M60.0001 44H57.3334V45.3333H56.0001V46.6666H57.3334V45.3517H60.0001V46.6666H57.3334V47.9999H53.3334V46.6666H52.0001V45.3333H53.3334V44H50.6667V45.3333H49.3334V42.6666H48.0001V45.3333H46.6668V44H44.0001V45.3333H42.6668V46.6666H44.0001V45.3517H46.6668V46.6666H48.0001V45.3517H49.3334V46.6666H50.6667V47.9999H46.6667L46.6668 46.6666H44.0001L44 47.9999H40V46.6666H38.6667V45.3333H40V44H37.3333V45.3333H36V42.6666H34.6667V45.3333H33.3334V44H30.6667V45.3333H29.3334V46.6666H30.6667V45.3517H33.3334V46.6666H34.6667V45.3517H36V46.6666H37.3333V47.9999H33.3333L33.3334 46.6666H30.6667L30.6666 47.9999H26.6666V46.6666H25.3333V45.3333H26.6666V44H23.9999V45.3333H22.6666V42.6666H21.3333V45.3333H20V44H17.3333V45.3333H16V46.6666H17.3333V45.3517H20V46.6666H21.3333V45.3517H22.6666V46.6666H23.9999V47.9999H19.9999L20 46.6666H17.3333L17.3332 47.9999H13.3332V46.6666H11.9999V45.3333H13.3332V44H10.6665V45.3333H9.33318V42.6666H7.99988V45.3333H6.66658V44H3.99988V45.3333H2.91138C3.11808 45.7836 3.33508 46.2279 3.56178 46.6666C3.70498 46.9438 3.84888 47.2203 3.99998 47.4926C9.45768 57.3348 19.9485 63.9999 32 63.9999C44.0515 63.9999 54.5423 57.3349 60 47.4926C60.151 47.2203 60.2949 46.9437 60.4382 46.6666C60.6649 46.2279 60.8819 45.7835 61.0886 45.3333H60.0001V44ZM10.6668 48H6.66678V46.6667H4.00008V45.3518H6.66678V46.6667H8.00008V45.3518H9.33338V46.6667H10.6667L10.6668 48Z" fill="#F0263C" style="fill:#F0263C;fill:color(display-p3 0.9412 0.1490 0.2353);fill-opacity:1;"/>
<path d="M61.3334 42.6667V44.7919C61.6374 44.0959 61.9171 43.3874 62.1719 42.6667H61.3334Z" fill="#F0263C" style="fill:#F0263C;fill:color(display-p3 0.9412 0.1490 0.2353);fill-opacity:1;"/>
<path d="M2.66675 44.7919V42.6667H1.82825C2.08305 43.3875 2.36285 44.0959 2.66675 44.7919Z" fill="#F0263C" style="fill:#F0263C;fill:color(display-p3 0.9412 0.1490 0.2353);fill-opacity:1;"/>
<path d="M32.0001 25.3333H33.3334L34.6668 24H29.3334L30.6668 25.3333H32.0001Z" fill="#F0263C" style="fill:#F0263C;fill:color(display-p3 0.9412 0.1490 0.2353);fill-opacity:1;"/>
<path d="M25.3333 33.3333V29.3333L26.6667 28L29.3333 25.3333L26.6667 26.6667L24 29.3333V33.3333L26.6667 36L25.3333 33.3333Z" fill="#F0263C" style="fill:#F0263C;fill:color(display-p3 0.9412 0.1490 0.2353);fill-opacity:1;"/>
<path d="M37.3334 28L38.6667 29.3333V33.3333L37.3334 36L40 33.3333V29.3333L37.3334 26.6667L34.6667 25.3333L37.3334 28Z" fill="#F0263C" style="fill:#F0263C;fill:color(display-p3 0.9412 0.1490 0.2353);fill-opacity:1;"/>
<path d="M30.6667 36L29.3333 34.6667L28 30.6667L29.3333 26.6667L28 28L26.6667 30.6667V33.3333L28 36L30.6667 37.3333L28 38.6667H30.6667L32 40L33.3333 38.6667H36L33.3333 37.3333L36 36L37.3333 33.3333V30.6667L36 28L34.6667 26.6667L36 30.6667L34.6667 34.6667L33.3333 36V26.6667L32 25.3333L30.6667 26.6667V36Z" fill="#F0263C" style="fill:#F0263C;fill:color(display-p3 0.9412 0.1490 0.2353);fill-opacity:1;"/>
</g>
<defs>
<clipPath id="clip0_6_1438">
<rect width="64" height="64" fill="white" style="fill:white;fill-opacity:1;"/>
</clipPath>
</defs>
</svg>
