<svg width="64" height="64" viewBox="0 0 64 64" fill="none" xmlns="http://www.w3.org/2000/svg">
<g clip-path="url(#clip0_6_1468)">
<path d="M11.3333 7.57719C6.19015 11.9338 2.44545 17.8837 0.854248 24.6667H11.3333V7.57719Z" fill="#2D25C5" style="fill:#2D25C5;fill:color(display-p3 0.1765 0.1451 0.7725);fill-opacity:1;"/>
<path d="M63.1458 24.6667C59.8295 10.5296 47.1485 0 32 0C29.9482 0 27.9443 0.2009 26 0.5699V24.6667H63.1458Z" fill="#2D25C5" style="fill:#2D25C5;fill:color(display-p3 0.1765 0.1451 0.7725);fill-opacity:1;"/>
<path d="M0.854248 39.3333C2.44545 46.1163 6.19015 52.0661 11.3333 56.4227V39.3333H0.854248Z" fill="#2D25C5" style="fill:#2D25C5;fill:color(display-p3 0.1765 0.1451 0.7725);fill-opacity:1;"/>
<path d="M26 63.4301C27.9443 63.7991 29.9482 64 32 64C47.1485 64 59.8294 53.4704 63.1458 39.3333H26V63.4301Z" fill="#2D25C5" style="fill:#2D25C5;fill:color(display-p3 0.1765 0.1451 0.7725);fill-opacity:1;"/>
<path d="M22 1.60249C19.6462 2.37649 17.4105 3.40999 15.3333 4.67989V28.6667H0.173C0.0596 29.7625 0 30.8742 0 32C0 33.1258 0.0596 34.2376 0.173 35.3334H15.3333V59.3202C17.4105 60.5901 19.6461 61.6236 22 62.3976V35.3334H63.827C63.9404 34.2376 64 33.1258 64 32C64 30.8742 63.9404 29.7625 63.827 28.6667H22V1.60249Z" fill="#F0263C" style="fill:#F0263C;fill:color(display-p3 0.9412 0.1490 0.2353);fill-opacity:1;"/>
<path d="M0.854174 39.3333H11.3333V56.4227C12.5885 57.4859 13.9231 58.458 15.3333 59.3201V35.3333H0.172974C0.313874 36.6948 0.547974 38.0279 0.854174 39.3333Z" fill="white" style="fill:white;fill-opacity:1;"/>
<path d="M22 62.3975C23.2989 62.8246 24.6336 63.1707 26 63.43V39.3333H63.1458C63.452 38.0279 63.6861 36.6949 63.827 35.3333H22V62.3975Z" fill="white" style="fill:white;fill-opacity:1;"/>
<path d="M22 1.6025V28.6667H63.827C63.6861 27.3052 63.452 25.9721 63.1458 24.6667H26V0.569901C24.6336 0.829201 23.2989 1.1753 22 1.6025Z" fill="white" style="fill:white;fill-opacity:1;"/>
<path d="M11.3333 24.6667H0.854174C0.547974 25.9721 0.313874 27.3052 0.172974 28.6667H15.3333V4.6799C13.9231 5.542 12.5885 6.514 11.3333 7.5773V24.6667Z" fill="white" style="fill:white;fill-opacity:1;"/>
</g>
<defs>
<clipPath id="clip0_6_1468">
<rect width="64" height="64" fill="white" style="fill:white;fill-opacity:1;"/>
</clipPath>
</defs>
</svg>
