<svg
   version="1.1"
   id="svg1"
   width="1128.8134"
   height="884.28003"
   viewBox="0 0 1128.8134 884.28003"
   sodipodi:docname="jazz-cash-new-seeklogo.eps"
   xmlns:inkscape="http://www.inkscape.org/namespaces/inkscape"
   xmlns:sodipodi="http://sodipodi.sourceforge.net/DTD/sodipodi-0.dtd"
   xmlns="http://www.w3.org/2000/svg"
   xmlns:svg="http://www.w3.org/2000/svg">
  <defs
     id="defs1" />
  <sodipodi:namedview
     id="namedview1"
     pagecolor="#ffffff"
     bordercolor="#000000"
     borderopacity="0.25"
     inkscape:showpageshadow="2"
     inkscape:pageopacity="0.0"
     inkscape:pagecheckerboard="0"
     inkscape:deskcolor="#d1d1d1">
    <inkscape:page
       x="0"
       y="0"
       inkscape:label="1"
       id="page1"
       width="1128.8134"
       height="884.28003"
       margin="0"
       bleed="0" />
  </sodipodi:namedview>
  <g
     id="g1"
     inkscape:groupmode="layer"
     inkscape:label="1">
    <g
       id="group-R5">
      <path
         id="path2"
         d="m 6783.05,6066.73 c 111.85,43.81 220.37,66.79 -313.86,367.29 -534.24,300.52 -1482.53,193.66 -1869.85,0 -191.34,-95.66 -398.94,-233.68 -560.07,-348.88 273.39,-250.06 535,-599.28 666.9,-1073.55 237.15,-852.75 -147.19,-1693.95 -643.04,-2166.61 1171.14,-1051.68 2517.16,-360.37 2696.55,-234.14 180.31,126.88 73.46,197 23.38,213.7 -50.1,16.69 -320.56,143.58 -550.95,303.86 -230.4,160.27 -891.51,934.92 -550.94,1823.1 340.57,888.18 1101.88,1115.23 1101.88,1115.23"
         style="fill:#ed1f28;fill-opacity:1;fill-rule:nonzero;stroke:none"
         transform="matrix(0.13333333,0,0,-0.13333333,0,884.28)" />
      <path
         id="path3"
         d="m 4706.17,5011.59 c -131.9,474.27 -393.51,823.49 -666.9,1073.55 -377.19,345 -776.79,501.21 -889.07,536.31 -1.94,0.6 -3.87,1.19 -5.79,1.75 -141,41.51 -281.44,-68.02 -280.93,-215 1.49,-426.48 6.23,-1819.47 6.23,-2364.91 0,-647.77 -777.99,-1088.52 -918.23,-1145.27 -140.24,-56.78 -814.72,-320.56 -200.34,-520.9 614.38,-200.34 1131.93,-123.55 1813.09,136.89 166.48,63.66 338.5,178.08 498.9,330.97 495.85,472.66 880.19,1313.86 643.04,2166.61"
         style="fill:#fbc20b;fill-opacity:1;fill-rule:nonzero;stroke:none"
         transform="matrix(0.13333333,0,0,-0.13333333,0,884.28)" />
      <path
         id="path4"
         d="M 472.039,0 C 247.262,0 89.8984,90.5898 0,271.801 L 243.172,410.75 c 44.957,-89.918 121.238,-134.879 228.867,-134.879 74.91,0 130.789,17.688 167.563,53.129 36.789,35.422 55.179,83.781 55.179,145.102 V 1459.04 H 974.73 V 474.09 c 0,-149.86 -47,-266.36 -140.992,-349.418 C 739.738,41.5195 619.18,0 472.039,0"
         style="fill:#ffffff;fill-opacity:1;fill-rule:nonzero;stroke:#000000;stroke-width:10px;"
         transform="matrix(0.13333333,0,0,-0.13333333,0,884.28)" />
      <path
         id="path5"
         d="m 1373.18,332.051 c 53.14,-53.84 120.55,-80.719 202.3,-80.719 81.74,0 149.49,26.879 203.33,80.719 53.81,53.801 80.72,122.941 80.72,207.418 0,84.433 -26.91,153.582 -80.72,207.429 -53.84,53.793 -121.59,80.723 -203.33,80.723 -81.75,0 -149.16,-26.93 -202.3,-80.723 -53.13,-53.847 -79.68,-122.996 -79.68,-207.429 0,-84.477 26.55,-153.629 79.68,-207.418 z m 486.35,718.289 h 263.6 V 28.6016 h -263.6 V 149.16 C 1780.49,49.6914 1669.48,0 1526.44,0 c -136.25,0 -253.08,52.1211 -350.45,156.32 -97.41,104.2 -146.11,231.922 -146.11,383.149 0,151.23 48.7,278.953 146.11,383.14 97.37,104.211 214.21,156.341 350.45,156.341 143.04,0 254.05,-49.75 333.09,-149.161 v 120.551"
         style="fill:#ffffff;fill-opacity:1;fill-rule:nonzero;stroke:#000000;stroke-width:10px;"
         transform="matrix(0.13333333,0,0,-0.13333333,0,884.28)" />
      <path
         id="path6"
         d="m 2600.19,275.852 h 453.64 V 28.5898 h -805.7 V 204.082 l 430.83,599 h -410.74 v 247.258 h 765.56 V 875.16 L 2600.19,275.852"
         style="fill:#fff;fill-opacity:1;fill-rule:nonzero;stroke:#000000;stroke-width:10px;"
         transform="matrix(0.13333333,0,0,-0.13333333,0,884.28)" />
      <path
         id="path7"
         d="m 3464.58,275.852 h 453.64 V 28.5898 h -805.7 V 204.082 l 430.83,599 h -410.74 v 247.258 h 765.57 V 875.16 l -433.6,-599.308"
         style="fill:#fff;fill-opacity:1;fill-rule:nonzero;stroke:#000000;stroke-width:10px;"
         transform="matrix(0.13333333,0,0,-0.13333333,0,884.28)" />
      <path
         id="path8"
         d="m 4722.43,0 c -215.26,0 -393.06,71.5313 -533.34,214.539 -140.34,143.07 -210.48,319.449 -210.48,529.27 0,211.171 70.14,387.931 210.48,530.311 140.29,142.31 318.08,213.53 533.34,213.53 129.4,0 248.96,-30.32 358.61,-90.93 109.66,-60.65 195.17,-142.75 256.47,-246.25 l -243.17,-140.98 c -35.44,64.02 -85.82,114.06 -151.22,150.19 -65.38,36.06 -138.95,54.14 -220.69,54.14 -138.96,0 -251.03,-43.61 -336.15,-130.76 -85.15,-87.228 -127.72,-200.259 -127.72,-339.251 0,-137.629 42.58,-250 127.72,-337.18 85.13,-87.18 197.2,-130.77 336.15,-130.77 81.75,0 155.63,18.043 221.7,54.161 66.08,36.062 116.15,85.46 150.21,148.128 L 5337.51,337.172 C 5276.2,233.629 5191.05,151.539 5082.08,90.9297 4973.07,30.2813 4853.23,0 4722.43,0"
         style="fill:#fff;fill-opacity:1;fill-rule:nonzero;stroke:#000000;stroke-width:10px;"
         transform="matrix(0.13333333,0,0,-0.13333333,0,884.28)" />
      <path
         id="path9"
         d="m 5754.38,332.051 c 53.13,-53.84 120.55,-80.719 202.29,-80.719 81.73,0 149.48,26.879 203.33,80.719 53.81,53.801 80.72,122.941 80.72,207.418 0,84.433 -26.91,153.582 -80.72,207.429 -53.85,53.793 -121.6,80.723 -203.33,80.723 -81.75,0 -149.16,-26.93 -202.29,-80.723 -53.14,-53.847 -79.69,-122.996 -79.69,-207.429 0,-84.477 26.54,-153.629 79.69,-207.418 z m 486.35,718.289 h 263.59 V 28.6016 H 6240.73 V 149.16 C 6161.69,49.6914 6050.68,0 5907.64,0 c -136.25,0 -253.09,52.1211 -350.46,156.32 -97.41,104.2 -146.1,231.922 -146.1,383.149 0,151.23 48.69,278.953 146.1,383.14 97.37,104.211 214.21,156.341 350.46,156.341 143.04,0 254.04,-49.75 333.09,-149.161 v 120.551"
         style="fill:#fff;fill-opacity:1;fill-rule:nonzero;stroke:#000000;stroke-width:10px;"
         transform="matrix(0.13333333,0,0,-0.13333333,0,884.28)" />
      <path
         id="path10"
         d="m 6896.66,760.16 c 0,-27.289 18.04,-49.379 54.16,-66.41 36.06,-17.051 80,-32.051 131.8,-44.949 51.75,-12.961 103.5,-29.321 155.31,-49.031 51.75,-19.77 95.68,-52.821 131.79,-99.122 36.09,-46.328 54.15,-104.238 54.15,-173.687 0,-104.949 -39.16,-185.66 -117.49,-242.1719 C 7228.03,28.2891 7130.29,0 7013.14,0 6803.34,0 6660.3,81.0391 6584,243.191 l 228.88,128.731 c 29.96,-88.59 96.73,-132.84 200.26,-132.84 94,0 141,29.27 141,87.879 0,27.238 -18.07,49.34 -54.15,66.41 -36.09,17.02 -80.04,32.359 -131.82,45.969 -51.79,13.621 -103.54,30.64 -155.29,51.101 -51.79,20.43 -95.7,52.739 -131.82,97.051 -36.09,44.25 -54.13,99.77 -54.13,166.567 0,100.793 37.1,180.113 111.36,238.062 74.24,57.869 166.56,86.839 276.89,86.839 83.08,0 158.69,-18.75 226.82,-56.19 68.13,-37.489 121.91,-90.938 161.45,-160.438 l -224.77,-122.59 c -32.71,69.488 -87.2,104.199 -163.5,104.199 -34.07,0 -62.32,-7.48 -84.8,-22.461 -22.48,-15.039 -33.72,-35.46 -33.72,-61.32"
         style="fill:#fff;fill-opacity:1;fill-rule:nonzero;stroke:#000000;stroke-width:10px;"
         transform="matrix(0.13333333,0,0,-0.13333333,0,884.28)" />
      <path
         id="path11"
         d="m 8079.83,1078.95 c 111.7,0 204,-37.5 276.9,-112.38 72.85,-74.929 109.33,-178.519 109.33,-310.609 V 28.6016 H 8202.45 V 623.25 c 0,68.129 -18.4,120.211 -55.18,156.332 -36.79,36.066 -85.83,54.137 -147.12,54.137 -68.15,0 -122.62,-21.117 -163.48,-63.328 -40.88,-42.243 -61.32,-105.582 -61.32,-190.051 V 28.6094 H 7511.73 V 1459.04 h 263.62 V 935.891 c 64.02,95.349 165.53,143.059 304.48,143.059"
         style="fill:#fff;fill-opacity:1;fill-rule:nonzero;stroke:#000000;stroke-width:10px;"
         transform="matrix(0.13333333,0,0,-0.13333333,0,884.28)" />
    </g>
  </g>
</svg>
