<svg width="64" height="64" viewBox="0 0 64 64" fill="none" xmlns="http://www.w3.org/2000/svg">
<g clip-path="url(#clip0_6_1530)">
<path d="M32 64C49.6731 64 64 49.6731 64 32C64 14.3269 49.6731 0 32 0C14.3269 0 0 14.3269 0 32C0 49.6731 14.3269 64 32 64Z" fill="#F0263C" style="fill:#F0263C;fill:color(display-p3 0.9412 0.1490 0.2353);fill-opacity:1;"/>
<path d="M46.3522 33.1296L52 32L46.3522 30.8704L51.7537 28.8713L45.9989 28.6392L51.0212 25.8197L45.3008 26.4906L49.8201 22.9202L44.2751 24.4778L48.1803 20.2443L42.9473 22.6501L46.1421 17.8579L41.3499 21.0527L43.7557 15.8197L39.5222 19.7249L41.0798 14.1799L37.5094 18.6992L38.1803 12.9788L35.3608 18.0011L35.1287 12.2462L33.1296 17.6477L32 12L30.8704 17.6477L28.8713 12.2462L28.6392 18.0011L25.8197 12.9788L26.4906 18.6992L22.9202 14.1799L24.4778 19.7249L20.2443 15.8197L22.6501 21.0527L17.8579 17.8579L21.0527 22.6501L15.8197 20.2443L19.7249 24.4778L14.1799 22.9202L18.6992 26.4906L12.9788 25.8197L18.0011 28.6392L12.2463 28.8713L17.6478 30.8704L12 32L17.6478 33.1296L12.2463 35.1287L18.0011 35.3608L12.9788 38.1803L18.6992 37.5094L14.1799 41.0798L19.7249 39.5222L15.8197 43.7557L21.0527 41.3499L17.8579 46.1421L22.6501 42.9473L20.2443 48.1803L24.4778 44.2751L22.9202 49.8201L26.4906 45.3007L25.8197 51.0211L28.6392 45.9989L28.8713 51.7537L30.8704 46.3523L32 52L33.1296 46.3523L35.1287 51.7537L35.3608 45.9989L38.1803 51.0211L37.5094 45.3007L41.0798 49.8201L39.5222 44.2751L43.7557 48.1803L41.3499 42.9473L46.1421 46.1421L42.9473 41.3499L48.1803 43.7557L44.2751 39.5222L49.8201 41.0798L45.3008 37.5094L51.0212 38.1803L45.9989 35.3608L51.7537 35.1287L46.3522 33.1296Z" fill="#FFD400" style="fill:#FFD400;fill:color(display-p3 1.0000 0.8314 0.0000);fill-opacity:1;"/>
<path d="M37.8507 21.5278C37.5173 21.3411 37.174 21.1706 36.822 21.0158C35.3454 20.3666 33.7165 20.0001 32.0001 20.0001C30.2837 20.0001 28.6547 20.3666 27.1782 21.0158C26.8261 21.1706 26.4829 21.3411 26.1495 21.5278C22.4824 23.5811 20.0002 27.4984 20.0002 32C20.0002 32.7148 20.0743 33.4111 20.1941 34.0916C20.315 34.7783 20.4958 35.4425 20.7282 36.0837C20.9204 36.6139 21.14 37.1305 21.4017 37.6228C21.6654 38.1186 21.9686 38.5884 22.2967 39.0398C22.5749 39.4226 22.875 39.7871 23.1955 40.1339C23.5381 40.5046 23.8973 40.859 24.2837 41.1841C24.6322 41.4772 24.9968 41.7508 25.3775 42.0032C25.7842 42.2731 26.2123 42.5111 26.6519 42.7307C28.2638 43.5358 30.0759 44 32.0002 44C33.9245 44 35.7366 43.5358 37.3485 42.7307C37.7881 42.5111 38.2162 42.2731 38.623 42.0032C39.0036 41.7507 39.3682 41.4771 39.7167 41.1841C40.1031 40.859 40.4623 40.5046 40.8049 40.1339C41.1254 39.7871 41.4255 39.4226 41.7037 39.0398C42.0318 38.5884 42.335 38.1187 42.5987 37.6228C42.8604 37.1304 43.08 36.6138 43.2722 36.0837C43.5046 35.4425 43.6854 34.7783 43.8063 34.0916C43.9262 33.4111 44.0002 32.7149 44.0002 32C44.0002 27.4984 41.5177 23.5811 37.8507 21.5278ZM42.1315 28.6759C41.4999 28.8819 40.8765 29.0989 40.2683 29.336C39.8896 28.9185 39.5006 28.5138 39.1013 28.1215C39.8982 27.813 40.7136 27.529 41.5545 27.2794C41.7771 27.7289 41.9732 28.1932 42.1315 28.6759ZM40.8046 25.9822C39.8114 26.2885 38.8446 26.63 37.9106 27.0149C37.4656 26.6242 37.0102 26.2463 36.5424 25.8842C37.5855 25.4474 38.6645 25.0577 39.7862 24.7256C40.1544 25.1196 40.4989 25.5358 40.8046 25.9822ZM27.5717 27.6715C28.0293 27.2896 28.5028 26.9277 28.9845 26.5764C29.5388 26.8463 30.0809 27.1321 30.6107 27.4338C30.1179 27.7707 29.6388 28.1248 29.169 28.4908C28.647 28.2042 28.1158 27.9294 27.5717 27.6715ZM27.95 29.4963C27.5184 29.8726 27.098 30.2627 26.6879 30.6657C26.1925 30.4106 25.6867 30.1691 25.1723 29.9389C25.562 29.5253 25.96 29.1218 26.3715 28.7352C26.9076 28.9759 27.4357 29.2271 27.95 29.4963ZM30.3768 25.6273C30.905 25.2896 31.4457 24.9678 32.0002 24.6639C32.5546 24.9679 33.0953 25.2896 33.6236 25.6273C33.0704 25.9154 32.5294 26.2191 32.0002 26.5383C31.4711 26.2191 30.9301 25.9154 30.3768 25.6273ZM33.4642 29.2899C32.965 29.6 32.4774 29.9248 32.0002 30.263C31.523 29.9248 31.0354 29.5999 30.5362 29.2899C31.0111 28.9358 31.5015 28.6012 32.0002 28.2774C32.4989 28.6012 32.9893 28.9358 33.4642 29.2899ZM29.3117 30.2552C29.8083 30.551 30.2905 30.8651 30.7648 31.1894C30.3198 31.5423 29.8849 31.908 29.4609 32.2872C28.9957 31.9793 28.519 31.6861 28.034 31.4037C28.4499 31.0083 28.8734 30.6226 29.3117 30.2552ZM32.0002 32.0867C32.445 32.4287 32.8775 32.7862 33.3008 33.1552C32.8579 33.483 32.4233 33.8212 32.0002 34.1738C31.5771 33.8212 31.1425 33.483 30.6996 33.1552C31.1229 32.7862 31.5554 32.4287 32.0002 32.0867ZM33.2356 31.1894C33.7099 30.8651 34.1921 30.551 34.6887 30.2552C35.1269 30.6226 35.5505 31.0083 35.9664 31.4038C35.4814 31.6862 35.0046 31.9794 34.5395 32.2873C34.1155 31.9081 33.6806 31.5422 33.2356 31.1894ZM34.8313 28.4908C34.3616 28.1248 33.8824 27.7707 33.3896 27.4338C33.9195 27.1322 34.4615 26.8464 35.0158 26.5764C35.4975 26.9277 35.971 27.2896 36.4286 27.6715C35.8845 27.9294 35.3532 28.2042 34.8313 28.4908ZM37.6289 28.7353C38.0404 29.1218 38.4384 29.5254 38.8281 29.939C38.3137 30.1692 37.8078 30.4107 37.3125 30.6658C36.9023 30.2629 36.482 29.8727 36.0504 29.4964C36.5647 29.2272 37.0929 28.976 37.6289 28.7353ZM38.5499 23.5933C37.3843 23.9719 36.2499 24.3923 35.1676 24.8809C34.6473 24.5254 34.1163 24.1835 33.5706 23.8606C34.6343 23.3595 35.7407 22.9142 36.8909 22.5276C37.4786 22.8316 38.0323 23.1895 38.5499 23.5933ZM32.0003 21.3335C32.9798 21.3335 33.924 21.4765 34.8251 21.7238C33.8524 22.1082 32.91 22.5327 32.0003 22.9996C31.0906 22.5327 30.1482 22.1082 29.1755 21.7238C30.0765 21.4766 31.0208 21.3335 32.0003 21.3335ZM27.1097 22.5276C28.2599 22.9142 29.3663 23.3595 30.43 23.8606C29.8843 24.1835 29.3533 24.5254 28.833 24.8809C27.7506 24.3923 26.6163 23.9719 25.4507 23.5933C25.9683 23.1895 26.522 22.8317 27.1097 22.5276ZM24.2142 24.7257C25.3359 25.0578 26.415 25.4475 27.458 25.8843C26.9902 26.2464 26.5348 26.6243 26.0898 27.015C25.1558 26.6301 24.1889 26.2886 23.1958 25.9823C23.5015 25.5359 23.846 25.1197 24.2142 24.7257ZM22.4459 27.2795C23.2868 27.5291 24.1022 27.8132 24.8991 28.1216C24.4998 28.5139 24.1109 28.9186 23.7321 29.3361C23.1239 29.099 22.5005 28.882 21.8689 28.676C22.0272 28.1933 22.2233 27.729 22.4459 27.2795ZM21.3337 32.0002C21.3337 31.3501 21.4011 30.7166 21.5126 30.0986C21.9171 30.2333 22.3177 30.3732 22.7131 30.52C22.2393 31.1001 21.7893 31.709 21.3505 32.3313C21.3471 32.2203 21.3337 32.1119 21.3337 32.0002ZM21.6482 34.5301C22.4177 33.3089 23.2453 32.1571 24.1445 31.0926C24.6448 31.3076 25.136 31.5348 25.6178 31.7742C24.3736 33.1319 23.2485 34.6357 22.2232 36.2583C21.9822 35.7057 21.7936 35.1267 21.6482 34.5301ZM23.016 37.7346C24.1724 35.7946 25.4888 34.045 26.959 32.4851C27.4347 32.7538 27.9011 33.0344 28.3571 33.3283C26.6951 34.9793 25.2121 36.8517 23.9089 38.9387C23.5835 38.5595 23.2864 38.1572 23.016 37.7346ZM24.9677 40.0061C26.3048 37.8141 27.8502 35.8706 29.5942 34.174C30.0315 34.491 30.4603 34.819 30.8779 35.1611C29.0823 36.8228 27.486 38.732 26.0848 40.8746C25.6912 40.6117 25.3219 40.3175 24.9677 40.0061ZM32.0003 42.6669C30.3374 42.6669 28.7695 42.2754 27.3667 41.5966C28.721 39.5439 30.2648 37.7183 32.0003 36.132C33.7358 37.7183 35.2796 39.5438 36.6339 41.5966C35.2311 42.2754 33.6632 42.6669 32.0003 42.6669ZM37.9158 40.8745C36.5146 38.7319 34.9182 36.8227 33.1227 35.161C33.5403 34.8189 33.9691 34.491 34.4064 34.1739C36.1505 35.8705 37.6959 37.814 39.0329 40.006C38.6787 40.3175 38.3093 40.6117 37.9158 40.8745ZM40.0917 38.9387C38.7886 36.8517 37.3056 34.9793 35.6435 33.3283C36.0996 33.0344 36.5659 32.7538 37.0416 32.4851C38.5118 34.045 39.8282 35.7946 40.9846 37.7346C40.7143 38.1572 40.4172 38.5596 40.0917 38.9387ZM41.7776 36.2583C40.7523 34.6357 39.6272 33.132 38.383 31.7742C38.8649 31.5349 39.356 31.3077 39.8563 31.0926C40.7555 32.1571 41.583 33.3089 42.3526 34.5301C42.2073 35.1267 42.0186 35.7057 41.7776 36.2583ZM41.2876 30.52C41.683 30.3732 42.0837 30.2333 42.4881 30.0986C42.5996 30.7166 42.667 31.3501 42.667 32.0002C42.667 32.112 42.6537 32.2204 42.6502 32.3313C42.2114 31.709 41.7614 31.1001 41.2876 30.52Z" fill="#F0263C" style="fill:#F0263C;fill:color(display-p3 0.9412 0.1490 0.2353);fill-opacity:1;"/>
</g>
<defs>
<clipPath id="clip0_6_1530">
<rect width="64" height="64" fill="white" style="fill:white;fill-opacity:1;"/>
</clipPath>
</defs>
</svg>
