<svg width="64" height="64" viewBox="0 0 64 64" fill="none" xmlns="http://www.w3.org/2000/svg">
<g clip-path="url(#clip0_6_1534)">
<path d="M32 0C20.1576 0 9.82539 6.4379 4.29169 16H59.7084C54.1746 6.4379 43.8424 0 32 0Z" fill="#2D25C5" style="fill:#2D25C5;fill:color(display-p3 0.1765 0.1451 0.7725);fill-opacity:1;"/>
<path d="M32 64C43.7523 64 54.0186 57.6605 59.5826 48.2186H4.41742C9.98142 57.6605 20.2477 64 32 64Z" fill="#2D25C5" style="fill:#2D25C5;fill:color(display-p3 0.1765 0.1451 0.7725);fill-opacity:1;"/>
<path d="M4.2917 16C1.5671 20.7079 0 26.1693 0 32C0 37.9208 1.6143 43.4619 4.4174 48.2186H59.5826C62.3857 43.4618 64 37.9207 64 32C64 26.1693 62.4329 20.7079 59.7083 16H4.2917Z" fill="#960A3C" style="fill:#960A3C;fill:color(display-p3 0.5882 0.0392 0.2353);fill-opacity:1;"/>
<path d="M52 42.6667V41.3333H50.6667V40H49.3333V38.6667H48V37.3333L46.6667 36V33.3333L48 32V29.3333L46.6667 28V26.6667H45.3333V24L44 22.6667L42.6667 24V26.6667H41.3333V29.3333H36V26.6667H34.6667V24V21.3333H33.3333V20L32 18.6667L30.6667 20V21.3333H29.3333V24V26.6667H28V29.3333H22.6667V26.6667H21.3333V24L20 22.6667L18.6667 24V26.6667H17.3333V28L16 29.3333V32L17.3333 33.3333V36L16 37.3333V38.6667H14.6667V40H13.3333V41.3333H12V42.6667H10.6667V45.3333H53.3333V42.6667H52Z" fill="white" style="fill:white;fill-opacity:1;"/>
<path d="M20 32H18.6667V36H20V32Z" fill="#999999" style="fill:#999999;fill:color(display-p3 0.6000 0.6000 0.6000);fill-opacity:1;"/>
<path d="M22.6666 32H21.3333V36H22.6666V32Z" fill="#999999" style="fill:#999999;fill:color(display-p3 0.6000 0.6000 0.6000);fill-opacity:1;"/>
<path d="M28 32H26.6667V36H28V32Z" fill="#999999" style="fill:#999999;fill:color(display-p3 0.6000 0.6000 0.6000);fill-opacity:1;"/>
<path d="M30.6666 32H29.3333V36H30.6666V32Z" fill="#999999" style="fill:#999999;fill:color(display-p3 0.6000 0.6000 0.6000);fill-opacity:1;"/>
<path d="M34.6666 32H33.3333V36H34.6666V32Z" fill="#999999" style="fill:#999999;fill:color(display-p3 0.6000 0.6000 0.6000);fill-opacity:1;"/>
<path d="M37.3333 32H36V36H37.3333V32Z" fill="#999999" style="fill:#999999;fill:color(display-p3 0.6000 0.6000 0.6000);fill-opacity:1;"/>
<path d="M45.3333 32H44V36H45.3333V32Z" fill="#999999" style="fill:#999999;fill:color(display-p3 0.6000 0.6000 0.6000);fill-opacity:1;"/>
<path d="M42.6666 32H41.3333V36H42.6666V32Z" fill="#999999" style="fill:#999999;fill:color(display-p3 0.6000 0.6000 0.6000);fill-opacity:1;"/>
<path d="M34.6666 28H29.3333V29.3333H34.6666V28Z" fill="#999999" style="fill:#999999;fill:color(display-p3 0.6000 0.6000 0.6000);fill-opacity:1;"/>
<path d="M21.3334 28H18.6667V29.3333H21.3334V28Z" fill="#999999" style="fill:#999999;fill:color(display-p3 0.6000 0.6000 0.6000);fill-opacity:1;"/>
<path d="M45.3334 28H42.6667V29.3333H45.3334V28Z" fill="#999999" style="fill:#999999;fill:color(display-p3 0.6000 0.6000 0.6000);fill-opacity:1;"/>
<path d="M33.3334 25.3333H30.6667V26.6666H33.3334V25.3333Z" fill="#999999" style="fill:#999999;fill:color(display-p3 0.6000 0.6000 0.6000);fill-opacity:1;"/>
<path d="M33.3334 22.6667H30.6667V24H33.3334V22.6667Z" fill="#999999" style="fill:#999999;fill:color(display-p3 0.6000 0.6000 0.6000);fill-opacity:1;"/>
<path d="M22.6666 38.6667H17.3333V40H22.6666V38.6667Z" fill="#999999" style="fill:#999999;fill:color(display-p3 0.6000 0.6000 0.6000);fill-opacity:1;"/>
<path d="M20 41.3333H14.6667V42.6666H20V41.3333Z" fill="#999999" style="fill:#999999;fill:color(display-p3 0.6000 0.6000 0.6000);fill-opacity:1;"/>
<path d="M30.6666 38.6667H25.3333V40H30.6666V38.6667Z" fill="#999999" style="fill:#999999;fill:color(display-p3 0.6000 0.6000 0.6000);fill-opacity:1;"/>
<path d="M28 41.3333H22.6667V42.6666H28V41.3333Z" fill="#999999" style="fill:#999999;fill:color(display-p3 0.6000 0.6000 0.6000);fill-opacity:1;"/>
<path d="M46.6666 38.6667H41.3333V40H46.6666V38.6667Z" fill="#999999" style="fill:#999999;fill:color(display-p3 0.6000 0.6000 0.6000);fill-opacity:1;"/>
<path d="M49.3333 41.3333H44V42.6666H49.3333V41.3333Z" fill="#999999" style="fill:#999999;fill:color(display-p3 0.6000 0.6000 0.6000);fill-opacity:1;"/>
<path d="M38.6666 38.6667H33.3333V40H38.6666V38.6667Z" fill="#999999" style="fill:#999999;fill:color(display-p3 0.6000 0.6000 0.6000);fill-opacity:1;"/>
<path d="M41.3333 41.3333H36V42.6666H41.3333V41.3333Z" fill="#999999" style="fill:#999999;fill:color(display-p3 0.6000 0.6000 0.6000);fill-opacity:1;"/>
</g>
<defs>
<clipPath id="clip0_6_1534">
<rect width="64" height="64" fill="white" style="fill:white;fill-opacity:1;"/>
</clipPath>
</defs>
</svg>
