<svg width="64" height="64" viewBox="0 0 64 64" fill="none" xmlns="http://www.w3.org/2000/svg">
<g clip-path="url(#clip0_6_1598)">
<path d="M57.9837 50.6667C61.7656 45.4118 64 38.9687 64 32C64 25.0313 61.7655 18.5883 57.9837 13.3333H6.0163C2.2345 18.5883 0 25.0313 0 32C0 38.9687 2.2345 45.4117 6.0163 50.6667H57.9837Z" fill="#F0263C" style="fill:#F0263C;fill:color(display-p3 0.9412 0.1490 0.2353);fill-opacity:1;"/>
<path d="M8.15466 10.6667H55.8452C49.9859 4.1219 41.4757 0 32 0C22.5243 0 14.0141 4.1219 8.15466 10.6667Z" fill="#2D25C5" style="fill:#2D25C5;fill:color(display-p3 0.1765 0.1451 0.7725);fill-opacity:1;"/>
<path d="M55.8453 53.3333H8.15466C14.014 59.8781 22.5242 64 32 64C41.4758 64 49.9859 59.8781 55.8453 53.3333Z" fill="#2D25C5" style="fill:#2D25C5;fill:color(display-p3 0.1765 0.1451 0.7725);fill-opacity:1;"/>
<path d="M18.6667 45.3333C26.0305 45.3333 32 39.3638 32 32C32 24.6362 26.0305 18.6667 18.6667 18.6667C11.3029 18.6667 5.33337 24.6362 5.33337 32C5.33337 39.3638 11.3029 45.3333 18.6667 45.3333Z" fill="white" style="fill:white;fill-opacity:1;"/>
<path d="M8.15476 53.3333H55.8453C56.6051 52.4847 57.3169 51.5932 57.9837 50.6666H6.01636C6.68316 51.5932 7.39506 52.4846 8.15476 53.3333Z" fill="white" style="fill:white;fill-opacity:1;"/>
<path d="M6.01636 13.3333H57.9838C57.317 12.4067 56.6051 11.5153 55.8454 10.6666H8.15476C7.39496 11.5152 6.68316 12.4067 6.01636 13.3333Z" fill="white" style="fill:white;fill-opacity:1;"/>
<path d="M23.4861 33.5659L26.4647 42.733L18.6667 37.0674L10.8686 42.733L13.8472 33.5659L6.04907 27.9002H15.6881L18.6667 18.733L21.6453 27.9002H31.2842L23.4861 33.5659Z" fill="#F0263C" style="fill:#F0263C;fill:color(display-p3 0.9412 0.1490 0.2353);fill-opacity:1;"/>
</g>
<defs>
<clipPath id="clip0_6_1598">
<rect width="64" height="64" fill="white" style="fill:white;fill-opacity:1;"/>
</clipPath>
</defs>
</svg>
