<?xml version="1.0" encoding="UTF-8"?>
<svg version="1.1" xmlns="http://www.w3.org/2000/svg" width="512" height="512">
<path d="M0 0 C1.30343524 -0.00453111 2.60687049 -0.00906223 3.94980377 -0.01373065 C7.53872944 -0.02587598 11.1275613 -0.02571027 14.71650279 -0.02334189 C18.59877662 -0.02293156 22.48102125 -0.03399353 26.36328125 -0.04345703 C33.9591743 -0.06002218 41.5550363 -0.06556457 49.15094591 -0.06668179 C55.33093025 -0.06763453 61.51090442 -0.07175611 67.69088554 -0.07808304 C85.24272824 -0.09568434 102.79454654 -0.10492382 120.34639812 -0.10342209 C121.29128825 -0.10334218 122.23617838 -0.10326227 123.20970154 -0.10317993 C124.15575616 -0.10309817 125.10181078 -0.10301641 126.07653373 -0.10293217 C141.39585077 -0.10211991 156.71506934 -0.12124535 172.03435791 -0.14945666 C187.79395301 -0.17824792 203.55350018 -0.19199349 219.31312221 -0.19026911 C228.14888002 -0.18960729 236.98453463 -0.19500771 245.82026863 -0.21662521 C253.34550505 -0.23491953 260.87059151 -0.23911724 268.39584065 -0.22560637 C272.22803128 -0.21911761 276.05993492 -0.21880918 279.89209747 -0.23631287 C312.44951462 -0.37558145 341.90079775 5.58076032 366.64988708 28.26742554 C367.56254333 29.09887085 368.47519958 29.93031616 369.41551208 30.78695679 C387.8896799 48.40966156 401.26738111 73.59436372 402.83848643 99.36044991 C402.91170747 102.78084521 402.92613692 106.19636503 402.91731262 109.61753845 C402.92184373 110.9209737 402.92637485 112.22440894 402.93104327 113.56734222 C402.9431886 117.15626789 402.94302289 120.74509975 402.94065452 124.33404124 C402.94024418 128.21631508 402.95130615 132.0985597 402.96076965 135.9808197 C402.9773348 143.57671275 402.98287719 151.17257475 402.98399441 158.76848436 C402.98494716 164.94846871 402.98906873 171.12844287 402.99539566 177.308424 C403.01299696 194.86026669 403.02223644 212.41208499 403.02073471 229.96393657 C403.02061484 231.38127177 403.02061484 231.38127177 403.02049255 232.82723999 C403.02041079 233.77329461 403.02032903 234.71934924 403.02024479 235.69407218 C403.01943253 251.01338922 403.03855797 266.33260779 403.06676929 281.65189636 C403.09556055 297.41149146 403.10930611 313.17103863 403.10758173 328.93066067 C403.10691992 337.76641847 403.11232033 346.60207309 403.13393784 355.43780708 C403.15223215 362.96304351 403.15642986 370.48812997 403.14291899 378.0133791 C403.13643024 381.84556973 403.1361218 385.67747337 403.15362549 389.50963593 C403.29289408 422.06705307 397.33655231 451.51833621 374.64988708 476.26742554 C373.81844177 477.18008179 372.98699646 478.09273804 372.13035583 479.03305054 C354.50765106 497.50721835 329.3229489 510.88491956 303.55686271 512.45602489 C300.13646741 512.52924592 296.72094759 512.54367537 293.29977417 512.53485107 C291.99633893 512.53938219 290.69290368 512.5439133 289.3499704 512.54858172 C285.76104473 512.56072705 282.17221287 512.56056134 278.58327138 512.55819297 C274.70099755 512.55778263 270.81875292 512.5688446 266.93649292 512.57830811 C259.34059987 512.59487325 251.74473787 512.60041564 244.14882826 512.60153286 C237.96884392 512.60248561 231.78886975 512.60660719 225.60888863 512.61293411 C208.05704593 512.63053541 190.50522763 512.63977489 172.95337605 512.63827316 C172.00848592 512.63819325 171.06359579 512.63811334 170.09007263 512.63803101 C168.6709907 512.63790836 168.6709907 512.63790836 167.22324044 512.63778324 C151.9039234 512.63697098 136.58470483 512.65609642 121.26541626 512.68430774 C105.50582116 512.713099 89.74627399 512.72684456 73.98665196 512.72512019 C65.15089415 512.72445837 56.31523954 512.72985879 47.47950554 512.75147629 C39.95426912 512.7697706 32.42918266 512.77396832 24.90393352 512.76045744 C21.07174289 512.75396869 17.23983925 512.75366025 13.4076767 512.77116394 C-19.14974045 512.91043253 -48.60102358 506.95409076 -73.35011292 484.26742554 C-74.26276917 483.43598022 -75.17542542 482.60453491 -76.11573792 481.74789429 C-94.58990573 464.12518951 -107.96760694 438.94048735 -109.53871226 413.17440116 C-109.6119333 409.75400587 -109.62636275 406.33848605 -109.61753845 402.91731262 C-109.62206957 401.61387738 -109.62660068 400.31044213 -109.6312691 398.96750885 C-109.64341443 395.37858319 -109.64324872 391.78975132 -109.64088035 388.20080984 C-109.64047001 384.318536 -109.65153198 380.43629138 -109.66099548 376.55403137 C-109.67756063 368.95813832 -109.68310302 361.36227632 -109.68422024 353.76636671 C-109.68517299 347.58638237 -109.68929456 341.4064082 -109.69562149 335.22642708 C-109.71322279 317.67458439 -109.72246227 300.12276608 -109.72096054 282.5709145 C-109.72088063 281.62602437 -109.72080072 280.68113425 -109.72071838 279.70761108 C-109.72063662 278.76155646 -109.72055486 277.81550184 -109.72047062 276.84077889 C-109.71965836 261.52146185 -109.7387838 246.20224329 -109.76699512 230.88295471 C-109.79578638 215.12335962 -109.80953194 199.36381245 -109.80780756 183.60419041 C-109.80714575 174.7684326 -109.81254616 165.93277799 -109.83416367 157.09704399 C-109.85245798 149.57180757 -109.85665569 142.04672111 -109.84314482 134.52147197 C-109.83665607 130.68928134 -109.83634763 126.85737771 -109.85385132 123.02521515 C-109.99311991 90.467798 -104.03677814 61.01651487 -81.35011292 36.26742554 C-80.5186676 35.35476929 -79.68722229 34.44211304 -78.83058167 33.50180054 C-58.1505635 11.82260141 -29.90865602 -0.07714394 0 0 Z " fill="#6A3FA0" transform="translate(109.35011291503906,-0.267425537109375)"/>
<path d="M0 0 C4.29 0 8.58 0 13 0 C13.33 36.63 13.66 73.26 14 111 C23.9 56.055 23.9 56.055 34 0 C41.92 0 49.84 0 58 0 C57.38833208 10.18630972 55.6442649 19.94682504 53.6875 29.9375 C53.36679554 31.60103309 53.04673214 33.2646899 52.72729492 34.9284668 C51.82505188 39.6203204 50.91343875 44.3103155 50 49 C49.26777485 52.7702502 48.53754003 56.54086135 47.8125 60.3125 C47.65861816 61.11131592 47.50473633 61.91013184 47.34619141 62.7331543 C45.95440302 70.05235011 44.76889257 77.40291446 43.57397461 84.75634766 C42.16818953 93.27621559 40.51010797 101.73507829 38.75024414 110.18847656 C37.25684031 117.42709278 36.06610152 124.68654357 35 132 C35.84624321 130.09595277 36.69248594 128.19190533 37.53872681 126.28785706 C38.30969504 124.55318371 39.08067109 122.81851384 39.85165405 121.08384705 C42.06127586 116.11229296 44.27074888 111.14067282 46.47998047 106.16894531 C50.6149593 96.86381841 54.75037502 87.55889101 58.89167786 78.25657654 C60.97007666 73.58799565 63.04761163 68.91903057 65.125 64.25 C65.53259552 63.33413116 65.94019104 62.41826233 66.36013794 61.47463989 C71.00873121 51.02642896 75.63580279 40.56922749 80.22265625 30.09375 C80.6435553 29.13281433 81.06445435 28.17187866 81.49810791 27.18182373 C83.51239093 22.5814897 85.52346623 17.97978946 87.52978516 13.37597656 C88.24246451 11.74542151 88.9551897 10.11488648 89.66796875 8.484375 C89.99297867 7.73571167 90.31798859 6.98704834 90.65284729 6.21569824 C92.88680417 1.11319583 92.88680417 1.11319583 94 0 C97.10251201 -0.08874135 100.1826812 -0.11518455 103.28515625 -0.09765625 C104.21597519 -0.0962413 105.14679413 -0.09482635 106.1058197 -0.09336853 C109.09141191 -0.08775172 112.07693029 -0.0751964 115.0625 -0.0625 C117.08137913 -0.05748716 119.10025943 -0.05292388 121.11914062 -0.04882812 C126.07945572 -0.03777683 131.03971532 -0.02050095 136 0 C134.5215077 4.76120724 132.60665736 9.23722136 130.5 13.74609375 C130.15251709 14.49661514 129.80503418 15.24713654 129.44702148 16.020401 C128.3009366 18.49413425 127.15043685 20.96578808 126 23.4375 C125.18846418 25.18734333 124.37727215 26.93734614 123.56640625 28.6875 C121.88154058 32.32337368 120.1951973 35.9585565 118.5078125 39.59326172 C115.02807387 47.09167655 111.56629193 54.59836323 108.10449219 62.10507202 C106.25777937 66.10939567 104.41022724 70.11333186 102.5625 74.1171875 C102.19447266 74.91470932 101.82644531 75.71223114 101.44726562 76.53392029 C99.03888202 81.75194347 96.62756314 86.96860249 94.21459961 92.18450928 C92.54460416 95.79466528 90.87553694 99.40525006 89.20654297 103.01586914 C88.40915646 104.74020537 87.61131305 106.46433039 86.81298828 108.18823242 C85.70750841 110.57547898 84.60359186 112.96344269 83.5 115.3515625 C83.17378662 116.0549173 82.84757324 116.75827209 82.51147461 117.48294067 C80.90925658 120.95414668 79.37803669 124.43346878 78 128 C83.31847441 121.65706536 88.59898553 115.29280853 93.75 108.8125 C96.58153318 105.27308353 99.44807167 101.76280539 102.3125 98.25 C106.47258069 93.14627224 110.57972668 88.00762091 114.625 82.8125 C118.5886014 77.72636771 122.68990285 72.78365884 126.88208008 67.88500977 C130.60046176 63.52046797 134.14505256 59.03761304 137.6640625 54.51171875 C141.36158745 49.77263747 145.16505782 45.12832474 149 40.5 C153.2365037 35.38530141 157.42081204 30.24109713 161.5 25 C177.3111332 4.6888668 177.3111332 4.6888668 182 0 C183.8718094 -0.09386381 185.7471806 -0.11743804 187.62133789 -0.11352539 C189.42309227 -0.11341209 189.42309227 -0.11341209 191.26124573 -0.11329651 C192.5685112 -0.10813522 193.87577667 -0.10297394 195.22265625 -0.09765625 C196.56644132 -0.09579198 197.91022707 -0.09436812 199.25401306 -0.09336853 C202.79682277 -0.08954402 206.3395917 -0.07971432 209.88238525 -0.06866455 C213.49515227 -0.05844899 217.10792584 -0.0538706 220.72070312 -0.04882812 C227.8138188 -0.03809198 234.90690674 -0.02101636 242 0 C240.16408934 3.86742982 237.7301472 7.04990566 235.0625 10.375 C234.0610576 11.63530519 233.05975941 12.89572497 232.05859375 14.15625 C231.54796387 14.79691406 231.03733398 15.43757812 230.51123047 16.09765625 C229.09407084 17.8815832 227.68706625 19.67282571 226.28515625 21.46875 C220.86059206 28.41741538 215.34241944 35.2814549 209.76611328 42.10888672 C205.6059375 47.21741958 201.58813392 52.4168633 197.59375 57.65625 C194.63788799 61.49887061 191.56887436 65.24747212 188.5 69 C184.57387237 73.80176754 180.69817104 78.62990957 176.9375 83.5625 C172.87719332 88.88426119 168.72447229 94.12278354 164.53320312 99.34179688 C160.69049303 104.12919371 156.87319392 108.93546939 153.10083008 113.77856445 C150.71711378 116.83589247 148.30174403 119.85919102 145.83203125 122.84765625 C145.31648682 123.47986084 144.80094238 124.11206543 144.26977539 124.76342773 C143.27788643 125.97839213 142.27614222 127.18539577 141.26342773 128.38305664 C139.74492469 130.19826273 139.74492469 130.19826273 138 133 C138.34491957 136.27143573 139.67835135 138.14970029 141.7734375 140.6171875 C142.34537842 141.29942383 142.91731934 141.98166016 143.5065918 142.68457031 C144.43145386 143.76883301 144.43145386 143.76883301 145.375 144.875 C146.66150084 146.40772658 147.94664073 147.94159644 149.23046875 149.4765625 C149.87032715 150.24000977 150.51018555 151.00345703 151.16943359 151.79003906 C153.74039129 154.89384129 156.21949682 158.06416409 158.6875 161.25 C162.19177977 165.75733028 165.78782163 170.16235039 169.5 174.5 C173.68815914 179.39382919 177.70357273 184.39519137 181.6574707 189.47949219 C186.00998249 195.05722951 190.50789657 200.50994028 195.01660156 205.96166992 C198.68560737 210.39934761 202.31440067 214.86435807 205.8984375 219.37109375 C208.6429003 222.80422286 211.41458326 226.21483668 214.1875 229.625 C214.74171631 230.3068335 215.29593262 230.98866699 215.86694336 231.69116211 C218.68834205 235.16106502 221.51245657 238.62872508 224.33984375 242.09375 C229.70616262 248.67506949 235.04783593 255.27443644 240.3125 261.9375 C240.78703613 262.5351416 241.26157227 263.1327832 241.75048828 263.74853516 C245 267.88150406 245 267.88150406 245 269 C236.8807858 269.34989545 228.76479029 269.61518094 220.63986683 269.77718258 C216.86533058 269.85500491 213.09600062 269.96019102 209.32446289 270.1315918 C182.92239943 271.30059889 182.92239943 271.30059889 176.21533203 265.77880859 C173.31452138 262.7481649 171.1053223 259.47420659 169.0736084 255.81512451 C167.48413437 253.1278381 165.41223399 250.98523891 163.25 248.75 C160.26136747 245.45707034 157.41616395 242.08683231 154.625 238.625 C150.94298465 234.07059077 147.07099643 229.76252435 143.08422852 225.47875977 C140.1131325 222.26736593 137.30053412 218.97390237 134.5625 215.5625 C131.19653735 211.37762693 127.66823983 207.41685602 124 203.5 C119.54127805 198.73908666 115.36202376 193.83532437 111.27734375 188.74609375 C108.78173453 185.73680853 106.16233195 182.86062978 103.5 180 C99.22056302 175.40093703 95.2149087 170.64482345 91.2734375 165.75 C86.76475586 160.29619953 82.00352251 155.00352251 77 150 C77.26514404 150.51981445 77.53028809 151.03962891 77.8034668 151.57519531 C83.41164446 162.6027392 88.83579414 173.69482348 94 184.9375 C99.33360686 196.54157761 104.88252128 208.03087113 110.5 219.5 C116.32183788 231.39490523 122.09615092 243.30726221 127.6875 255.3125 C128.2340625 256.48039062 128.780625 257.64828125 129.34375 258.8515625 C129.83230469 259.90730469 130.32085937 260.96304687 130.82421875 262.05078125 C131.24791748 262.96512939 131.67161621 263.87947754 132.1081543 264.8215332 C133 267 133 267 133 269 C117.82 269 102.64 269 87 269 C84.421875 262.833125 81.84375 256.66625 79.1875 250.3125 C72.59340996 234.54935751 65.96749046 218.80002093 59.3125 203.0625 C51.1401886 183.73654747 43.04501496 164.37926304 35 145 C36.68112144 154.68518239 38.65310927 164.31165447 40.59701538 173.9465332 C43.87444042 190.2006914 47.06676445 206.46674349 50.11071777 222.76620483 C52.3370632 234.67540394 54.71324866 246.54564839 57.22338867 258.3984375 C57.45775635 259.50832031 57.69212402 260.61820312 57.93359375 261.76171875 C58.14040771 262.73069092 58.34722168 263.69966309 58.56030273 264.69799805 C59 267 59 267 59 269 C51.08 269 43.16 269 35 269 C31.43125005 256.50937516 28.92785756 243.90417279 26.78613281 231.10229492 C24.73027884 219.05401166 22.2533746 207.08680643 19.81738281 195.11083984 C19.64717621 194.27061783 19.4769696 193.43039581 19.30160522 192.56471252 C18.98436058 190.99965777 18.66538384 189.43495244 18.34414673 187.87071228 C17.07210428 181.59449954 16.05506506 175.33039037 15 169 C14.67 202 14.34 235 14 269 C9.38 269 4.76 269 0 269 C0 180.23 0 91.46 0 0 Z " fill="#FDFDFD" transform="translate(101,121)"/>
<path d="M0 0 C7.06402199 4.06371158 10.65642559 8.9744395 14.1796875 16.25390625 C14.6746875 17.24390625 14.6746875 17.24390625 15.1796875 18.25390625 C15.95545028 29.14001996 15.19975513 37.45071488 9.5546875 47.00390625 C1.73503192 54.41200101 -6.90613827 57.75019588 -17.53125 57.5703125 C-22.26648133 57.1147855 -25.76637958 55.66715119 -29.8203125 53.25390625 C-30.44550781 52.91488281 -31.07070313 52.57585937 -31.71484375 52.2265625 C-38.11751223 48.30684606 -41.20082815 41.86093957 -44.1953125 35.19140625 C-46.01303758 26.64809837 -44.81905465 18.41840662 -40.4140625 10.83203125 C-31.04850722 -2.33275871 -14.82913238 -6.97698523 0 0 Z " fill="#FDFCFD" transform="translate(395.8203125,333.74609375)"/>
</svg>
