<svg width="64" height="64" viewBox="0 0 64 64" fill="none" xmlns="http://www.w3.org/2000/svg">
<g clip-path="url(#clip0_6_1634)">
<path d="M62.1719 21.3333C57.778 8.9061 45.932 0 32 0C23.6947 0 16.1292 3.165 10.4417 8.3533L26.6665 21.3333H62.1719Z" fill="#619B27" style="fill:#619B27;fill:color(display-p3 0.3804 0.6078 0.1529);fill-opacity:1;"/>
<path d="M10.4417 55.6467C16.1292 60.8351 23.6946 64 32 64C45.932 64 57.778 55.0939 62.1719 42.6667H26.6667L10.4417 55.6467Z" fill="#F0263C" style="fill:#F0263C;fill:color(display-p3 0.9412 0.1490 0.2353);fill-opacity:1;"/>
<path d="M26.6667 42.6667H62.172C63.352 39.3296 64 35.7412 64 32C64 28.2588 63.352 24.6705 62.172 21.3333H26.6667V42.6667Z" fill="white" style="fill:white;fill-opacity:1;"/>
<path d="M26.6667 21.3333L10.4417 8.3533C4.0264 14.2055 0 22.6322 0 32C0 41.3678 4.0264 49.7945 10.4417 55.6467L26.6666 42.6667L26.6667 21.3333Z" fill="black" style="fill:black;fill-opacity:1;"/>
</g>
<defs>
<clipPath id="clip0_6_1634">
<rect width="64" height="64" fill="white" style="fill:white;fill-opacity:1;"/>
</clipPath>
</defs>
</svg>
