<svg width="64" height="64" viewBox="0 0 64 64" fill="none" xmlns="http://www.w3.org/2000/svg">
<g clip-path="url(#clip0_6_1639)">
<path d="M32 64C49.6731 64 64 49.6731 64 32C64 14.3269 49.6731 0 32 0C14.3269 0 0 14.3269 0 32C0 49.6731 14.3269 64 32 64Z" fill="#191977" style="fill:#191977;fill:color(display-p3 0.0980 0.0980 0.4667);fill-opacity:1;"/>
<path d="M32 8.00001V6.66671H26.8073L32 3.20491V1.60251L24.4036 6.66671H20V6.39761L29.4284 0.111908C28.4256 0.191708 27.4362 0.317308 26.4614 0.487508L20 4.79521V2.33501C19.5501 2.51721 19.1061 2.70971 18.6667 2.91141V8.00001H32Z" fill="white" style="fill:white;fill-opacity:1;"/>
<path d="M13.3333 6.0163C12.4708 6.637 11.6404 7.2985 10.8453 8H13.3333V6.0163Z" fill="white" style="fill:white;fill-opacity:1;"/>
<path d="M18.6667 21.3333H20V16.5382L27.1927 21.3333H29.5964L20 14.9358V14.6667H24.4036L32 19.7309V18.1285L26.8073 14.6667H32V13.3333H18.6667V21.3333Z" fill="white" style="fill:white;fill-opacity:1;"/>
<path d="M6.01639 13.3333C5.70239 13.7697 5.39949 14.2142 5.10739 14.6666C5.08599 14.6997 5.06479 14.733 5.04359 14.7662C4.50449 15.6076 4.00419 16.4754 3.54419 17.3682L7.59649 14.6667H12.0001V14.9358L2.40369 21.3333H4.80729L12 16.5381V21.3333H13.3333V13.3333H6.01639Z" fill="white" style="fill:white;fill-opacity:1;"/>
<path d="M20 6.6667H24.4036L32 1.6025V0C31.1335 0 30.2777 0.0444 29.4284 0.1119L20 6.3975V6.6667Z" fill="#F0263C" style="fill:#F0263C;fill:color(display-p3 0.9412 0.1490 0.2353);fill-opacity:1;"/>
<path d="M20 14.6667V14.9358L29.5964 21.3333H32V19.7309L24.4036 14.6667H20Z" fill="#F0263C" style="fill:#F0263C;fill:color(display-p3 0.9412 0.1490 0.2353);fill-opacity:1;"/>
<path d="M12 14.9358V14.6667H7.59645L3.54415 17.3682C2.88725 18.6431 2.31165 19.9659 1.82825 21.3333H2.40375L12 14.9358Z" fill="#F0263C" style="fill:#F0263C;fill:color(display-p3 0.9412 0.1490 0.2353);fill-opacity:1;"/>
<path d="M13.3334 21.3333H18.6667V13.3333H32V8.00001H18.6667V2.91141C16.7831 3.77631 14.9987 4.81781 13.3334 6.01631V8.00001H10.8454C9.04316 9.58981 7.42306 11.3787 6.01636 13.3333H13.3335L13.3334 21.3333Z" fill="#F0263C" style="fill:#F0263C;fill:color(display-p3 0.9412 0.1490 0.2353);fill-opacity:1;"/>
<path d="M44.6667 38H46H47.3334L50 39.3333H51.3334L48 36L48.1334 35.8667L47.3334 35.3333H44.6667L43.7779 35.7778L44 36L40.6667 39.3333H42L44.6667 38Z" fill="white" style="fill:white;fill-opacity:1;"/>
<path d="M41.9999 31.3333L44.6666 30H47.3333L50 31.3333H52.6667L55.3334 30V24H36.6667V30L39.3334 31.3333H41.9999ZM37.9999 28.6666H40.6666L37.9999 27.3333V26H39.3332L40.6665 27.3333H41.9998V24.6666H44.6665V25.9999H49.9998L47.3331 24.6666H51.3331L52.6664 25.9999L49.9997 27.3332L51.333 28.6665H53.9997V29.9998H49.9997L47.333 28.6665H44.6663L41.9996 29.9998H37.9996L37.9999 28.6666Z" fill="#F0263C" style="fill:#F0263C;fill:color(display-p3 0.9412 0.1490 0.2353);fill-opacity:1;"/>
<path d="M36.6667 32.6667V35.3333L37.5555 35.7778L39.3334 34L36.6667 32.6667Z" fill="#6D8DE4" style="fill:#6D8DE4;fill:color(display-p3 0.4275 0.5529 0.8941);fill-opacity:1;"/>
<path d="M44.6667 35.3333H47.3333L48.1333 35.8667L50 34L47.3333 32.6667H44.6667L42 34L43.7778 35.7778L44.6667 35.3333Z" fill="#6D8DE4" style="fill:#6D8DE4;fill:color(display-p3 0.4275 0.5529 0.8941);fill-opacity:1;"/>
<path d="M55.3334 35.3333V32.6667L52.6667 34L54.4445 35.7778L55.3334 35.3333Z" fill="#6D8DE4" style="fill:#6D8DE4;fill:color(display-p3 0.4275 0.5529 0.8941);fill-opacity:1;"/>
<path d="M40.6667 42H42L42.8888 41.5555L42.6667 41.3333L46 38H44.6667L42 39.3333H40.6667H39.3333L37.0946 38.2139L37.8454 41.2174L38 41.3333L39.3333 42H40.6667Z" fill="#6D8DE4" style="fill:#6D8DE4;fill:color(display-p3 0.4275 0.5529 0.8941);fill-opacity:1;"/>
<path d="M47.3333 38H46L49.3333 41.3333L48.9333 41.7333L49.3333 42H52.6667L54 41.3333L54.1546 41.2174L54.9054 38.2139L52.6667 39.3333H51.3333H50L47.3333 38Z" fill="#6D8DE4" style="fill:#6D8DE4;fill:color(display-p3 0.4275 0.5529 0.8941);fill-opacity:1;"/>
<path d="M44.6667 43.3333L42.2666 44.5333L42.6269 44.8035L46 45.9279L49.3731 44.8035L49.7334 44.5333L47.3333 43.3333L46 44.6667L44.6667 43.3333Z" fill="#6D8DE4" style="fill:#6D8DE4;fill:color(display-p3 0.4275 0.5529 0.8941);fill-opacity:1;"/>
<path d="M39.091 43.8182L42.0001 46L46.0001 47.3333L50.0001 46L51.3334 45L52.9092 43.8182L53.5556 43.3334L54.5716 42.5715L55.3335 42.0001L56.6668 36.6668V21.3335H52.6668V22.6668H50.0001V21.3335H47.3334V22.6668H44.6667V21.3335H42V22.6668H39.3333V21.3335H35.3333V36.6668L36.6666 42.0001L37.4285 42.5715L38.4445 43.3334L39.091 43.8182ZM36.6668 24H55.3335V30L52.6668 31.3333H50.0001L47.3334 30H44.6667L42 31.3333H39.3333L36.6666 30L36.6668 24ZM37.8455 41.2174L37.0947 38.214L39.3335 39.3334H40.6668L37.3335 36.0001L37.5557 35.7779L36.6669 35.3334V32.6667L39.3336 34L40.6669 32.6667L42.0002 34L44.6669 32.6667H47.3336L50.0003 34L51.3336 32.6667L52.6669 34L55.3336 32.6667V35.3334L54.4448 35.7779L54.667 36.0001L51.3337 39.3334H52.667L54.9058 38.214L54.155 41.2174L54.0004 41.3334L52.6671 42.0001H49.3338L48.9338 41.7334L47.3338 43.3334L49.7339 44.5334L49.3736 44.8036L46.0005 45.9279L42.6274 44.8036L42.2671 44.5334L44.6672 43.3334L42.8894 41.5556L42.0006 42.0001H39.3339L38.0006 41.3334L37.8455 41.2174Z" fill="white" style="fill:white;fill-opacity:1;"/>
<path d="M43.7778 35.7778L42 34L40.6666 32.6667L39.3333 34L37.5555 35.7778L37.3333 36L40.6666 39.3333L44 36L43.7778 35.7778Z" fill="#1E5B00" style="fill:#1E5B00;fill:color(display-p3 0.1176 0.3569 0.0000);fill-opacity:1;"/>
<path d="M48 36L51.3333 39.3333L54.6667 36L54.4445 35.7778L52.6667 34L51.3333 32.6667L50 34L48.1333 35.8667L48 36Z" fill="#1E5B00" style="fill:#1E5B00;fill:color(display-p3 0.1176 0.3569 0.0000);fill-opacity:1;"/>
<path d="M46 38L42.6667 41.3333L42.8889 41.5555L44.6667 43.3333L46 44.6667L47.3334 43.3333L48.9333 41.7333L49.3334 41.3333L46 38Z" fill="#1E5B00" style="fill:#1E5B00;fill:color(display-p3 0.1176 0.3569 0.0000);fill-opacity:1;"/>
<path d="M44.6667 28.6667H47.3333L50 30H54V28.6667H51.3333L50 27.3333L52.6667 26L51.3333 24.6667H47.3333L50 26H48.6667H44.6667V24.6667H42V27.3333H40.6667L39.3333 26H38V27.3333L40.6667 28.6667H38V30H42L44.6667 28.6667Z" fill="#FFD400" style="fill:#FFD400;fill:color(display-p3 1.0000 0.8314 0.0000);fill-opacity:1;"/>
<path d="M44.6667 20H50V21.3333H51.3333H52.6667L51.3333 20L52.6667 18.6667V17.3333L50 18.6667H44.6667H43.3333V17.3333H42L40.6667 16H39.3333L38 17.3333L40.6667 18.6667H42L40.6667 20L42 21.3333H44.6667V20Z" fill="#619B27" style="fill:#619B27;fill:color(display-p3 0.3804 0.6078 0.1529);fill-opacity:1;"/>
<path d="M47.3334 14.6667L50 16L51.3334 14.6667H50L51.3334 13.3333H50L51.3334 12H50V10.6667L47.3334 12V10.6667L45.3334 12L43.3334 10.6667V12H40.6667L42 13.3333H40.6667L42 14.6667H40.6667L42 16L43.3334 14.6667H47.3334Z" fill="#CC9500" style="fill:#CC9500;fill:color(display-p3 0.8000 0.5843 0.0000);fill-opacity:1;"/>
<path d="M43.3334 17.3333V18.6667H44.6667H50L52.6667 17.3333L50 16L47.3334 14.6667H43.3334L42 16H40.6667L42 17.3333H43.3334Z" fill="#1E5B00" style="fill:#1E5B00;fill:color(display-p3 0.1176 0.3569 0.0000);fill-opacity:1;"/>
<path d="M39.091 43.8182L38.4445 43.3333L37.4286 42.5714L36.6667 43.3333L38 45.3333L39.091 43.8182Z" fill="#FF7700" style="fill:#FF7700;fill:color(display-p3 1.0000 0.4667 0.0000);fill-opacity:1;"/>
<path d="M34.6667 46H34V48L35.3333 47.3333L34.6667 46Z" fill="#FF7700" style="fill:#FF7700;fill:color(display-p3 1.0000 0.4667 0.0000);fill-opacity:1;"/>
<path d="M52.9091 43.8182L54 45.3333L55.3333 43.3333L54.5715 42.5714L53.5555 43.3333L52.9091 43.8182Z" fill="#FF7700" style="fill:#FF7700;fill:color(display-p3 1.0000 0.4667 0.0000);fill-opacity:1;"/>
<path d="M57.3333 46H55.3333L56.6667 44.6667L55.3333 43.3333L54 45.3333L52.9091 43.8182L51.3333 45L52 46.6667L50 47.3333L46 48L42 47.3333L40 46.6667L40.6667 45L39.0909 43.8182L38 45.3333L36.6667 43.3333L35.3333 44.6667L36.6667 46H34.6667L35.3333 47.3333L34 48L35.3333 48.6667H38.6667L42 50L46 50.6667L50 50L53.3333 48.6667H56.6667L58 48L56.6667 47.3333L57.3333 46Z" fill="#FFD400" style="fill:#FFD400;fill:color(display-p3 1.0000 0.8314 0.0000);fill-opacity:1;"/>
<path d="M57.3334 46L56.6667 47.3333L58 48V46H57.3334Z" fill="#FF7700" style="fill:#FF7700;fill:color(display-p3 1.0000 0.4667 0.0000);fill-opacity:1;"/>
</g>
<defs>
<clipPath id="clip0_6_1639">
<rect width="64" height="64" fill="white" style="fill:white;fill-opacity:1;"/>
</clipPath>
</defs>
</svg>
