<svg width="64" height="64" viewBox="0 0 64 64" fill="none" xmlns="http://www.w3.org/2000/svg">
<g clip-path="url(#clip0_6_1673)">
<path d="M32 64C49.6731 64 64 49.6731 64 32C64 14.3269 49.6731 0 32 0C14.3269 0 0 14.3269 0 32C0 49.6731 14.3269 64 32 64Z" fill="#007ACC" style="fill:#007ACC;fill:color(display-p3 0.0000 0.4784 0.8000);fill-opacity:1;"/>
<path d="M42.6666 34C47.0849 34 50.6666 30.4183 50.6666 26C50.6666 21.5817 47.0849 18 42.6666 18C38.2483 18 34.6666 21.5817 34.6666 26C34.6666 30.4183 38.2483 34 42.6666 34Z" fill="#FFD400" style="fill:#FFD400;fill:color(display-p3 1.0000 0.8314 0.0000);fill-opacity:1;"/>
<path d="M42.6666 13.3333L41.3333 16H44L42.6666 13.3333Z" fill="#FFD400" style="fill:#FFD400;fill:color(display-p3 1.0000 0.8314 0.0000);fill-opacity:1;"/>
<path d="M46.9989 14.0972L44.8339 16.147L47.3398 17.0591L46.9989 14.0972Z" fill="#FFD400" style="fill:#FFD400;fill:color(display-p3 1.0000 0.8314 0.0000);fill-opacity:1;"/>
<path d="M50.8086 16.2968L48.0732 17.4825L50.1159 19.1966L50.8086 16.2968Z" fill="#FFD400" style="fill:#FFD400;fill:color(display-p3 1.0000 0.8314 0.0000);fill-opacity:1;"/>
<path d="M53.6363 19.6667L50.6603 19.8453L51.9936 22.1547L53.6363 19.6667Z" fill="#FFD400" style="fill:#FFD400;fill:color(display-p3 1.0000 0.8314 0.0000);fill-opacity:1;"/>
<path d="M55.1409 23.8005L52.2832 22.9504L52.7463 25.5766L55.1409 23.8005Z" fill="#FFD400" style="fill:#FFD400;fill:color(display-p3 1.0000 0.8314 0.0000);fill-opacity:1;"/>
<path d="M55.1409 28.1995L52.7463 26.4234L52.2832 29.0496L55.1409 28.1995Z" fill="#FFD400" style="fill:#FFD400;fill:color(display-p3 1.0000 0.8314 0.0000);fill-opacity:1;"/>
<path d="M53.6363 32.3333L51.9936 29.8453L50.6603 32.1547L53.6363 32.3333Z" fill="#FFD400" style="fill:#FFD400;fill:color(display-p3 1.0000 0.8314 0.0000);fill-opacity:1;"/>
<path d="M50.8086 35.7032L50.1159 32.8034L48.0732 34.5175L50.8086 35.7032Z" fill="#FFD400" style="fill:#FFD400;fill:color(display-p3 1.0000 0.8314 0.0000);fill-opacity:1;"/>
<path d="M46.9989 37.9028L47.3398 34.9409L44.8339 35.853L46.9989 37.9028Z" fill="#FFD400" style="fill:#FFD400;fill:color(display-p3 1.0000 0.8314 0.0000);fill-opacity:1;"/>
<path d="M42.6666 38.6667L44 36H41.3333L42.6666 38.6667Z" fill="#FFD400" style="fill:#FFD400;fill:color(display-p3 1.0000 0.8314 0.0000);fill-opacity:1;"/>
<path d="M38.3344 37.9028L40.4994 35.853L37.9935 34.9409L38.3344 37.9028Z" fill="#FFD400" style="fill:#FFD400;fill:color(display-p3 1.0000 0.8314 0.0000);fill-opacity:1;"/>
<path d="M34.5247 35.7032L37.2602 34.5175L35.2174 32.8034L34.5247 35.7032Z" fill="#FFD400" style="fill:#FFD400;fill:color(display-p3 1.0000 0.8314 0.0000);fill-opacity:1;"/>
<path d="M31.697 32.3333L34.6731 32.1547L33.3397 29.8453L31.697 32.3333Z" fill="#FFD400" style="fill:#FFD400;fill:color(display-p3 1.0000 0.8314 0.0000);fill-opacity:1;"/>
<path d="M30.1924 28.1995L33.0501 29.0496L32.5871 26.4234L30.1924 28.1995Z" fill="#FFD400" style="fill:#FFD400;fill:color(display-p3 1.0000 0.8314 0.0000);fill-opacity:1;"/>
<path d="M30.1924 23.8005L32.5871 25.5766L33.0501 22.9504L30.1924 23.8005Z" fill="#FFD400" style="fill:#FFD400;fill:color(display-p3 1.0000 0.8314 0.0000);fill-opacity:1;"/>
<path d="M31.697 19.6667L33.3397 22.1547L34.6731 19.8453L31.697 19.6667Z" fill="#FFD400" style="fill:#FFD400;fill:color(display-p3 1.0000 0.8314 0.0000);fill-opacity:1;"/>
<path d="M34.5247 16.2968L35.2174 19.1966L37.2602 17.4825L34.5247 16.2968Z" fill="#FFD400" style="fill:#FFD400;fill:color(display-p3 1.0000 0.8314 0.0000);fill-opacity:1;"/>
<path d="M38.3344 14.0972L37.9935 17.0591L40.4994 16.147L38.3344 14.0972Z" fill="#FFD400" style="fill:#FFD400;fill:color(display-p3 1.0000 0.8314 0.0000);fill-opacity:1;"/>
<path d="M25.3333 28H26.6667L28 30.6667V29.3333L29.3333 30.6667V33.3333L32 37.3333L36 40L41.3333 41.3333H42.6667H45.3333L49.3333 40L53.3333 37.3333L56 33.3333V30.6667L57.3333 29.3333V30.6667L58.6667 28H60V30.6667H61.3333L60 33.3333H61.3333V34.6667L58.6667 36H60V37.3333L57.3333 38.6667H58.6667L54.6667 42.6667L50.6667 44L53.3333 41.3333L56 38.6667L57.3333 34.6667L54.6667 37.3333L52 40L48 41.3333L44 42.6667L40 45.3333H42.6667L44 46.6667H46.6667L48 45.3333H53.3333L50.6667 46.6667L49.3333 48H46.6667L41.3333 49.3333L40 48L42.6667 46.6667H38H36L37.3333 45.3333H38.6667L40 44L41.3333 42.6667L36 41.3333L32 38.6667L28 34.6667V37.3333L30.6667 40L34.6667 44L29.3333 41.3333L26.6667 38.6667V37.3333L25.3333 36H26.6667L24 33.3333H25.3333L24 30.6667H25.3333V28Z" fill="#FFD400" style="fill:#FFD400;fill:color(display-p3 1.0000 0.8314 0.0000);fill-opacity:1;"/>
<path d="M10.6667 53.3333L9.33345 49.3333L10.6667 45.3333L9.33345 44L10.6667 42.6667L9.33345 38.6667L10.6667 34.6667V33.3334H9.33345V34.6667H8.00015V33.3334H9.33345V30.6667H8.00015V29.3334H9.33345V30.6667H10.6667V29.3334L9.33345 25.3334L10.6667 21.3334L9.33345 20.0001L10.6667 18.6668L9.33345 14.6668L10.6667 10.6668V9.3335H9.41385C8.98085 9.765 8.56275 10.2112 8.15485 10.6668H9.33335V12.0001H8.00005V10.8454C7.58845 11.312 7.19145 11.7911 6.80735 12.2814L8.00005 14.6668H5.33335L5.96145 13.4108C4.75055 15.1038 3.70185 16.9188 2.83535 18.8354L4.00005 20.0001L2.66675 21.3334L4.00005 25.3334L2.66675 29.3334V30.6667H4.00005V29.3334H5.33335V30.6667H4.00005V33.3334H5.33335V34.6667H4.00005V33.3334H2.66675V34.6667L4.00005 38.6667L2.66675 42.6667L4.00005 44L2.83535 45.1647C3.70185 47.0814 4.75055 48.8963 5.96145 50.5893L5.33345 49.3333H8.00015L6.80745 51.7187C7.19155 52.2089 7.58855 52.6881 8.00015 53.1547V52H9.33345V53.3333H8.15495C8.56285 53.7889 8.98085 54.2351 9.41395 54.6666H10.6668L10.6667 53.3333ZM9.33345 42.6666H8.00015V39.9999L9.33345 42.6666ZM6.66675 29.3333L5.33345 25.3333H8.00015L6.66675 29.3333ZM8.00005 24V21.3333H9.33335L8.00005 24ZM8.00005 16L9.33335 18.6667H8.00005V16ZM6.66675 18.6667L8.00005 20L6.66675 21.3333L5.33345 20L6.66675 18.6667ZM5.33345 16V18.6667H4.00015L5.33345 16ZM4.00015 21.3333H5.33345V24L4.00015 21.3333ZM6.66685 30.6666L8.00015 31.9999L6.66685 33.3332L5.33355 31.9999L6.66685 30.6666ZM6.66685 34.6666L8.00015 38.6666H5.33345L6.66685 34.6666ZM5.33355 39.9999V42.6666H4.00025L5.33355 39.9999ZM5.33355 47.9999L4.00025 45.3332H5.33355V47.9999ZM6.66685 45.3332L5.33355 43.9999L6.66685 42.6666L8.00015 43.9999L6.66685 45.3332ZM8.00015 47.9999V45.3332H9.33345L8.00015 47.9999Z" fill="#FFD400" style="fill:#FFD400;fill:color(display-p3 1.0000 0.8314 0.0000);fill-opacity:1;"/>
<path d="M6.66669 18.6666L5.33337 20L6.6667 21.3333L8.00002 20L6.66669 18.6666Z" fill="#007ACC" style="fill:#007ACC;fill:color(display-p3 0.0000 0.4784 0.8000);fill-opacity:1;"/>
<path d="M8.00007 14.6667L6.80737 12.2813C6.51727 12.6513 6.23537 13.0277 5.96147 13.4107L5.33337 14.6667H8.00007Z" fill="#007ACC" style="fill:#007ACC;fill:color(display-p3 0.0000 0.4784 0.8000);fill-opacity:1;"/>
<path d="M9.3333 12V10.6667H8.1548C8.1022 10.7254 8.0521 10.7862 8 10.8453V12H9.3333Z" fill="#007ACC" style="fill:#007ACC;fill:color(display-p3 0.0000 0.4784 0.8000);fill-opacity:1;"/>
<path d="M5.3333 16L4 18.6667H5.3333V16Z" fill="#007ACC" style="fill:#007ACC;fill:color(display-p3 0.0000 0.4784 0.8000);fill-opacity:1;"/>
<path d="M8 16V18.6667H9.3333L8 16Z" fill="#007ACC" style="fill:#007ACC;fill:color(display-p3 0.0000 0.4784 0.8000);fill-opacity:1;"/>
<path d="M6.66677 29.3333L8.00007 25.3333H5.33337L6.66677 29.3333Z" fill="#007ACC" style="fill:#007ACC;fill:color(display-p3 0.0000 0.4784 0.8000);fill-opacity:1;"/>
<path d="M5.3333 33.3333H4V34.6666H5.3333V33.3333Z" fill="#007ACC" style="fill:#007ACC;fill:color(display-p3 0.0000 0.4784 0.8000);fill-opacity:1;"/>
<path d="M9.3333 33.3333H8V34.6666H9.3333V33.3333Z" fill="#007ACC" style="fill:#007ACC;fill:color(display-p3 0.0000 0.4784 0.8000);fill-opacity:1;"/>
<path d="M5.3333 29.3333H4V30.6666H5.3333V29.3333Z" fill="#007ACC" style="fill:#007ACC;fill:color(display-p3 0.0000 0.4784 0.8000);fill-opacity:1;"/>
<path d="M9.3333 29.3333H8V30.6666H9.3333V29.3333Z" fill="#007ACC" style="fill:#007ACC;fill:color(display-p3 0.0000 0.4784 0.8000);fill-opacity:1;"/>
<path d="M6.66669 30.6666L5.33337 31.9999L6.66669 33.3333L8.00001 31.9999L6.66669 30.6666Z" fill="#007ACC" style="fill:#007ACC;fill:color(display-p3 0.0000 0.4784 0.8000);fill-opacity:1;"/>
<path d="M5.3333 21.3333H4L5.3333 24V21.3333Z" fill="#007ACC" style="fill:#007ACC;fill:color(display-p3 0.0000 0.4784 0.8000);fill-opacity:1;"/>
<path d="M8 24L9.3333 21.3333H8V24Z" fill="#007ACC" style="fill:#007ACC;fill:color(display-p3 0.0000 0.4784 0.8000);fill-opacity:1;"/>
<path d="M6.66669 42.6666L5.33337 43.9999L6.66669 45.3333L8.00001 43.9999L6.66669 42.6666Z" fill="#007ACC" style="fill:#007ACC;fill:color(display-p3 0.0000 0.4784 0.8000);fill-opacity:1;"/>
<path d="M5.33335 49.3333L5.96135 50.5893C6.23515 50.9723 6.51715 51.3486 6.80725 51.7187L7.99995 49.3333H5.33335Z" fill="#007ACC" style="fill:#007ACC;fill:color(display-p3 0.0000 0.4784 0.8000);fill-opacity:1;"/>
<path d="M9.3333 52H8V53.1547C8.0521 53.2138 8.1022 53.2747 8.1548 53.3333H9.3333V52Z" fill="#007ACC" style="fill:#007ACC;fill:color(display-p3 0.0000 0.4784 0.8000);fill-opacity:1;"/>
<path d="M8 45.3333V48L9.3333 45.3333H8Z" fill="#007ACC" style="fill:#007ACC;fill:color(display-p3 0.0000 0.4784 0.8000);fill-opacity:1;"/>
<path d="M5.3333 48V45.3333H4L5.3333 48Z" fill="#007ACC" style="fill:#007ACC;fill:color(display-p3 0.0000 0.4784 0.8000);fill-opacity:1;"/>
<path d="M6.66677 34.6667L5.33337 38.6667H8.00007L6.66677 34.6667Z" fill="#007ACC" style="fill:#007ACC;fill:color(display-p3 0.0000 0.4784 0.8000);fill-opacity:1;"/>
<path d="M8 42.6667H9.3333L8 40V42.6667Z" fill="#007ACC" style="fill:#007ACC;fill:color(display-p3 0.0000 0.4784 0.8000);fill-opacity:1;"/>
<path d="M5.3333 40L4 42.6667H5.3333V40Z" fill="#007ACC" style="fill:#007ACC;fill:color(display-p3 0.0000 0.4784 0.8000);fill-opacity:1;"/>
</g>
<defs>
<clipPath id="clip0_6_1673">
<rect width="64" height="64" fill="white" style="fill:white;fill-opacity:1;"/>
</clipPath>
</defs>
</svg>
