<svg width="64" height="64" viewBox="0 0 64 64" fill="none" xmlns="http://www.w3.org/2000/svg">
<g clip-path="url(#clip0_6_1720)">
<path d="M32 0C20.1576 0 9.82535 6.4379 4.29175 16H59.7085C54.1748 6.4379 43.8424 0 32 0Z" fill="#F0263C" style="fill:#F0263C;fill:color(display-p3 0.9412 0.1490 0.2353);fill-opacity:1;"/>
<path d="M32 64C43.8424 64 54.1748 57.562 59.7084 48H4.29175C9.82545 57.562 20.1576 64 32 64Z" fill="#F0263C" style="fill:#F0263C;fill:color(display-p3 0.9412 0.1490 0.2353);fill-opacity:1;"/>
<path d="M59.7083 16H4.2917C1.5671 20.7079 0 26.1693 0 32C0 37.8307 1.5671 43.2921 4.2917 48H59.7084C62.4329 43.2921 64.0001 37.8307 64.0001 32C64.0001 26.1693 62.4329 20.7079 59.7083 16Z" fill="#191977" style="fill:#191977;fill:color(display-p3 0.0980 0.0980 0.4667);fill-opacity:1;"/>
<path d="M32 44C38.6274 44 44 38.6274 44 32C44 25.3726 38.6274 20 32 20C25.3726 20 20 25.3726 20 32C20 38.6274 25.3726 44 32 44Z" fill="white" style="fill:white;fill-opacity:1;"/>
</g>
<defs>
<clipPath id="clip0_6_1720">
<rect width="64" height="64" fill="white" style="fill:white;fill-opacity:1;"/>
</clipPath>
</defs>
</svg>
