<svg width="64" height="64" viewBox="0 0 64 64" fill="none" xmlns="http://www.w3.org/2000/svg">
<g clip-path="url(#clip0_6_1759)">
<path d="M60.6667 22.6667V18.6667L60.9443 18.3891C60.5607 17.5758 60.1564 16.7743 59.7083 16.0001H21.3333V48.0001H59.7083C60.1601 47.2195 60.5673 46.4112 60.9535 45.5909L60.6666 45.296V41.3335L61.9999 42.6668H62.164C63.3471 39.33 63.9999 35.7429 63.9999 32.0001C63.9999 28.2573 63.3471 24.6702 62.164 21.3334H61.9999L60.6667 22.6667Z" fill="#960A3C" style="fill:#960A3C;fill:color(display-p3 0.5882 0.0392 0.2353);fill-opacity:1;"/>
<path d="M60.6667 18.6667V22.6667L62 21.3334H62.1641C61.8072 20.3268 61.396 19.3467 60.9443 18.3891L60.6667 18.6667Z" fill="#FFD400" style="fill:#FFD400;fill:color(display-p3 1.0000 0.8314 0.0000);fill-opacity:1;"/>
<path d="M60.6667 41.3333V45.2958L60.9536 45.5907C61.4016 44.6394 61.8098 43.6662 62.1642 42.6666H62.0001L60.6667 41.3333Z" fill="#FFD400" style="fill:#FFD400;fill:color(display-p3 1.0000 0.8314 0.0000);fill-opacity:1;"/>
<path d="M57.3333 22.6667V24L52 21.3333H48L46.6667 22.6666V25.3333L49.3334 26.6666H54.6667L56 27.9999H44V25.3332L45.3333 21.3332H38.6666L35.9999 22.6665H33.3332V23.9998L34.6665 25.3331L37.3332 26.6664H33.3332V27.9997L35.9999 29.333H37.3332L35.9999 30.6663L34.6666 31.9996V34.6663L33.3333 33.333V30.6663H32V18.6663L30.6667 21.333V30.6663H29.3334L28.0001 31.9996V33.3329H30.6668V38.6662L29.3335 39.9995L30.6668 41.3328L32.0001 39.9995V35.9995L33.3334 37.3328L34.6667 38.6661H36L37.3333 37.3328L38.6666 38.6661V41.3328L37.3333 42.6661H36V43.9994H40L41.3333 42.6661V41.3328L42.6666 39.9995L41.3333 38.6662L42.6666 37.3329L46.6666 35.9996H47.9999V37.3329L50.6666 39.9996V41.3329L49.3333 42.6662H48V43.9995H56V41.3328L57.3333 39.9995L56 38.6662V37.3329L57.3333 34.6662V26.6662L56 25.3329H50.6667L49.3334 23.9996V22.6663H50.6667L52 23.9996H54.6667L57.3334 25.3329H58.6667V22.6662L57.3333 22.6667ZM54.6666 41.3334L53.3333 42.6667H52V41.3334L53.3333 40.0001L52 38.6668H53.3333L54.6666 40.0001V41.3334Z" fill="#FFD400" style="fill:#FFD400;fill:color(display-p3 1.0000 0.8314 0.0000);fill-opacity:1;"/>
<path d="M26.6667 22.6667L25.3333 21.3333H24L22.6667 20V18.6667L24 17.3333H25.3333L26.6667 18.6667V22.6667Z" fill="#FFD400" style="fill:#FFD400;fill:color(display-p3 1.0000 0.8314 0.0000);fill-opacity:1;"/>
<path d="M26.6667 41.3333L25.3333 42.6667H24L22.6667 44V45.3333L24 46.6667H25.3333L26.6667 45.2959V41.3333Z" fill="#FFD400" style="fill:#FFD400;fill:color(display-p3 1.0000 0.8314 0.0000);fill-opacity:1;"/>
<path d="M21.3333 16H59.7083C54.1747 6.4379 43.8424 0 32 0C20.1576 0 9.82529 6.4379 4.29169 16H17.3334V48H4.29169C9.82539 57.562 20.1576 64 32 64C43.8424 64 54.1746 57.562 59.7083 48H21.3333V16Z" fill="#FFD400" style="fill:#FFD400;fill:color(display-p3 1.0000 0.8314 0.0000);fill-opacity:1;"/>
<path d="M8.6667 48V16H4.2917C3.0526 18.1412 2.0534 20.4371 1.3334 22.855C0.4702 25.7535 0 28.8212 0 32C0 35.1788 0.4702 38.2466 1.3333 41.145C2.0534 43.5629 3.0525 45.8588 4.2916 48H8.6667Z" fill="#1E5B00" style="fill:#1E5B00;fill:color(display-p3 0.1176 0.3569 0.0000);fill-opacity:1;"/>
<path d="M17.3334 16H8.66669V48H17.3334V16Z" fill="#FF7700" style="fill:#FF7700;fill:color(display-p3 1.0000 0.4667 0.0000);fill-opacity:1;"/>
</g>
<defs>
<clipPath id="clip0_6_1759">
<rect width="64" height="64" fill="white" style="fill:white;fill-opacity:1;"/>
</clipPath>
</defs>
</svg>
