<svg width="64" height="64" viewBox="0 0 64 64" fill="none" xmlns="http://www.w3.org/2000/svg">
<g clip-path="url(#clip0_6_1772)">
<path d="M0.14447 29H24V1.00821C11.1351 4.31951 1.40677 15.4312 0.14447 29Z" fill="#191977" style="fill:#191977;fill:color(display-p3 0.0980 0.0980 0.4667);fill-opacity:1;"/>
<path d="M49.166 5C44.2046 1.8389 38.3188 0 32 0C29.2368 0 26.5565 0.3517 24 1.0118V5H49.166Z" fill="#F0263C" style="fill:#F0263C;fill:color(display-p3 0.9412 0.1490 0.2353);fill-opacity:1;"/>
<path d="M24 11H56.134C54.1151 8.6818 51.7693 6.6586 49.166 5H24V11Z" fill="white" style="fill:white;fill-opacity:1;"/>
<path d="M24 17H60.2674C59.1187 14.8398 57.7277 12.83 56.134 11H24V17Z" fill="#F0263C" style="fill:#F0263C;fill:color(display-p3 0.9412 0.1490 0.2353);fill-opacity:1;"/>
<path d="M24 23H62.7078C62.0941 20.903 61.2749 18.8946 60.2674 17H24V23Z" fill="white" style="fill:white;fill-opacity:1;"/>
<path d="M24 29H63.8555C63.6635 26.9363 63.273 24.9312 62.7079 23H24V29Z" fill="#F0263C" style="fill:#F0263C;fill:color(display-p3 0.9412 0.1490 0.2353);fill-opacity:1;"/>
<path d="M63.8555 29H0.1445C0.0526 29.9882 0 30.9878 0 32C0 33.0122 0.0526 34.0118 0.1445 35H63.8554C63.9473 34.0118 63.9999 33.0122 63.9999 32C63.9999 30.9878 63.9474 29.9882 63.8555 29Z" fill="white" style="fill:white;fill-opacity:1;"/>
<path d="M1.29217 41H62.7079C63.2731 39.0688 63.6635 37.0638 63.8555 35H0.14447C0.33647 37.0638 0.72697 39.0688 1.29217 41Z" fill="#F0263C" style="fill:#F0263C;fill:color(display-p3 0.9412 0.1490 0.2353);fill-opacity:1;"/>
<path d="M3.73258 47H60.2674C61.2749 45.1054 62.0942 43.097 62.7078 41H1.29218C1.90578 43.097 2.72508 45.1054 3.73258 47Z" fill="white" style="fill:white;fill-opacity:1;"/>
<path d="M7.866 53H56.134C57.7277 51.17 59.1187 49.1602 60.2674 47H3.7326C4.8813 49.1602 6.2723 51.17 7.866 53Z" fill="#F0263C" style="fill:#F0263C;fill:color(display-p3 0.9412 0.1490 0.2353);fill-opacity:1;"/>
<path d="M14.834 59H49.166C51.7693 57.3414 54.1151 55.3182 56.134 53H7.86603C9.88493 55.3182 12.2307 57.3414 14.834 59Z" fill="white" style="fill:white;fill-opacity:1;"/>
<path d="M32 64C38.3188 64 44.2046 62.1611 49.166 59H14.834C19.7954 62.1611 25.6812 64 32 64Z" fill="#F0263C" style="fill:#F0263C;fill:color(display-p3 0.9412 0.1490 0.2353);fill-opacity:1;"/>
<path d="M17.4812 18.8105L22 15.3333H16.4061L14.6667 9.746L12.9272 15.3333H7.33331L11.8522 18.8105L10 24.4127L14.6667 20.9504L19.3333 24.4127L17.4812 18.8105Z" fill="white" style="fill:white;fill-opacity:1;"/>
</g>
<defs>
<clipPath id="clip0_6_1772">
<rect width="64" height="64" fill="white" style="fill:white;fill-opacity:1;"/>
</clipPath>
</defs>
</svg>
