<svg width="64" height="64" viewBox="0 0 64 64" fill="none" xmlns="http://www.w3.org/2000/svg">
<g clip-path="url(#clip0_6_1787)">
<path d="M62.1719 42.6667H1.828C6.2218 55.0939 18.068 64 32 64C45.932 64 57.7782 55.0939 62.1719 42.6667Z" fill="#619B27" style="fill:#619B27;fill:color(display-p3 0.3804 0.6078 0.1529);fill-opacity:1;"/>
<path d="M1.828 21.3333C0.6482 24.6705 0 28.2588 0 32C0 35.7412 0.6482 39.3295 1.828 42.6667H62.1719C63.3518 39.3296 64 35.7412 64 32C64 28.2588 63.3518 24.6705 62.1719 21.3333H1.828Z" fill="white" style="fill:white;fill-opacity:1;"/>
<path d="M1.828 21.3333H62.1719C57.7782 8.9061 45.9319 0 32 0C18.0681 0 6.2218 8.9061 1.828 21.3333Z" fill="#191977" style="fill:#191977;fill:color(display-p3 0.0980 0.0980 0.4667);fill-opacity:1;"/>
<path d="M40 36H38.6667L34 32L36 28V25.3333L34.6667 22.6666L32 21.3333L29.3333 22.6666L28 25.3333V28L30 32L25.3333 36H24L22.6667 38.6667L24 40L29.3333 41.3333H34.6666L39.9999 40L41.3332 38.6667L40 36ZM33.3333 28H34.6666L33.3333 25.3333V22.6666L34.6666 25.3333V28L33.3333 30.6667V28ZM29.3333 28V25.3333L30.6666 22.6666V25.3333L29.3333 28H30.6666V30.6667L29.3333 28ZM24 37.3333H26.6667L24 38.6666V37.3333ZM25.3333 38.6666H28L26.6667 39.9999L25.3333 38.6666ZM28 39.9999L29.3333 38.6666L30.6666 39.9999H28ZM30.6667 38.6666H33.3334L32.0001 39.9999L30.6667 38.6666ZM33.3334 39.9999L34.6667 38.6666L36 39.9999H33.3334ZM37.3334 39.9999L36.0001 38.6666H38.6668L37.3334 39.9999ZM40.0001 38.6666L37.3334 37.3333H40.0001V38.6666Z" fill="black" style="fill:black;fill-opacity:1;"/>
</g>
<defs>
<clipPath id="clip0_6_1787">
<rect width="64" height="64" fill="white" style="fill:white;fill-opacity:1;"/>
</clipPath>
</defs>
</svg>
