<svg width="64" height="64" viewBox="0 0 64 64" fill="none" xmlns="http://www.w3.org/2000/svg">
<g clip-path="url(#clip0_6_1818)">
<path d="M32 0C28.2588 0 24.6705 0.6482 21.3333 1.8281V62.172C24.6704 63.3519 28.2588 64 32 64C35.7412 64 39.3295 63.3518 42.6667 62.172V1.8281C39.3295 0.6482 35.7412 0 32 0Z" fill="#FFD400" style="fill:#FFD400;fill:color(display-p3 1.0000 0.8314 0.0000);fill-opacity:1;"/>
<path d="M42.6667 1.82809V62.172C55.0939 57.7782 64 45.932 64 32C64 18.068 55.0939 6.22179 42.6667 1.82809Z" fill="#F0263C" style="fill:#F0263C;fill:color(display-p3 0.9412 0.1490 0.2353);fill-opacity:1;"/>
<path d="M0 32C0 45.932 8.9061 57.7782 21.3333 62.172V1.82809C8.9061 6.22179 0 18.0681 0 32Z" fill="#2D25C5" style="fill:#2D25C5;fill:color(display-p3 0.1765 0.1451 0.7725);fill-opacity:1;"/>
<path d="M24 40L25.7778 37.3333H24V40Z" fill="#CC9500" style="fill:#CC9500;fill:color(display-p3 0.8000 0.5843 0.0000);fill-opacity:1;"/>
<path d="M40 40V32.8888L37.7544 36.6316L40 40Z" fill="#CC9500" style="fill:#CC9500;fill:color(display-p3 0.8000 0.5843 0.0000);fill-opacity:1;"/>
<path d="M37.3332 30.6667L36.6666 34.6667L37.1666 35.6667L39.9999 31.6191V29.3333V24L38.6666 21.3333L35.9999 22.6667V24L34.6666 25.3333H37.3332V30.6667Z" fill="#CC9500" style="fill:#CC9500;fill:color(display-p3 0.8000 0.5843 0.0000);fill-opacity:1;"/>
<path d="M24.6667 32H26.6667L25.3333 33.3333H26.6667L25.3333 34.6667L26.6667 36L27.3333 34.6667L26.6667 30.6667V25.3333H29.3333L28 24V22.6667L25.3333 21.3333L24 24V30.6667L25.3333 29.3333L24.6667 32Z" fill="#CC9500" style="fill:#CC9500;fill:color(display-p3 0.8000 0.5843 0.0000);fill-opacity:1;"/>
<path d="M34.6667 25.3333L33.3333 24V22.6667L34.6667 21.3333L32 20H30.6667V21.3333V24L29.3333 25.3333H32H34.6667Z" fill="#CC9500" style="fill:#CC9500;fill:color(display-p3 0.8000 0.5843 0.0000);fill-opacity:1;"/>
<path d="M24 36V37.3333L25.3333 36H24Z" fill="#CC9500" style="fill:#CC9500;fill:color(display-p3 0.8000 0.5843 0.0000);fill-opacity:1;"/>
<path d="M31 36.6667L30 38.6667L28 40L29.3333 41.3333L30.6667 40L31.3333 38.6667V40L30.6667 41.3333L32 42.6667L33.3333 41.3333L32.6667 40V38.6667L33.3333 40L34.6667 41.3333L36 40L34 38.6667L33 36.6667L32 37.3333L31 36.6667Z" fill="#CC9500" style="fill:#CC9500;fill:color(display-p3 0.8000 0.5843 0.0000);fill-opacity:1;"/>
<path d="M35.3333 35.3333L34 36L36 37.3333L36.549 36.549L35.3333 35.3333Z" fill="#F0263C" style="fill:#F0263C;fill:color(display-p3 0.9412 0.1490 0.2353);fill-opacity:1;"/>
<path d="M36 38.6667H38.6667L37.3333 37.3333H36V38.6667Z" fill="#F0263C" style="fill:#F0263C;fill:color(display-p3 0.9412 0.1490 0.2353);fill-opacity:1;"/>
<path d="M25.3333 38.6667H28V37.3333H26.6667L25.3333 38.6667Z" fill="#F0263C" style="fill:#F0263C;fill:color(display-p3 0.9412 0.1490 0.2353);fill-opacity:1;"/>
<path d="M28 36V37.3333L30 36L28.6667 35.3333L28 36Z" fill="#F0263C" style="fill:#F0263C;fill:color(display-p3 0.9412 0.1490 0.2353);fill-opacity:1;"/>
<path d="M26.6666 30.6667H27.3332L27.9999 30L29.3332 30.6667H29.9999L30.6666 29.3333L27.9999 28V26.6667L29.3332 25.3333H26.6666V30.6667Z" fill="#F0263C" style="fill:#F0263C;fill:color(display-p3 0.9412 0.1490 0.2353);fill-opacity:1;"/>
<path d="M32 29.3333L34.6667 28V25.3333H32L33.3333 26.6667L32 28L30.6667 26.6667L32 25.3333H29.3333V28L32 29.3333Z" fill="#F0263C" style="fill:#F0263C;fill:color(display-p3 0.9412 0.1490 0.2353);fill-opacity:1;"/>
<path d="M36 28L33.3333 29.3333L34 30.6667H34.6666L36 30L36.6666 30.6667H37.3333V25.3333H34.6666L36 26.6667V28Z" fill="#F0263C" style="fill:#F0263C;fill:color(display-p3 0.9412 0.1490 0.2353);fill-opacity:1;"/>
<path d="M33.9999 34L35.3332 32.6667L36.6666 34H35.3332V35.3333L36.6666 34.6667L37.3332 30.6667H36.6666L35.9999 31.3333L34.6666 30.6667H33.9999L34.6666 32H32.6666V33.3333L33.3332 34.6667L31.9999 36L30.6666 34.6667L31.3332 33.3333V32H29.3332L29.9999 30.6667H29.3332L27.9999 31.3333L27.3332 30.6667H26.6666L27.3332 34.6667L27.7777 34.8888L27.9999 34.6667V35L28.6666 35.3333L29.9999 36L30.9999 36.6667L31.9999 37.3333L32.9999 36.6667L33.9999 36L35.3332 35.3333L33.9999 34Z" fill="#2D25C5" style="fill:#2D25C5;fill:color(display-p3 0.1765 0.1451 0.7725);fill-opacity:1;"/>
<path d="M31.9999 25.3334L30.6666 26.6667L31.9999 28L33.3333 26.6667L31.9999 25.3334Z" fill="#FFD400" style="fill:#FFD400;fill:color(display-p3 1.0000 0.8314 0.0000);fill-opacity:1;"/>
<path d="M27.3333 30.6667L28 31.3333L29.3333 30.6667L28 30L27.3333 30.6667Z" fill="#FFD400" style="fill:#FFD400;fill:color(display-p3 1.0000 0.8314 0.0000);fill-opacity:1;"/>
<path d="M36.6667 34L35.3333 32.6667L34 34L35.3333 35.3333V34H36.6667Z" fill="#FFD400" style="fill:#FFD400;fill:color(display-p3 1.0000 0.8314 0.0000);fill-opacity:1;"/>
<path d="M34.6666 30.6667L35.9999 31.3333L36.6666 30.6667L35.9999 30L34.6666 30.6667Z" fill="#FFD400" style="fill:#FFD400;fill:color(display-p3 1.0000 0.8314 0.0000);fill-opacity:1;"/>
<path d="M28 28L30.6667 29.3333L30 30.6667L29.3333 32H31.3333V33.3333L30.6667 34.6667L32 36L33.3333 34.6667L32.6667 33.3333V32H34.6667L34 30.6667L33.3333 29.3333L36 28V26.6667L34.6667 25.3333V28L32 29.3333L29.3333 28V25.3333L28 26.6667V28Z" fill="#FFD400" style="fill:#FFD400;fill:color(display-p3 1.0000 0.8314 0.0000);fill-opacity:1;"/>
<path d="M28 35V34.6667L27.7778 34.8888L26.6667 36L25.3333 34.6667L26.6667 33.3333H25.3333L26.6667 32H24.6667L25.3333 29.3333L24 30.6667H21.3333L24 33.3333L21.4925 33.3415L24 34.6667L22.6667 36H24H25.3333L24 37.3333H25.7778H26.6667H28V36V35Z" fill="#619B27" style="fill:#619B27;fill:color(display-p3 0.3804 0.6078 0.1529);fill-opacity:1;"/>
<path d="M42.6667 30.6667L41.3333 28L40 29.3333L40.6667 30.6667L40 31.6191L37.1667 35.6667L36.549 36.549L36 37.3333H37.3333L37.7544 36.6316L40 32.8888L41.3333 30.6667H42.6667Z" fill="#FFAD66" style="fill:#FFAD66;fill:color(display-p3 1.0000 0.6784 0.4000);fill-opacity:1;"/>
<path d="M29.3333 21.3333H30.6667V20L29.3333 21.3333Z" fill="#F0263C" style="fill:#F0263C;fill:color(display-p3 0.9412 0.1490 0.2353);fill-opacity:1;"/>
<path d="M27 33.5573L25.5858 34.9715L27 36.3857L28.4142 34.9715L27 33.5573Z" fill="#FFD400" style="fill:#FFD400;fill:color(display-p3 1.0000 0.8314 0.0000);fill-opacity:1;"/>
</g>
<defs>
<clipPath id="clip0_6_1818">
<rect width="64" height="64" fill="white" style="fill:white;fill-opacity:1;"/>
</clipPath>
</defs>
</svg>
