<svg width="64" height="64" viewBox="0 0 64 64" fill="none" xmlns="http://www.w3.org/2000/svg">
<g clip-path="url(#clip0_6_1885)">
<path d="M42.6156 33.009C42.647 32.6765 42.6667 32.3405 42.6667 32C42.6667 31.6595 42.647 31.3235 42.6156 30.991L63.8534 28.9724C63.5118 25.3341 62.5582 21.8758 61.1013 18.6947L41.6908 27.5693C41.4082 26.9538 41.0705 26.3702 40.6808 25.8241L58.0691 13.4533C53.1528 6.55561 45.5749 1.68681 36.8284 0.363007L33.3183 21.4236C32.8854 21.3699 32.4473 21.3333 32 21.3333C31.5527 21.3333 31.1147 21.3698 30.6817 21.4236L27.1716 0.363007C18.4251 1.68681 10.8472 6.55561 5.93091 13.4534L23.3192 25.8242C22.9296 26.3703 22.5919 26.9538 22.3092 27.5694L2.89881 18.6947C1.44191 21.8758 0.488206 25.334 0.146606 28.9723L21.3844 30.9909C21.353 31.3234 21.3333 31.6594 21.3333 31.9999C21.3333 32.3404 21.353 32.6764 21.3844 33.0089L0.146606 35.0277C0.488206 38.666 1.44181 42.1243 2.89871 45.3054L22.3092 36.4308C22.5918 37.0463 22.9295 37.6299 23.3192 38.176L5.93091 50.5468C10.8472 57.4446 18.4251 62.3134 27.1715 63.6372L30.6816 42.5766C31.1145 42.6303 31.5526 42.6669 31.9999 42.6669C32.4472 42.6669 32.8852 42.6304 33.3182 42.5766L36.8283 63.6372C45.5748 62.3134 53.1526 57.4446 58.0689 50.5468L40.6806 38.176C41.0702 37.6299 41.4079 37.0464 41.6906 36.4308L61.1011 45.3054C62.558 42.1243 63.5116 38.6661 63.8532 35.0277L42.6156 33.009Z" fill="#F0263C" style="fill:#F0263C;fill:color(display-p3 0.9412 0.1490 0.2353);fill-opacity:1;"/>
<path d="M32 42.6667C31.5527 42.6667 31.1147 42.6302 30.6817 42.5764L27.1716 63.637C28.7465 63.8754 30.3587 64 32 64C33.6413 64 35.2535 63.8754 36.8284 63.637L33.3183 42.5764C32.8854 42.6301 32.4473 42.6667 32 42.6667Z" fill="#FFD400" style="fill:#FFD400;fill:color(display-p3 1.0000 0.8314 0.0000);fill-opacity:1;"/>
<path d="M32 21.3333C32.4473 21.3333 32.8853 21.3698 33.3183 21.4236L36.8284 0.363C35.2535 0.1246 33.6414 0 32 0C30.3586 0 28.7465 0.1246 27.1716 0.363L30.6817 21.4236C31.1146 21.3699 31.5527 21.3333 32 21.3333Z" fill="#FFD400" style="fill:#FFD400;fill:color(display-p3 1.0000 0.8314 0.0000);fill-opacity:1;"/>
<path d="M42.6667 32C42.6667 32.3406 42.647 32.6765 42.6156 33.009L63.8534 35.0276C63.947 34.0305 64 33.0215 64 31.9999C64 30.9783 63.947 29.9693 63.8534 28.9722L42.6156 30.9908C42.647 31.3233 42.6667 31.6595 42.6667 32Z" fill="#FFD400" style="fill:#FFD400;fill:color(display-p3 1.0000 0.8314 0.0000);fill-opacity:1;"/>
<path d="M21.3333 32C21.3333 31.6594 21.353 31.3235 21.3844 30.991L0.1466 28.9723C0.053 29.9694 0 30.9784 0 32C0 33.0216 0.053 34.0306 0.1466 35.0277L21.3844 33.0091C21.353 32.6766 21.3333 32.3405 21.3333 32Z" fill="#FFD400" style="fill:#FFD400;fill:color(display-p3 1.0000 0.8314 0.0000);fill-opacity:1;"/>
<path d="M40.6807 38.1759L58.069 50.5467C59.2374 48.9073 60.2544 47.1542 61.1012 45.3054L41.6907 36.4308C41.4081 37.0463 41.0704 37.6298 40.6807 38.1759Z" fill="#FFD400" style="fill:#FFD400;fill:color(display-p3 1.0000 0.8314 0.0000);fill-opacity:1;"/>
<path d="M23.3193 25.8241L5.93088 13.4534C4.76248 15.0928 3.74548 16.8459 2.89868 18.6947L22.3092 27.5693C22.5918 26.9538 22.9296 26.3702 23.3193 25.8241Z" fill="#FFD400" style="fill:#FFD400;fill:color(display-p3 1.0000 0.8314 0.0000);fill-opacity:1;"/>
<path d="M41.6907 27.5693L61.1012 18.6947C60.2544 16.8459 59.2374 15.0928 58.069 13.4534L40.6807 25.8242C41.0703 26.3703 41.408 26.9537 41.6907 27.5693Z" fill="#FFD400" style="fill:#FFD400;fill:color(display-p3 1.0000 0.8314 0.0000);fill-opacity:1;"/>
<path d="M22.3093 36.4307L2.8988 45.3053C3.7456 47.1541 4.7626 48.9072 5.931 50.5466L23.3193 38.1758C22.9297 37.6297 22.592 37.0463 22.3093 36.4307Z" fill="#FFD400" style="fill:#FFD400;fill:color(display-p3 1.0000 0.8314 0.0000);fill-opacity:1;"/>
<path d="M32 40C36.4183 40 40 36.4183 40 32C40 27.5817 36.4183 24 32 24C27.5817 24 24 27.5817 24 32C24 36.4183 27.5817 40 32 40Z" fill="#FFD400" style="fill:#FFD400;fill:color(display-p3 1.0000 0.8314 0.0000);fill-opacity:1;"/>
</g>
<defs>
<clipPath id="clip0_6_1885">
<rect width="64" height="64" fill="white" style="fill:white;fill-opacity:1;"/>
</clipPath>
</defs>
</svg>
