<svg width="64" height="64" viewBox="0 0 64 64" fill="none" xmlns="http://www.w3.org/2000/svg">
<g clip-path="url(#clip0_6_1901)">
<path d="M23.9676 36.8307L10.9708 27.388H27.0357L29.003 21.3333H1.8281C0.6482 24.6705 0 28.2588 0 32C0 35.7412 0.6482 39.3295 1.8281 42.6667H22.0714L23.9676 36.8307Z" fill="#619B27" style="fill:#619B27;fill:color(display-p3 0.3804 0.6078 0.1529);fill-opacity:1;"/>
<path d="M62.1719 21.3333H34.997L36.9643 27.388H53.0292L40.0324 36.8307L41.9286 42.6666H62.1719C63.3518 39.3295 64 35.7411 64 31.9999C64 28.2587 63.3518 24.6705 62.1719 21.3333Z" fill="#619B27" style="fill:#619B27;fill:color(display-p3 0.3804 0.6078 0.1529);fill-opacity:1;"/>
<path d="M32 12.1094L34.997 21.3334H62.1719C57.7782 8.9061 45.9319 0 32 0C18.0681 0 6.22179 8.9061 1.82809 21.3333H29.003L32 12.1094Z" fill="#FFD400" style="fill:#FFD400;fill:color(display-p3 1.0000 0.8314 0.0000);fill-opacity:1;"/>
<path d="M44.9968 52.1094L32 42.6667L19.0032 52.1094L22.0714 42.6667H1.82809C6.22189 55.0939 18.0681 64 32 64C45.9319 64 57.7782 55.0939 62.1719 42.6667H41.9286L44.9968 52.1094Z" fill="#F0263C" style="fill:#F0263C;fill:color(display-p3 0.9412 0.1490 0.2353);fill-opacity:1;"/>
<path d="M29.003 21.3333L27.0357 27.388H10.9707L23.9676 36.8307L22.0714 42.6667L19.0032 52.1094L32 42.6667L44.9968 52.1094L41.9286 42.6667L40.0324 36.8307L53.0293 27.388H36.9643L34.997 21.3333L32 12.1094L29.003 21.3333Z" fill="white" style="fill:white;fill-opacity:1;"/>
</g>
<defs>
<clipPath id="clip0_6_1901">
<rect width="64" height="64" fill="white" style="fill:white;fill-opacity:1;"/>
</clipPath>
</defs>
</svg>
