<?xml version="1.0" encoding="UTF-8"?>
<svg version="1.1" xmlns="http://www.w3.org/2000/svg" width="512" height="512">
<path d="M0 0 C2.05271907 -0.00542721 4.10543423 -0.01255322 6.15814209 -0.02124023 C11.70773707 -0.03940513 17.25703309 -0.03243427 22.806633 -0.01972389 C28.62842077 -0.00956077 34.45018382 -0.01899875 40.27197266 -0.02526855 C50.04659598 -0.03253532 59.82109821 -0.02298271 69.59570312 -0.00390625 C80.87873604 0.01786053 92.16147978 0.01080848 103.44450569 -0.01121187 C113.15100127 -0.02939351 122.85741005 -0.03191067 132.56391716 -0.0214572 C138.35281994 -0.01523748 144.14158702 -0.01434471 149.93048096 -0.02760315 C155.37418328 -0.03920123 160.8175146 -0.03106358 166.26117706 -0.00802612 C168.25290564 -0.00276016 170.2446657 -0.00421637 172.23638153 -0.01307678 C186.87930782 -0.07218669 198.54333907 0.91630268 209.6484375 11.51757812 C220.66388274 23.05652968 221.22455926 35.20974976 221.0390625 50.31054688 C221.03158803 52.11085884 221.02590081 53.91117902 221.02191162 55.71150208 C221.00675008 60.41503973 220.96755185 65.11807133 220.9230957 69.82141113 C220.88193666 74.6347774 220.86385684 79.44822665 220.84375 84.26171875 C220.8010469 93.68055903 220.73291268 103.09902624 220.6484375 112.51757812 C221.49547241 112.51204737 221.49547241 112.51204737 222.35961914 112.50640488 C236.12360439 112.41792297 249.88753956 112.35206074 263.65174866 112.31032944 C270.30815696 112.28946877 276.96430514 112.26117841 283.62060547 112.21582031 C290.04616309 112.17230936 296.47152321 112.14842954 302.8972168 112.13806915 C305.34679269 112.13068731 307.79635796 112.11627232 310.24584961 112.0946579 C313.68106311 112.06555524 317.11546399 112.06162515 320.55078125 112.06347656 C321.55995102 112.04909546 322.56912079 112.03471436 323.60887146 112.01989746 C330.95704908 112.06265562 336.31171046 113.59358213 341.890625 118.48242188 C342.69886719 119.45888672 342.69886719 119.45888672 343.5234375 120.45507812 C344.07773437 121.10347656 344.63203125 121.751875 345.203125 122.41992188 C348.93483669 127.83594667 348.84158904 132.43451784 348.57055664 138.77636719 C348.50812889 140.69652159 348.4467413 142.61671002 348.38624573 144.53692627 C348.35150209 145.55318336 348.31675846 146.56944046 348.28096199 147.61649323 C348.07869325 154.19488493 348.0053363 160.77628739 347.9085474 167.35692215 C347.8166645 173.11153969 347.68083936 178.85823648 347.44506836 184.60888672 C345.21968197 213.44910679 345.21968197 213.44910679 356.63232708 238.63784409 C360.72178539 242.8289839 365.26048036 246.418323 370.00221443 249.83961773 C378.04874925 255.76210425 383.71287748 264.50123877 387.9609375 273.45507812 C388.28650635 274.1232959 388.6120752 274.79151367 388.94750977 275.47998047 C402.80813012 304.74321954 395.84844955 336.39379512 390.45001221 366.85626221 C389.79528289 370.58633187 389.16501868 374.32035866 388.53521442 378.05470467 C387.91644644 381.71292036 387.28669756 385.36917752 386.65337181 389.02489853 C386.3565371 390.7409217 386.06192814 392.45733175 385.7698307 394.17416763 C383.3872701 408.08936794 380.40047788 421.69475618 374.5703125 434.62304688 C364.24375501 457.67975713 365.38276991 468.61294648 364.6484375 496.51757812 C327.6884375 496.51757812 290.7284375 496.51757812 252.6484375 496.51757812 C252.3184375 483.97757812 251.9884375 471.43757813 251.6484375 458.51757812 C249.14972981 450.7317498 247.02681199 444.13801363 243.69628906 436.9140625 C237.08085522 421.7842632 236.2935345 405.07735312 236.3984375 388.83007812 C236.40109619 387.64375793 236.40109619 387.64375793 236.40380859 386.43347168 C236.43397616 374.98429952 236.96787188 363.86139603 238.6484375 352.51757812 C232.7084375 352.51757812 226.7684375 352.51757812 220.6484375 352.51757812 C220.66938477 353.94432861 220.69033203 355.3710791 220.71191406 356.84106445 C220.78477151 362.17673554 220.83040293 367.51236338 220.86816406 372.84838867 C220.88817577 375.1498964 220.91539381 377.45135395 220.95019531 379.75268555 C220.99917449 383.07678674 221.02151151 386.40021089 221.0390625 389.72460938 C221.07003021 391.24717094 221.07003021 391.24717094 221.10162354 392.80049133 C221.10511455 404.12644951 217.48166585 413.31207754 209.6484375 421.51757812 C199.7741313 430.94390068 189.33875001 433.12847055 176.00708008 432.97167969 C174.68874176 432.97226379 173.37040344 432.9728479 172.01211548 432.97344971 C168.43207826 432.97458742 164.85258793 432.95123339 161.27267671 432.92315388 C157.51845791 432.8979809 153.76422364 432.8957858 150.00993347 432.89105225 C142.91636193 432.87866879 135.82303989 432.84591069 128.72957772 432.80565429 C120.64728686 432.76079148 112.56498347 432.73891324 104.4825989 432.71887255 C87.87106622 432.67717329 71.2597838 432.60691247 54.6484375 432.51757812 C54.50148437 433.13761719 54.35453125 433.75765625 54.203125 434.39648438 C52.0356966 442.9540896 49.01842738 450.09260343 45.6484375 458.51757812 C45.3184375 471.05757813 44.9884375 483.59757812 44.6484375 496.51757812 C7.6884375 496.51757812 -29.2715625 496.51757812 -67.3515625 496.51757812 C-67.6815625 483.97757812 -68.0115625 471.43757813 -68.3515625 458.51757812 C-72.83359433 445.78574291 -72.83359433 445.78574291 -78.0546875 433.35351562 C-86.64645809 414.32514721 -88.85295492 392.59841163 -92.28295898 372.16674805 C-92.86544053 368.70228088 -93.46205288 365.24073799 -94.07202148 361.78100586 C-100.28145228 326.52272427 -104.81126427 293.57568031 -84.0390625 262.26757812 C-81.36622614 258.66193982 -78.47326012 255.29528859 -75.4765625 251.95507812 C-74.84083832 251.22513988 -74.84083832 251.22513988 -74.19227123 250.4804554 C-71.38287156 247.36871179 -68.64324956 244.97480958 -65.09577942 242.72994995 C-58.31807038 238.01606481 -52.94315445 232.63848499 -51.39583969 224.26459503 C-49.75853508 212.08499045 -50.30299871 199.62787101 -50.55766273 187.3760972 C-50.65148129 181.93490361 -50.64445258 176.49383847 -50.6476593 171.05197144 C-50.66805399 160.75837571 -50.77130553 150.4674866 -50.90802366 140.17484367 C-51.10547087 125.0752077 -51.19135352 109.97483786 -51.2604723 94.87412834 C-51.26558329 93.76327751 -51.27069428 92.65242668 -51.27596015 91.50791371 C-51.28608257 89.29215965 -51.2959495 87.0764044 -51.30555373 84.86064804 C-51.33655464 78.39948872 -51.39645891 71.93942539 -51.4819721 65.47876287 C-51.53257495 61.45653933 -51.56745369 57.43426974 -51.5994072 53.41185951 C-51.61794825 51.55548697 -51.64355324 49.69916859 -51.67696953 47.84300423 C-51.93042091 33.55346978 -50.68313986 22.34016114 -40.3515625 11.51757812 C-28.40011162 0.10834808 -15.61524809 -0.06946649 0 0 Z " fill="#000000" transform="translate(107.3515625,7.482421875)"/>
<path d="M0 0 C0.82279961 -0.00382555 1.64559922 -0.00765109 2.49333215 -0.01159257 C5.24840716 -0.02190523 8.0032731 -0.01793367 10.75836182 -0.01396179 C12.7346211 -0.01830931 14.7108787 -0.02349259 16.68713379 -0.02944946 C22.05505837 -0.04284864 27.42291259 -0.04341694 32.79085064 -0.04088616 C37.27379112 -0.03981675 41.75671735 -0.04469924 46.23965478 -0.04949158 C56.81881796 -0.06059066 67.39794563 -0.06102239 77.97711182 -0.05497742 C88.88397033 -0.04894087 99.79069974 -0.06123965 110.69753623 -0.08254749 C120.0658614 -0.10017545 129.43414552 -0.10616282 138.80248666 -0.10290974 C144.39578271 -0.10109813 149.98898674 -0.10372065 155.58226776 -0.11762428 C160.84524462 -0.13021682 166.10802072 -0.12824491 171.37099457 -0.11521339 C173.29906279 -0.11285092 175.22714519 -0.11557049 177.15519714 -0.12383652 C179.79477662 -0.13433392 182.43368622 -0.12617939 185.07324219 -0.11352539 C185.82958757 -0.12089968 186.58593296 -0.12827396 187.3651979 -0.13587171 C193.66875736 -0.07264551 199.7847527 1.21714204 205.06011963 4.80366516 C205.82388916 5.61770813 205.82388916 5.61770813 206.60308838 6.44819641 C207.38619385 7.24290344 207.38619385 7.24290344 208.18511963 8.05366516 C214.13396467 16.23151784 214.36667292 23.05489994 214.30525208 32.93632507 C214.31058144 34.43341207 214.31764938 35.93049372 214.32629913 37.42756522 C214.34490204 41.52907114 214.33862967 45.6302154 214.3281461 49.73173618 C214.32114733 54.1599446 214.33715722 58.58807923 214.35014343 63.01626587 C214.37177786 71.68675864 214.37165788 80.35712014 214.36351789 89.02763103 C214.35721587 96.07589945 214.35835678 103.1241296 214.36478996 110.17239761 C214.36569162 111.1758826 214.36659327 112.17936758 214.36752225 113.21326119 C214.36937347 115.25190262 214.37123603 117.29054404 214.37310981 119.32918544 C214.38968657 138.44389837 214.38097037 157.55853749 214.36412423 176.67324598 C214.34942985 194.15476721 214.36405223 211.63611653 214.39289439 229.11761563 C214.42229882 247.07383299 214.43325746 265.02997104 214.42371219 282.98621142 C214.42268966 285.01792882 214.42169505 287.04964624 214.42072868 289.08136368 C214.42025229 290.08096868 214.4197759 291.08057369 214.41928508 292.11046975 C214.4171222 299.14760977 214.42691842 306.1846746 214.44149971 313.22179794 C214.45902997 321.80174867 214.4588958 330.38148029 214.43614805 338.96142243 C214.42501176 343.33742689 214.42182932 347.71304542 214.44044876 352.08903313 C214.45728989 356.0987428 214.45085398 360.10773104 214.42623197 364.11739428 C214.42136009 365.56415751 214.42483327 367.01097934 214.43771941 368.45769338 C214.51628123 377.96764055 213.66462746 385.88258189 207.06452662 393.1652683 C199.6423453 400.33710147 191.11479672 400.69322101 181.315979 400.60127258 C180.0858609 400.60171066 178.8557428 400.60214874 177.58834839 400.6026001 C174.2374681 400.60087608 170.8871518 400.58589783 167.53637123 400.56487823 C164.02636015 400.54604245 160.51634044 400.54435558 157.00628662 400.540802 C150.36952911 400.53150169 143.73292099 400.50691546 137.09622908 400.47675353 C129.53635363 400.44314652 121.97647082 400.42670773 114.41653919 400.41166723 C98.87446689 400.38036389 83.33255283 400.32703406 67.79058838 400.26069641 C68.28558838 392.34069641 68.28558838 392.34069641 68.79058838 384.26069641 C70.39385986 384.25658752 71.99713135 384.25247864 73.64898682 384.24824524 C79.64295848 384.22634185 85.63628416 384.17193514 91.62994385 384.10810852 C94.21549247 384.08502615 96.80113381 384.07055594 99.38677979 384.06513977 C103.12092224 384.05577921 106.85362565 384.01462944 110.58746338 383.96772766 C111.72858582 383.97166031 112.86970825 383.97559296 114.04541016 383.97964478 C123.5509958 383.80993636 131.07788484 381.14068191 139.16558838 376.19819641 C145.78728538 368.78820215 149.16663814 359.82064864 149.07574463 349.99116516 C148.57518308 345.19811689 146.23689593 342.53169396 142.72808838 339.44819641 C138.82122784 337.05366899 135.41696197 337.11093467 130.93243408 337.05537415 C130.23949249 337.04547455 129.5465509 337.03557495 128.83261108 337.02537537 C126.5438986 336.99380681 124.25516536 336.96902138 121.96636963 336.94429016 C120.37881432 336.92371662 118.79126444 336.90272004 117.20372009 336.88131714 C113.0264221 336.8261378 108.84907501 336.77671029 104.67169189 336.72846985 C100.40854526 336.67822461 96.14546988 336.62255432 91.88238525 336.56733704 C83.51851158 336.45980605 75.15457735 336.35885122 66.79058838 336.26069641 C66.79058838 330.98069641 66.79058838 325.70069641 66.79058838 320.26069641 C69.00686447 320.25189705 69.00686447 320.25189705 71.26791382 320.24291992 C85.18762487 320.18572347 99.10719004 320.11315477 113.02673531 320.0249815 C120.18303071 319.98004397 127.33927658 319.94062467 134.4956665 319.91426086 C140.73425012 319.89126415 146.97267671 319.85784759 153.21113575 319.81199485 C156.51342331 319.78808486 159.81552265 319.7708959 163.11789322 319.7630825 C166.80736698 319.7534687 170.49627342 319.72544032 174.18560791 319.69306946 C175.27677414 319.69450455 176.36794037 319.69593964 177.49217224 319.69741821 C182.98944886 319.62914337 187.08152207 319.43202295 191.79058838 316.26069641 C195.60829136 312.13344994 196.9130894 309.08455486 196.92480946 303.51983166 C196.93149622 302.04817099 196.93149622 302.04817099 196.93831807 300.54677981 C196.93813371 299.46625458 196.93794935 298.38572935 196.9377594 297.27246094 C196.94143609 296.12665284 196.94511278 294.98084475 196.94890088 293.8003152 C196.95802846 290.61482823 196.96263756 287.42937153 196.96529019 284.24387372 C196.96919334 280.81023363 196.97877157 277.37660847 196.98750305 273.94297791 C197.00726572 265.64898992 197.01733278 257.35500072 197.02623084 249.06099507 C197.0306135 245.15617987 197.03598031 241.25136602 197.04121971 237.3465519 C197.05823073 224.36824544 197.07272575 211.38993984 197.07996845 198.41162395 C197.08187837 195.04368781 197.0837987 191.67575167 197.08575439 188.30781555 C197.08623813 187.47072317 197.08672187 186.63363078 197.08722027 185.77117196 C197.0955238 172.20536813 197.12086669 158.63965237 197.15333507 145.07388701 C197.18638986 131.14974848 197.20441572 117.22565475 197.20761269 103.30147678 C197.20977911 95.48207404 197.21854704 87.66279982 197.24407387 79.84343529 C197.26575921 73.18539864 197.27384198 66.52752171 197.26410709 59.86945375 C197.2595562 56.47219268 197.26149378 53.07526132 197.28086853 49.67804527 C197.29847614 45.99504381 197.29153518 42.31288382 197.27833557 38.62988281 C197.28930482 37.55604975 197.30027406 36.48221669 197.31157571 35.37584323 C197.25923886 29.34412765 196.80645838 25.85889407 192.79058838 21.26069641 C188.22858244 17.25166089 183.91478361 17.0786526 178.06011963 16.94429016 C177.30969894 16.92350906 176.55927826 16.90272797 175.78611755 16.88131714 C173.39186654 16.81599715 170.99750699 16.75701849 168.60308838 16.69819641 C166.97872825 16.65499448 165.35437905 16.61137965 163.7300415 16.56733704 C159.75033467 16.46033378 155.7705188 16.35901704 151.79058838 16.26069641 C151.53664307 17.44405579 151.28269775 18.62741516 151.02105713 19.84663391 C147.93563285 34.0965612 147.93563285 34.0965612 146.35308838 40.13569641 C146.16875244 40.85499329 145.9844165 41.57429016 145.79449463 42.31538391 C144.27072454 45.26805903 142.6024035 46.46873179 139.79058838 48.26069641 C136.78216672 48.85106263 133.82378663 48.82797327 130.76519775 48.81001282 C129.41552666 48.82534561 129.41552666 48.82534561 128.03858948 48.84098816 C125.0702337 48.86874384 122.10280833 48.86687036 119.13433838 48.86225891 C117.06837621 48.87003395 115.00241724 48.87870352 112.9364624 48.88822937 C108.60892363 48.9031452 104.28171124 48.90257714 99.9541626 48.89204407 C94.40867928 48.8804454 88.86452995 48.91433988 83.31926727 48.96073341 C79.05383497 48.99019527 74.78872464 48.99195363 70.52320862 48.98571396 C68.47865656 48.98674073 66.43408655 48.99722306 64.38963318 49.0173378 C61.53086552 49.04201615 58.67470491 49.02852264 55.815979 49.00532532 C54.97219193 49.02061279 54.12840485 49.03590027 53.25904846 49.051651 C47.6653777 48.95132482 47.6653777 48.95132482 45.16271687 46.9755249 C42.37179644 43.74181808 40.95495556 40.61534012 39.98980713 36.49507141 C39.73521729 35.44061829 39.48062744 34.38616516 39.21832275 33.29975891 C38.85190674 31.67167297 38.85190674 31.67167297 38.47808838 30.01069641 C38.2144751 28.90983704 37.95086182 27.80897766 37.67926025 26.67475891 C35.79058838 18.68837498 35.79058838 18.68837498 35.79058838 16.26069641 C30.91525752 16.30498289 26.04120536 16.37495359 21.16656494 16.46821594 C19.51009324 16.49635203 17.85348911 16.51760311 16.19683838 16.5316925 C13.80813162 16.55322532 11.42100452 16.59992396 9.03277588 16.65132141 C7.93085403 16.65316437 7.93085403 16.65316437 6.80667114 16.65504456 C1.65700562 16.80005132 -1.30282648 17.92255742 -5.20941162 21.26069641 C-9.97158274 26.69043926 -9.77382198 31.54229555 -9.71061707 38.56500244 C-9.71615146 39.70858469 -9.72168586 40.85216694 -9.72738796 42.0304032 C-9.74100887 45.8651193 -9.72601648 49.69918621 -9.71112061 53.53388977 C-9.71269596 56.28201394 -9.72025027 59.03011447 -9.72749329 61.77822876 C-9.741423 68.46946536 -9.73387142 75.16051317 -9.7188177 81.85174077 C-9.70195124 89.64566137 -9.70516872 97.43953503 -9.70891178 105.23346824 C-9.71478997 119.14158959 -9.70062096 133.0496204 -9.67596436 146.9577179 C-9.65204832 160.44961441 -9.64495835 173.94138993 -9.65545654 187.43330383 C-9.66687004 202.12784527 -9.66879012 216.82233075 -9.65435845 231.51687151 C-9.65283263 233.08432265 -9.65131227 234.65177379 -9.64979744 236.21922493 C-9.64903963 236.99042089 -9.64828181 237.76161686 -9.64750103 238.5561824 C-9.64276118 243.98716979 -9.64460756 249.41813218 -9.64886284 254.84911919 C-9.65379344 261.46972878 -9.64778777 268.09022405 -9.62796854 274.71080749 C-9.61810747 278.08793177 -9.61459068 281.46473701 -9.62086105 284.84189224 C-9.62680909 288.5045836 -9.61431688 292.16676164 -9.59709167 295.82940674 C-9.60310172 296.89438965 -9.60911177 297.95937257 -9.61530393 299.05662769 C-9.56528544 304.89761881 -9.08146816 309.12741055 -6.20941162 314.26069641 C-3.67841957 316.67214122 -3.67841957 316.67214122 -1.20941162 318.26069641 C-2.87155753 324.70349055 -5.14562612 330.85557881 -7.64691162 337.01069641 C-8.07919067 338.09145447 -8.07919067 338.09145447 -8.52020264 339.19404602 C-10.32381847 343.56157114 -12.27787523 347.50878878 -15.20941162 351.26069641 C-18.70941162 352.38569641 -18.70941162 352.38569641 -22.20941162 352.26069641 C-24.90727356 350.21772344 -26.06459441 349.01267602 -26.71080828 345.65713811 C-26.71145769 344.6605319 -26.7121071 343.66392569 -26.71277618 342.63711929 C-26.72320717 341.48456815 -26.73363816 340.33201701 -26.74438524 339.14454007 C-26.73546236 337.87763546 -26.72653947 336.61073084 -26.71734619 335.30543518 C-26.7219541 333.94649358 -26.72830628 332.58755695 -26.73625517 331.22863078 C-26.752988 327.49045854 -26.74468438 323.75269359 -26.7323103 320.01451969 C-26.72327782 315.98437777 -26.73722078 311.95430697 -26.74822998 307.92417908 C-26.76604107 300.02650297 -26.76216317 292.12897869 -26.75057942 284.23129657 C-26.74155297 277.81172947 -26.74031768 271.39220498 -26.74467468 264.97263336 C-26.74528761 264.0596159 -26.74590055 263.14659843 -26.74653205 262.20591377 C-26.74781094 260.35119574 -26.74910779 258.49647773 -26.75042242 256.64175972 C-26.76183646 239.23773369 -26.74870294 221.83379184 -26.72722095 204.42977962 C-26.70936121 189.49837632 -26.7124432 174.56709745 -26.730896 159.63569641 C-26.75230885 142.30097617 -26.76072511 124.96632985 -26.74844694 107.63159823 C-26.74717274 105.78240634 -26.74591526 103.93321444 -26.74467468 102.08402252 C-26.74405758 101.17417178 -26.74344048 100.26432104 -26.74280468 99.32689907 C-26.73935213 92.91755811 -26.74517833 86.50826405 -26.7545929 80.09893036 C-26.76581939 72.28410173 -26.76275968 64.46943379 -26.74146992 56.65462354 C-26.73096636 52.66779014 -26.72682551 48.6812245 -26.74006653 44.69439316 C-26.75201165 41.04244569 -26.7453935 37.39101339 -26.72415632 33.73911247 C-26.71759218 31.79668316 -26.73060782 29.85421791 -26.74438524 27.91182637 C-26.67031569 19.65359076 -25.65567649 14.14468007 -20.02581787 7.79975891 C-18.91013428 6.85229797 -18.91013428 6.85229797 -17.77191162 5.88569641 C-17.03070068 5.23858704 -16.28948975 4.59147766 -15.52581787 3.92475891 C-10.53847834 0.34194839 -6.00646321 -0.02966328 0 0 Z " fill="#959EA9" transform="translate(98.20941162109375,23.739303588867188)"/>
<path d="M0 0 C5.94 0 11.88 0 18 0 C18.37511719 1.37414063 18.75023438 2.74828125 19.13671875 4.1640625 C19.65285069 5.98460061 20.16982228 7.80490083 20.6875 9.625 C21.05391602 10.98044922 21.05391602 10.98044922 21.42773438 12.36328125 C23.29675858 18.84571962 25.37910986 23.25233909 30.87890625 27.42578125 C35.41487177 29.81479325 38.96979485 31.11856931 44.07171631 31.14044189 C44.87341248 31.14615204 45.67510864 31.15186218 46.50109863 31.15774536 C47.37182007 31.15886322 48.2425415 31.15998108 49.13964844 31.16113281 C50.52576324 31.16858017 50.52576324 31.16858017 51.93988037 31.17617798 C54.99638617 31.19078013 58.05284005 31.19759875 61.109375 31.203125 C63.23683676 31.20887851 65.36429851 31.21463622 67.49176025 31.22039795 C71.95381919 31.23090271 76.41586013 31.23674867 80.87792969 31.24023438 C86.58527795 31.24571479 92.29238713 31.26973552 97.99966049 31.29820633 C102.39553514 31.31686488 106.79135259 31.32204005 111.18726349 31.32357025 C113.29072627 31.32659056 115.3941882 31.33459801 117.497612 31.34775543 C120.44618208 31.36488132 123.39417329 31.36291951 126.34277344 31.35644531 C127.20539795 31.3656601 128.06802246 31.37487488 128.95678711 31.3843689 C136.00336211 31.33609751 141.26937905 29.78540601 147.25 25.875 C153.89709392 18.92576545 155.54343993 9.03663168 158 0 C163.94 0 169.88 0 176 0 C176 89.76 176 179.52 176 272 C137.39 272 98.78 272 59 272 C58.01 263.09 57.02 254.18 56 245 C55.505 242.525 55.505 242.525 55 240 C89.65 240 124.3 240 160 240 C161.47648422 217.83541916 161.47648422 217.83541916 153.21875 199.9765625 C152.6515625 199.53054687 152.084375 199.08453125 151.5 198.625 C150.9328125 198.16351563 150.365625 197.70203125 149.78125 197.2265625 C147.70850734 195.73847614 147.70850734 195.73847614 144 194 C144 177.5 144 161 144 144 C149.28 144 154.56 144 160 144 C161.41725611 137.02654084 161.58065658 130.73120062 159 124 C152.48905916 114.25523722 143.43691851 106.33643181 134.94543457 98.34936523 C132.43325199 95.9653569 129.96660302 93.53697833 127.50052738 91.10543919 C124.52893387 88.17913644 121.53368858 85.27756101 118.53515625 82.37890625 C117.97645403 81.83566774 117.41775181 81.29242924 116.84211922 80.73272896 C108.13369855 72.31680048 99.19330607 64.58276651 86.46484375 64.7890625 C70.06556193 66.19248757 57.92164645 82.21827983 46.83718967 93.01411629 C43.9167835 95.8578635 40.98097313 98.68001212 37.99829102 101.45849609 C22.45514038 114.80012809 22.45514038 114.80012809 14.97117615 132.91964722 C14.96222298 136.73361067 15.30195615 140.24837772 16 144 C21.28 144 26.56 144 32 144 C32.1978406 151.02904814 32.3429705 158.05647512 32.43945312 165.08764648 C32.47967197 167.47888415 32.5342568 169.86992524 32.60351562 172.26049805 C32.70063345 175.69889767 32.74594306 179.13469748 32.78125 182.57421875 C32.82254028 183.64210129 32.86383057 184.70998383 32.90637207 185.81022644 C32.90814737 188.75019366 32.83543415 191.17968531 32 194 C30.11609362 195.86124988 28.39832336 196.90236119 26.0032959 198.01496887 C22.11257986 199.92805441 19.8984738 203.316147 17.8828125 207.09375 C16.40618679 211.95485412 16.71553494 216.99936807 16.78515625 222.05078125 C16.73515397 224.49320016 16.6137595 226.63359153 16 229 C13.203125 231.65625 13.203125 231.65625 10 234 C6.05677985 239.60021159 4.69238461 245.30162365 3.25 251.9375 C3.02957031 252.90751953 2.80914062 253.87753906 2.58203125 254.87695312 C2.04447522 257.24921128 1.51744027 259.62328822 1 262 C0.67 262 0.34 262 0 262 C0 175.54 0 89.08 0 0 Z " fill="#68D5F3" transform="translate(104,56)"/>
<path d="M0 0 C74 0 74 0 79 3 C80.69017414 6.38034828 80.14794509 10.2198813 80.14717102 13.93855286 C80.15084771 14.87595092 80.1545244 15.81334898 80.1583125 16.77915305 C80.16938033 19.93976958 80.1731984 23.10035328 80.17700195 26.26098633 C80.1832642 28.51915085 80.18991079 30.77731434 80.19691467 33.03547668 C80.21434521 39.18425462 80.22488176 45.33302477 80.2331202 51.4818213 C80.23826538 55.32019007 80.24434129 59.1585564 80.25063133 62.99692345 C80.26750315 73.6212895 80.28213862 84.24565341 80.28938007 94.8700304 C80.29129001 97.6276277 80.29321034 100.385225 80.29516602 103.14282227 C80.29564976 103.82822111 80.2961335 104.51361995 80.2966319 105.21978845 C80.30493436 116.32582748 80.33027476 127.43175887 80.36274669 138.53775088 C80.39580265 149.93627972 80.41349458 161.33473457 80.41702431 172.73331851 C80.41937945 179.1347568 80.42840026 185.53602498 80.45348549 191.93741798 C80.47669666 197.95793407 80.48102741 203.9781672 80.47072411 209.99871635 C80.47022696 212.21066858 80.47659971 214.4226344 80.49028015 216.63454437 C80.50789084 219.65020429 80.50094606 222.66483681 80.48774719 225.68049622 C80.49871644 226.55948588 80.50968568 227.43847554 80.52098733 228.34410125 C80.47805693 232.39606337 80.30015699 234.50433665 78.1570158 238.04340649 C76 240 76 240 73 240.625 C68.93391056 239.77789803 68.33527029 238.42185009 66 235 C64.40307414 231.91909976 63.03396281 228.75968683 61.6875 225.5625 C61.29578613 224.63655029 60.90407227 223.71060059 60.50048828 222.7565918 C54.07737088 207.24516847 49.63226419 191.13930926 45.39599609 174.91723633 C42.01991969 159.79451626 42.01991969 159.79451626 31.97265625 148.71484375 C24.87083925 145.02507291 19.00423443 144.4944694 11 145 C7.37 146.65 3.74 148.3 0 150 C0 100.5 0 51 0 0 Z " fill="#B3DC7E" transform="translate(360,136)"/>
<path d="M0 0 C1.11818858 0.95681243 2.23614506 1.91389611 3.35400391 2.87109375 C3.97659088 3.40404053 4.59917786 3.9369873 5.2406311 4.48608398 C19.37455071 16.64815374 29.99464712 33.09839119 32 52 C32.51359832 64.29519838 31.45705429 75.91050887 29.3671875 88.01171875 C29.08912629 89.67951051 28.81206055 91.34746851 28.53591919 93.01557922 C27.95829815 96.48524051 27.37076589 99.95301997 26.77539062 103.41967773 C26.02548689 107.78917083 25.29799526 112.16203523 24.57697678 116.53637505 C19.92966555 144.67236353 13.79444372 169.01389069 3 196 C-25.38 196 -53.76 196 -83 196 C-97.80961743 158.97595643 -96.73301287 126.26617655 -93.60131836 87.31933594 C-93.24897792 82.93427554 -92.91838162 78.54786274 -92.59330273 74.16070747 C-92.33716407 70.73874148 -92.06921332 67.3177786 -91.79772377 63.89699936 C-91.67075369 62.27784329 -91.54756016 60.65838611 -91.42836571 59.03863907 C-91.26148739 56.79299234 -91.07851621 54.54921112 -90.89135742 52.30517578 C-90.7914299 51.03505646 -90.69150238 49.76493713 -90.58854675 48.45632935 C-89.79373319 43.78866715 -88.40010578 40.27656704 -84.875 37.0625 C-80.83169698 35.56823584 -77.0424935 35.38715585 -73 37 C-68.91426663 41.21007314 -67.09249734 44.74245232 -65.89453125 50.51171875 C-65.55294544 51.99388253 -65.21105467 53.47597606 -64.86889648 54.95800781 C-64.6971994 55.72971313 -64.52550232 56.50141846 -64.34860229 57.29650879 C-59.83658253 77.41990633 -53.74549606 96.7826163 -44.6875 115.375 C-44.38642334 115.99342773 -44.08534668 116.61185547 -43.77514648 117.24902344 C-40.79600095 122.98954788 -36.74309766 127.05482171 -31 130 C-24.46441895 131.91351033 -18.88753714 131.73393552 -12.6875 128.8125 C-6.45388624 125.36760819 -3.03408089 120.84299386 -1 114 C-0.56203784 110.24580338 -0.56241967 106.51713027 -0.56762695 102.74047852 C-0.5574353 101.62754929 -0.54724365 100.51462006 -0.53674316 99.3679657 C-0.50665125 95.70489441 -0.49735272 92.04208482 -0.48828125 88.37890625 C-0.47143181 85.83299391 -0.45328121 83.28708988 -0.43388367 80.74119568 C-0.39125408 74.73488759 -0.36170649 68.72865412 -0.33856028 62.72225088 C-0.31146038 55.88054269 -0.26755199 49.03897414 -0.22227156 42.19736588 C-0.12955369 28.13165321 -0.05781431 14.06589636 0 0 Z " fill="#EECEB2" transform="translate(456,260)"/>
<path d="M0 0 C0.00054477 0.57830755 0.00108953 1.1566151 0.00165081 1.75244713 C0.01665377 15.8595057 0.05924192 29.96625903 0.13209057 44.0731411 C0.16666353 50.89531361 0.19208592 57.71728568 0.19555664 64.53955078 C0.1989343 71.12738488 0.22835462 77.71477628 0.27343178 84.30247879 C0.28638909 86.81174407 0.29072078 89.32106965 0.28615379 91.83036423 C0.28123565 95.35409202 0.3073977 98.87635495 0.34057617 102.39990234 C0.32763771 103.94494949 0.32763771 103.94494949 0.31443787 105.52120972 C0.42539287 112.58285989 1.94258248 118.14109993 6 124 C11.70821191 129.35428628 16.48025668 131.37258459 24.30078125 131.28125 C31.39377851 130.54218227 36.32673767 127.24911455 41 122 C42.39097377 119.74956276 43.59858571 117.61426166 44.75 115.25 C45.08725098 114.55793457 45.42450195 113.86586914 45.77197266 113.15283203 C52.1430605 99.65337698 56.89245041 85.5873879 60.6171875 71.15234375 C60.83720428 70.30009216 61.05722107 69.44784058 61.28390503 68.56976318 C62.37523476 64.31070253 63.43683754 60.04636186 64.46240234 55.77099609 C64.85509494 54.18716251 65.24783377 52.60334038 65.640625 51.01953125 C65.8049704 50.29861801 65.9693158 49.57770477 66.13864136 48.83494568 C67.41556305 43.75705352 69.3498572 40.77351677 73 37 C76.50942145 35.24528928 80.2879988 36.05116377 84 37 C87.24044458 39.56535196 88.69560167 41.086805 90 45 C90.26055544 47.31746866 90.47430848 49.64028233 90.66430664 51.96459961 C90.72297409 52.67108643 90.78164154 53.37757324 90.84208679 54.10546875 C91.03572122 56.4541003 91.2234011 58.80315571 91.41015625 61.15234375 C91.54323606 62.80733844 91.67632853 64.46233212 91.80943298 66.11732483 C92.08887072 69.60671658 92.36479017 73.09636884 92.63891602 76.58618164 C92.91626704 80.10955794 93.20043 83.63226817 93.49145508 87.15454102 C96.75856713 126.74195669 97.37635227 157.66306062 83 196 C54.62 196 26.24 196 -3 196 C-14.0753077 167.80830767 -20.09146064 143.25345234 -24.93139648 114.04492188 C-25.66442107 109.62329308 -26.41672643 105.20518577 -27.17409229 100.78767014 C-27.76405232 97.32978652 -28.34182335 93.86994396 -28.91632652 90.40946198 C-29.18849028 88.7808276 -29.46465519 87.1528556 -29.74527931 85.52565765 C-33.68742989 62.57984506 -33.38655989 40.67899285 -19.94921875 20.625 C-4.63392857 0 -4.63392857 0 0 0 Z " fill="#EECEB2" transform="translate(56,260)"/>
<path d="M0 0 C5.28 0 10.56 0 16 0 C16 68.64 16 137.28 16 208 C10.72 208 5.44 208 0 208 C0 139.36 0 70.72 0 0 Z " fill="#FCD770" transform="translate(328,136)"/>
<path d="M0 0 C6.50099074 3.68128391 11.87819747 8.78320492 13.9453125 16.1015625 C15.10860031 23.48013088 13.81055705 28.53696928 9.84375 34.8125 C8.66647952 37.13103865 8.66647952 37.13103865 9.6953125 39.7265625 C10.59073113 41.4278579 11.55837189 43.09188921 12.5703125 44.7265625 C14.89104429 50.42290417 14.96020978 55.95763627 13.06640625 61.82421875 C9.8046542 68.96131978 5.35326057 73.81761647 -1.8671875 76.9765625 C-7.93674615 78.9371356 -14.25122803 79.19818831 -20.1796875 76.6640625 C-25.97089636 73.35648183 -30.49264707 68.09547332 -33.5546875 62.2265625 C-34.75438624 54.72844535 -35.03600772 48.45694883 -30.9296875 41.85546875 C-29.75707667 39.8316879 -29.75707667 39.8316879 -30.0546875 36.1015625 C-30.91959397 34.08400969 -30.91959397 34.08400969 -32.0546875 32.0390625 C-34.80030412 26.07715212 -35.17176449 20.25916031 -33.46484375 13.90625 C-30.69118227 7.38750642 -24.8914343 1.96564232 -18.5703125 -1.10546875 C-12.4783391 -3.02576471 -5.84492251 -2.53201096 0 0 Z " fill="#020201" transform="translate(410.0546875,153.8984375)"/>
<path d="M0 0 C6.28729324 3.39537361 11.00250928 8.73262405 15.9921875 13.76171875 C16.94731714 14.71804204 17.90281844 15.67399426 18.8586731 16.6295929 C20.85030721 18.62278368 22.83855803 20.61926686 24.82421875 22.6184082 C27.37474131 25.18602363 29.93190195 27.74690236 32.49136162 30.30560589 C34.45954555 32.27406089 36.4251195 34.24510416 38.38980484 36.21705055 C39.79148103 37.62346761 41.19466854 39.02837791 42.59786987 40.43327332 C43.86015915 41.70513237 43.86015915 41.70513237 45.14794922 43.00268555 C46.26663895 44.12709297 46.26663895 44.12709297 47.40792847 45.2742157 C49 47 49 47 49 48 C14.68 48 -19.64 48 -55 48 C-48.24828355 40.12299748 -48.24828355 40.12299748 -44.67871094 36.54931641 C-43.88478943 35.75224274 -43.09086792 34.95516907 -42.27288818 34.13394165 C-41.01632416 32.88041397 -41.01632416 32.88041397 -39.734375 31.6015625 C-38.42246185 30.28821426 -38.42246185 30.28821426 -37.08404541 28.94833374 C-35.24638643 27.10999748 -33.40747688 25.27291056 -31.56738281 23.43701172 C-29.68014101 21.55336778 -27.79429983 19.66846492 -25.91113281 17.78076172 C-23.18820858 15.05168559 -20.46187446 12.32606526 -17.734375 9.6015625 C-16.88856873 8.75373199 -16.04276245 7.90590149 -15.17132568 7.03237915 C-13.99935638 5.86513809 -13.99935638 5.86513809 -12.80371094 4.67431641 C-12.11565369 3.98705475 -11.42759644 3.29979309 -10.71868896 2.59170532 C-7.32396787 -0.55220015 -4.52964981 -0.37747082 0 0 Z " fill="#CBD0D8" transform="translate(195,136)"/>
<path d="M0 0 C0.9778093 -0.00554901 1.95561859 -0.01109802 2.96305847 -0.01681519 C6.19136748 -0.02861436 9.41827378 -0.00433254 12.64648438 0.02148438 C14.89180436 0.02319546 17.13712635 0.02312982 19.38244629 0.0213623 C24.08670174 0.02301571 28.79048076 0.04171827 33.49462891 0.07324219 C39.52404007 0.11291941 45.55282712 0.11728746 51.58234406 0.10977936 C56.2183402 0.10670954 60.85419609 0.11883071 65.49015808 0.13591003 C67.71330383 0.14294039 69.93646548 0.14606452 72.15962219 0.1452179 C75.26686319 0.14701597 78.37335698 0.16839946 81.48046875 0.1953125 C82.39906174 0.1923819 83.31765472 0.18945129 84.26408386 0.18643188 C89.05386571 0.25042776 92.37603763 0.45115905 96.24023438 3.61523438 C97.24023438 5.61523438 97.24023438 5.61523438 97.24023438 16.61523438 C60.28023437 16.61523438 23.32023437 16.61523438 -14.75976562 16.61523438 C-14.75976562 5.61523438 -14.75976562 5.61523438 -12.86975098 2.46618652 C-8.5073564 -0.13015484 -4.9936787 -0.07210199 0 0 Z " fill="#CBD0D8" transform="translate(150.759765625,263.384765625)"/>
<path d="M0 0 C26.4 0 52.8 0 80 0 C80 5.28 80 10.56 80 16 C53.6 16 27.2 16 0 16 C0 10.72 0 5.44 0 0 Z " fill="#FF826E" transform="translate(376,472)"/>
<path d="M0 0 C26.4 0 52.8 0 80 0 C80 5.28 80 10.56 80 16 C53.6 16 27.2 16 0 16 C0 10.72 0 5.44 0 0 Z " fill="#FF826E" transform="translate(56,472)"/>
<path d="M0 0 C21.45 0 42.9 0 65 0 C63.86675404 7.93272171 63.86675404 7.93272171 61.25 10.8125 C60.76015625 11.37582031 60.2703125 11.93914062 59.765625 12.51953125 C56.09586213 15.59661118 52.34328482 16.24984567 47.65893555 16.22705078 C46.09788338 16.22682419 46.09788338 16.22682419 44.5052948 16.22659302 C42.83784966 16.21110916 42.83784966 16.21110916 41.13671875 16.1953125 C39.98959915 16.1924826 38.84247955 16.18965271 37.66059875 16.18673706 C34.00279232 16.17555697 30.34523222 16.15045595 26.6875 16.125 C24.20508167 16.11496741 21.72265949 16.10584205 19.24023438 16.09765625 C13.16006158 16.07562467 7.08007253 16.04110935 1 16 C0.67 10.72 0.34 5.44 0 0 Z " fill="#E4E7EB" transform="translate(167,376)"/>
<path d="M0 0 C5.28 0 10.56 0 16 0 C16 15.84 16 31.68 16 48 C10.72 48 5.44 48 0 48 C0 32.16 0 16.32 0 0 Z " fill="#E6E9ED" transform="translate(216,200)"/>
<path d="M0 0 C5.28 0 10.56 0 16 0 C16 15.84 16 31.68 16 48 C10.72 48 5.44 48 0 48 C0 32.16 0 16.32 0 0 Z " fill="#69D6F4" transform="translate(184,200)"/>
<path d="M0 0 C5.28 0 10.56 0 16 0 C16 15.84 16 31.68 16 48 C10.72 48 5.44 48 0 48 C0 32.16 0 16.32 0 0 Z " fill="#E6E9ED" transform="translate(152,200)"/>
<path d="M0 0 C15.84 0 31.68 0 48 0 C48 5.28 48 10.56 48 16 C32.16 16 16.32 16 0 16 C0 10.72 0 5.44 0 0 Z " fill="#000000" transform="translate(184,40)"/>
<path d="M0 0 C4.0743356 0.84881992 5.54405875 2.30225596 8 5.625 C8.625 8.625 8.625 8.625 8 11.625 C5.54405875 14.94774404 4.0743356 16.40118008 0 17.25 C-4.0743356 16.40118008 -5.54405875 14.94774404 -8 11.625 C-8.625 8.625 -8.625 8.625 -8 5.625 C-5.54405875 2.30225596 -4.0743356 0.84881992 0 0 Z " fill="#F0CC6A" transform="translate(400,199.375)"/>
<path d="M0 0 C4.0743356 0.84881992 5.54405875 2.30225596 8 5.625 C8.625 8.625 8.625 8.625 8 11.625 C5.54405875 14.94774404 4.0743356 16.40118008 0 17.25 C-4.0743356 16.40118008 -5.54405875 14.94774404 -8 11.625 C-8.625 8.625 -8.625 8.625 -8 5.625 C-5.54405875 2.30225596 -4.0743356 0.84881992 0 0 Z " fill="#F0CC6A" transform="translate(400,167.375)"/>
<path d="M0 0 C2.66589042 0.54323805 3.75768995 0.96351964 5.875 2.75 C7.21538506 5.84964046 7.42167869 7.71409302 6.875 11.0625 C4.41905875 14.38524404 2.9493356 15.83868008 -1.125 16.6875 C-5.1993356 15.83868008 -6.66905875 14.38524404 -9.125 11.0625 C-9.75 8.0625 -9.75 8.0625 -9.125 5.0625 C-6.50620524 1.2161452 -4.62486834 -0.35838463 0 0 Z " fill="#060707" transform="translate(161.125,39.9375)"/>
</svg>
