<svg width="64" height="64" viewBox="0 0 64 64" fill="none" xmlns="http://www.w3.org/2000/svg">
<g clip-path="url(#clip0_6_1923)">
<path d="M32 64C49.6731 64 64 49.6731 64 32C64 14.3269 49.6731 0 32 0C14.3269 0 0 14.3269 0 32C0 49.6731 14.3269 64 32 64Z" fill="#1E5B00" style="fill:#1E5B00;fill:color(display-p3 0.1176 0.3569 0.0000);fill-opacity:1;"/>
<path d="M15.4099 49.3333H48.5901C49.2499 48.7016 49.877 48.0362 50.4614 47.3333H13.5386C14.1231 48.0362 14.7501 48.7016 15.4099 49.3333Z" fill="white" style="fill:white;fill-opacity:1;"/>
<path d="M32 56C37.7135 56 42.9578 54 47.0791 50.6667H16.9209C21.0422 54.0001 26.2865 56 32 56Z" fill="white" style="fill:white;fill-opacity:1;"/>
<path d="M32 40.7627L37.8275 43.3333H53.1579C53.3918 42.8974 53.6092 42.4515 53.8164 42H38.1725L32 39.2373L25.8275 42H10.1836C10.3909 42.4515 10.6082 42.8974 10.8421 43.3333H26.1725L32 40.7627Z" fill="white" style="fill:white;fill-opacity:1;"/>
<path d="M12.5122 46H51.4878C51.8002 45.5658 52.0998 45.1219 52.3832 44.6667H11.6168C11.9002 45.1219 12.1998 45.5658 12.5122 46Z" fill="white" style="fill:white;fill-opacity:1;"/>
<path d="M42.4401 38.4204C46.0806 37.1376 48.7038 34.3828 49.689 31.2717C46.9711 29.4654 43.2004 28.9636 39.5599 30.2464C37.8529 30.8479 36.3733 31.7759 35.1776 32.9096C35.9134 31.3515 36.3334 29.5667 36.3334 27.6667C36.3334 23.8068 34.607 20.4172 32.0001 18.4541C29.3932 20.4172 27.6668 23.8068 27.6668 27.6667C27.6668 29.5666 28.0868 31.3515 28.8226 32.9095C27.6268 31.7757 26.1473 30.8478 24.4403 30.2463C20.7998 28.9635 17.0291 29.4653 14.3112 31.2716C15.2964 34.3828 17.9196 37.1376 21.5601 38.4203C25.2006 39.703 29.2823 39.1396 32.0002 37.3333C34.7181 39.1397 38.7996 39.7032 42.4401 38.4204Z" fill="white" style="fill:white;fill-opacity:1;"/>
<path d="M32 7.33331L28.3334 10.9999L32 14.6666L35.6666 10.9999L32 7.33331Z" fill="#FFD400" style="fill:#FFD400;fill:color(display-p3 1.0000 0.8314 0.0000);fill-opacity:1;"/>
<path d="M22 12L19 14.9999L22 17.9999L24.9999 14.9999L22 12Z" fill="#FFD400" style="fill:#FFD400;fill:color(display-p3 1.0000 0.8314 0.0000);fill-opacity:1;"/>
<path d="M16 19.3334L13.3333 22.0001L16 24.6667L18.6666 22.0001L16 19.3334Z" fill="#FFD400" style="fill:#FFD400;fill:color(display-p3 1.0000 0.8314 0.0000);fill-opacity:1;"/>
<path d="M48 19.3334L45.3333 22L48 24.6666L50.6666 22L48 19.3334Z" fill="#FFD400" style="fill:#FFD400;fill:color(display-p3 1.0000 0.8314 0.0000);fill-opacity:1;"/>
<path d="M42.6667 12.0001L39.6667 15.0001L42.6667 18L45.6666 15.0001L42.6667 12.0001Z" fill="#FFD400" style="fill:#FFD400;fill:color(display-p3 1.0000 0.8314 0.0000);fill-opacity:1;"/>
</g>
<defs>
<clipPath id="clip0_6_1923">
<rect width="64" height="64" fill="white" style="fill:white;fill-opacity:1;"/>
</clipPath>
</defs>
</svg>
