<svg width="64" height="64" viewBox="0 0 64 64" fill="none" xmlns="http://www.w3.org/2000/svg">
<g clip-path="url(#clip0_6_1981)">
<path d="M32.0001 0C21.2956 0 11.8257 5.2613 6.01636 13.3333H57.9838C52.1745 5.2613 42.7046 0 32.0001 0Z" fill="#F0263C" style="fill:#F0263C;fill:color(display-p3 0.9412 0.1490 0.2353);fill-opacity:1;"/>
<path d="M6.01636 50.6667C11.8257 58.7387 21.2956 64 32.0001 64C42.7046 64 52.1745 58.7387 57.9838 50.6667H6.01636Z" fill="#F0263C" style="fill:#F0263C;fill:color(display-p3 0.9412 0.1490 0.2353);fill-opacity:1;"/>
<path d="M64 32C64 25.0313 61.7655 18.5883 57.9837 13.3333H6.0163C2.2345 18.5883 0 25.0313 0 32C0 38.9687 2.2345 45.4117 6.0163 50.6667H57.9837C61.7656 45.4118 64 38.9687 64 32Z" fill="#1E5B00" style="fill:#1E5B00;fill:color(display-p3 0.1176 0.3569 0.0000);fill-opacity:1;"/>
<path d="M32 39.3407C20.909 39.3407 11.7605 31.5081 10.2452 21.3333C10.0935 22.3222 10 23.3294 10 24.3591C10 35.9428 19.8497 45.3333 32 45.3333C44.1503 45.3333 54 35.9429 54 24.3591C54 23.3294 53.9066 22.3222 53.7548 21.3333C52.2396 31.5081 43.091 39.3407 32 39.3407Z" fill="#FFD400" style="fill:#FFD400;fill:color(display-p3 1.0000 0.8314 0.0000);fill-opacity:1;"/>
<path d="M34.8145 26.1439L39.3333 22.6667H33.7395L32 17.0794L30.2605 22.6667H24.6667L29.1855 26.1439L27.3333 31.746L32 28.2837L36.6667 31.746L34.8145 26.1439Z" fill="#FFD400" style="fill:#FFD400;fill:color(display-p3 1.0000 0.8314 0.0000);fill-opacity:1;"/>
<path d="M32 39.3407C20.909 39.3407 11.7605 31.5081 10.2452 21.3333C10.0935 22.3222 10 23.3294 10 24.3591C10 35.9428 19.8497 45.3333 32 45.3333C44.1503 45.3333 54 35.9429 54 24.3591C54 23.3294 53.9066 22.3222 53.7548 21.3333C52.2396 31.5081 43.091 39.3407 32 39.3407Z" fill="#FFD400" style="fill:#FFD400;fill:color(display-p3 1.0000 0.8314 0.0000);fill-opacity:1;"/>
</g>
<defs>
<clipPath id="clip0_6_1981">
<rect width="64" height="64" fill="white" style="fill:white;fill-opacity:1;"/>
</clipPath>
</defs>
</svg>
