<svg width="64" height="64" viewBox="0 0 64 64" fill="none" xmlns="http://www.w3.org/2000/svg">
<g clip-path="url(#clip0_6_2032)">
<path d="M32 64C49.6731 64 64 49.6731 64 32C64 14.3269 49.6731 0 32 0C14.3269 0 0 14.3269 0 32C0 49.6731 14.3269 64 32 64Z" fill="#F0263C" style="fill:#F0263C;fill:color(display-p3 0.9412 0.1490 0.2353);fill-opacity:1;"/>
<path d="M54.6665 16H9.33325V48H54.6665V16Z" fill="#1E5B00" style="fill:#1E5B00;fill:color(display-p3 0.1176 0.3569 0.0000);fill-opacity:1;"/>
<path d="M29.3583 32C29.3583 26.8007 33.0801 22.4757 38.0037 21.5304C37.3544 21.4055 36.6863 21.3333 36 21.3333C30.1089 21.3333 25.3333 26.1089 25.3333 32C25.3333 37.8911 30.1089 42.6667 36 42.6667C36.6862 42.6667 37.3543 42.5945 38.0036 42.4696C33.08 41.5243 29.3583 37.1993 29.3583 32Z" fill="white" style="fill:white;fill-opacity:1;"/>
</g>
<defs>
<clipPath id="clip0_6_2032">
<rect width="64" height="64" fill="white" style="fill:white;fill-opacity:1;"/>
</clipPath>
</defs>
</svg>
