<svg width="64" height="64" viewBox="0 0 64 64" fill="none" xmlns="http://www.w3.org/2000/svg">
<g clip-path="url(#clip0_6_2036)">
<path d="M1.8281 42.6667C0.6482 39.3295 0 35.7412 0 32C0 28.2588 0.6482 24.6705 1.8281 21.3333" fill="white" style="fill:white;fill-opacity:1;"/>
<path d="M1.82812 21.3333C6.22183 8.9061 18.0681 0 32 0Z" fill="#F0263C" style="fill:#F0263C;fill:color(display-p3 0.9412 0.1490 0.2353);fill-opacity:1;"/>
<path d="M32 64C18.0681 64 6.22183 55.0939 1.82812 42.6667Z" fill="#1E5B00" style="fill:#1E5B00;fill:color(display-p3 0.1176 0.3569 0.0000);fill-opacity:1;"/>
<path d="M0 32C0 35.7412 0.6482 39.3295 1.8281 42.6667H62.1719C63.3518 39.3296 64 35.7412 64 32C64 28.2588 63.3518 24.6705 62.1719 21.3333H1.8281C0.6482 24.6705 0 28.2588 0 32Z" fill="#F0263C" style="fill:#F0263C;fill:color(display-p3 0.9412 0.1490 0.2353);fill-opacity:1;"/>
<path d="M1.82812 21.3333H62.1719C57.7782 8.9061 45.9319 0 32 0C18.0681 0 6.22183 8.9061 1.82812 21.3333Z" fill="black" style="fill:black;fill-opacity:1;"/>
<path d="M62.1719 42.6667H1.82812C6.22192 55.0939 18.0681 64 32 64C45.9319 64 57.7782 55.0939 62.1719 42.6667Z" fill="#619B27" style="fill:#619B27;fill:color(display-p3 0.3804 0.6078 0.1529);fill-opacity:1;"/>
<path d="M32 9.33328C38.2169 9.33328 43.521 13.206 45.6556 18.6666H49.1797C46.9049 11.3328 40.0819 5.99988 32 5.99988C23.9181 5.99988 17.0951 11.3327 14.8203 18.6666H18.3444C20.479 13.2059 25.7831 9.33328 32 9.33328Z" fill="#F0263C" style="fill:#F0263C;fill:color(display-p3 0.9412 0.1490 0.2353);fill-opacity:1;"/>
<path d="M32 12C27.2922 12 23.2342 14.7204 21.2693 18.6667H42.7307C40.7658 14.7205 36.7078 12 32 12Z" fill="#F0263C" style="fill:#F0263C;fill:color(display-p3 0.9412 0.1490 0.2353);fill-opacity:1;"/>
</g>
<defs>
<clipPath id="clip0_6_2036">
<rect width="64" height="64" fill="white" style="fill:white;fill-opacity:1;"/>
</clipPath>
</defs>
</svg>
