<svg width="64" height="64" viewBox="0 0 64 64" fill="none" xmlns="http://www.w3.org/2000/svg">
<g clip-path="url(#clip0_6_2079)">
<path d="M21.3334 42.6667L9.37915 54.6209C15.1683 60.4133 23.1628 64 32 64C45.9319 64 57.7783 55.0939 62.172 42.6667H21.3334Z" fill="#FFD400" style="fill:#FFD400;fill:color(display-p3 1.0000 0.8314 0.0000);fill-opacity:1;"/>
<path d="M21.3334 21.3333L9.37915 9.3791C15.1683 3.5867 23.1628 0 32 0C45.9319 0 57.7783 8.9061 62.172 21.3333H21.3334Z" fill="#1E5B00" style="fill:#1E5B00;fill:color(display-p3 0.1176 0.3569 0.0000);fill-opacity:1;"/>
<path d="M62.1719 21.3333H21.3333L32 32L21.3333 42.6667H62.1719C63.3518 39.3296 64 35.7412 64 32C64 28.2588 63.3518 24.6705 62.1719 21.3333Z" fill="black" style="fill:black;fill-opacity:1;"/>
<path d="M32 32L21.3333 21.3333L18.6666 18.6666L9.3788 9.37882L9.3726 9.37262C3.5817 15.1635 0 23.1635 0 32C0 40.8365 3.5817 48.8365 9.3726 54.6274L9.3788 54.6212L18.6666 45.3334L21.3333 42.6667L32 32Z" fill="#F0263C" style="fill:#F0263C;fill:color(display-p3 0.9412 0.1490 0.2353);fill-opacity:1;"/>
<path d="M1.33325 29.3333L3.57855 31.1572L2.66665 29.3333H1.33325Z" fill="#FFD400" style="fill:#FFD400;fill:color(display-p3 1.0000 0.8314 0.0000);fill-opacity:1;"/>
<path d="M14.1333 30.6667H16L17.3333 32L17.7703 33.3108L22.6667 29.3333H14.6667L13.7544 30.2456L14.1333 30.6667Z" fill="#FFD400" style="fill:#FFD400;fill:color(display-p3 1.0000 0.8314 0.0000);fill-opacity:1;"/>
<path d="M7.99992 30.6667H9.33322L10.5262 29.4737L9.62152 28.4685L9.33322 29.3333H6.66662L4.27612 31.7238L6.22962 33.3108L6.66662 32L7.99992 30.6667Z" fill="#FFD400" style="fill:#FFD400;fill:color(display-p3 1.0000 0.8314 0.0000);fill-opacity:1;"/>
<path d="M9.33325 37.3333H7.99995H6.89275L5.33325 42.6667L11.4097 38.0764L10.6667 37.3333H9.33325Z" fill="#FFD400" style="fill:#FFD400;fill:color(display-p3 1.0000 0.8314 0.0000);fill-opacity:1;"/>
<path d="M14 27.3333L12 21.3333L10.3063 26.4144L12.4912 28.8421L14 27.3333Z" fill="#FFD400" style="fill:#FFD400;fill:color(display-p3 1.0000 0.8314 0.0000);fill-opacity:1;"/>
<path d="M12.5902 38.0764L18.6666 42.6667L17.1071 37.3333H13.3332L12.5902 38.0764Z" fill="#FFD400" style="fill:#FFD400;fill:color(display-p3 1.0000 0.8314 0.0000);fill-opacity:1;"/>
<path d="M14.1333 30.6667L13.7544 30.2456L14.6667 29.3333L16 28H17.3333L21.3333 22.6667L17.3333 25.3333H16V26.6667H14.6667L14 27.3333L12.4912 28.8421L10.3063 26.4144L9.33325 25.3333L7.99995 24L6.66665 25.3333H5.33325L2.66665 29.3333L3.57855 31.1572L3.99995 32L4.27615 31.7238L6.66665 29.3333L7.99995 28V26.6667L9.62155 28.4685L10.5263 29.4737L9.33325 30.6667L6.66665 33.3333L5.99995 34L5.33325 34.6667L1.33325 37.3333L3.99995 40L5.77775 37.3333L6.66665 36L7.99995 37.3333H9.33325L7.99995 36L9.33325 34.6667V33.3333L10.6667 34.6667L13.3333 36V33.3333H10.6667L12 32L12.4211 31.5789L17.6 37.3333L20 40L21.3333 38.6667L18.5098 35.5294L14.1333 30.6667Z" fill="black" style="fill:black;fill-opacity:1;"/>
<path d="M62.1721 21.3333C61.8507 20.4244 61.4877 19.5358 61.0886 18.6666H18.6667L21.3334 21.3333H62.1721Z" fill="white" style="fill:white;fill-opacity:1;"/>
<path d="M61.0886 45.3333C61.4876 44.4642 61.8506 43.5756 62.172 42.6666H21.3333L18.6666 45.3333H61.0886Z" fill="white" style="fill:white;fill-opacity:1;"/>
<path d="M6.6667 32L6.2297 33.3108L6 34L6.6667 33.3333L9.3333 30.6667H8L6.6667 32Z" fill="white" style="fill:white;fill-opacity:1;"/>
<path d="M6.89283 37.3333H8.00003L6.66673 36L5.77783 37.3333H6.89283Z" fill="white" style="fill:white;fill-opacity:1;"/>
<path d="M17.7703 33.3108L17.3333 32L16 30.6667H14.1333L18.5098 35.5294L17.7703 33.3108Z" fill="white" style="fill:white;fill-opacity:1;"/>
<path d="M10.6667 34.6667L9.3333 33.3333V34.6667L8 36L9.3333 37.3333H10.6667L11.4097 38.0764L12 38.6667L12.5903 38.0764L13.3333 37.3333H17.1072H17.6L12.4211 31.5789L12 32L10.6667 33.3333H13.3333V36L10.6667 34.6667Z" fill="white" style="fill:white;fill-opacity:1;"/>
</g>
<defs>
<clipPath id="clip0_6_2079">
<rect width="64" height="64" fill="white" style="fill:white;fill-opacity:1;"/>
</clipPath>
</defs>
</svg>
