<svg width="64" height="64" viewBox="0 0 64 64" fill="none" xmlns="http://www.w3.org/2000/svg">
<g clip-path="url(#clip0_6_2099)">
<path d="M45.7941 3.1187C33.8982 -2.5626 19.2221 -0.483297 9.36945 9.3694C-0.483253 19.2221 -2.56265 33.8983 3.11875 45.7942L45.7941 3.1187Z" fill="#191977" style="fill:#191977;fill:color(display-p3 0.0980 0.0980 0.4667);fill-opacity:1;"/>
<path d="M60.8813 18.2058L18.2058 60.8813C30.1017 66.5626 44.7778 64.4833 54.6305 54.6306C64.4833 44.7778 66.5627 30.1017 60.8813 18.2058Z" fill="#1E5B00" style="fill:#1E5B00;fill:color(display-p3 0.1176 0.3569 0.0000);fill-opacity:1;"/>
<path d="M48.253 4.43213L4.43201 48.253C7.18601 52.914 11.086 56.814 15.747 59.568L59.568 15.747C56.814 11.086 52.914 7.18603 48.253 4.43213Z" fill="#F0263C" style="fill:#F0263C;fill:color(display-p3 0.9412 0.1490 0.2353);fill-opacity:1;"/>
<path d="M21.7943 18.8844L25.9993 17.3313L21.7943 15.7781L24.6594 12.3306L20.2411 13.0881L20.9986 8.6698L17.5511 11.5349L15.9979 7.3299L14.4448 11.5349L10.9972 8.6698L11.7547 13.0881L7.33646 12.3306L10.2016 15.7781L5.99646 17.3313L10.2016 18.8844L7.33646 22.332L11.7547 21.5745L10.9972 25.9927L14.4448 23.1276L15.9979 27.3327L17.5511 23.1276L20.9986 25.9927L20.2411 21.5745L24.6594 22.332L21.7943 18.8844ZM15.9979 23.1654C12.781 23.1654 10.1638 20.5485 10.1638 17.3313C10.1638 14.1141 12.781 11.4972 15.9979 11.4972C19.2148 11.4972 21.832 14.1141 21.832 17.3313C21.832 20.5485 19.2148 23.1654 15.9979 23.1654Z" fill="#FFD400" style="fill:#FFD400;fill:color(display-p3 1.0000 0.8314 0.0000);fill-opacity:1;"/>
<path d="M15.9978 22.1653C18.6676 22.1653 20.8318 20.0011 20.8318 17.3313C20.8318 14.6616 18.6676 12.4973 15.9978 12.4973C13.3281 12.4973 11.1638 14.6616 11.1638 17.3313C11.1638 20.0011 13.3281 22.1653 15.9978 22.1653Z" fill="#FFD400" style="fill:#FFD400;fill:color(display-p3 1.0000 0.8314 0.0000);fill-opacity:1;"/>
<path d="M15.9979 11.4972C12.781 11.4972 10.1638 14.1141 10.1638 17.3313C10.1638 20.5485 12.781 23.1654 15.9979 23.1654C19.2148 23.1654 21.832 20.5485 21.832 17.3313C21.832 14.1141 19.2148 11.4972 15.9979 11.4972ZM15.9979 22.1654C13.3325 22.1654 11.1639 19.9971 11.1639 17.3314C11.1639 14.6657 13.3325 12.4974 15.9979 12.4974C18.6633 12.4974 20.8319 14.6657 20.8319 17.3314C20.8319 19.9971 18.6633 22.1654 15.9979 22.1654Z" fill="#191977" style="fill:#191977;fill:color(display-p3 0.0980 0.0980 0.4667);fill-opacity:1;"/>
<path d="M4.43201 48.253L48.253 4.43211C47.455 3.96061 46.6377 3.51851 45.7971 3.11621L3.11621 45.7971C3.51851 46.6377 3.96051 47.455 4.43201 48.253Z" fill="white" style="fill:white;fill-opacity:1;"/>
<path d="M18.2028 60.8838L60.8838 18.2029C60.4815 17.3623 60.0394 16.545 59.5679 15.747L15.7469 59.568C16.5449 60.0395 17.3622 60.4815 18.2028 60.8838Z" fill="white" style="fill:white;fill-opacity:1;"/>
</g>
<defs>
<clipPath id="clip0_6_2099">
<rect width="64" height="64" fill="white" style="fill:white;fill-opacity:1;"/>
</clipPath>
</defs>
</svg>
