<?xml version="1.0" encoding="UTF-8"?>
<svg version="1.1" xmlns="http://www.w3.org/2000/svg" width="324" height="317">
<path d="M0 0 C0.99 0.495 0.99 0.495 2 1 C1.01799649 2.52328213 0.03598788 4.04656097 -0.94604492 5.56982422 C-1.780348 6.86697273 -2.61251072 8.16550015 -3.44262695 9.46533203 C-6.74411636 14.6335 -6.74411636 14.6335 -8.5 17.1484375 C-26.0033043 42.59732072 -27.68295617 83.95826251 -22.48046875 113.35424805 C-16.57981869 142.82159839 -3.5756728 173.51118222 22.18457031 190.84619141 C40.39439605 202.41956908 60.16423868 205.89967106 81.4375 201.875 C100.9777351 196.91460817 118.53559883 185.45780932 129 168 C139.60530531 149.62598912 143.10579787 128.58999993 137.58642578 107.95166016 C134.14553991 96.50018571 128.60768956 87.18266411 121 78 C119.66526634 76.33445456 118.33149982 74.66813183 117 73 C143.90232654 71.67693476 172.15406872 82.20097437 193 99 C195.54155107 101.52892747 197.85057623 104.13149628 200 107 C200.67482422 106.32517578 200.67482422 106.32517578 201.36328125 105.63671875 C203.2421875 103.7578125 205.12109375 101.87890625 207 100 C214.6554166 125.00769423 210.68553742 154.72551745 202 179 C201.58105469 180.21945313 201.16210938 181.43890625 200.73046875 182.6953125 C195.42297738 197.10354556 187.1439888 210.48465684 177 222 C176.25878906 222.84949219 175.51757812 223.69898438 174.75390625 224.57421875 C172.53315735 227.07958302 170.27819956 229.54687469 168 232 C167.44957031 232.60457031 166.89914063 233.20914063 166.33203125 233.83203125 C141.73930983 259.76065358 104.16654158 273.28438169 69.01123047 274.21728516 C32.98367941 274.73852159 -1.9079923 262.88585294 -29 239 C-29.97453125 238.16984375 -30.9490625 237.3396875 -31.953125 236.484375 C-39.69383675 229.76987041 -46.03823674 222.31948398 -52 214 C-52.39815918 213.44473633 -52.79631836 212.88947266 -53.20654297 212.31738281 C-75.59074469 180.53838615 -83.35642282 141.21443571 -76.96875 103.09765625 C-70.30294018 66.6354011 -49.68562806 32.91210972 -19.25 11.4375 C-6.11714342 2.420624 -6.11714342 2.420624 0 0 Z " fill="#F5911F" transform="translate(81,39)"/>
<path d="M0 0 C0.99 0.495 0.99 0.495 2 1 C-7.61006752 16.47851038 -7.61006752 16.47851038 -14.0859375 20.72265625 C-35.15235163 34.78126323 -48.26712811 64.99483146 -53.61572266 88.73266602 C-55.20995482 97.14177931 -55.39909651 105.53184968 -55.375 114.0625 C-55.37445618 114.78888672 -55.37391235 115.51527344 -55.37335205 116.26367188 C-55.33333563 127.91133291 -54.45886156 138.82845626 -51 150 C-50.78569336 150.71994141 -50.57138672 151.43988281 -50.35058594 152.18164062 C-44.37052085 171.87146193 -34.10030109 188.04587445 -20 203 C-19.33742187 203.73863281 -18.67484375 204.47726563 -17.9921875 205.23828125 C0.70130137 225.24671135 30.9564968 238.91184743 58.26904297 240.14794922 C61.93037413 240.248582 65.58734278 240.29563805 69.25 240.3125 C70.40991455 240.31813965 71.5698291 240.3237793 72.76489258 240.32958984 C84.10204614 240.23459701 94.96607035 238.68341785 105.8125 235.375 C106.66215332 235.11630127 107.51180664 234.85760254 108.38720703 234.59106445 C116.74383912 231.9345532 124.40598774 228.36034231 132 224 C132.90008789 223.48397217 132.90008789 223.48397217 133.81835938 222.95751953 C162.89550429 205.95357301 183.22936767 178.50492125 191.875 146 C194.49358552 135.99940837 195.20243427 126.30614363 195.5625 116 C195.60568359 114.84371094 195.64886719 113.68742187 195.69335938 112.49609375 C195.79867917 109.66416146 195.90081087 106.83215253 196 104 C197.65 104.99 199.3 105.98 201 107 C202.65 104.69 204.3 102.38 206 100 C211.47288951 105.47288951 210.27311558 117.4916232 210.3293457 124.75732422 C210.32100708 126.64088623 210.32100708 126.64088623 210.3125 128.5625 C210.30758545 129.88008301 210.3026709 131.19766602 210.29760742 132.55517578 C210.1026595 148.88481345 207.48934245 163.65829562 202 179 C201.58105469 180.21945313 201.16210938 181.43890625 200.73046875 182.6953125 C195.42297738 197.10354556 187.1439888 210.48465684 177 222 C176.25878906 222.84949219 175.51757812 223.69898438 174.75390625 224.57421875 C172.53315735 227.07958302 170.27819956 229.54687469 168 232 C167.44957031 232.60457031 166.89914063 233.20914063 166.33203125 233.83203125 C141.73930983 259.76065358 104.16654158 273.28438169 69.01123047 274.21728516 C32.98367941 274.73852159 -1.9079923 262.88585294 -29 239 C-29.97453125 238.16984375 -30.9490625 237.3396875 -31.953125 236.484375 C-39.69383675 229.76987041 -46.03823674 222.31948398 -52 214 C-52.39815918 213.44473633 -52.79631836 212.88947266 -53.20654297 212.31738281 C-75.59074469 180.53838615 -83.35642282 141.21443571 -76.96875 103.09765625 C-70.30294018 66.6354011 -49.68562806 32.91210972 -19.25 11.4375 C-6.11714342 2.420624 -6.11714342 2.420624 0 0 Z " fill="#EA2226" transform="translate(81,39)"/>
<path d="M0 0 C26.71157111 -0.35733762 51.39502434 7.55663437 72 25 C71.3535763 28.56850687 69.87608851 31.01242475 67.88671875 34.0234375 C67.22494629 35.03100098 66.56317383 36.03856445 65.88134766 37.07666016 C65.15737793 38.1651123 64.4334082 39.25356445 63.6875 40.375 C62.93507407 41.51200192 62.1829642 42.64921304 61.43115234 43.78662109 C60.23580059 45.59369846 59.03938647 47.40003782 57.840271 49.20462036 C55.17575113 53.21501914 52.53401115 57.23948051 49.90675354 61.27438354 C48.09602435 64.05233989 46.27645787 66.82443778 44.45523071 69.59552002 C43.56848892 70.94838664 42.68516156 72.30349745 41.80526733 73.66082764 C40.56995761 75.56430093 39.32185088 77.45873405 38.0703125 79.3515625 C37.35633301 80.44291504 36.64235352 81.53426758 35.90673828 82.65869141 C35.27751465 83.43132324 34.64829102 84.20395508 34 85 C31 85 31 85 29.1171875 83.3828125 C28.37726563 82.63773437 27.63734375 81.89265625 26.875 81.125 C14.98541037 70.18175976 0.3395575 63.61920899 -15 59 C-16.08498779 58.66331299 -16.08498779 58.66331299 -17.19189453 58.31982422 C-51.10802937 48.31014728 -93.09205973 54.58065632 -124.76049805 68.90332031 C-129.70102877 71.09965708 -129.70102877 71.09965708 -133 70 C-113.52574724 48.89382662 -88.03062051 36.66098562 -60 31 C-59.10966064 30.81904785 -58.21932129 30.6380957 -57.30200195 30.45166016 C-48.16104735 28.8148 -39.15999791 28.69365869 -29.90600586 28.73925781 C-27.30624307 28.75002592 -24.70716445 28.73927877 -22.10742188 28.7265625 C-13.81698086 28.72062102 -6.07965685 28.90311686 2 31 C1.67 30.34 1.34 29.68 1 29 C0.84530633 26.82325217 0.74997894 24.6421652 0.68359375 22.4609375 C0.62075195 20.50800781 0.62075195 20.50800781 0.55664062 18.515625 C0.51682701 17.13541955 0.47711478 15.75521117 0.4375 14.375 C0.39430593 12.98696585 0.35069135 11.59894472 0.30664062 10.2109375 C0.20028 6.80739744 0.09825286 3.40378222 0 0 Z " fill="#F6921F" transform="translate(248,52)"/>
<path d="M0 0 C0.96351085 8.13486887 1.31315029 16.25299262 1.5625 24.4375 C1.58367889 25.10298859 1.60485779 25.76847717 1.62667847 26.45413208 C2.0627266 40.30345814 2.11068334 54.14414923 2 68 C0.52853516 67.89171875 0.52853516 67.89171875 -0.97265625 67.78125 C-40.70162694 64.98392503 -83.07820596 70.82454603 -114.61914062 97.36230469 C-118.17878397 100.4721503 -121.61142553 103.70426319 -125 107 C-125.5576001 107.52625977 -126.1152002 108.05251953 -126.68969727 108.59472656 C-131.12421449 112.8664029 -134.70299786 117.43410483 -138.1875 122.5 C-138.69474609 123.22058594 -139.20199219 123.94117188 -139.72460938 124.68359375 C-142.73571832 129.00303149 -145.45795365 133.38912835 -148 138 C-148.33 138 -148.66 138 -149 138 C-148.15824713 114.43091969 -131.02597738 91.10455532 -114.640625 75.36328125 C-104.01368667 65.85248585 -82.93507554 48 -68 48 C-68.4345752 47.23333008 -68.86915039 46.46666016 -69.31689453 45.67675781 C-70.92135423 42.82850749 -72.51101378 39.97300458 -74.09130859 37.11132812 C-74.77824807 35.87438278 -75.47093492 34.64061114 -76.16943359 33.41015625 C-77.17251728 31.6408479 -78.15437967 29.86115598 -79.1328125 28.078125 C-80.02830811 26.47565918 -80.02830811 26.47565918 -80.94189453 24.84082031 C-82 22 -82 22 -81.33618164 19.74072266 C-70.99891018 6.27374924 -46.6541404 1.87995344 -30.87109375 -0.46484375 C-20.58321212 -1.55802477 -10.25335375 -1.24322566 0 0 Z " fill="#EA2126" transform="translate(241,8)"/>
<path d="M0 0 C3.49517221 3.13934741 5.47845475 6.37856943 7.64453125 10.53125 C7.97740646 11.16301147 8.31028168 11.79477295 8.65324402 12.44567871 C9.71332585 14.46020758 10.76343245 16.47971689 11.8125 18.5 C13.19021324 21.13741968 14.57308338 23.77209798 15.95703125 26.40625 C16.29227814 27.04925049 16.62752502 27.69225098 16.97293091 28.35473633 C19.70819318 33.56161117 22.70642369 38.55909333 25.85424805 43.52929688 C27 46 27 46 26.94750977 48.17724609 C25.65009108 50.67313063 24.29409754 51.24385068 21.765625 52.4453125 C20.88769287 52.87714844 20.00976074 53.30898438 19.10522461 53.75390625 C18.16300049 54.20636719 17.22077637 54.65882812 16.25 55.125 C7.25706907 59.64304123 -0.38451032 64.41694584 -8 71 C-8.50289551 71.42216797 -9.00579102 71.84433594 -9.52392578 72.27929688 C-38.60566411 96.76724368 -52.76348099 132.59266833 -60 169 C-60.66 169 -61.32 169 -62 169 C-67.27856011 154.24053095 -71.27494639 139.75343761 -72 124 C-72.05285156 122.92105469 -72.10570312 121.84210938 -72.16015625 120.73046875 C-72.96319049 88.50435571 -61.94659594 58.39846943 -41 34 C-39.84371094 32.64261719 -39.84371094 32.64261719 -38.6640625 31.2578125 C-32.95508856 24.75642578 -26.8588251 19.25874448 -20 14 C-18.98292969 13.21367187 -17.96585938 12.42734375 -16.91796875 11.6171875 C-11.43645865 7.43882886 -5.92042188 3.52948227 0 0 Z " fill="#F6921F" transform="translate(136,3)"/>
<path d="M0 0 C3.51677608 1.05503282 5.3736044 2.54813014 8.125 4.9375 C9.43638904 5.64635894 10.76277017 6.33206452 12.125 6.9375 C11.465 7.9275 10.805 8.9175 10.125 9.9375 C10.125 10.9275 10.125 11.9175 10.125 12.9375 C8.475 12.6075 6.825 12.2775 5.125 11.9375 C4.795 13.5875 4.465 15.2375 4.125 16.9375 C4.82625 16.463125 5.5275 15.98875 6.25 15.5 C12.20005611 12.26627385 19.47737854 12.20813714 26.125 12.9375 C30.06468304 15.3998019 31.93679415 19.5055789 33.125 23.9375 C33.67993386 28.91482983 33.61775985 33.47677185 31.125 37.9375 C29.12084162 40.37734498 28.21128136 40.90873955 25.125 41.9375 C24.01125 41.89625 22.8975 41.855 21.75 41.8125 C17.83145918 41.9476221 16.2911049 42.76645664 13.125 44.9375 C12.465 44.9375 11.805 44.9375 11.125 44.9375 C11.125 44.2775 11.125 43.6175 11.125 42.9375 C10.135 43.4325 10.135 43.4325 9.125 43.9375 C8.7528958 45.26053717 8.41869827 46.59487935 8.125 47.9375 C7.125 48.9375 7.125 48.9375 5.26733398 49.05102539 C4.08119507 49.04317017 4.08119507 49.04317017 2.87109375 49.03515625 C2.01708984 49.03193359 1.16308594 49.02871094 0.28320312 49.02539062 C-0.61462891 49.01701172 -1.51246094 49.00863281 -2.4375 49 C-3.33919922 48.99548828 -4.24089844 48.99097656 -5.16992188 48.98632812 C-7.40501314 48.97450225 -9.63997437 48.9580222 -11.875 48.9375 C-11.545 49.2675 -11.215 49.5975 -10.875 49.9375 C-10.77471554 52.18179055 -10.74418581 54.42925214 -10.7421875 56.67578125 C-10.74123077 57.352957 -10.74027405 58.03013275 -10.73928833 58.72782898 C-10.73860643 60.16450086 -10.7404614 61.6011758 -10.74462891 63.0378418 C-10.74995236 65.23037726 -10.7446972 67.42270554 -10.73828125 69.61523438 C-10.73894252 71.01041712 -10.74022468 72.40559973 -10.7421875 73.80078125 C-10.74331543 75.07219971 -10.74444336 76.34361816 -10.74560547 77.65356445 C-10.85065475 80.31963587 -11.13390073 82.40694404 -11.875 84.9375 C-11.875 85.5975 -11.875 86.2575 -11.875 86.9375 C-16.825 86.9375 -21.775 86.9375 -26.875 86.9375 C-26.875 85.2875 -26.875 83.6375 -26.875 81.9375 C-27.37 81.4425 -27.37 81.4425 -27.875 80.9375 C-27.97483684 79.02298183 -28.00467589 77.10461381 -28 75.1875 C-28.00257812 74.14078125 -28.00515625 73.0940625 -28.0078125 72.015625 C-27.875 68.9375 -27.875 68.9375 -27.3046875 66.109375 C-27.09199219 65.03429687 -27.09199219 65.03429687 -26.875 63.9375 C-27.37 63.4425 -27.37 63.4425 -27.875 62.9375 C-28.00014928 60.96130553 -28.0507276 58.98011827 -28.0625 57 C-28.07667969 55.91847656 -28.09085938 54.83695313 -28.10546875 53.72265625 C-27.875 50.9375 -27.875 50.9375 -25.875 48.9375 C-27.855 48.9375 -29.835 48.9375 -31.875 48.9375 C-31.875 52.2375 -31.875 55.5375 -31.875 58.9375 C-33.525 58.6075 -35.175 58.2775 -36.875 57.9375 C-36.875 55.2975 -36.875 52.6575 -36.875 49.9375 C-38.36 50.4325 -38.36 50.4325 -39.875 50.9375 C-46.04369788 51.44106717 -51.10825274 49.88682302 -56.875 47.9375 C-51.07225966 43.41185849 -46.07426964 42.57753652 -38.875 42.9375 C-38.215 43.2675 -37.555 43.5975 -36.875 43.9375 C-36.545 42.9475 -36.215 41.9575 -35.875 40.9375 C-34.555 40.9375 -33.235 40.9375 -31.875 40.9375 C-31.545 41.9275 -31.215 42.9175 -30.875 43.9375 C-27.575 44.2675 -24.275 44.5975 -20.875 44.9375 C-20.545 45.9275 -20.215 46.9175 -19.875 47.9375 C-18.885 47.6075 -17.895 47.2775 -16.875 46.9375 C-17.865 46.9375 -18.855 46.9375 -19.875 46.9375 C-19.5 44.5 -19.5 44.5 -18.875 41.9375 C-15.68675432 40.34337716 -12.24603338 40.83575265 -8.75 40.875 C-7.61884766 40.88176758 -7.61884766 40.88176758 -6.46484375 40.88867188 C-4.60152873 40.90046501 -2.73825445 40.91840058 -0.875 40.9375 C-0.875 39.9475 -0.875 38.9575 -0.875 37.9375 C-2.525 37.2775 -4.175 36.6175 -5.875 35.9375 C-6.37 36.9275 -6.37 36.9275 -6.875 37.9375 C-11.09378192 38.13372241 -14.04510894 37.73980168 -17.875 35.9375 C-18.125 33.625 -18.125 33.625 -17.875 30.9375 C-15.83075462 28.96139614 -14.7573175 27.9375 -11.875 27.9375 C-11.83375 27.339375 -11.7925 26.74125 -11.75 26.125 C-10.875 23.9375 -10.875 23.9375 -7.8125 22.1875 C-6.843125 21.775 -5.87375 21.3625 -4.875 20.9375 C-5.37 18.9575 -5.37 18.9575 -5.875 16.9375 C-7.855 16.6075 -9.835 16.2775 -11.875 15.9375 C-11.50622924 8.68500831 -11.50622924 8.68500831 -8.5 5.125 C-7.200625 4.0421875 -7.200625 4.0421875 -5.875 2.9375 C-5.400625 2.31875 -4.92625 1.7 -4.4375 1.0625 C-2.875 -0.0625 -2.875 -0.0625 0 0 Z M4.125 19.9375 C5.125 21.9375 5.125 21.9375 5.125 21.9375 Z M11.125 26.9375 C9.76881501 28.06284105 9.76881501 28.06284105 10.0625 31 C10.083125 31.969375 10.10375 32.93875 10.125 33.9375 C10.455 33.9375 10.785 33.9375 11.125 33.9375 C11.125 32.2875 11.125 30.6375 11.125 28.9375 C11.785 28.6075 12.445 28.2775 13.125 27.9375 C12.465 27.6075 11.805 27.2775 11.125 26.9375 Z M-11.875 27.9375 C-10.39 28.9275 -10.39 28.9275 -8.875 29.9375 C-8.875 29.2775 -8.875 28.6175 -8.875 27.9375 C-9.865 27.9375 -10.855 27.9375 -11.875 27.9375 Z M16.125 32.9375 C17.125 34.9375 17.125 34.9375 17.125 34.9375 Z M-12.875 44.9375 C-12.875 45.2675 -12.875 45.5975 -12.875 45.9375 C-7.925 45.9375 -2.975 45.9375 2.125 45.9375 C2.125 45.6075 2.125 45.2775 2.125 44.9375 C-2.825 44.9375 -7.775 44.9375 -12.875 44.9375 Z M-24.578125 50.1328125 C-26.32668679 52.5660521 -26.17796215 54.16147155 -26.0625 57.125 C-26.03542969 58.02605469 -26.00835937 58.92710937 -25.98046875 59.85546875 C-25.94566406 60.54253906 -25.91085938 61.22960937 -25.875 61.9375 C-24.885 62.4325 -24.885 62.4325 -23.875 62.9375 C-23.875 60.6275 -23.875 58.3175 -23.875 55.9375 C-20.905 55.9375 -17.935 55.9375 -14.875 55.9375 C-14.875 58.2475 -14.875 60.5575 -14.875 62.9375 C-13.885 62.6075 -12.895 62.2775 -11.875 61.9375 C-11.875 58.3075 -11.875 54.6775 -11.875 50.9375 C-16.01897387 48.86551307 -20.41332988 47.20981409 -24.578125 50.1328125 Z M-23.875 64.9375 C-23.875 65.2675 -23.875 65.5975 -23.875 65.9375 C-20.905 65.9375 -17.935 65.9375 -14.875 65.9375 C-15.205 67.5875 -15.535 69.2375 -15.875 70.9375 C-15.215 70.9375 -14.555 70.9375 -13.875 70.9375 C-13.545 72.2575 -13.215 73.5775 -12.875 74.9375 C-12.8440625 73.019375 -12.8440625 73.019375 -12.8125 71.0625 C-12.80089844 70.34320313 -12.78929687 69.62390625 -12.77734375 68.8828125 C-12.74850758 66.85564596 -12.74850758 66.85564596 -13.875 64.9375 C-17.175 64.9375 -20.475 64.9375 -23.875 64.9375 Z M-25.875 71.9375 C-25.875 74.2475 -25.875 76.5575 -25.875 78.9375 C-25.545 78.9375 -25.215 78.9375 -24.875 78.9375 C-24.875 76.6275 -24.875 74.3175 -24.875 71.9375 C-25.205 71.9375 -25.535 71.9375 -25.875 71.9375 Z " fill="#EC1B23" transform="translate(139.875,128.0625)"/>
<path d="M0 0 C0.66 0.66 1.32 1.32 2 2 C2.66 1.67 3.32 1.34 4 1 C3.505 0.01 3.505 0.01 3 -1 C14.55 -1 26.1 -1 38 -1 C38 0.65 38 2.3 38 4 C24.635 4.495 24.635 4.495 11 5 C8.99123363 8.77171292 8.99123363 8.77171292 8 12.0625 C7 15 7 15 5 18 C4.83333333 21.5 4.83333333 21.5 5 25 C5 25.99 5 26.98 5 28 C6.794375 27.9690625 6.794375 27.9690625 8.625 27.9375 C11.08014859 27.89516985 13.26097976 28.04551973 15.6875 28.46875 C19.9118026 29.14623249 24.10557877 29.35481683 28.375 29.5625 C29.62216797 29.62727539 29.62216797 29.62727539 30.89453125 29.69335938 C32.92953228 29.79861805 34.96474703 29.89973072 37 30 C37.9360342 33.79267192 37.98276252 36.93674565 37.5625 40.8125 C37.46066406 41.78832031 37.35882813 42.76414063 37.25390625 43.76953125 C37.12822266 44.87361328 37.12822266 44.87361328 37 46 C35.68 46.33 34.36 46.66 33 47 C32.82984375 46.37351563 32.6596875 45.74703125 32.484375 45.1015625 C32.24203125 44.28429687 31.9996875 43.46703125 31.75 42.625 C31.51796875 41.81289062 31.2859375 41.00078125 31.046875 40.1640625 C29.72659425 37.43482543 28.81098289 37.04217854 26 36 C23.55509323 36.01151707 23.55509323 36.01151707 20.97265625 36.49609375 C19.53696289 36.71555664 19.53696289 36.71555664 18.07226562 36.93945312 C17.07904297 37.10380859 16.08582031 37.26816406 15.0625 37.4375 C13.09629362 37.75644814 11.1288553 38.06791145 9.16015625 38.37109375 C8.29011963 38.51474365 7.42008301 38.65839355 6.52368164 38.80639648 C3.75359405 39.01890296 1.65558554 38.81507791 -1 38 C-2.80078125 35.3828125 -2.80078125 35.3828125 -4.3125 32.125 C-4.82425781 31.05507812 -5.33601563 29.98515625 -5.86328125 28.8828125 C-7 26 -7 26 -7 23 C-8.58468677 23.45363171 -10.16769924 23.91311452 -11.75 24.375 C-12.63171875 24.63023437 -13.5134375 24.88546875 -14.421875 25.1484375 C-16.76080572 25.9209934 -18.83442562 26.83625676 -21 28 C-20.34 28.66 -19.68 29.32 -19 30 C-18.734375 31.953125 -18.734375 31.953125 -18.75 34.25 C-18.74484375 34.99765625 -18.7396875 35.7453125 -18.734375 36.515625 C-19 39 -19 39 -19.9765625 41.6484375 C-21.3719081 46.21792805 -21.46226954 50.62191458 -21.625 55.375 C-21.68300781 56.76525391 -21.68300781 56.76525391 -21.7421875 58.18359375 C-21.83587591 60.4555377 -21.92159348 62.72748596 -22 65 C-23.10988281 64.98839844 -24.21976563 64.97679687 -25.36328125 64.96484375 C-28.78937623 64.85268317 -28.78937623 64.85268317 -31.1875 65.5625 C-33.41518561 66.10021722 -34.84457475 65.69281526 -37 65 C-37 64.01 -37 63.02 -37 62 C-31.25 59 -31.25 59 -29 59 C-29.04600342 58.12786865 -29.09200684 57.2557373 -29.1394043 56.35717773 C-29.30356141 53.09420265 -29.45271763 49.83123262 -29.59204102 46.56713867 C-29.65513103 45.15963425 -29.72403881 43.75237725 -29.79907227 42.34545898 C-29.90643757 40.31272398 -29.99223706 38.2799923 -30.07421875 36.24609375 C-30.13182373 35.02591553 -30.18942871 33.8057373 -30.2487793 32.54858398 C-29.8518623 26.88696624 -27.72680891 22.33637527 -23.9375 18.0625 C-23.43089844 17.47597656 -22.92429688 16.88945312 -22.40234375 16.28515625 C-21 15 -21 15 -19 15 C-19 14.34 -19 13.68 -19 13 C-19.66 13 -20.32 13 -21 13 C-19.75023244 9.34683329 -19.32901247 8.21934164 -16 6 C-15.01 6 -14.02 6 -13 6 C-12.67 5.01 -12.34 4.02 -12 3 C-10.29296875 1.796875 -10.29296875 1.796875 -8.1875 0.75 C-7.50042969 0.39421875 -6.81335938 0.0384375 -6.10546875 -0.328125 C-3.599374 -1.12784355 -2.42731108 -0.95667606 0 0 Z M-4 13 C-4.66 13.66 -5.32 14.32 -6 15 C-9.625 15.125 -9.625 15.125 -13 15 C-9.68162771 17.21224819 -8.83937792 17.35715143 -5 17 C-2.98177598 16.39072482 -0.97583715 15.73519522 1 15 C-1.38162009 13.58614089 -1.38162009 13.58614089 -4 13 Z " fill="#EC1B23" transform="translate(161,172)"/>
</svg>
