<?xml version="1.0" encoding="UTF-8"?>
<svg version="1.1" xmlns="http://www.w3.org/2000/svg" width="911" height="682">
<path d="M0 0 C0.57184021 0.24177979 1.14368042 0.48355957 1.73284912 0.73266602 C1.42601196 1.61559326 1.42601196 1.61559326 1.11297607 2.51635742 C-7.96202506 28.64580223 -16.99293462 54.7920582 -25.70465088 81.04516602 C-29.8799534 93.62676702 -34.13690323 106.17874755 -38.431427 118.72012329 C-44.1754779 135.4980512 -49.86367647 152.29466492 -55.54406738 169.09421921 C-62.40572992 189.38689692 -69.2792073 209.67524654 -76.21246338 229.94360352 C-76.75805774 231.53864826 -77.30363059 233.13370037 -77.84918213 234.72875977 C-78.11961334 235.51942841 -78.39004456 236.31009705 -78.66867065 237.12472534 C-82.74765297 249.05646767 -86.79953434 260.99745249 -90.85574341 272.93695068 C-94.58544195 283.91491147 -98.31777824 294.89191441 -102.07183838 305.86157227 C-102.37237122 306.73981659 -102.67290405 307.61806091 -102.98254395 308.5229187 C-103.27884705 309.38877594 -103.57515015 310.25463318 -103.88043213 311.14672852 C-108.56124994 324.82514701 -113.21379712 338.51124497 -117.76715088 352.23266602 C-121.92171306 364.75203207 -126.15846286 377.24162066 -130.43170166 389.72094727 C-136.17566367 406.49859963 -141.8637692 423.29493915 -147.54406738 440.09421921 C-154.40721408 460.39128618 -161.28257617 480.68388476 -168.21685791 500.95678711 C-168.76358822 502.55525098 -169.31030041 504.15372105 -169.85699463 505.75219727 C-170.12783875 506.54410461 -170.39868286 507.33601196 -170.67773438 508.1519165 C-175.06424101 520.98311371 -179.42191528 533.82414604 -183.78497314 546.66333008 C-184.50037536 548.76847711 -185.21578879 550.87362034 -185.93121338 552.97875977 C-186.46412239 554.54685898 -186.46412239 554.54685898 -187.00779724 556.14663696 C-189.57821246 563.70889356 -192.15228931 571.26989793 -194.72808838 578.83032227 C-195.09062714 579.89458435 -195.45316589 580.95884644 -195.82669067 582.05535889 C-198.64999817 590.34326334 -198.64999817 590.34326334 -200.0246582 594.37530518 C-201.84198061 599.70573207 -203.65570547 605.0373506 -205.46417236 610.37078857 C-206.23594532 612.64087811 -207.01376441 614.9088193 -207.7925415 617.17651367 C-208.24783522 618.51416818 -208.70292751 619.85189126 -209.15777588 621.18969727 C-209.54481689 622.31996338 -209.93185791 623.45022949 -210.33062744 624.61474609 C-211.4695891 628.16839945 -211.4695891 628.16839945 -212.26715088 633.73266602 C-302.68715088 633.73266602 -393.10715088 633.73266602 -486.26715088 633.73266602 C-488.90715088 626.14266602 -491.54715088 618.55266602 -494.26715088 610.73266602 C-498.36644966 598.81198748 -498.36644966 598.81198748 -502.68902588 586.97094727 C-505.24966778 580.19652714 -507.52448276 573.31657359 -509.862854 566.46313477 C-511.90577432 560.51820196 -514.05257371 554.65005903 -516.42510986 548.82885742 C-517.41368425 546.36788331 -518.27100607 543.88318724 -519.07965088 541.35766602 C-523.33709493 528.36913554 -527.95131551 515.50485327 -532.70294189 502.68994141 C-534.68249898 497.34351696 -536.61972924 491.98379379 -538.51715088 486.60766602 C-538.75119629 485.94549072 -538.9852417 485.28331543 -539.22637939 484.60107422 C-540.40153699 481.25749611 -541.54319201 477.90542551 -542.6506958 474.53881836 C-544.17509261 469.95979293 -545.81363557 465.42984362 -547.48980713 460.90454102 C-548.11210397 459.21530412 -548.73424971 457.52601154 -549.35626221 455.83666992 C-549.67833649 454.96310852 -550.00041077 454.08954712 -550.33224487 453.18951416 C-555.62897005 438.81479551 -560.82275107 424.41903903 -565.74957275 409.91308594 C-567.77769144 403.96767141 -569.86519442 398.05074666 -572.06402588 392.16625977 C-572.29643478 391.54404541 -572.52884369 390.92183105 -572.76829529 390.28076172 C-573.88041985 387.31061548 -575.00186861 384.34432381 -576.13360596 381.3815918 C-576.72758179 379.80933838 -576.72758179 379.80933838 -577.33355713 378.20532227 C-577.68361816 377.29016846 -578.0336792 376.37501465 -578.39434814 375.43212891 C-579.3275634 372.54581812 -579.83927888 369.73217823 -580.26715088 366.73266602 C-586.19952174 371.63332021 -591.61334036 377.0001676 -596.99029541 382.49291992 C-599.88763615 385.433172 -602.82613697 388.25106026 -605.96636963 390.93188477 C-610.38888736 394.78210057 -614.52119704 398.87678668 -618.64215088 403.04516602 C-619.79529785 404.20399292 -619.79529785 404.20399292 -620.97174072 405.38623047 C-623.40600853 407.83260783 -625.83699194 410.28220742 -628.26715088 412.73266602 C-631.47251266 415.9648029 -634.68129161 419.19349136 -637.89215088 422.42016602 C-638.97375488 423.51421753 -638.97375488 423.51421753 -640.07720947 424.63037109 C-644.0164976 428.58840032 -648.05981492 432.33366551 -652.28863525 435.97900391 C-655.74163647 439.03957988 -658.96305563 442.32635573 -662.20465088 445.60766602 C-662.92902344 446.3358252 -663.653396 447.06398438 -664.39971924 447.81420898 C-666.69133391 450.11792248 -668.9796574 452.42486076 -671.26715088 454.73266602 C-674.28500169 457.77731381 -677.30628504 460.81849569 -680.32965088 463.85766602 C-681.00697266 464.54328613 -681.68429443 465.22890625 -682.38214111 465.93530273 C-686.23988226 469.81252023 -690.21319974 473.47188893 -694.3538208 477.04418945 C-697.32826358 479.66907733 -700.1093165 482.47004307 -702.89215088 485.29516602 C-703.77894531 486.18764038 -703.77894531 486.18764038 -704.68365479 487.09814453 C-706.54731588 488.97386258 -708.4076593 490.85281504 -710.26715088 492.73266602 C-712.72245861 495.21485668 -715.18125935 497.69351244 -717.64215088 500.17016602 C-718.46126953 501.00173218 -718.46126953 501.00173218 -719.29693604 501.85009766 C-722.16267135 504.73355471 -725.09226024 507.48167379 -728.17144775 510.13696289 C-732.45515861 513.84353781 -736.44306039 517.79883521 -740.42340088 521.82641602 C-741.16996948 522.57677124 -741.91653809 523.32712646 -742.68572998 524.10021973 C-745.04867113 526.47526522 -747.40832458 528.85353418 -749.76715088 531.23266602 C-752.87875734 534.37105819 -755.99378842 537.50599346 -759.11090088 540.63891602 C-760.15969421 541.70015686 -760.15969421 541.70015686 -761.22967529 542.78283691 C-765.1448374 546.71717838 -769.16982652 550.43886762 -773.37271118 554.06307983 C-776.27749845 556.62309412 -778.99322713 559.35351343 -781.70855713 562.11157227 C-782.27992905 562.6867308 -782.85130096 563.26188934 -783.43998718 563.85447693 C-785.23904207 565.66558115 -787.03477058 567.47992516 -788.82965088 569.29516602 C-791.20294764 571.69530497 -793.5797111 574.0919346 -795.95855713 576.48657227 C-796.48792374 577.02423721 -797.01729034 577.56190216 -797.56269836 578.11585999 C-800.78463689 581.35849585 -804.13473017 584.36202257 -807.62557983 587.31182861 C-809.96389612 589.33572349 -812.11000724 591.51777374 -814.26715088 593.73266602 C-815.36288066 594.8407033 -816.45955361 595.94780834 -817.5569458 597.05419922 C-818.44763008 597.95456657 -818.44763008 597.95456657 -819.35630798 598.87312317 C-822.01786759 601.56143816 -824.68473973 604.2444568 -827.35186768 606.92724609 C-828.76086632 608.34638731 -830.16807716 609.76730565 -831.57354736 611.18994141 C-833.60609338 613.246614 -835.64491445 615.29687595 -837.68511963 617.34594727 C-838.31532516 617.98647537 -838.9455307 618.62700348 -839.59483337 619.28694153 C-841.11477974 620.80728083 -842.68642064 622.27562776 -844.26715088 623.73266602 C-844.92715088 623.73266602 -845.58715088 623.73266602 -846.26715088 623.73266602 C-846.57459229 624.54670898 -846.57459229 624.54670898 -846.88824463 625.37719727 C-848.8103467 628.66056143 -851.52097921 630.91249064 -854.32965088 633.42016602 C-862.98598117 641.30558466 -871.2043561 649.61111619 -879.43341064 657.93652344 C-884.35737037 662.90605369 -889.30601949 667.77462397 -894.63360596 672.31738281 C-897.47222932 674.77673113 -900.01533386 677.51213301 -902.60308838 680.22875977 C-904.26715088 681.73266602 -904.26715088 681.73266602 -906.26715088 681.73266602 C-905.71165109 675.7847844 -904.43585001 670.63863979 -902.43121338 665.02563477 C-902.15119476 664.21959305 -901.87117615 663.41355133 -901.58267212 662.58308411 C-900.69326638 660.0261083 -899.7934534 657.47297001 -898.89215088 654.92016602 C-897.71283469 651.56116363 -896.53847545 648.20047606 -895.36871338 644.83813477 C-895.08906235 644.03559769 -894.80941132 643.23306061 -894.52128601 642.40620422 C-892.7556889 637.29012161 -891.17416466 632.16536492 -889.86749268 626.90991211 C-889.22444682 624.57779218 -888.38450384 622.402117 -887.45465088 620.17016602 C-885.64910989 615.81522821 -884.11277885 611.39693059 -882.64215088 606.92016602 C-880.06359271 599.08384455 -877.40171424 591.27899 -874.70465088 583.48266602 C-873.83987751 580.98012727 -872.97522615 578.477547 -872.11090088 575.97485352 C-871.88556168 575.32238144 -871.66022247 574.66990936 -871.42805481 573.99766541 C-868.50794438 565.53855624 -865.60381041 557.07397573 -862.70465088 548.60766602 C-862.42905334 547.8030191 -862.15345581 546.99837219 -861.86950684 546.16934204 C-857.84499053 534.41305103 -853.87203673 522.64108613 -849.98175049 510.83959961 C-849.64925293 509.83364746 -849.31675537 508.82769531 -848.97418213 507.79125977 C-848.69034668 506.92815186 -848.40651123 506.06504395 -848.11407471 505.17578125 C-847.55979063 503.57684184 -846.9648028 501.99130164 -846.32574463 500.42431641 C-844.92801742 496.87036289 -843.78060466 493.24472976 -842.62261963 489.60766602 C-842.10514967 487.99695418 -841.58756782 486.38627828 -841.06988525 484.77563477 C-840.26558831 482.26650118 -839.46242187 479.75701942 -838.66143799 477.24682617 C-835.78029007 468.22703638 -832.81273089 459.30565769 -829.34112549 450.49365234 C-827.83352935 446.61790679 -826.54692928 442.68813768 -825.26715088 438.73266602 C-824.44845815 436.2594589 -823.62818431 433.78681376 -822.80621338 431.31469727 C-822.57765656 430.62645874 -822.34909973 429.93822021 -822.11361694 429.22912598 C-816.75830991 413.10455098 -811.328458 397.00774267 -805.81137085 380.93780518 C-802.26797097 370.61448544 -798.76437379 360.28025871 -795.32965088 349.92016602 C-789.38285955 331.99305782 -783.25453129 314.12818464 -777.13287354 296.26019287 C-776.01659693 293.00115941 -774.90146961 289.7417333 -773.78636169 286.4822998 C-772.48898905 282.69051624 -771.19077458 278.89902128 -769.89215088 275.10766602 C-769.64492279 274.38585144 -769.3976947 273.66403687 -769.14297485 272.92034912 C-765.72172339 262.93530053 -762.27827238 252.95830951 -758.76373291 243.00561523 C-757.3853194 239.07640641 -756.07537173 235.14783992 -754.90777588 231.15063477 C-752.94234182 224.49226517 -750.63731976 217.94827474 -748.36843872 211.3888855 C-747.02509558 207.50386043 -745.68914377 203.61629596 -744.35308838 199.72875977 C-744.08812057 198.95804642 -743.82315277 198.18733307 -743.55015564 197.39326477 C-741.23823542 190.66221214 -738.95771129 183.92118203 -736.70465088 177.17016602 C-736.39503418 176.24574707 -736.08541748 175.32132813 -735.76641846 174.36889648 C-734.33375693 170.06175115 -732.96214683 165.74651082 -731.67730713 161.39282227 C-730.69730634 158.08908821 -729.62617224 154.90371585 -728.26715088 151.73266602 C-726.54511723 147.56180884 -725.22867869 143.36651674 -723.98199463 139.03344727 C-722.98630535 135.82874244 -721.58842976 132.81565008 -720.26715088 129.73266602 C-719.85412024 128.39540907 -719.46058123 127.05207484 -719.07965088 125.70532227 C-716.58752334 117.27054739 -713.63096282 108.98407617 -710.76715088 100.67016602 C-709.89041426 98.11959348 -709.01422884 95.56883255 -708.1383667 93.01795959 C-707.59691813 91.44160342 -707.05488876 89.86544657 -706.512146 88.28953552 C-704.73197148 83.11431901 -702.99252829 77.92637963 -701.26715088 72.73266602 C-700.75611707 71.20899862 -700.24458748 69.68549713 -699.73199463 68.16235352 C-699.47998291 67.41083008 -699.22797119 66.65930664 -698.96832275 65.88500977 C-698.45645819 64.35857988 -697.9434247 62.8325415 -697.42926025 61.30688477 C-697.1785376 60.55793945 -696.92781494 59.80899414 -696.66949463 59.03735352 C-696.33679565 58.04711182 -696.33679565 58.04711182 -695.99737549 57.03686523 C-695.02092807 53.9557182 -694.155096 50.84047394 -693.26715088 47.73266602 C-603.17715088 47.73266602 -513.08715088 47.73266602 -420.26715088 47.73266602 C-414.01268275 64.79030637 -407.76867497 81.83008291 -401.74349976 98.96640015 C-396.87064455 112.82142153 -391.98500908 126.66729856 -386.82965088 140.42016602 C-383.69980671 148.77477882 -380.70954536 157.16365063 -377.82965088 165.60766602 C-373.02196686 179.70368489 -367.99353265 193.7178889 -362.95465088 207.73266602 C-357.16755059 223.83139315 -351.4083035 239.93806988 -345.759552 256.08587646 C-340.58067825 270.8877467 -335.31098972 285.65664094 -330.02593994 300.42089844 C-329.71555786 301.28816055 -329.40517578 302.15542267 -329.08538818 303.04896545 C-328.50249358 304.67729776 -327.91926006 306.30550881 -327.33563232 307.93357849 C-326.28798833 310.85917529 -325.24987155 313.78450401 -324.26715088 316.73266602 C-323.58652588 315.99016602 -323.58652588 315.99016602 -322.89215088 315.23266602 C-321.26715088 313.73266602 -321.26715088 313.73266602 -319.26715088 313.73266602 C-318.60715088 312.41266602 -317.94715088 311.09266602 -317.26715088 309.73266602 C-316.60715088 309.73266602 -315.94715088 309.73266602 -315.26715088 309.73266602 C-315.06090088 309.17579102 -314.85465088 308.61891602 -314.64215088 308.04516602 C-313.13151076 305.504544 -311.32856913 303.96759105 -308.99761963 302.17407227 C-306.59896738 300.17609782 -304.46699448 297.9477432 -302.26715088 295.73266602 C-301.3598674 294.82316193 -300.45258392 293.91365784 -299.51780701 292.97659302 C-298.51260351 291.96838398 -297.50742176 290.96015326 -296.5022583 289.9519043 C-290.86509757 284.29838673 -285.22537892 278.64742801 -279.58420849 272.99791145 C-276.18023397 269.58871914 -272.77720135 266.17859745 -269.37628174 262.76635742 C-266.07241924 259.45157333 -262.76606908 256.13928894 -259.45803261 252.8286705 C-258.20497221 251.57377532 -256.95278597 250.31800657 -255.70152855 249.06131363 C-244.69968781 238.01356336 -244.69968781 238.01356336 -240.28790283 234.25561523 C-234.74078847 229.52357392 -229.68889054 224.263955 -224.55407715 219.09475708 C-222.60458333 217.13234962 -220.65185163 215.17321448 -218.69830322 213.21484375 C-214.55175179 209.05693627 -210.40915455 204.89510325 -206.26715088 200.73266602 C-201.46249009 195.9043026 -196.65616694 191.07761825 -191.84558105 186.25515747 C-189.93372609 184.33688087 -188.02493882 182.41558859 -186.11627197 180.49414062 C-180.95607281 175.31241767 -175.8064744 170.22028082 -170.23565674 165.47631836 C-166.30768292 161.99701922 -162.65467307 158.227398 -158.96162415 154.50230408 C-157.44902756 152.97672625 -155.93313886 151.45448515 -154.41644287 149.9329834 C-151.19715976 146.70237648 -147.98184976 143.46783379 -144.76715088 140.23266602 C-141.03639438 136.47815475 -137.30394337 132.72535988 -133.56721497 128.97679138 C-132.08744532 127.49062913 -130.61076523 126.00144606 -129.13421631 124.51208496 C-125.27179954 120.63571769 -121.42474244 116.79802332 -117.26934814 113.23486328 C-112.58645615 109.21906383 -108.27239223 104.85061411 -103.93105888 100.47173882 C-102.41453303 98.94223836 -100.89472069 97.41606886 -99.37409973 95.89064026 C-96.1480976 92.65331449 -92.92607376 89.41204773 -89.70465088 86.17016602 C-85.9630915 82.40487286 -82.2198471 78.64128624 -78.47233772 74.88191414 C-76.98643592 73.38960496 -75.50361535 71.8942822 -74.0209198 70.39878845 C-70.20495305 66.56904011 -66.41524381 62.77363907 -62.28302002 59.28369141 C-59.96009855 57.31880787 -58.23618977 55.6037016 -56.32965088 53.29516602 C-54.27627306 50.81401165 -52.17054317 48.71215753 -49.70367432 46.64282227 C-44.60028181 42.23208082 -39.93155023 37.42969946 -35.22027588 32.60766602 C-33.79505355 31.16036594 -32.3680087 29.71487746 -30.94097519 28.2693634 C-27.45277069 24.73568201 -23.96897709 21.1978686 -20.5010376 17.64428711 C-18.07110321 15.15510984 -15.62925395 12.67819487 -13.17897797 10.20904541 C-11.80078438 8.81340252 -10.43586632 7.40469041 -9.07116699 5.99584961 C-8.23639832 5.15747559 -7.40162964 4.31910156 -6.54156494 3.45532227 C-5.81068665 2.71032471 -5.07980835 1.96532715 -4.32678223 1.19775391 C-2.26715088 -0.26733398 -2.26715088 -0.26733398 0 0 Z " fill="#005DAC" transform="translate(906.2671508789063,0.267333984375)"/>
<path d="M0 0 C0.99 0.33 1.98 0.66 3 1 C4.23068229 3.76903515 5.26899303 6.45475965 6.25 9.3125 C6.55301025 10.16481201 6.85602051 11.01712402 7.16821289 11.89526367 C8.1240279 14.59282992 9.0632074 17.29577572 10 20 C10.57618417 21.64605706 11.1529889 23.29189705 11.73046875 24.9375 C12.58830248 27.38463267 13.44437678 29.832306 14.29492188 32.28198242 C16.85959483 39.65828593 19.53248363 46.99354713 22.24780273 54.31567383 C24.12587291 59.42385191 25.78149544 64.5497897 27.31201172 69.77197266 C28.1733286 72.56131894 29.25774161 75.2060384 30.4375 77.875 C32.49175475 82.69061203 34.23368318 87.52196257 35.84765625 92.5 C38.15077679 99.49524068 40.63860905 106.42794526 43.08105469 113.37548828 C43.96967675 115.91339666 44.84967124 118.45411126 45.7265625 120.99609375 C48.6148932 129.34878924 51.60842856 137.63800917 54.8125 145.875 C58.73302633 155.97159168 62.1469765 166.22530093 65.49926758 176.52099609 C67.49917899 182.63145346 69.59105863 188.64208973 72.03515625 194.58862305 C73.80912927 199.02220896 75.32643202 203.546356 76.875 208.0625 C77.57527629 210.0886262 78.27579923 212.11466717 78.9765625 214.140625 C79.48944824 215.6265918 79.48944824 215.6265918 80.01269531 217.14257812 C84.32359749 229.78775902 84.32359749 229.78775902 89.125 242.25 C91.07533524 246.99689031 92.52575324 251.85729497 94 256.76953125 C95.48932852 261.58076048 97.24128539 266.28217826 99 271 C99.58405689 272.62474008 100.16736325 274.24975011 100.75 275.875 C102.42713766 280.51218539 104.20039942 285.1083574 105.98510742 289.70483398 C107.38512355 293.33700817 108.74987338 296.98177769 110.10644531 300.63037109 C110.85102573 302.60493326 111.6354835 304.56440063 112.4296875 306.51953125 C114.62887897 312.61418978 114.62887897 312.61418978 113.13671875 315.90234375 C111.27183377 318.18164761 109.19243491 320.02908897 107 322 C105.81446243 323.18690932 104.63673204 324.38164343 103.46484375 325.58203125 C93.5295933 335.73005476 93.5295933 335.73005476 88.28491211 340.21069336 C83.8685824 344.05765617 79.74118191 348.1489475 75.625 352.3125 C74.47185303 353.4713269 74.47185303 353.4713269 73.29541016 354.65356445 C70.86114235 357.09994182 68.43015894 359.5495414 66 362 C62.79463822 365.23213688 59.58585927 368.46082535 56.375 371.6875 C55.293396 372.78155151 55.293396 372.78155151 54.18994141 373.89770508 C50.25065328 377.85573431 46.20733596 381.6009995 41.97851562 385.24633789 C38.52551441 388.30691387 35.30409524 391.59368972 32.0625 394.875 C31.33812744 395.60315918 30.61375488 396.33131836 29.86743164 397.08154297 C27.57581697 399.38525646 25.28749348 401.69219474 23 404 C19.98214919 407.04464779 16.96086584 410.08582967 13.9375 413.125 C13.26017822 413.81062012 12.58285645 414.49624023 11.88500977 415.20263672 C8.02726862 419.07985421 4.05395114 422.73922291 -0.08666992 426.31152344 C-3.0611127 428.93641131 -5.84216562 431.73737705 -8.625 434.5625 C-9.51179443 435.45497437 -9.51179443 435.45497437 -10.41650391 436.36547852 C-12.280165 438.24119657 -14.14050842 440.12014903 -16 442 C-18.45530773 444.48219066 -20.91410847 446.96084642 -23.375 449.4375 C-24.19411865 450.26906616 -24.19411865 450.26906616 -25.02978516 451.11743164 C-27.89552047 454.00088869 -30.82510936 456.74900777 -33.90429688 459.40429688 C-38.18800773 463.11087179 -42.17590951 467.0661692 -46.15625 471.09375 C-46.9028186 471.84410522 -47.64938721 472.59446045 -48.4185791 473.36755371 C-50.78152025 475.7425992 -53.1411737 478.12086817 -55.5 480.5 C-58.61160646 483.63839217 -61.72663755 486.77332745 -64.84375 489.90625 C-65.89254333 490.96749084 -65.89254333 490.96749084 -66.96252441 492.0501709 C-70.87768652 495.98451236 -74.90267564 499.70620161 -79.1055603 503.33041382 C-82.01034757 505.8904281 -84.72607626 508.62084741 -87.44140625 511.37890625 C-88.01277817 511.95406479 -88.58415009 512.52922333 -89.1728363 513.12181091 C-90.97189119 514.93291513 -92.7676197 516.74725914 -94.5625 518.5625 C-96.93579676 520.96263895 -99.31256022 523.35926858 -101.69140625 525.75390625 C-102.22077286 526.2915712 -102.75013947 526.82923615 -103.29554749 527.38319397 C-106.51748601 530.62582983 -109.8675793 533.62935656 -113.35842896 536.5791626 C-115.69674524 538.60305748 -117.84285636 540.78510772 -120 543 C-121.09572978 544.10803729 -122.19240274 545.21514233 -123.28979492 546.3215332 C-124.1804792 547.22190056 -124.1804792 547.22190056 -125.0891571 548.14045715 C-127.75071671 550.82877214 -130.41758886 553.51179079 -133.0847168 556.19458008 C-134.49371544 557.61372129 -135.90092628 559.03463964 -137.30639648 560.45727539 C-139.3389425 562.51394799 -141.37776357 564.56420994 -143.41796875 566.61328125 C-144.04817429 567.25380936 -144.67837982 567.89433746 -145.3276825 568.55427551 C-146.84762886 570.07461482 -148.41926977 571.54296174 -150 573 C-150.66 573 -151.32 573 -152 573 C-152.30744141 573.81404297 -152.30744141 573.81404297 -152.62109375 574.64453125 C-154.54319582 577.92789541 -157.25382833 580.17982463 -160.0625 582.6875 C-168.71883029 590.57291865 -176.93720522 598.87845017 -185.16625977 607.20385742 C-190.09021949 612.17338767 -195.03886861 617.04195795 -200.36645508 621.5847168 C-203.20507844 624.04406512 -205.74818298 626.77946699 -208.3359375 629.49609375 C-210 631 -210 631 -212 631 C-211.44450021 625.05211839 -210.16869913 619.90597377 -208.1640625 614.29296875 C-207.88404388 613.48692703 -207.60402527 612.68088531 -207.31552124 611.85041809 C-206.4261155 609.29344228 -205.52630252 606.74030399 -204.625 604.1875 C-203.44568381 600.82849761 -202.27132457 597.46781005 -201.1015625 594.10546875 C-200.82191147 593.30293167 -200.54226044 592.50039459 -200.25413513 591.67353821 C-198.48853802 586.55745559 -196.90701378 581.43269891 -195.6003418 576.17724609 C-194.95729594 573.84512616 -194.11735296 571.66945099 -193.1875 569.4375 C-191.38195901 565.08256219 -189.84562798 560.66426457 -188.375 556.1875 C-185.79644183 548.35117854 -183.13456336 540.54632398 -180.4375 532.75 C-179.57272663 530.24746125 -178.70807528 527.74488099 -177.84375 525.2421875 C-177.6184108 524.58971542 -177.39307159 523.93724335 -177.16090393 523.26499939 C-174.2407935 514.80589022 -171.33665953 506.34130972 -168.4375 497.875 C-168.0241037 496.66802963 -168.0241037 496.66802963 -167.60235596 495.43667603 C-163.57783965 483.68038501 -159.60488585 471.90842012 -155.71459961 460.10693359 C-155.38210205 459.10098145 -155.04960449 458.0950293 -154.70703125 457.05859375 C-154.4231958 456.19548584 -154.13936035 455.33237793 -153.84692383 454.44311523 C-153.29263975 452.84417583 -152.69765193 451.25863562 -152.05859375 449.69165039 C-150.66086654 446.13769687 -149.51345379 442.51206375 -148.35546875 438.875 C-147.83799879 437.26428816 -147.32041694 435.65361227 -146.80273438 434.04296875 C-145.99843743 431.53383517 -145.19527099 429.02435341 -144.39428711 426.51416016 C-141.51313919 417.49437036 -138.54558001 408.57299168 -135.07397461 399.76098633 C-133.56637847 395.88524077 -132.2797784 391.95547167 -131 388 C-130.18130727 385.52679289 -129.36103343 383.05414774 -128.5390625 380.58203125 C-128.31050568 379.89379272 -128.08194885 379.2055542 -127.84646606 378.49645996 C-122.49115903 362.37188496 -117.06130712 346.27507665 -111.54421997 330.20513916 C-108.00082009 319.88181943 -104.49722291 309.54759269 -101.0625 299.1875 C-95.11570867 281.2603918 -88.98738042 263.39551863 -82.86572266 245.52752686 C-81.74944605 242.26849339 -80.63431873 239.00906728 -79.51921082 235.74963379 C-78.22183817 231.95785022 -76.9236237 228.16635527 -75.625 224.375 C-75.37777191 223.65318542 -75.13054382 222.93137085 -74.87582397 222.18768311 C-71.45457251 212.20263451 -68.0111215 202.22564349 -64.49658203 192.27294922 C-63.11816853 188.34374039 -61.80822085 184.41517391 -60.640625 180.41796875 C-58.67519094 173.75959915 -56.37016888 167.21560873 -54.10128784 160.65621948 C-52.7579447 156.77119442 -51.42199289 152.88362994 -50.0859375 148.99609375 C-49.8209697 148.2253804 -49.55600189 147.45466705 -49.28300476 146.66059875 C-46.97108454 139.92954612 -44.69056042 133.18851601 -42.4375 126.4375 C-42.1278833 125.51308105 -41.8182666 124.58866211 -41.49926758 123.63623047 C-40.06660605 119.32908514 -38.69499595 115.0138448 -37.41015625 110.66015625 C-36.43015546 107.3564222 -35.35902136 104.17104984 -34 101 C-32.27796635 96.82914282 -30.96152781 92.63385072 -29.71484375 88.30078125 C-28.71915447 85.09607642 -27.32127889 82.08298407 -26 79 C-25.58696936 77.66274306 -25.19343035 76.31940883 -24.8125 74.97265625 C-22.32037246 66.53788137 -19.36381194 58.25141016 -16.5 49.9375 C-15.62326338 47.38692747 -14.74707796 44.83616653 -13.87121582 42.28529358 C-13.32976725 40.70893741 -12.78773788 39.13278055 -12.24499512 37.55686951 C-10.46482043 32.3816525 -8.72539529 27.19370804 -7 22 C-6.47723497 20.44118057 -5.95397465 18.8825269 -5.4296875 17.32421875 C-5.04490234 16.17663086 -5.04490234 16.17663086 -4.65234375 15.00585938 C-4.12743792 13.4403739 -3.60136746 11.87527852 -3.07421875 10.31054688 C-2.82027344 9.55193359 -2.56632813 8.79332031 -2.3046875 8.01171875 C-2.07765137 7.33584717 -1.85061523 6.65997559 -1.61669922 5.96362305 C-0.99701968 3.99051039 -0.48106191 2.01097351 0 0 Z " fill="#8EC644" transform="translate(212,51)"/>
<path d="M0 0 C0.57184021 0.24177979 1.14368042 0.48355957 1.73284912 0.73266602 C1.52829102 1.32128418 1.32373291 1.90990234 1.11297607 2.51635742 C-7.96202506 28.64580223 -16.99293462 54.7920582 -25.70465088 81.04516602 C-29.8799534 93.62676702 -34.13690323 106.17874755 -38.431427 118.72012329 C-44.1754779 135.4980512 -49.86367647 152.29466492 -55.54406738 169.09421921 C-62.40572992 189.38689692 -69.2792073 209.67524654 -76.21246338 229.94360352 C-76.75805774 231.53864826 -77.30363059 233.13370037 -77.84918213 234.72875977 C-78.25482895 235.91476273 -78.25482895 235.91476273 -78.66867065 237.12472534 C-82.74765297 249.05646767 -86.79953434 260.99745249 -90.85574341 272.93695068 C-94.58544195 283.91491147 -98.31777824 294.89191441 -102.07183838 305.86157227 C-102.37237122 306.73981659 -102.67290405 307.61806091 -102.98254395 308.5229187 C-103.27884705 309.38877594 -103.57515015 310.25463318 -103.88043213 311.14672852 C-108.56124994 324.82514701 -113.21379712 338.51124497 -117.76715088 352.23266602 C-121.92171306 364.75203207 -126.15846286 377.24162066 -130.43170166 389.72094727 C-136.17566367 406.49859963 -141.8637692 423.29493915 -147.54406738 440.09421921 C-154.40721408 460.39128618 -161.28257617 480.68388476 -168.21685791 500.95678711 C-168.76358822 502.55525098 -169.31030041 504.15372105 -169.85699463 505.75219727 C-170.12783875 506.54410461 -170.39868286 507.33601196 -170.67773438 508.1519165 C-175.06424101 520.98311371 -179.42191528 533.82414604 -183.78497314 546.66333008 C-184.50037536 548.76847711 -185.21578879 550.87362034 -185.93121338 552.97875977 C-186.28648605 554.02415924 -186.64175873 555.06955872 -187.00779724 556.14663696 C-189.57821246 563.70889356 -192.15228931 571.26989793 -194.72808838 578.83032227 C-195.09062714 579.89458435 -195.45316589 580.95884644 -195.82669067 582.05535889 C-198.64999817 590.34326334 -198.64999817 590.34326334 -200.0246582 594.37530518 C-200.66794031 596.26212958 -201.31094361 598.14904907 -201.9536438 600.03607178 C-202.55931354 601.81348545 -203.16599011 603.59055641 -203.77377319 605.36724854 C-205.12556957 609.32822 -206.45556081 613.29289518 -207.722229 617.28198242 C-207.94574036 617.9787056 -208.16925171 618.67542877 -208.39953613 619.39326477 C-208.98549881 621.22907877 -209.56087565 623.06826254 -210.13531494 624.90771484 C-211.20884842 627.58714882 -212.0538592 628.938438 -214.26715088 630.73266602 C-214.66547119 629.58668945 -215.0637915 628.44071289 -215.47418213 627.26000977 C-216.00921026 625.73001704 -216.54437373 624.20007164 -217.07965088 622.67016602 C-217.34068604 621.91799805 -217.60172119 621.16583008 -217.8706665 620.39086914 C-219.4977392 615.75069886 -221.32121095 611.2507659 -223.26715088 606.73266602 C-224.18638154 604.23799875 -225.08352882 601.74378064 -225.95465088 599.23266602 C-226.2052124 598.5163501 -226.45577393 597.80003418 -226.71392822 597.06201172 C-227.26555015 595.48339856 -227.8159503 593.90435808 -228.36529541 592.32495117 C-229.33894652 589.52629727 -230.3166119 586.72906275 -231.29449463 583.93188477 C-237.67645531 565.65329481 -237.67645531 565.65329481 -240.38043213 557.33032227 C-242.00848344 552.56092084 -243.83690031 547.86516464 -245.62652588 543.15454102 C-250.84992556 529.36241826 -255.78464387 515.46188567 -260.34527588 501.43579102 C-261.57256726 497.83712308 -262.92193965 494.28861825 -264.26715088 490.73266602 C-268.10807279 480.50583062 -271.84017876 470.25971472 -275.22540283 459.87182617 C-276.58717773 455.70416159 -278.04868621 451.5925836 -279.60650635 447.49414062 C-280.36694758 445.46657836 -281.04811917 443.4210514 -281.70465088 441.35766602 C-282.70696909 438.30137179 -283.81811257 435.32892835 -285.04840088 432.35766602 C-287.73202389 425.69746309 -290.01793838 418.90366868 -292.32965088 412.10766602 C-294.88560818 404.61322393 -297.4382003 397.12902841 -300.26715088 389.73266602 C-304.11202125 379.5074793 -307.84025779 369.25947222 -311.22540283 358.87182617 C-312.7825625 354.10619331 -314.49328785 349.42213265 -316.26715088 344.73266602 C-316.73685527 343.36150876 -317.19769401 341.98721396 -317.64215088 340.60766602 C-318.55449567 337.78724528 -319.53815287 335.02821933 -320.60308838 332.26000977 C-321.30304932 330.42116211 -321.30304932 330.42116211 -322.01715088 328.54516602 C-322.46574463 327.39661133 -322.91433838 326.24805664 -323.37652588 325.06469727 C-324.34019227 321.4594015 -324.29437744 319.29898594 -323.26715088 315.73266602 C-321.32965088 314.60766602 -321.32965088 314.60766602 -319.26715088 313.73266602 C-317.99910522 311.69907121 -317.99910522 311.69907121 -317.26715088 309.73266602 C-316.60715088 309.73266602 -315.94715088 309.73266602 -315.26715088 309.73266602 C-315.06090088 309.17579102 -314.85465088 308.61891602 -314.64215088 308.04516602 C-313.13151076 305.504544 -311.32856913 303.96759105 -308.99761963 302.17407227 C-306.59896738 300.17609782 -304.46699448 297.9477432 -302.26715088 295.73266602 C-301.3598674 294.82316193 -300.45258392 293.91365784 -299.51780701 292.97659302 C-298.51260351 291.96838398 -297.50742176 290.96015326 -296.5022583 289.9519043 C-290.86509757 284.29838673 -285.22537892 278.64742801 -279.58420849 272.99791145 C-276.18023397 269.58871914 -272.77720135 266.17859745 -269.37628174 262.76635742 C-266.07241924 259.45157333 -262.76606908 256.13928894 -259.45803261 252.8286705 C-258.20497221 251.57377532 -256.95278597 250.31800657 -255.70152855 249.06131363 C-244.69968781 238.01356336 -244.69968781 238.01356336 -240.28790283 234.25561523 C-234.74078847 229.52357392 -229.68889054 224.263955 -224.55407715 219.09475708 C-222.60458333 217.13234962 -220.65185163 215.17321448 -218.69830322 213.21484375 C-214.55175179 209.05693627 -210.40915455 204.89510325 -206.26715088 200.73266602 C-201.46249009 195.9043026 -196.65616694 191.07761825 -191.84558105 186.25515747 C-189.93372609 184.33688087 -188.02493882 182.41558859 -186.11627197 180.49414062 C-180.95607281 175.31241767 -175.8064744 170.22028082 -170.23565674 165.47631836 C-166.30768292 161.99701922 -162.65467307 158.227398 -158.96162415 154.50230408 C-157.44902756 152.97672625 -155.93313886 151.45448515 -154.41644287 149.9329834 C-151.19715976 146.70237648 -147.98184976 143.46783379 -144.76715088 140.23266602 C-141.03639438 136.47815475 -137.30394337 132.72535988 -133.56721497 128.97679138 C-132.08744532 127.49062913 -130.61076523 126.00144606 -129.13421631 124.51208496 C-125.27179954 120.63571769 -121.42474244 116.79802332 -117.26934814 113.23486328 C-112.58645615 109.21906383 -108.27239223 104.85061411 -103.93105888 100.47173882 C-102.41453303 98.94223836 -100.89472069 97.41606886 -99.37409973 95.89064026 C-96.1480976 92.65331449 -92.92607376 89.41204773 -89.70465088 86.17016602 C-85.9630915 82.40487286 -82.2198471 78.64128624 -78.47233772 74.88191414 C-76.98643592 73.38960496 -75.50361535 71.8942822 -74.0209198 70.39878845 C-70.20495305 66.56904011 -66.41524381 62.77363907 -62.28302002 59.28369141 C-59.96009855 57.31880787 -58.23618977 55.6037016 -56.32965088 53.29516602 C-54.27627306 50.81401165 -52.17054317 48.71215753 -49.70367432 46.64282227 C-44.60028181 42.23208082 -39.93155023 37.42969946 -35.22027588 32.60766602 C-33.79505355 31.16036594 -32.3680087 29.71487746 -30.94097519 28.2693634 C-27.45277069 24.73568201 -23.96897709 21.1978686 -20.5010376 17.64428711 C-18.07110321 15.15510984 -15.62925395 12.67819487 -13.17897797 10.20904541 C-11.80078438 8.81340252 -10.43586632 7.40469041 -9.07116699 5.99584961 C-8.23639832 5.15747559 -7.40162964 4.31910156 -6.54156494 3.45532227 C-5.81068665 2.71032471 -5.07980835 1.96532715 -4.32678223 1.19775391 C-2.26715088 -0.26733398 -2.26715088 -0.26733398 0 0 Z " fill="#8EC543" transform="translate(906.2671508789063,0.267333984375)"/>
<path d="M0 0 C1.72251754 4.0845326 0.07280563 7.36973696 -1.4375 11.25 C-1.68048828 11.8996875 -1.92347656 12.549375 -2.17382812 13.21875 C-2.77285994 14.81616817 -3.38514321 16.40860594 -4 18 C-5.10795403 14.64492793 -4.87235419 12.3046391 -4.125 8.875 C-3.94195313 8.00617188 -3.75890625 7.13734375 -3.5703125 6.2421875 C-3 4 -3 4 -2 2 C-1.34 2 -0.68 2 0 2 C0 1.34 0 0.68 0 0 Z " fill="#659036" transform="translate(812,277)"/>
<path d="M0 0 C1.13643966 3.40931897 0.86747764 4.00335456 -0.4375 7.1875 C-0.72496094 7.90292969 -1.01242187 8.61835937 -1.30859375 9.35546875 C-1.53675781 9.89816406 -1.76492188 10.44085938 -2 11 C-2.66 11 -3.32 11 -4 11 C-3.125 4.25 -3.125 4.25 -2 2 C-1.34 2 -0.68 2 0 2 C0 1.34 0 0.68 0 0 Z " fill="#74A53C" transform="translate(896,30)"/>
<path d="M0 0 C1.13643966 3.40931897 0.86747764 4.00335456 -0.4375 7.1875 C-0.86869141 8.26064453 -0.86869141 8.26064453 -1.30859375 9.35546875 C-1.53675781 9.89816406 -1.76492188 10.44085938 -2 11 C-2.33 11 -2.66 11 -3 11 C-3.125 4.25 -3.125 4.25 -2 2 C-1.34 2 -0.68 2 0 2 C0 1.34 0 0.68 0 0 Z " fill="#5D8636" transform="translate(765,416)"/>
<path d="M0 0 C1.13643966 3.40931897 0.86747764 4.00335456 -0.4375 7.1875 C-0.86869141 8.26064453 -0.86869141 8.26064453 -1.30859375 9.35546875 C-1.53675781 9.89816406 -1.76492188 10.44085938 -2 11 C-2.33 11 -2.66 11 -3 11 C-3.125 4.25 -3.125 4.25 -2 2 C-1.34 2 -0.68 2 0 2 C0 1.34 0 0.68 0 0 Z " fill="#618A34" transform="translate(857,145)"/>
<path d="M0 0 C0.66 0 1.32 0 2 0 C1.01 3.3 0.02 6.6 -1 10 C-1.66 9.34 -2.32 8.68 -3 8 C-3 7.01 -3 6.02 -3 5 C-2.34 5 -1.68 5 -1 5 C-0.67 3.35 -0.34 1.7 0 0 Z " fill="#5C8639" transform="translate(867,114)"/>
</svg>
