<svg width="64" height="64" viewBox="0 0 64 64" fill="none" xmlns="http://www.w3.org/2000/svg">
<g clip-path="url(#clip0_6_2176)">
<path d="M32 64C49.6731 64 64 49.6731 64 32C64 14.3269 49.6731 0 32 0C14.3269 0 0 14.3269 0 32C0 49.6731 14.3269 64 32 64Z" fill="white" style="fill:white;fill-opacity:1;"/>
<path d="M18.6667 32H48L18.8352 2.83521C17.8631 3.27471 16.9174 3.76071 16 4.29161C15.0812 4.82331 14.1914 5.39871 13.3333 6.01621C5.2613 11.8256 0 21.2955 0 32C0 42.7045 5.2613 52.1744 13.3333 57.9837C14.1914 58.6013 15.0811 59.1766 16 59.7084C17.0347 60.3072 18.1043 60.8513 19.2081 61.3334C23.1266 63.0447 27.4508 64.0001 32 64.0001C36.5492 64.0001 40.8734 63.0447 44.7919 61.3334C45.5282 61.0118 46.2502 60.6639 46.9564 60.2898L18.6667 32Z" fill="#F0263C" style="fill:#F0263C;fill:color(display-p3 0.9412 0.1490 0.2353);fill-opacity:1;"/>
<path d="M54.438 34.6667L21.532 1.7608C20.6131 2.0789 19.714 2.438 18.8352 2.8353L48 32.0001H18.6667L46.9564 60.2898C47.7703 59.8586 48.5614 59.3914 49.3317 58.8939L25.1046 34.6668L54.438 34.6667Z" fill="#191977" style="fill:#191977;fill:color(display-p3 0.0980 0.0980 0.4667);fill-opacity:1;"/>
<path d="M16 53.3334C19.6819 53.3334 22.6667 50.3486 22.6667 46.6667C22.6667 42.9848 19.6819 40 16 40C12.318 40 9.33325 42.9848 9.33325 46.6667C9.33325 50.3486 12.318 53.3334 16 53.3334Z" fill="white" style="fill:white;fill-opacity:1;"/>
<path d="M23.7378 16.6667C23.1539 18.9307 21.6043 20.8022 19.5566 21.8248C19.8381 21.2773 20 20.6581 20 20C20 17.7909 18.2091 16 16 16C13.7909 16 12 17.7909 12 20C12 20.658 12.1618 21.2773 12.4434 21.8248C10.3957 20.8022 8.8461 18.9307 8.2622 16.6667C8.097 17.307 8 17.9748 8 18.6667C8 23.085 11.5817 26.6667 16 26.6667C20.4183 26.6667 24 23.085 24 18.6667C24 17.9748 23.903 17.307 23.7378 16.6667Z" fill="white" style="fill:white;fill-opacity:1;"/>
</g>
<defs>
<clipPath id="clip0_6_2176">
<rect width="64" height="64" fill="white" style="fill:white;fill-opacity:1;"/>
</clipPath>
</defs>
</svg>
