<svg width="64" height="64" viewBox="0 0 64 64" fill="none" xmlns="http://www.w3.org/2000/svg">
<g clip-path="url(#clip0_6_2233)">
<path d="M32 64C45.9319 64 57.7782 55.0939 62.1719 42.6667H32V64Z" fill="#619B27" style="fill:#619B27;fill:color(display-p3 0.3804 0.6078 0.1529);fill-opacity:1;"/>
<path d="M62.1719 21.3334C57.7782 8.9061 45.9319 0 32 0V21.3333L62.1719 21.3334Z" fill="white" style="fill:white;fill-opacity:1;"/>
<path d="M62.1719 21.3334H32V0C17.2798 0 4.881 9.9392 1.1488 23.4727C1.1377 23.5128 1.1345 23.5531 1.127 23.5932C0.397 26.2727 0 29.0891 0 32C0 35.7412 0.6483 39.3296 1.8281 42.6667C6.2218 55.0939 18.068 64 32 64V42.6667H62.1719C63.3518 39.3296 64 35.7412 64 32C64 28.2588 63.3517 24.6705 62.1719 21.3334Z" fill="#F0263C" style="fill:#F0263C;fill:color(display-p3 0.9412 0.1490 0.2353);fill-opacity:1;"/>
<path d="M10.6667 10.6667V13.3334H14.6667V12.6667H16V11.3334H14.6667V10.6667H10.6667Z" fill="white" style="fill:white;fill-opacity:1;"/>
<path d="M21.3333 14.6667V13.3872L21.3573 13.3882L26 6.6667L26.6667 4L24 6.6667L21.3333 11.1112V9.3334L20 5.3334L18.6667 9.3334V11.1112L16 6.6667L14.5289 5.1957C14.2705 5.3644 14.0144 5.536 13.7613 5.7121L14 6.6668L18.6427 13.3883L12 14.6668L17.3333 16.0001L12.6666 20.0001L10.6666 21.3334L13.2157 21.3454L19.9999 16.0001L26.7841 21.3454L29.3332 21.3334L27.3332 20.0001L21.3333 14.6667Z" fill="white" style="fill:white;fill-opacity:1;"/>
<path d="M20 4L18.6667 5.3334H20H21.3333L20 4Z" fill="white" style="fill:white;fill-opacity:1;"/>
<path d="M29.3333 13.3334V10.6667H25.3333V11.3334H24V12.6667H25.3333V13.3334H29.3333Z" fill="white" style="fill:white;fill-opacity:1;"/>
</g>
<defs>
<clipPath id="clip0_6_2233">
<rect width="64" height="64" fill="white" style="fill:white;fill-opacity:1;"/>
</clipPath>
</defs>
</svg>
