<?xml version="1.0" encoding="UTF-8"?>
<svg version="1.1" xmlns="http://www.w3.org/2000/svg" width="180" height="180">
<path d="M0 0 C20.18557492 15.02703911 34.84762139 33.9836572 39.43310547 59.28271484 C42.93154147 85.20355917 38.17830086 109.98998717 22.25390625 130.96875 C21.44824219 132 20.64257812 133.03125 19.8125 134.09375 C19.20277344 134.8775 18.59304687 135.66125 17.96484375 136.46875 C5.30111324 151.79695336 -15.12191748 163.28324216 -34.8984375 165.87841797 C-55.76869379 167.84168227 -74.53983415 166.01912053 -93.1875 156.09375 C-94.0228125 155.66578125 -94.858125 155.2378125 -95.71875 154.796875 C-116.44288634 143.35822832 -131.00127476 123.9989122 -137.625 101.46875 C-144.15662741 76.80673082 -140.99759746 50.82810003 -128.24462891 28.80078125 C-125.61709703 24.55789374 -122.48373696 20.82296723 -119.1875 17.09375 C-118.7440625 16.50851563 -118.300625 15.92328125 -117.84375 15.3203125 C-91.31388252 -19.13616172 -34.59012324 -23.47186934 0 0 Z " fill="#01ABF5" transform="translate(140.1875,13.90625)"/>
<path d="M0 0 C1.84453071 -0.01641156 3.68900187 -0.04350062 5.53320312 -0.08203125 C19.1113354 -0.36409144 30.76377621 -0.01804204 41.54882812 9.35009766 C43.27929688 11.53369141 43.27929688 11.53369141 44.73632812 13.78759766 C45.46916016 14.89941406 45.46916016 14.89941406 46.21679688 16.03369141 C51.07708486 24.48574646 50.86478194 35.05400725 48.89648438 44.47119141 C45.39722776 54.09790168 39.03098567 59.72727043 29.9765625 64.11962891 C24.10733562 66.22653086 18.46036414 65.9860096 12.29882812 65.72509766 C10.44837891 65.68449219 10.44837891 65.68449219 8.56054688 65.64306641 C5.55472928 65.57316367 2.55277159 65.47510171 -0.45117188 65.35009766 C-0.44331665 66.88718384 -0.44331665 66.88718384 -0.43530273 68.45532227 C-0.41725219 72.24405042 -0.40573968 76.03277475 -0.39624023 79.8215332 C-0.39120014 81.4637923 -0.38436809 83.10604689 -0.37573242 84.74829102 C-0.36365262 87.10385244 -0.35794049 89.45935474 -0.35351562 91.81494141 C-0.34835434 92.55348862 -0.34319305 93.29203583 -0.33787537 94.05296326 C-0.33767938 95.81907854 -0.38922469 97.58506911 -0.45117188 99.35009766 C-2.20677129 101.10569707 -4.48699629 100.48231685 -6.82226562 100.48681641 C-7.52480469 100.48294922 -8.22734375 100.47908203 -8.95117188 100.47509766 C-9.65371094 100.47896484 -10.35625 100.48283203 -11.08007812 100.48681641 C-16.3245581 100.47671144 -16.3245581 100.47671144 -17.45117188 99.35009766 C-17.55181386 96.31144005 -17.58731777 93.29547036 -17.58056641 90.25634766 C-17.58231873 89.30195801 -17.58407104 88.34756836 -17.58587646 87.36425781 C-17.59029674 84.19285288 -17.58735637 81.02150321 -17.58398438 77.85009766 C-17.58465736 75.65673817 -17.58562735 73.46337876 -17.58688354 71.27001953 C-17.58836076 66.6664967 -17.58620521 62.06299324 -17.58154297 57.45947266 C-17.57584567 51.54405171 -17.57912455 45.62867612 -17.58511543 39.71325684 C-17.58872042 35.1821254 -17.58758275 30.6510048 -17.58498764 26.11987305 C-17.5843182 23.93806961 -17.58514739 21.7562652 -17.58746719 19.57446289 C-17.58999269 16.53089776 -17.58615457 13.4874072 -17.58056641 10.44384766 C-17.58259064 9.5326416 -17.58461487 8.62143555 -17.58670044 7.68261719 C-17.54974429 -3.12336153 -8.9150497 0.05795096 0 0 Z " fill="#FAFDFE" transform="translate(80.451171875,39.64990234375)"/>
<path d="M0 0 C3.17625 -0.061875 6.3525 -0.12375 9.625 -0.1875 C11.1092749 -0.22846802 11.1092749 -0.22846802 12.62353516 -0.27026367 C18.62931488 -0.32671582 23.06376757 0.25905144 27.64453125 4.53515625 C32.59414939 11.00773382 32.7195507 15.90751886 32 24 C30.25 27.5625 30.25 27.5625 28 30 C27.319375 30.763125 26.63875 31.52625 25.9375 32.3125 C22.80942148 35.03695549 20.09406901 35.12178224 16.11328125 35.09765625 C15.26805908 35.09515869 14.42283691 35.09266113 13.55200195 35.09008789 C12.48296631 35.08098389 11.41393066 35.07187988 10.3125 35.0625 C5.2078125 35.0315625 5.2078125 35.0315625 0 35 C0 23.45 0 11.9 0 0 Z " fill="#07ADF5" transform="translate(80,55)"/>
<path d="M0 0 C2.75569447 2.18159145 4.43588747 3.87177494 6 7 C6.67660495 12.86390959 6.67660495 12.86390959 4.953125 15.7578125 C3.16405507 17.93626824 1.54084375 19.72957812 -1 21 C-8.0505676 21.57791538 -8.0505676 21.57791538 -11.875 19.25 C-14.78565508 16.16812992 -15.79996385 14.31452329 -16.4375 10.125 C-15.82244681 5.7317629 -14.08098355 4.15434031 -11 1 C-7.52736727 -0.73631636 -3.78806987 -0.60190402 0 0 Z " fill="#08ADF5" transform="translate(104,120)"/>
<path d="M0 0 C2.75569447 2.18159145 4.43588747 3.87177494 6 7 C6.67660495 12.86390959 6.67660495 12.86390959 4.953125 15.7578125 C3.16405507 17.93626824 1.54084375 19.72957812 -1 21 C-8.0505676 21.57791538 -8.0505676 21.57791538 -11.875 19.25 C-14.78565508 16.16812992 -15.79996385 14.31452329 -16.4375 10.125 C-15.82244681 5.7317629 -14.08098355 4.15434031 -11 1 C-7.52736727 -0.73631636 -3.78806987 -0.60190402 0 0 Z M-13 5 C-14.41000664 7.82001327 -14.24548451 9.87007255 -14 13 C-12.23526445 16.71156874 -12.23526445 16.71156874 -9 19 C-5.94094019 19.41338646 -3.05467898 19.46661171 0 19 C2.7149409 16.88102174 3.67792702 15.41370088 4.44140625 12.0625 C4.63965142 9.8354053 4.57560903 8.16289455 4 6 C1.11756811 2.70579213 -0.74148444 1.23115592 -5.0625 0.4375 C-8.67781108 1.12979361 -10.38108416 2.45591033 -13 5 Z " fill="#B0E4FB" transform="translate(104,120)"/>
<path d="M0 0 C2.31 0 4.62 0 7 0 C7.85329541 3.09319586 8 5.79336115 8 9 C7.34 9 6.68 9 6 9 C5.67 8.34 5.34 7.68 5 7 C4.01 6.67 3.02 6.34 2 6 C2 6.99 2 7.98 2 9 C1.34 9 0.68 9 0 9 C0 6.03 0 3.06 0 0 Z " fill="#84D6FA" transform="translate(95,126)"/>
</svg>
