<svg width="64" height="64" viewBox="0 0 64 64" fill="none" xmlns="http://www.w3.org/2000/svg">
<g clip-path="url(#clip0_6_2251)">
<path d="M42.6667 1.83759V62.1815C55.0939 57.7877 64 45.9415 64 32.0096C64 18.0777 55.0939 6.23129 42.6667 1.83759Z" fill="#F0263C" style="fill:#F0263C;fill:color(display-p3 0.9412 0.1490 0.2353);fill-opacity:1;"/>
<path d="M21.3333 62.1814V1.83759C8.9061 6.23129 0 18.0775 0 32.0095C0 45.9415 8.9061 57.7877 21.3333 62.1814Z" fill="#F0263C" style="fill:#F0263C;fill:color(display-p3 0.9412 0.1490 0.2353);fill-opacity:1;"/>
<path d="M42.6667 1.8566C39.3295 0.676703 35.7412 0.0285034 32 0.0285034C28.2588 0.0285034 24.6705 0.676703 21.3333 1.8565V62.2004C24.6704 63.3803 28.2588 64.0285 32 64.0285C35.7412 64.0285 39.3295 63.3803 42.6667 62.2004V1.8566Z" fill="white" style="fill:white;fill-opacity:1;"/>
<path d="M35.9687 25.4366L33.3333 26.6952L32 26.6762L30.6667 26.6952L28 25.3428L26.6667 26.6761V32.0094H37.3334V26.6761L35.9687 25.4366ZM30.6666 30.6762H27.9999V28.0095H30.6666V30.6762ZM35.9999 30.6762H33.3333V28.0095H35.9999V30.6762Z" fill="#CC9500" style="fill:#CC9500;fill:color(display-p3 0.8000 0.5843 0.0000);fill-opacity:1;"/>
<path d="M36 28.0095H33.3333V30.6762H36V28.0095Z" fill="white" style="fill:white;fill-opacity:1;"/>
<path d="M30.6667 28.0095H28V30.6762H30.6667V28.0095Z" fill="white" style="fill:white;fill-opacity:1;"/>
<path d="M31.9999 32.0095H26.6666V36.0285V37.3619L27.9999 38.6952H29.3332L31.9999 40.0285L34.6666 38.6952L35.9904 38.6857L35.9828 38.7009L35.9999 38.6952L37.3332 37.3619V36.0285V32.0095H31.9999Z" fill="#F0263C" style="fill:#F0263C;fill:color(display-p3 0.9412 0.1490 0.2353);fill-opacity:1;"/>
<path d="M34.6666 38.6952L31.9999 40.0285L29.3332 38.6952H27.9999L29.3332 41.3428L26.6666 41.3619V42.6952H37.3332V41.3619L34.6666 41.3428L35.9828 38.7009L35.9904 38.6857L34.6666 38.6952Z" fill="#CC9500" style="fill:#CC9500;fill:color(display-p3 0.8000 0.5843 0.0000);fill-opacity:1;"/>
<path d="M25.3333 38.6762L24 37.3428L25.3333 34.6762H24L25.3333 30.6762H24L25.3333 28.0095H24V26.6762L25.3333 22.6762L22.6667 24.0095V28.0095L21.3333 26.6762V29.3428L22.6667 33.3428H21.3333L22.6667 36.0095H21.3333L22.6667 38.6762L25.3542 41.322L29.3333 41.3428L26.6667 40.0095L25.3333 38.6762Z" fill="#619B27" style="fill:#619B27;fill:color(display-p3 0.3804 0.6078 0.1529);fill-opacity:1;"/>
<path d="M42.6666 26.6762L41.3332 28.0095V24.0095L38.6666 22.6762L39.9999 26.6762V28.0095H38.6666L39.9999 30.6762H38.6666L39.9999 34.6762H38.6666L39.9999 37.3428L38.6666 38.6762L37.3332 40.0095L34.6666 41.3428L38.6457 41.322L41.3332 38.6762L42.6666 36.0095H41.3332L42.6666 33.3428H41.3332L42.6666 29.3428V26.6762Z" fill="#619B27" style="fill:#619B27;fill:color(display-p3 0.3804 0.6078 0.1529);fill-opacity:1;"/>
<path d="M28 37.3619H33.3333L36 34.6952V33.3619H29.3333L28 34.6952V37.3619Z" fill="#CC9500" style="fill:#CC9500;fill:color(display-p3 0.8000 0.5843 0.0000);fill-opacity:1;"/>
<path d="M32 26.6762C30.7135 26.6762 29.6667 25.6293 29.6667 24.3429C29.6667 23.0565 30.7136 22.0096 32 22.0096C33.2864 22.0096 34.3333 23.0565 34.3333 24.3429C34.3333 25.6293 33.2864 26.6762 32 26.6762ZM32 23.3429C31.4486 23.3429 31 23.7915 31 24.3429C31 24.8943 31.4486 25.3429 32 25.3429C32.5514 25.3429 33 24.8943 33 24.3429C33 23.7915 32.5514 23.3429 32 23.3429Z" fill="#CC9500" style="fill:#CC9500;fill:color(display-p3 0.8000 0.5843 0.0000);fill-opacity:1;"/>
<path d="M30.6667 28.0095H28V30.6762H30.6667V28.0095Z" fill="#4DAFE3" style="fill:#4DAFE3;fill:color(display-p3 0.3020 0.6863 0.8902);fill-opacity:1;"/>
</g>
<defs>
<clipPath id="clip0_6_2251">
<rect width="64" height="64" fill="white" style="fill:white;fill-opacity:1;"/>
</clipPath>
</defs>
</svg>
