<svg width="64" height="64" viewBox="0 0 64 64" fill="none" xmlns="http://www.w3.org/2000/svg">
<g clip-path="url(#clip0_6_2282)">
<path d="M32 0C49.6732 0 64 14.3268 64 32C64 40.8366 60.4183 48.8366 54.6274 54.6274L9.37256 9.3726C15.1634 3.5817 23.1634 0 32 0Z" fill="#F0263C" style="fill:#F0263C;fill:color(display-p3 0.9412 0.1490 0.2353);fill-opacity:1;"/>
<path d="M0 32C0 23.1634 3.5817 15.1634 9.3726 9.37262L54.6275 54.6275C48.8366 60.4184 40.8366 64.0001 32.0001 64.0001C14.3268 64 0 49.6732 0 32Z" fill="black" style="fill:black;fill-opacity:1;"/>
<path d="M22.6666 32L20 34.6667L22.6666 37.3333L25.3333 34.6667L22.6666 32Z" fill="white" style="fill:white;fill-opacity:1;"/>
<path d="M8.66664 32.6667L6 35.3334L8.66664 38L11.3333 35.3334L8.66664 32.6667Z" fill="white" style="fill:white;fill-opacity:1;"/>
<path d="M15.9999 22.72L13.3333 25.3867L15.9999 28.0533L18.6665 25.3867L15.9999 22.72Z" fill="white" style="fill:white;fill-opacity:1;"/>
<path d="M15.9999 45.12L13.3333 47.7866L15.9999 50.4533L18.6665 47.7866L15.9999 45.12Z" fill="white" style="fill:white;fill-opacity:1;"/>
<path d="M19.3333 40.0001L18 41.3334L19.3333 42.6667L20.6666 41.3334L19.3333 40.0001Z" fill="white" style="fill:white;fill-opacity:1;"/>
<path d="M50.6667 20L46.6667 14.6667L42.6667 16V9.33331H41.3333L38.6667 13.3333V17.1589L36 14.6667H33.3333V16.0555H34.619L37.3333 18.6667H32L29.3333 22.6667V24H36L37.3333 22.6667L40 26.6667L45.3333 29.3333V25.3333L43.989 22.7231L46.6667 24L49.3333 27.3137V30.6667L46.6667 33.3333V34.6667H48L50.6667 32V26.6667L48.6667 24H50.6667V20Z" fill="#FFD400" style="fill:#FFD400;fill:color(display-p3 1.0000 0.8314 0.0000);fill-opacity:1;"/>
</g>
<defs>
<clipPath id="clip0_6_2282">
<rect width="64" height="64" fill="white" style="fill:white;fill-opacity:1;"/>
</clipPath>
</defs>
</svg>
