<svg width="64" height="64" viewBox="0 0 64 64" fill="none" xmlns="http://www.w3.org/2000/svg">
<g clip-path="url(#clip0_6_2396)">
<path d="M1.8281 21.3333C0.6482 24.6705 0 28.2588 0 32C0 35.7412 0.6482 39.3295 1.8281 42.6667H62.1719C63.3518 39.3296 64 35.7412 64 32C64 28.2588 63.3518 24.6705 62.1719 21.3333H1.8281Z" fill="white" style="fill:white;fill-opacity:1;"/>
<path d="M1.82812 21.3333H62.1719C57.7782 8.9061 45.9319 0 32 0C18.0681 0 6.22183 8.9061 1.82812 21.3333Z" fill="#F0263C" style="fill:#F0263C;fill:color(display-p3 0.9412 0.1490 0.2353);fill-opacity:1;"/>
<path d="M62.1719 42.6667H1.82812C6.22192 55.0939 18.0681 64 32 64C45.9319 64 57.7782 55.0939 62.1719 42.6667Z" fill="#2D25C5" style="fill:#2D25C5;fill:color(display-p3 0.1765 0.1451 0.7725);fill-opacity:1;"/>
<path d="M31.9999 40.9764C27.0507 40.9764 23.024 36.9497 23.024 32.0002C23.024 27.0507 27.0507 23.024 31.9999 23.024C36.9491 23.024 40.9758 27.0507 40.9758 32.0002C40.9758 36.9497 36.9491 40.9764 31.9999 40.9764ZM31.9999 23.6431C27.3918 23.6431 23.6425 27.3921 23.6425 32.0002C23.6425 36.6083 27.3918 40.3573 31.9999 40.3573C36.608 40.3573 40.3573 36.6083 40.3573 32.0002C40.3573 27.3921 36.608 23.6431 31.9999 23.6431Z" fill="black" style="fill:black;fill-opacity:1;"/>
<path d="M34.3333 32.0001L32 29.6667L29.6667 32.0001L32 34.3334L34.3333 32.0001Z" fill="#FFD400" style="fill:#FFD400;fill:color(display-p3 1.0000 0.8314 0.0000);fill-opacity:1;"/>
<path d="M32 36L29.3333 34.6667L28.6667 33.3333V32V30.6667L30.6667 29.3333H29.3333L31.3333 28H30L29.3333 27.3333L28 29.3333H27.3333L28 30.6667H26.6667L28 32H26.6667L28 34H27.3333L28.6667 36H29.3333V37.3333L32 36Z" fill="#1E5B00" style="fill:#1E5B00;fill:color(display-p3 0.1176 0.3569 0.0000);fill-opacity:1;"/>
<path d="M32 36L34.6667 34.6667L35.3333 33.3333V32V30.6667L33.3333 29.3333H34.6667L32.6667 28H34L34.6667 27.3333L36 29.3333H36.6667L36 30.6667H37.3333L36 32H37.3333L36 34H36.6667L35.3333 36H34.6667V37.3333L32 36Z" fill="#1E5B00" style="fill:#1E5B00;fill:color(display-p3 0.1176 0.3569 0.0000);fill-opacity:1;"/>
<path d="M32.0001 25.981C32.5022 25.981 32.9874 26.0498 33.4537 26.1665L33.7768 24.8744C33.2068 24.7317 32.6137 24.6477 32.0001 24.6477C31.3865 24.6477 30.7934 24.7318 30.2234 24.8744L30.5465 26.1665C31.0128 26.0498 31.498 25.981 32.0001 25.981Z" fill="#999999" style="fill:#999999;fill:color(display-p3 0.6000 0.6000 0.6000);fill-opacity:1;"/>
<path d="M26 31.981C26 29.6365 27.3548 27.6072 29.3198 26.6206L28.7243 25.4294C26.3226 26.6353 24.6667 29.1155 24.6667 31.981C24.6667 33.6298 25.2202 35.148 26.1423 36.3743L27.2074 35.5756C26.453 34.5723 26 33.33 26 31.981Z" fill="#999999" style="fill:#999999;fill:color(display-p3 0.6000 0.6000 0.6000);fill-opacity:1;"/>
<path d="M39.3334 31.981C39.3334 29.1156 37.6775 26.6353 35.2758 25.4294L34.6803 26.6206C36.6453 27.6072 38.0001 29.6365 38.0001 31.981C38.0001 33.33 37.5471 34.5723 36.7927 35.5755L37.8578 36.3742C38.7798 35.148 39.3334 33.6298 39.3334 31.981Z" fill="#999999" style="fill:#999999;fill:color(display-p3 0.6000 0.6000 0.6000);fill-opacity:1;"/>
</g>
<defs>
<clipPath id="clip0_6_2396">
<rect width="64" height="64" fill="white" style="fill:white;fill-opacity:1;"/>
</clipPath>
</defs>
</svg>
