<svg width="64" height="64" viewBox="0 0 64 64" fill="none" xmlns="http://www.w3.org/2000/svg">
<g clip-path="url(#clip0_6_2411)">
<path d="M21.3333 55.3333L33.3333 52L21.3333 48.6667L33.3333 45.3334L21.3333 42.0001L33.3333 38.6668L21.3333 35.3335L33.3333 32.0002L21.3333 28.6669L33.3333 25.3336L21.3333 22.0003L33.3333 18.667L21.3333 15.3337L33.3333 12.0004L21.3333 8.66708L33.3333 5.33378L22.0698 1.57928C9.2596 5.75798 0 17.7945 0 32C0 46.2055 9.2596 58.2419 22.0699 62.4211L33.3334 58.6666L21.3333 55.3333Z" fill="white" style="fill:white;fill-opacity:1;"/>
<path d="M64 32C64 14.3269 49.6731 0 32 0C28.5324 0 25.1969 0.5587 22.0698 1.5788L33.3333 5.3333L21.3333 8.6666L33.3333 11.9999L21.3333 15.3332L33.3333 18.6665L21.3333 21.9998L33.3333 25.3331L21.3333 28.6664L33.3333 31.9997L21.3333 35.333L33.3333 38.6663L21.3333 41.9996L33.3333 45.3329L21.3333 48.6662L33.3333 51.9995L21.3333 55.3328L33.3333 58.6661L22.0698 62.4206C25.1968 63.4407 28.5323 63.9995 31.9999 63.9995C49.673 63.9995 64 49.6731 64 32Z" fill="#960A3C" style="fill:#960A3C;fill:color(display-p3 0.5882 0.0392 0.2353);fill-opacity:1;"/>
</g>
<defs>
<clipPath id="clip0_6_2411">
<rect width="64" height="64" fill="white" style="fill:white;fill-opacity:1;"/>
</clipPath>
</defs>
</svg>
