<?xml version="1.0" encoding="UTF-8"?>
<svg xmlns="http://www.w3.org/2000/svg" xmlns:xlink="http://www.w3.org/1999/xlink" width="200px" height="126px" viewBox="0 0 200 126" version="1.1">
<g id="surface1">
<path style=" stroke:none;fill-rule:evenodd;fill:rgb(54.509807%,20%,57.254905%);fill-opacity:1;" d="M 148.546875 16.363281 L 119.070312 45.933594 L 121.101562 62.507812 L 126.5625 51.128906 L 143.367188 72.621094 L 166.894531 0 L 88.542969 32.660156 L 109.757812 43.824219 Z M 148.546875 16.363281 "/>
<path style=" stroke:none;fill-rule:nonzero;fill:rgb(54.509807%,20%,57.254905%);fill-opacity:1;" d="M 122.921875 68.199219 C 122.921875 68.199219 97.992188 68.199219 91.902344 68.199219 C 68.234375 71.847656 65.785156 106.335938 91.621094 110.96875 L 122.921875 110.96875 L 122.921875 79.855469 C 133.355469 80.207031 135.523438 93.269531 127.820312 98.046875 C 129.363281 99.871094 135.59375 106.617188 135.59375 106.617188 C 151.910156 92.5 142.597656 69.390625 122.921875 68.199219 Z M 111.578125 99.382812 C 111.578125 99.382812 95.542969 99.382812 94.28125 99.382812 C 83.570312 100.011719 80.070312 82.246094 93.234375 79.925781 C 97.082031 79.925781 111.578125 79.925781 111.578125 79.925781 Z M 111.578125 99.382812 "/>
<path style=" stroke:none;fill-rule:evenodd;fill:rgb(54.509807%,20%,57.254905%);fill-opacity:1;" d="M 187.828125 83.789062 C 182.648438 83.789062 176.414062 83.789062 176.414062 83.789062 L 171.515625 95.238281 C 171.515625 95.238281 184.675781 95.238281 186.007812 95.238281 C 188.949219 95.097656 189.019531 99.382812 186.007812 99.664062 C 182.226562 99.664062 160.941406 99.664062 160.941406 99.664062 L 160.941406 79.925781 L 199.453125 79.925781 L 199.453125 68.265625 C 199.453125 68.265625 194.058594 68.265625 193.78125 68.265625 C 192.097656 44.105469 163.320312 43.40625 155.757812 56.609375 C 157.230469 57.871094 164.300781 64.125 164.300781 64.125 C 168.644531 57.3125 180.6875 57.664062 182.4375 68.265625 L 149.597656 68.265625 L 149.597656 111.039062 L 186.566406 111.039062 C 194.96875 110.898438 198.820312 104.71875 199.730469 99.382812 C 200.292969 90.8125 195.109375 85.125 187.828125 83.789062 Z M 187.828125 83.789062 "/>
<path style=" stroke:none;fill-rule:evenodd;fill:rgb(54.509807%,20%,57.254905%);fill-opacity:1;" d="M 77.199219 68.199219 L 62.214844 68.199219 C 57.453125 74.027344 49.121094 97.625 65.574219 115.394531 C 65.574219 115.394531 72.71875 109.285156 74.117188 108.160156 C 69.007812 103.246094 60.605469 83.15625 77.199219 68.199219 Z M 77.199219 68.199219 "/>
<path style=" stroke:none;fill-rule:evenodd;fill:rgb(54.509807%,20%,57.254905%);fill-opacity:1;" d="M 38.96875 115.886719 C 38.96875 121.082031 34.765625 125.296875 29.585938 125.296875 C 24.402344 125.296875 20.203125 121.082031 20.203125 115.886719 C 20.203125 110.6875 24.402344 106.476562 29.585938 106.476562 C 34.765625 106.476562 38.96875 110.617188 38.96875 115.886719 Z M 38.96875 115.886719 "/>
<path style=" stroke:none;fill-rule:evenodd;fill:rgb(54.509807%,20%,57.254905%);fill-opacity:1;" d="M 18.941406 68.199219 C -4.722656 71.847656 -7.175781 106.335938 18.664062 110.96875 L 18.800781 110.96875 C 20.621094 106.894531 24.753906 104.015625 29.515625 104.015625 C 34.277344 104.015625 38.335938 106.894531 40.226562 110.96875 L 49.960938 110.96875 C 49.960938 109.566406 49.960938 68.199219 49.960938 68.199219 C 49.960938 68.199219 25.035156 68.199219 18.941406 68.199219 Z M 38.617188 99.382812 C 38.617188 99.382812 22.582031 99.382812 21.324219 99.382812 C 10.609375 100.011719 7.109375 82.246094 20.273438 79.925781 C 24.125 79.925781 38.617188 79.925781 38.617188 79.925781 Z M 38.617188 99.382812 "/>
<path style=" stroke:none;fill-rule:evenodd;fill:rgb(54.509807%,20%,57.254905%);fill-opacity:1;" d="M 30.074219 58.082031 C 33.855469 57.453125 35.746094 49.585938 29.585938 47.828125 C 28.886719 47.828125 19.503906 47.828125 19.503906 47.828125 L 19.503906 62.71875 L 23.632812 62.71875 L 23.632812 58.082031 L 28.253906 62.71875 L 34.695312 62.71875 Z M 29.585938 52.816406 C 29.585938 53.378906 29.164062 53.800781 28.605469 53.800781 L 23.703125 53.800781 L 23.703125 51.691406 L 28.675781 51.691406 C 29.234375 51.691406 29.65625 52.113281 29.65625 52.675781 L 29.65625 52.816406 Z M 29.585938 52.816406 "/>
<path style=" stroke:none;fill-rule:evenodd;fill:rgb(54.509807%,20%,57.254905%);fill-opacity:1;" d="M 41.980469 47.617188 C 37.847656 47.617188 34.417969 50.988281 34.417969 55.203125 C 34.417969 59.347656 37.777344 62.789062 41.980469 62.789062 C 46.109375 62.789062 49.539062 59.417969 49.539062 55.203125 C 49.472656 50.988281 46.109375 47.617188 41.980469 47.617188 Z M 41.980469 58.503906 C 40.160156 58.503906 38.6875 57.03125 38.6875 55.203125 C 38.6875 53.378906 40.160156 51.902344 41.980469 51.902344 C 43.800781 51.902344 45.269531 53.378906 45.269531 55.203125 C 45.269531 57.03125 43.800781 58.503906 41.980469 58.503906 Z M 41.980469 58.503906 "/>
<path style=" stroke:none;fill-rule:evenodd;fill:rgb(54.509807%,20%,57.254905%);fill-opacity:1;" d="M 84.691406 51.902344 L 91.480469 51.902344 L 91.480469 47.546875 L 85.742188 47.546875 C 81.257812 47.546875 77.546875 50.988281 77.546875 55.132812 C 77.546875 59.277344 81.257812 62.71875 85.742188 62.71875 L 91.480469 62.71875 L 91.480469 58.363281 L 84.691406 58.363281 C 83.710938 58.363281 82.800781 57.871094 82.238281 57.171875 L 91.480469 57.171875 L 91.480469 53.167969 L 82.238281 53.167969 C 82.800781 52.394531 83.710938 51.902344 84.691406 51.902344 Z M 84.691406 51.902344 "/>
<path style=" stroke:none;fill-rule:evenodd;fill:rgb(54.509807%,20%,57.254905%);fill-opacity:1;" d="M 57.804688 58.292969 C 56.121094 58.292969 54.722656 56.890625 54.722656 55.203125 L 54.722656 55.0625 C 54.722656 53.378906 56.121094 51.972656 57.804688 51.972656 L 64.246094 51.972656 L 64.246094 47.617188 L 58.503906 47.617188 C 54.023438 47.617188 50.3125 51.058594 50.3125 55.203125 C 50.3125 59.347656 54.023438 62.789062 58.503906 62.789062 L 64.246094 62.789062 L 64.246094 58.433594 L 57.804688 58.433594 Z M 57.804688 58.292969 "/>
<path style=" stroke:none;fill-rule:evenodd;fill:rgb(54.509807%,20%,57.254905%);fill-opacity:1;" d="M 107.238281 47.828125 L 92.601562 47.828125 L 92.601562 51.761719 L 97.925781 51.761719 L 97.925781 62.507812 L 101.84375 62.507812 L 101.84375 51.761719 L 107.238281 51.761719 Z M 107.238281 47.828125 "/>
<path style=" stroke:none;fill-rule:nonzero;fill:rgb(54.509807%,20%,57.254905%);fill-opacity:1;" d="M 72.4375 55.132812 L 79.648438 47.828125 L 73.835938 47.828125 L 69.777344 51.902344 L 69.777344 47.828125 L 65.855469 47.828125 L 65.855469 62.507812 L 69.777344 62.507812 L 69.777344 58.292969 L 73.976562 62.507812 L 79.789062 62.507812 Z M 72.4375 55.132812 "/>
</g>
</svg>
