<svg width="64" height="64" viewBox="0 0 64 64" fill="none" xmlns="http://www.w3.org/2000/svg">
<g clip-path="url(#clip0_6_2422)">
<path d="M62.1719 21.3333H1.8281C0.6483 24.6704 0 28.2588 0 32C0 35.7412 0.6483 39.3296 1.8281 42.6667H20.3921C20.1453 41.8157 20.0001 40.9287 20.0001 40.0103V21.3436H44V40.0103C44 40.9288 43.8548 41.8157 43.6081 42.6667H62.1719C63.3518 39.3296 64 35.7412 64 32C64 28.2588 63.3517 24.6704 62.1719 21.3333Z" fill="#191977" style="fill:#191977;fill:color(display-p3 0.0980 0.0980 0.4667);fill-opacity:1;"/>
<path d="M22.6667 14.6667H22.679V12H25.3702V14.6667H27.9879V12H30.679V14.6667H33.3213V12H36.0125V14.6667H38.6546V12H41.3457V14.6694H41.3322L37.8335 21.3333H62.172C57.7782 8.9061 45.932 0 32 0C18.068 0 6.22183 8.9061 1.82812 21.3333H26.1666L22.6667 14.6667Z" fill="#F0263C" style="fill:#F0263C;fill:color(display-p3 0.9412 0.1490 0.2353);fill-opacity:1;"/>
<path d="M32 50.6769C26.4167 50.6769 21.7255 47.2648 20.3921 42.6666H1.82812C6.22183 55.0938 18.068 63.9999 32 63.9999C45.932 63.9999 57.7782 55.0938 62.1719 42.6666H43.6081C42.2746 47.2647 37.5834 50.6769 32 50.6769Z" fill="white" style="fill:white;fill-opacity:1;"/>
<path d="M32 50.6769C37.5833 50.6769 42.2746 47.2648 43.6081 42.6666C43.8548 41.8156 44 40.9286 44 40.0102V21.3435H20.0001V40.0102C20.0001 40.9287 20.1453 41.8156 20.3921 42.6666C21.7255 47.2647 26.4168 50.6769 32 50.6769ZM28.3548 40.1446C28.8035 40.4958 29.3221 40.7855 29.8952 40.9915L29.3334 42.6769H28.0001V45.3504H24.0001L26.6668 42.6769L28.3548 40.1446ZM36 45.3504V42.6769H34.6667L34.105 40.9914C34.6781 40.7854 35.1966 40.4957 35.6452 40.1445L37.3334 42.6769L40.0001 45.3504H36ZM21.3333 24.0102L22.677 22.6769L26.6667 28.0102L28 25.3435L26.6667 24.0102H25.3334V22.6769H26.6667L30.6667 24.0102L32 28.0102L33.3333 24.0102L37.3333 22.6769H38.6666V24.0102H37.3333L36 25.3435L37.3333 28.0102H33.3333V33.3537H37.3333V28.0204H37.3309L37.3333 28.0102L41.3455 22.6769L42.6666 24.0102V42.6769H39.9999L36.0972 39.7499C36.868 38.979 37.3332 37.9888 37.3332 36.9093V36.0204H33.3332V41.3572L35.9999 48.0103L31.9999 49.3436L27.9999 48.0103L30.6666 41.3572V36.0204H26.6666V36.9093C26.6666 37.9887 27.1318 38.979 27.9026 39.7498L23.9999 42.6769H21.3332L21.3333 24.0102Z" fill="#F0263C" style="fill:#F0263C;fill:color(display-p3 0.9412 0.1490 0.2353);fill-opacity:1;"/>
<path d="M27.9027 39.7498C27.1319 38.979 26.6667 37.9887 26.6667 36.9093V36.0204H30.6667V41.3572L28 48.0103L32 49.3436L36 48.0103L33.3333 41.3572V36.0204H37.3333V36.9093C37.3333 37.9887 36.8681 38.979 36.0973 39.7499L40 42.6769H42.6667V24.0102L41.3456 22.6769L37.3334 28.0102L37.331 28.0204H37.3334V33.3537H33.3334V28.0102H37.3334L36.0001 25.3435L37.3334 24.0102V22.6769L33.3334 24.0102L32.0001 28.0102L30.6668 24.0102L26.6668 22.6769V24.0102L28.0001 25.3435L26.6668 28.0102H30.6668V33.3537H26.6668V28.0204H26.6694L26.6668 28.0102L22.6771 22.6769L21.3334 24.0102V42.6769H24.0001L27.9027 39.7498Z" fill="white" style="fill:white;fill-opacity:1;"/>
<path d="M29.3333 42.6769L29.8951 40.9915C29.322 40.7854 28.8035 40.4958 28.3547 40.1446L26.6665 42.6769H29.3333Z" fill="#F0F0F0" style="fill:#F0F0F0;fill:color(display-p3 0.9412 0.9412 0.9412);fill-opacity:1;"/>
<path d="M35.6452 40.1445C35.1966 40.4957 34.6781 40.7855 34.105 40.9914L34.6667 42.6769H37.3334L35.6452 40.1445Z" fill="#F0F0F0" style="fill:#F0F0F0;fill:color(display-p3 0.9412 0.9412 0.9412);fill-opacity:1;"/>
<path d="M26.6667 28.0204V33.3538H30.6667V28.0103H26.6667L26.6693 28.0204H26.6667Z" fill="#F0263C" style="fill:#F0263C;fill:color(display-p3 0.9412 0.1490 0.2353);fill-opacity:1;"/>
<path d="M26.6666 22.6769H25.3333V24.0102H26.6666V22.6769Z" fill="#FFD400" style="fill:#FFD400;fill:color(display-p3 1.0000 0.8314 0.0000);fill-opacity:1;"/>
<path d="M38.6665 22.6769H37.3333V24.0102H38.6665V22.6769Z" fill="#FFD400" style="fill:#FFD400;fill:color(display-p3 1.0000 0.8314 0.0000);fill-opacity:1;"/>
<path d="M28 45.3504V42.6769H26.6667L24 45.3504H28Z" fill="#FFD400" style="fill:#FFD400;fill:color(display-p3 1.0000 0.8314 0.0000);fill-opacity:1;"/>
<path d="M36 42.6769V45.3504H40L37.3333 42.6769H36Z" fill="#FFD400" style="fill:#FFD400;fill:color(display-p3 1.0000 0.8314 0.0000);fill-opacity:1;"/>
<path d="M41.3455 14.6694V12H38.6545V14.6667H36.0124V12H33.3211V14.6667H30.6789V12H27.9878V14.6667H25.3701V12H22.679V14.6667H22.6667L26.1667 21.3333H37.8333L41.332 14.6694H41.3455Z" fill="#FFD400" style="fill:#FFD400;fill:color(display-p3 1.0000 0.8314 0.0000);fill-opacity:1;"/>
</g>
<defs>
<clipPath id="clip0_6_2422">
<rect width="64" height="64" fill="white" style="fill:white;fill-opacity:1;"/>
</clipPath>
</defs>
</svg>
