<svg width="64" height="64" viewBox="0 0 64 64" fill="none" xmlns="http://www.w3.org/2000/svg">
<g clip-path="url(#clip0_6_2440)">
<path d="M0 32H64C64 14.3269 49.6731 0 32 0C14.3269 0 0 14.3269 0 32Z" fill="#007ACC" style="fill:#007ACC;fill:color(display-p3 0.0000 0.4784 0.8000);fill-opacity:1;"/>
<path d="M4.2917 48H59.7084C62.4329 43.2921 64.0001 37.8307 64.0001 32H0C0 37.8307 1.5671 43.2921 4.2917 48Z" fill="#FFD400" style="fill:#FFD400;fill:color(display-p3 1.0000 0.8314 0.0000);fill-opacity:1;"/>
<path d="M4.29175 48C9.82545 57.562 20.1576 64 32 64C43.8424 64 54.1747 57.562 59.7084 48H4.29175Z" fill="#1E5B00" style="fill:#1E5B00;fill:color(display-p3 0.1176 0.3569 0.0000);fill-opacity:1;"/>
<path d="M42.6664 21.3421C44.1391 21.3421 45.333 20.1482 45.333 18.6755C45.333 17.2028 44.1391 16.0089 42.6664 16.0089C41.1936 16.0089 39.9998 17.2028 39.9998 18.6755C39.9998 20.1482 41.1936 21.3421 42.6664 21.3421Z" fill="#FFD400" style="fill:#FFD400;fill:color(display-p3 1.0000 0.8314 0.0000);fill-opacity:1;"/>
<path d="M42.6667 10.6667C38.2555 10.6667 34.6667 14.2555 34.6667 18.6667C34.6667 23.0779 38.2555 26.6667 42.6667 26.6667C47.0779 26.6667 50.6667 23.0779 50.6667 18.6667C50.6667 14.2555 47.078 10.6667 42.6667 10.6667ZM42.5338 23.6737C39.7734 23.6004 37.5951 21.3033 37.6683 18.5428C37.7415 15.7824 40.0386 13.604 42.7991 13.6772C45.5596 13.7505 47.738 16.0476 47.6647 18.8081C47.5915 21.5686 45.2943 23.7469 42.5338 23.6737Z" fill="#FFD400" style="fill:#FFD400;fill:color(display-p3 1.0000 0.8314 0.0000);fill-opacity:1;"/>
</g>
<defs>
<clipPath id="clip0_6_2440">
<rect width="64" height="64" fill="white" style="fill:white;fill-opacity:1;"/>
</clipPath>
</defs>
</svg>
