<svg width="64" height="64" viewBox="0 0 64 64" fill="none" xmlns="http://www.w3.org/2000/svg">
<g clip-path="url(#clip0_6_2446)">
<path d="M32 64C49.6731 64 64 49.6731 64 32C64 14.3269 49.6731 0 32 0C14.3269 0 0 14.3269 0 32C0 49.6731 14.3269 64 32 64Z" fill="#1E5B00" style="fill:#1E5B00;fill:color(display-p3 0.1176 0.3569 0.0000);fill-opacity:1;"/>
<path d="M48 42.6667H46.6667V44H12L16 46.6667H46.6667V48H48V46.6667H49.3333L50.6667 48H52V44H48V42.6667Z" fill="white" style="fill:white;fill-opacity:1;"/>
<path d="M54.6667 17.3333V25.3333L53.3333 24V17.3333H52V22.6667L50.6667 21.3333V17.3333H49.3333V20L46.6667 17.3333V18.6667V20L48 21.3333L49.3333 22.6667V26.6667L48 29.3333L46.6667 28H45.3333V29.3333L44 30.6667L42.6667 29.3333H41.3333L42.6667 32H44H45.3333L46.6667 30.6667H49.3333L50.6667 28V24L52 25.3333V29.3333L53.3333 26.6667L54.6667 28L52 30.6667V32H53.3333L56 29.3333V17.3333H54.6667Z" fill="white" style="fill:white;fill-opacity:1;"/>
<path d="M10.6667 22.6667L12 24V26.6667H13.3333V24L14.6667 22.6667H16V17.3333H14.6667V20.6667V21.3333H13.3333V17.3333H12V21.3333H10.6667V18.6667H9.3333V21.3333H8V24H9.3333L10.6667 22.6667Z" fill="white" style="fill:white;fill-opacity:1;"/>
<path d="M17.3333 30.6667L18.6667 29.3333V26.6667V25.3333H22.6667V24H18.6667V17.3333H17.3333V24H14.6667V26.6667H15.708L14.6667 28H13.3333V29.3333H14.6667L16 28L17.1167 26.6667H17.3333V28L14.6667 30.6667H13.3333L12 29.3333V28H10.6667V30.6667L12 32H16L17.3333 30.6667Z" fill="white" style="fill:white;fill-opacity:1;"/>
<path d="M21.3333 26.6667H20V28H21.3333V26.6667Z" fill="white" style="fill:white;fill-opacity:1;"/>
<path d="M22.6667 18.6667V17.3333H21.3333V18.6667L20 20V21.3333L21.3333 20L22.6667 18.6667Z" fill="white" style="fill:white;fill-opacity:1;"/>
<path d="M22.6666 21.3333H21.3333V22.6666H22.6666V21.3333Z" fill="white" style="fill:white;fill-opacity:1;"/>
<path d="M9.3333 29.3333H8V30.6667L9.3333 32H10.6667L9.3333 30.6667V29.3333Z" fill="white" style="fill:white;fill-opacity:1;"/>
<path d="M33.3333 17.3333H32V20V21.3333L30.6667 20V17.3333H29.3333V20L28 21.3333V18.6667L26.6667 17.3333L25.3333 21.3333V18.6667H24V21.3333L25.3333 22.6667L26.6667 21.3333L28 22.6667H29.3333V21.3333H30.6667V22.6667H32L33.3333 21.3333V17.3333Z" fill="white" style="fill:white;fill-opacity:1;"/>
<path d="M34.6667 32H36V30.6667H33.3333L34.6667 32Z" fill="white" style="fill:white;fill-opacity:1;"/>
<path d="M41.3333 17.3333H40V25.3333L38.6667 22.6667L37.3333 20V17.3333H36V18.6667L34.6667 17.3333V20L36 21.3333V25.3333V26.6667H32L33.3333 25.3333L34.6667 24L33.3333 22.6667H32V24L30.6667 25.3333L29.3333 26.6667V28H32L30.6667 29.3333V30.6667L28 28V24H26.6667V26.6667V28L24 30.6667H22.6667L24 29.3333L25.3333 28V25.3333V24H24V28H22.6667L18.6667 30.6667V32H20L21.3333 30.6667L22.6667 32H25.3333L28 29.3333V30.6667L29.3333 32H30.6667H32V29.3333L36 28V30.6667L37.3333 29.3333V22.6667L40 28L38.6667 30.6667H37.3333L38.6667 32H40L41.3333 29.3333V17.3333Z" fill="white" style="fill:white;fill-opacity:1;"/>
<path d="M44 17.3333H42.6667V28H44V17.3333Z" fill="white" style="fill:white;fill-opacity:1;"/>
<path d="M45.3333 22.6667H46.6667L48 21.3333H45.3333V22.6667Z" fill="white" style="fill:white;fill-opacity:1;"/>
<path d="M48 24H45.3333V25.3333H46.6667L48 24Z" fill="white" style="fill:white;fill-opacity:1;"/>
<path d="M9.3333 25.3333L8 26.6667V28L10.6667 25.3333H9.3333Z" fill="white" style="fill:white;fill-opacity:1;"/>
</g>
<defs>
<clipPath id="clip0_6_2446">
<rect width="64" height="64" fill="white" style="fill:white;fill-opacity:1;"/>
</clipPath>
</defs>
</svg>
