<svg width="64" height="64" viewBox="0 0 64 64" fill="none" xmlns="http://www.w3.org/2000/svg">
<g clip-path="url(#clip0_6_2479)">
<path d="M41.7426 1.51538L9.36322 54.6176C9.36962 54.6239 9.37602 54.6304 9.38242 54.6368L62.4846 22.2574C59.3437 12.4219 51.5781 4.65628 41.7426 1.51538Z" fill="#F0263C" style="fill:#F0263C;fill:color(display-p3 0.9412 0.1490 0.2353);fill-opacity:1;"/>
<path d="M20.8986 1.98071C8.698 6.49431 0 18.2304 0 32C0 40.8236 3.5718 48.8125 9.3477 54.6013L20.8986 1.98071Z" fill="#191977" style="fill:#191977;fill:color(display-p3 0.0980 0.0980 0.4667);fill-opacity:1;"/>
<path d="M9.34772 54.6013C9.35302 54.6066 9.35792 54.6123 9.36322 54.6176L41.7426 1.5154C38.6701 0.5342 35.3979 0 32 0C28.0965 0 24.3573 0.7011 20.8986 1.9807L9.34772 54.6013Z" fill="#FFD400" style="fill:#FFD400;fill:color(display-p3 1.0000 0.8314 0.0000);fill-opacity:1;"/>
<path d="M9.38239 54.6368C9.38769 54.6421 9.39339 54.6471 9.39869 54.6523L62.0193 43.1014C63.2988 39.6427 64 35.9035 64 32C64 28.6021 63.4658 25.3299 62.4846 22.2574L9.38239 54.6368Z" fill="white" style="fill:white;fill-opacity:1;"/>
<path d="M62.0193 43.1014L9.39868 54.6523C9.39708 54.6507 9.39538 54.6491 9.39368 54.6475C15.1829 60.4263 23.1739 64 32 64C45.7696 64 57.5057 55.302 62.0193 43.1014Z" fill="#1E5B00" style="fill:#1E5B00;fill:color(display-p3 0.1176 0.3569 0.0000);fill-opacity:1;"/>
</g>
<defs>
<clipPath id="clip0_6_2479">
<rect width="64" height="64" fill="white" style="fill:white;fill-opacity:1;"/>
</clipPath>
</defs>
</svg>
