<svg id="Layer_1" data-name="Layer 1" xmlns="http://www.w3.org/2000/svg" viewBox="0 0 512 512">
  <defs>
    <style>
      .cls-1 {
        fill: #f5f5f0;
      }

      .cls-2 {
        fill: #910590;
      }
    </style>
  </defs>
  <rect class="cls-2" width="512" height="512"/>
  <path class="cls-1" d="M434.24,255.93v.14c0,1.27-.51,2.49-1.42,3.38l-113.97,113.98c-.45.46-1.06.71-1.7.71h-.72c-1.33,0-2.41-1.08-2.41-2.41h0v-115.66c0,1.27-.51,2.49-1.41,3.38l-113.27,113.29c-.9.9-2.12,1.41-3.4,1.41h-.12c-1.28,0-2.51-.51-3.42-1.42l-113.26-113.26c-.9-.9-1.4-2.12-1.41-3.38v-.13c0-1.28.51-2.49,1.42-3.4l113.26-113.3c.91-.91,2.15-1.41,3.43-1.41h.12c1.29,0,2.5.51,3.4,1.42l113.29,113.26c.9.91,1.41,2.13,1.41,3.4v-115.66c0-1.33,1.08-2.41,2.4-2.41h.72c.64,0,1.24.25,1.7.71l113.98,113.97c.9.91,1.42,2.13,1.42,3.4h-.04Z"/>
</svg>
