<svg width="620" height="620" viewBox="90 110 620 620" xmlns="http://www.w3.org/2000/svg"><defs><filter id="b" x="-20%" y="-20%" width="140%" height="140%"><feDropShadow dx="0" dy="10" stdDeviation="12" flood-color="#000" flood-opacity=".45"/></filter><filter id="c"><feGaussianBlur in="SourceAlpha" stdDeviation="1.5" result="blur"/><feSpecularLighting in="blur" surfaceScale="4" specularExponent="24" lighting-color="#fff4c2" result="spec"><fePointLight x="150" y="80" z="200"/></feSpecularLighting><feComposite in="spec" in2="SourceAlpha" operator="in" result="specOut"/><feBlend in="SourceGraphic" in2="specOut" mode="screen"/></filter><linearGradient id="a" x1="0%" y1="0%" x2="100%" y2="100%"><stop offset="0%" stop-color="#fff6d5"/><stop offset="20%" stop-color="#f6d98a"/><stop offset="45%" stop-color="#c89b3c"/><stop offset="70%" stop-color="#f4d27a"/><stop offset="100%" stop-color="#8f6420"/></linearGradient></defs><path d="M140 660V170h100l160 300 160-300h100v490H560V340L430 575h-60L240 340v320Z" fill="url(#a)" stroke="#f7e3a5" stroke-width="10" filter="url(#b)"/><path d="M270 160h200q150 0 150 125 0 85-75 125 105 40 105 155 0 95-115 95H270Zm110 100v105h90q55 0 55-53 0-52-55-52Zm0 195v105h115q60 0 60-55 0-50-60-50Z" fill="url(#a)" fill-rule="evenodd" stroke="#fff0b8" stroke-width="10" opacity=".96" filter="url(#c)"/><path d="M160 190h60l170 315" stroke="#fff8dc" stroke-width="10" opacity=".35" stroke-linecap="round"/><path d="M305 180h195" stroke="#fff8dc" stroke-width="8" opacity=".3" stroke-linecap="round"/></svg>
