<svg width="64" height="64" viewBox="0 0 64 64" fill="none" xmlns="http://www.w3.org/2000/svg">
<g clip-path="url(#clip0_6_2631)">
<path d="M32 32L9.3788 9.37882L9.3726 9.37262C3.5817 15.1635 0 23.1635 0 32C0 40.8365 3.5817 48.8365 9.3726 54.6274L9.3788 54.6212L32 32Z" fill="#F0263C" style="fill:#F0263C;fill:color(display-p3 0.9412 0.1490 0.2353);fill-opacity:1;"/>
<path d="M21.3333 42.6667L9.37909 54.6209C15.1682 60.4133 23.1628 64 32 64C45.9319 64 57.7782 55.0939 62.1719 42.6667H21.3333Z" fill="#619B27" style="fill:#619B27;fill:color(display-p3 0.3804 0.6078 0.1529);fill-opacity:1;"/>
<path d="M21.3333 21.3333L9.37909 9.3791C15.1682 3.5867 23.1628 0 32 0C45.9319 0 57.7782 8.9061 62.1719 21.3333H21.3333Z" fill="#619B27" style="fill:#619B27;fill:color(display-p3 0.3804 0.6078 0.1529);fill-opacity:1;"/>
<path d="M62.1719 21.3333H21.3333L32 32L21.3333 42.6667H62.1719C63.3518 39.3296 64 35.7412 64 32C64 28.2588 63.3518 24.6705 62.1719 21.3333Z" fill="#FFD400" style="fill:#FFD400;fill:color(display-p3 1.0000 0.8314 0.0000);fill-opacity:1;"/>
<path d="M41.3333 28.0001L37.3333 32.0001L41.3333 36L45.3332 32.0001L41.3333 28.0001Z" fill="black" style="fill:black;fill-opacity:1;"/>
<path d="M54.6666 28L50.6667 32L54.6666 36L58.6666 32L54.6666 28Z" fill="black" style="fill:black;fill-opacity:1;"/>
</g>
<defs>
<clipPath id="clip0_6_2631">
<rect width="64" height="64" fill="white" style="fill:white;fill-opacity:1;"/>
</clipPath>
</defs>
</svg>
