<svg width="64" height="64" viewBox="0 0 64 64" fill="none" xmlns="http://www.w3.org/2000/svg">
<g clip-path="url(#clip0_6_2708)">
<path d="M32 0C21.8966 0 12.8929 4.687 7.02832 12H56.9717C51.1071 4.687 42.1034 0 32 0Z" fill="#007ACC" style="fill:#007ACC;fill:color(display-p3 0.0000 0.4784 0.8000);fill-opacity:1;"/>
<path d="M32 64C42.1034 64 51.1071 59.313 56.9717 52H7.02832C12.8929 59.313 21.8966 64 32 64Z" fill="#007ACC" style="fill:#007ACC;fill:color(display-p3 0.0000 0.4784 0.8000);fill-opacity:1;"/>
<path d="M56.9717 12H7.02833C6.01873 13.2588 5.10433 14.5957 4.29163 16H59.7083C58.8956 14.5957 57.9813 13.2588 56.9717 12Z" fill="#FFD400" style="fill:#FFD400;fill:color(display-p3 1.0000 0.8314 0.0000);fill-opacity:1;"/>
<path d="M7.02829 52H56.9717C57.9813 50.7412 58.8957 49.4042 59.7084 48H4.29169C5.10439 49.4042 6.01869 50.7412 7.02829 52Z" fill="#FFD400" style="fill:#FFD400;fill:color(display-p3 1.0000 0.8314 0.0000);fill-opacity:1;"/>
<path d="M59.7083 16H4.2917C1.5671 20.7079 0 26.1693 0 32C0 37.8307 1.5671 43.2921 4.2917 48H59.7084C62.4329 43.2921 64.0001 37.8307 64.0001 32C64.0001 26.1693 62.4329 20.7079 59.7083 16ZM58.6666 32H57.3333V34.6667L56 36H54.6667L53.3334 34.6667V32H47.9983C47.9988 32.0011 47.9995 32.0021 48.0001 32.0031C45.422 36.8514 40.4511 40.3646 34.5488 41.1594C33.7163 41.2715 32.8655 41.3303 32.0001 41.3303C24.9985 41.3303 18.9418 37.5353 16.0001 32.0032C16.0007 32.0022 16.0014 32.0012 16.0019 32.0001H12.0001V34.6668L10.6668 36.0001H9.3335L8.0002 34.6668V32.0001H6.6669V30.6668H16.8039C17.1066 30.2073 17.4306 29.7622 17.777 29.3335H10.6668V28.0002H18.9736C19.4409 27.531 19.9322 27.0834 20.4529 26.6669H14.6668V25.3336H22.3663C25.1471 23.6498 28.4509 22.67 32.0001 22.67C35.5493 22.67 38.853 23.6498 41.6339 25.3336H54.6668V26.6669H43.5473C44.0681 27.0834 44.5594 27.531 45.0267 28.0002H50.6668V29.3335H46.2233C46.5697 29.7622 46.8937 30.2074 47.1964 30.6668H58.6669L58.6666 32Z" fill="#F0263C" style="fill:#F0263C;fill:color(display-p3 0.9412 0.1490 0.2353);fill-opacity:1;"/>
<path d="M54.6667 26.6667V25.3334H41.6338C42.3031 25.7387 42.9427 26.1833 43.5471 26.6667H54.6667Z" fill="#FFD400" style="fill:#FFD400;fill:color(display-p3 1.0000 0.8314 0.0000);fill-opacity:1;"/>
<path d="M14.6667 25.3333V26.6666H20.4528C21.0573 26.1832 21.6969 25.7385 22.3662 25.3333H14.6667Z" fill="#FFD400" style="fill:#FFD400;fill:color(display-p3 1.0000 0.8314 0.0000);fill-opacity:1;"/>
<path d="M6.66669 30.6667V32H16.0018C16.2457 31.5417 16.5184 31.1001 16.8037 30.6667H6.66669Z" fill="#FFD400" style="fill:#FFD400;fill:color(display-p3 1.0000 0.8314 0.0000);fill-opacity:1;"/>
<path d="M47.9982 32H58.6667V30.6667H47.1962C47.4816 31.1001 47.7543 31.5417 47.9982 32Z" fill="#FFD400" style="fill:#FFD400;fill:color(display-p3 1.0000 0.8314 0.0000);fill-opacity:1;"/>
<path d="M18.9735 28H10.6667V29.3333H17.7769C18.1518 28.8693 18.5508 28.4245 18.9735 28Z" fill="#FFD400" style="fill:#FFD400;fill:color(display-p3 1.0000 0.8314 0.0000);fill-opacity:1;"/>
<path d="M46.2231 29.3333H50.6666V28H45.0265C45.4492 28.4246 45.8482 28.8693 46.2231 29.3333Z" fill="#FFD400" style="fill:#FFD400;fill:color(display-p3 1.0000 0.8314 0.0000);fill-opacity:1;"/>
<path d="M33.3333 34.6698V30.6698L30.6666 26.6698V25.3365L31.9999 22.6698C28.4507 22.6698 25.1469 23.6496 22.3661 25.3334C21.6968 25.7387 21.0572 26.1833 20.4527 26.6667C19.9319 27.0832 19.4407 27.5308 18.9734 28C18.5507 28.4246 18.1517 28.8693 17.7768 29.3333C17.4304 29.762 17.1063 30.2072 16.8037 30.6666C16.5184 31.1 16.2457 31.5416 16.0018 31.9999C16.0013 32.001 16.0006 32.002 16 32.003C18.9417 37.5351 24.9984 41.3301 32 41.3301C32.8654 41.3301 33.7161 41.2713 34.5487 41.1592L32 37.3363L33.3333 34.6698ZM21.3333 28.0101H29.3333V30.6667H21.3333V28.0101ZM29.3333 35.995H21.3333V33.3384H29.3333V35.995Z" fill="black" style="fill:black;fill-opacity:1;"/>
<path d="M46.2231 29.3333C45.8482 28.8693 45.4492 28.4245 45.0265 28C44.5592 27.5308 44.0678 27.0832 43.5471 26.6667C42.9427 26.1833 42.303 25.7386 41.6338 25.3334C38.853 23.6496 35.5492 22.6698 32 22.6698L30.6667 25.3365V26.6698L33.3334 30.6698V34.6698L32.0001 37.3365L34.5488 41.1594C40.4511 40.3646 45.422 36.8515 48.0001 32.0031C47.9995 32.0021 47.9988 32.0011 47.9983 32C47.7544 31.5417 47.4817 31.1001 47.1963 30.6667C46.8936 30.2072 46.5696 29.762 46.2231 29.3333ZM42.6666 35.9949H34.6666V33.3383H42.6666V35.9949ZM34.6666 28.01H42.6666V30.6666H34.6666V28.01Z" fill="white" style="fill:white;fill-opacity:1;"/>
<path d="M29.3333 28.0101H21.3333V30.6667H29.3333V28.0101Z" fill="white" style="fill:white;fill-opacity:1;"/>
<path d="M29.3333 33.3384H21.3333V35.995H29.3333V33.3384Z" fill="white" style="fill:white;fill-opacity:1;"/>
<path d="M42.6667 28.0101H34.6667V30.6667H42.6667V28.0101Z" fill="black" style="fill:black;fill-opacity:1;"/>
<path d="M42.6667 33.3384H34.6667V35.995H42.6667V33.3384Z" fill="black" style="fill:black;fill-opacity:1;"/>
<path d="M8 34.6667L9.3333 36H10.6667L12 34.6667V32H8V34.6667Z" fill="black" style="fill:black;fill-opacity:1;"/>
<path d="M53.3333 34.6667L54.6667 36H56L57.3333 34.6667V32H53.3333V34.6667Z" fill="black" style="fill:black;fill-opacity:1;"/>
</g>
<defs>
<clipPath id="clip0_6_2708">
<rect width="64" height="64" fill="white" style="fill:white;fill-opacity:1;"/>
</clipPath>
</defs>
</svg>
