<svg width="64" height="64" viewBox="0 0 64 64" fill="none" xmlns="http://www.w3.org/2000/svg">
<g clip-path="url(#clip0_6_2804)">
<path d="M32 64C49.6731 64 64 49.6731 64 32C64 14.3269 49.6731 0 32 0C14.3269 0 0 14.3269 0 32C0 49.6731 14.3269 64 32 64Z" fill="#1E5B00" style="fill:#1E5B00;fill:color(display-p3 0.1176 0.3569 0.0000);fill-opacity:1;"/>
<path d="M40 8.33335L38.3334 10L40 11.6667L41.6667 10L40 8.33335Z" fill="white" style="fill:white;fill-opacity:1;"/>
<path d="M43.9999 10.3333L42.3333 12L43.9999 13.6667L45.6666 12L43.9999 10.3333Z" fill="white" style="fill:white;fill-opacity:1;"/>
<path d="M39.9999 12.3334L38.3333 14.0001L39.9999 15.6667L41.6666 14.0001L39.9999 12.3334Z" fill="white" style="fill:white;fill-opacity:1;"/>
<path d="M35.9999 14.3333L34.3333 16L35.9999 17.6667L37.6666 16L35.9999 14.3333Z" fill="white" style="fill:white;fill-opacity:1;"/>
<path d="M39.9999 16.3334L38.3333 18.0001L39.9999 19.6667L41.6666 18.0001L39.9999 16.3334Z" fill="white" style="fill:white;fill-opacity:1;"/>
<path d="M47.5223 10.0345C49.0421 11.4354 50 13.4367 50 15.6667C50 19.9009 46.5675 23.3334 42.3333 23.3334C41.1939 23.3334 40.1164 23.0781 39.1444 22.6323C40.5104 23.8914 42.3291 24.6667 44.3333 24.6667C48.5675 24.6667 52 21.2342 52 17C52 13.9052 50.1625 11.2455 47.5223 10.0345Z" fill="white" style="fill:white;fill-opacity:1;"/>
<path d="M29.3333 0.1192C29.7757 0.0827 30.2194 0.0521 30.6666 0.0337V0H29.3333V0.1192Z" fill="#FFD400" style="fill:#FFD400;fill:color(display-p3 1.0000 0.8314 0.0000);fill-opacity:1;"/>
<path d="M29.3333 64H30.6666V63.9663C30.2193 63.9479 29.7756 63.9173 29.3333 63.8808V64Z" fill="#FFD400" style="fill:#FFD400;fill:color(display-p3 1.0000 0.8314 0.0000);fill-opacity:1;"/>
<path d="M21.9999 40L23.9999 40.6667H25.3332L23.9999 39.3333H19.9999L18.6666 40.6667H19.9999L21.9999 40Z" fill="#FFD400" style="fill:#FFD400;fill:color(display-p3 1.0000 0.8314 0.0000);fill-opacity:1;"/>
<path d="M18.6667 40.6667H16V42H18.6667V40.6667Z" fill="#FFD400" style="fill:#FFD400;fill:color(display-p3 1.0000 0.8314 0.0000);fill-opacity:1;"/>
<path d="M28 40.6667H25.3333V42H28V40.6667Z" fill="#FFD400" style="fill:#FFD400;fill:color(display-p3 1.0000 0.8314 0.0000);fill-opacity:1;"/>
<path d="M15.9999 42H14.6666V43.3333H15.9999V42Z" fill="#FFD400" style="fill:#FFD400;fill:color(display-p3 1.0000 0.8314 0.0000);fill-opacity:1;"/>
<path d="M29.3333 42H28V43.3333H29.3333V42Z" fill="#FFD400" style="fill:#FFD400;fill:color(display-p3 1.0000 0.8314 0.0000);fill-opacity:1;"/>
<path d="M21.9999 48L19.9999 47.3333H18.6666L19.9999 48.6667H23.9999L25.3332 47.3333H23.9999L21.9999 48Z" fill="#FFD400" style="fill:#FFD400;fill:color(display-p3 1.0000 0.8314 0.0000);fill-opacity:1;"/>
<path d="M28 46H25.3333V47.3333H28V46Z" fill="#FFD400" style="fill:#FFD400;fill:color(display-p3 1.0000 0.8314 0.0000);fill-opacity:1;"/>
<path d="M29.3333 44.6667H28V46H29.3333V44.6667Z" fill="#FFD400" style="fill:#FFD400;fill:color(display-p3 1.0000 0.8314 0.0000);fill-opacity:1;"/>
<path d="M15.9999 44.6667H14.6666V46H15.9999V44.6667Z" fill="#FFD400" style="fill:#FFD400;fill:color(display-p3 1.0000 0.8314 0.0000);fill-opacity:1;"/>
<path d="M18.6667 46H16V47.3333H18.6667V46Z" fill="#FFD400" style="fill:#FFD400;fill:color(display-p3 1.0000 0.8314 0.0000);fill-opacity:1;"/>
<path d="M21.9999 41.3345L20.6666 42.0012H23.3332L21.9999 41.3345Z" fill="#FFD400" style="fill:#FFD400;fill:color(display-p3 1.0000 0.8314 0.0000);fill-opacity:1;"/>
<path d="M23.3332 43.3357H20.6666L21.9999 44L23.3332 43.3357Z" fill="#FFD400" style="fill:#FFD400;fill:color(display-p3 1.0000 0.8314 0.0000);fill-opacity:1;"/>
<path d="M21.9999 44.0012L20.6666 44.6655H23.3332L21.9999 44.0012Z" fill="#FFD400" style="fill:#FFD400;fill:color(display-p3 1.0000 0.8314 0.0000);fill-opacity:1;"/>
<path d="M23.3332 46H20.6666L21.9999 46.6667L23.3332 46Z" fill="#FFD400" style="fill:#FFD400;fill:color(display-p3 1.0000 0.8314 0.0000);fill-opacity:1;"/>
<path d="M20 43.3333H17.3333V44.6666H20V43.3333Z" fill="#FFD400" style="fill:#FFD400;fill:color(display-p3 1.0000 0.8314 0.0000);fill-opacity:1;"/>
<path d="M26.6667 43.3333H24V44.6666H26.6667V43.3333Z" fill="#FFD400" style="fill:#FFD400;fill:color(display-p3 1.0000 0.8314 0.0000);fill-opacity:1;"/>
<path d="M18.6666 10L19.9999 11.3333H21.9999L19.9999 10H18.6666Z" fill="white" style="fill:white;fill-opacity:1;"/>
<path d="M18.6667 10V8.6667L17.3333 8H16V8.6667L17.3333 10H18.6667Z" fill="white" style="fill:white;fill-opacity:1;"/>
<path d="M26.6667 8H28V7.3333L26.6667 6H25.3333V7.3333L26.6667 8Z" fill="white" style="fill:white;fill-opacity:1;"/>
<path d="M25.3333 5.99999L24 4.66669H22L24 5.99999H25.3333Z" fill="white" style="fill:white;fill-opacity:1;"/>
<path d="M18.6667 7.3333V6H17.3333L16 7.3333V8H17.3333L18.6667 7.3333Z" fill="#FFD400" style="fill:#FFD400;fill:color(display-p3 1.0000 0.8314 0.0000);fill-opacity:1;"/>
<path d="M21.9999 4.66669H19.9999L18.6666 5.99999H19.9999L21.9999 4.66669Z" fill="#FFD400" style="fill:#FFD400;fill:color(display-p3 1.0000 0.8314 0.0000);fill-opacity:1;"/>
<path d="M25.3333 9V10H26.6667L28 8.6667V8H26.6667L25.3333 9Z" fill="#FFD400" style="fill:#FFD400;fill:color(display-p3 1.0000 0.8314 0.0000);fill-opacity:1;"/>
<path d="M22 11.3333H24L25.3333 10H24L22 11.3333Z" fill="#FFD400" style="fill:#FFD400;fill:color(display-p3 1.0000 0.8314 0.0000);fill-opacity:1;"/>
<path d="M21.7017 9.26293L21.9999 9.41203L22.2981 9.26293L23.6314 8.59623L24.8239 7.99993L23.6314 7.40363L22.2981 6.73693L21.9999 6.58783L21.7017 6.73693L20.3684 7.40363L19.1759 7.99993L20.3684 8.59623L21.7017 9.26293ZM21.9999 7.33333L23.3332 8.00003L21.9999 8.66673L20.6666 8.00003L21.9999 7.33333Z" fill="white" style="fill:white;fill-opacity:1;"/>
<path d="M29.3333 1.33329H30.6666V0.0336914C30.2193 0.0520914 29.7756 0.0826914 29.3333 0.119191V1.33329Z" fill="#FFD400" style="fill:#FFD400;fill:color(display-p3 1.0000 0.8314 0.0000);fill-opacity:1;"/>
<path d="M29.3333 1.33331H28V2.66661H29.3333V1.33331Z" fill="#FFD400" style="fill:#FFD400;fill:color(display-p3 1.0000 0.8314 0.0000);fill-opacity:1;"/>
<path d="M30.6666 2.66669H29.3333V3.99999H30.6666V2.66669Z" fill="#FFD400" style="fill:#FFD400;fill:color(display-p3 1.0000 0.8314 0.0000);fill-opacity:1;"/>
<path d="M30.6666 48H29.3333V49.3333H30.6666V48Z" fill="#FFD400" style="fill:#FFD400;fill:color(display-p3 1.0000 0.8314 0.0000);fill-opacity:1;"/>
<path d="M29.3333 49.3333H28V50.6666H29.3333V49.3333Z" fill="#FFD400" style="fill:#FFD400;fill:color(display-p3 1.0000 0.8314 0.0000);fill-opacity:1;"/>
<path d="M30.6666 50.6667H29.3333V52H30.6666V50.6667Z" fill="#FFD400" style="fill:#FFD400;fill:color(display-p3 1.0000 0.8314 0.0000);fill-opacity:1;"/>
<path d="M14.6666 48H13.3333V49.3333H14.6666V48Z" fill="#FFD400" style="fill:#FFD400;fill:color(display-p3 1.0000 0.8314 0.0000);fill-opacity:1;"/>
<path d="M15.9999 49.3333H14.6666V50.6666H15.9999V49.3333Z" fill="#FFD400" style="fill:#FFD400;fill:color(display-p3 1.0000 0.8314 0.0000);fill-opacity:1;"/>
<path d="M14.6666 50.6667H13.3333V52H14.6666V50.6667Z" fill="#FFD400" style="fill:#FFD400;fill:color(display-p3 1.0000 0.8314 0.0000);fill-opacity:1;"/>
<path d="M30.6666 60H29.3333V61.3333H30.6666V60Z" fill="#FFD400" style="fill:#FFD400;fill:color(display-p3 1.0000 0.8314 0.0000);fill-opacity:1;"/>
<path d="M29.3333 61.3333H28V62.6666H29.3333V61.3333Z" fill="#FFD400" style="fill:#FFD400;fill:color(display-p3 1.0000 0.8314 0.0000);fill-opacity:1;"/>
<path d="M29.3333 62.6667V63.8809C29.7757 63.9174 30.2194 63.948 30.6666 63.9664V62.6668L29.3333 62.6667Z" fill="#FFD400" style="fill:#FFD400;fill:color(display-p3 1.0000 0.8314 0.0000);fill-opacity:1;"/>
<path d="M30.6666 36H29.3333V37.3333H30.6666V36Z" fill="#FFD400" style="fill:#FFD400;fill:color(display-p3 1.0000 0.8314 0.0000);fill-opacity:1;"/>
<path d="M29.3333 37.3333H28V38.6666H29.3333V37.3333Z" fill="#FFD400" style="fill:#FFD400;fill:color(display-p3 1.0000 0.8314 0.0000);fill-opacity:1;"/>
<path d="M30.6666 38.6667H29.3333V40H30.6666V38.6667Z" fill="#FFD400" style="fill:#FFD400;fill:color(display-p3 1.0000 0.8314 0.0000);fill-opacity:1;"/>
<path d="M14.6666 36H13.3333V37.3333H14.6666V36Z" fill="#FFD400" style="fill:#FFD400;fill:color(display-p3 1.0000 0.8314 0.0000);fill-opacity:1;"/>
<path d="M15.9999 37.3333H14.6666V38.6666H15.9999V37.3333Z" fill="#FFD400" style="fill:#FFD400;fill:color(display-p3 1.0000 0.8314 0.0000);fill-opacity:1;"/>
<path d="M14.6666 38.6667H13.3333V40H14.6666V38.6667Z" fill="#FFD400" style="fill:#FFD400;fill:color(display-p3 1.0000 0.8314 0.0000);fill-opacity:1;"/>
<path d="M30.6666 24H29.3333V25.3333H30.6666V24Z" fill="#FFD400" style="fill:#FFD400;fill:color(display-p3 1.0000 0.8314 0.0000);fill-opacity:1;"/>
<path d="M29.3333 25.3333H28V26.6666H29.3333V25.3333Z" fill="#FFD400" style="fill:#FFD400;fill:color(display-p3 1.0000 0.8314 0.0000);fill-opacity:1;"/>
<path d="M30.6666 26.6667H29.3333V28H30.6666V26.6667Z" fill="#FFD400" style="fill:#FFD400;fill:color(display-p3 1.0000 0.8314 0.0000);fill-opacity:1;"/>
<path d="M14.6666 24H13.3333V25.3333H14.6666V24Z" fill="#FFD400" style="fill:#FFD400;fill:color(display-p3 1.0000 0.8314 0.0000);fill-opacity:1;"/>
<path d="M15.9999 25.3333H14.6666V26.6666H15.9999V25.3333Z" fill="#FFD400" style="fill:#FFD400;fill:color(display-p3 1.0000 0.8314 0.0000);fill-opacity:1;"/>
<path d="M14.6666 26.6667H13.3333V28H14.6666V26.6667Z" fill="#FFD400" style="fill:#FFD400;fill:color(display-p3 1.0000 0.8314 0.0000);fill-opacity:1;"/>
<path d="M30.6666 12H29.3333V13.3333H30.6666V12Z" fill="#FFD400" style="fill:#FFD400;fill:color(display-p3 1.0000 0.8314 0.0000);fill-opacity:1;"/>
<path d="M29.3333 13.3333H28V14.6666H29.3333V13.3333Z" fill="#FFD400" style="fill:#FFD400;fill:color(display-p3 1.0000 0.8314 0.0000);fill-opacity:1;"/>
<path d="M30.6666 14.6667H29.3333V16H30.6666V14.6667Z" fill="#FFD400" style="fill:#FFD400;fill:color(display-p3 1.0000 0.8314 0.0000);fill-opacity:1;"/>
<path d="M14.6666 12H13.3333V13.3333H14.6666V12Z" fill="#FFD400" style="fill:#FFD400;fill:color(display-p3 1.0000 0.8314 0.0000);fill-opacity:1;"/>
<path d="M15.9999 13.3333H14.6666V14.6666H15.9999V13.3333Z" fill="#FFD400" style="fill:#FFD400;fill:color(display-p3 1.0000 0.8314 0.0000);fill-opacity:1;"/>
<path d="M14.6666 14.6667H13.3333V16H14.6666V14.6667Z" fill="#FFD400" style="fill:#FFD400;fill:color(display-p3 1.0000 0.8314 0.0000);fill-opacity:1;"/>
<path d="M15.9999 18H14.6666V19.3333H15.9999V18Z" fill="#FFD400" style="fill:#FFD400;fill:color(display-p3 1.0000 0.8314 0.0000);fill-opacity:1;"/>
<path d="M21.3333 18V16.6667H22.6667V18H24V16.6667V15.3333H20V16.6667V18H21.3333Z" fill="#FFD400" style="fill:#FFD400;fill:color(display-p3 1.0000 0.8314 0.0000);fill-opacity:1;"/>
<path d="M18 19.3333L18.6667 18.8889V16.6667H17.3333V18V19.3333H18Z" fill="#FFD400" style="fill:#FFD400;fill:color(display-p3 1.0000 0.8314 0.0000);fill-opacity:1;"/>
<path d="M26.6667 23.3333V22V20.6667H26L25.3333 21.1111V23.3333H26.6667Z" fill="#FFD400" style="fill:#FFD400;fill:color(display-p3 1.0000 0.8314 0.0000);fill-opacity:1;"/>
<path d="M20 24.6667H24V23.3333V22H22.6667V23.3333H21.3333V22H20V23.3333V24.6667Z" fill="#FFD400" style="fill:#FFD400;fill:color(display-p3 1.0000 0.8314 0.0000);fill-opacity:1;"/>
<path d="M29.3333 20.6667H28V22H29.3333V20.6667Z" fill="#FFD400" style="fill:#FFD400;fill:color(display-p3 1.0000 0.8314 0.0000);fill-opacity:1;"/>
<path d="M29.3333 18H28V19.3333H29.3333V18Z" fill="#FFD400" style="fill:#FFD400;fill:color(display-p3 1.0000 0.8314 0.0000);fill-opacity:1;"/>
<path d="M17.3333 23.3333H18.6667V21.1111L18 20.6667H17.3333V22V23.3333Z" fill="#FFD400" style="fill:#FFD400;fill:color(display-p3 1.0000 0.8314 0.0000);fill-opacity:1;"/>
<path d="M15.9999 20.6667H14.6666V22H15.9999V20.6667Z" fill="#FFD400" style="fill:#FFD400;fill:color(display-p3 1.0000 0.8314 0.0000);fill-opacity:1;"/>
<path d="M26 19.3333H26.6667V18V16.6667H25.3333V18.8889L26 19.3333Z" fill="#FFD400" style="fill:#FFD400;fill:color(display-p3 1.0000 0.8314 0.0000);fill-opacity:1;"/>
<path d="M24 18.6667L22.6667 19.1111L22 19.3333L21.3333 19.1111L20 18.6667L20.3333 19.3333L20.6667 20L20.3333 20.6667L20 21.3333L21.3333 20.8889L22 20.6667L22.6667 20.8889L24 21.3333L23.6667 20.6667L23.3333 20L23.6667 19.3333L24 18.6667Z" fill="#FFD400" style="fill:#FFD400;fill:color(display-p3 1.0000 0.8314 0.0000);fill-opacity:1;"/>
<path d="M22.6666 35.3333H21.3333V36.6666H22.6666V35.3333Z" fill="#FFD400" style="fill:#FFD400;fill:color(display-p3 1.0000 0.8314 0.0000);fill-opacity:1;"/>
<path d="M15.9999 31.3333H14.6666V32.6666H15.9999V31.3333Z" fill="#FFD400" style="fill:#FFD400;fill:color(display-p3 1.0000 0.8314 0.0000);fill-opacity:1;"/>
<path d="M17.3332 35.3333V36.6667H19.9999V35.3333H18.6666V34H15.9999H14.6666L15.9999 35.3333H17.3332Z" fill="#FFD400" style="fill:#FFD400;fill:color(display-p3 1.0000 0.8314 0.0000);fill-opacity:1;"/>
<path d="M29.3333 31.3333H28V32.6666H29.3333V31.3333Z" fill="#FFD400" style="fill:#FFD400;fill:color(display-p3 1.0000 0.8314 0.0000);fill-opacity:1;"/>
<path d="M25.3333 34V35.3333H24V36.6667H26.6667V35.3333H28L29.3333 34H28H25.3333Z" fill="#FFD400" style="fill:#FFD400;fill:color(display-p3 1.0000 0.8314 0.0000);fill-opacity:1;"/>
<path d="M22.6666 27.3333H21.3333V28.6666H22.6666V27.3333Z" fill="#FFD400" style="fill:#FFD400;fill:color(display-p3 1.0000 0.8314 0.0000);fill-opacity:1;"/>
<path d="M18.6666 30V28.6667H19.9999V27.3333H17.3332V28.6667H15.9999L14.6666 30H15.9999H18.6666Z" fill="#FFD400" style="fill:#FFD400;fill:color(display-p3 1.0000 0.8314 0.0000);fill-opacity:1;"/>
<path d="M25.3333 28.6667V30H28H29.3333L28 28.6667H26.6667V27.3333H24V28.6667H25.3333Z" fill="#FFD400" style="fill:#FFD400;fill:color(display-p3 1.0000 0.8314 0.0000);fill-opacity:1;"/>
<path d="M21.3333 34L22 34.6667L22.6667 34L24 32.6667L24.6667 32L24 31.3333L22.6667 30L22 29.3333L21.3333 30L20 31.3333L19.3333 32L20 32.6667L21.3333 34ZM22 30.6667L23.3333 32L22 33.3333L20.6667 32L22 30.6667Z" fill="#FFD400" style="fill:#FFD400;fill:color(display-p3 1.0000 0.8314 0.0000);fill-opacity:1;"/>
<path d="M15.9999 46H18.6666V47.3333H19.9999L21.9999 48L23.9999 47.3333H25.3332V46H27.9999V44.6667H29.3332V43.3334H27.9999V42.0001H25.3332V40.6668H23.9999L21.9999 40.0001L19.9999 40.6668H18.6666V42.0001H15.9999V43.3334H14.6666V44.6667H15.9999V46ZM23.9999 43.3333L25.3332 42.6666L26.6665 43.3333V44.6666L25.3332 45.3333L23.9999 44.6666V43.3333ZM20.6666 42.0012L21.9999 41.3345L23.3332 42.0012V43.3345H20.6665L20.6666 42.0012ZM23.3333 43.3357L22 44L20.6667 43.3357H23.3333ZM22 44.0012L23.3333 44.6655H20.6666L22 44.0012ZM20.6667 44.6666H23.3334V45.9999L22.0001 46.6666L20.6668 45.9999L20.6667 44.6666ZM17.3334 43.3333L18.6667 42.6666L20 43.3333V44.6666L18.6667 45.3333L17.3334 44.6666V43.3333Z" fill="#1E5B00" style="fill:#1E5B00;fill:color(display-p3 0.1176 0.3569 0.0000);fill-opacity:1;"/>
<path d="M17.3332 11.3333H18.6665L19.9998 12.6666H23.9998L25.3331 11.3333H26.6664L27.9997 9.99997H29.333V5.99997H27.9997L26.6664 4.66667H25.3331L23.9998 3.33337H19.9998L18.6665 4.66667H17.3332L15.9999 5.99997H14.6666V9.99997H15.9999L17.3332 11.3333ZM15.9999 7.99997V7.33327L17.3332 5.99997H18.6665L19.9998 4.66667H23.9998L25.3331 5.99997H26.6664L27.9997 7.33327V8.66657L26.6664 9.99987H25.3331L23.9998 11.3332H19.9998L18.6665 9.99987H17.3332L15.9999 8.66657V7.99997Z" fill="#1E5B00" style="fill:#1E5B00;fill:color(display-p3 0.1176 0.3569 0.0000);fill-opacity:1;"/>
<path d="M17.3333 7.99999H19.1759L20.3685 7.40369L21.7018 6.73709L22 6.58799V5.33329V4.66669L20 5.99999H18.6667V7.33329L17.3333 7.99999Z" fill="#1E5B00" style="fill:#1E5B00;fill:color(display-p3 0.1176 0.3569 0.0000);fill-opacity:1;"/>
<path d="M26.6667 8H24.8241L23.6315 8.5963L22.2982 9.2629L22 9.412V10.6667V11V11.3333L24 10H25.3333V9L26.6667 8Z" fill="#1E5B00" style="fill:#1E5B00;fill:color(display-p3 0.1176 0.3569 0.0000);fill-opacity:1;"/>
<path d="M17.3333 18H16V19.3333H17.3333V18Z" fill="#1E5B00" style="fill:#1E5B00;fill:color(display-p3 0.1176 0.3569 0.0000);fill-opacity:1;"/>
<path d="M17.3333 20.6667H16V22H17.3333V20.6667Z" fill="#1E5B00" style="fill:#1E5B00;fill:color(display-p3 0.1176 0.3569 0.0000);fill-opacity:1;"/>
<path d="M27.9999 18H26.6666V19.3333H27.9999V18Z" fill="#1E5B00" style="fill:#1E5B00;fill:color(display-p3 0.1176 0.3569 0.0000);fill-opacity:1;"/>
<path d="M27.9999 20.6667H26.6666V22H27.9999V20.6667Z" fill="#1E5B00" style="fill:#1E5B00;fill:color(display-p3 0.1176 0.3569 0.0000);fill-opacity:1;"/>
<path d="M19.9999 18V16.6667H18.6666V18.8889L19.9999 18Z" fill="#1E5B00" style="fill:#1E5B00;fill:color(display-p3 0.1176 0.3569 0.0000);fill-opacity:1;"/>
<path d="M19.9999 23.3333V22L18.6666 21.1111V23.3333H19.9999Z" fill="#1E5B00" style="fill:#1E5B00;fill:color(display-p3 0.1176 0.3569 0.0000);fill-opacity:1;"/>
<path d="M25.3333 18.8889V16.6667H24V18L25.3333 18.8889Z" fill="#1E5B00" style="fill:#1E5B00;fill:color(display-p3 0.1176 0.3569 0.0000);fill-opacity:1;"/>
<path d="M25.3333 23.3333V21.1111L24 22V23.3333H25.3333Z" fill="#1E5B00" style="fill:#1E5B00;fill:color(display-p3 0.1176 0.3569 0.0000);fill-opacity:1;"/>
<path d="M18.6666 34V35.3333H19.9999V36.6666H21.3332V35.3333H22.6665V36.6666H23.9998V35.3333H25.3331V34H29.3331V32.6667H27.9998V31.3334H29.3331V30.0001H25.3331V28.6668H23.9998V27.3335H22.6665V28.6668H21.3332V27.3335H19.9999V28.6668H18.6666V30.0001H14.6666V31.3334H15.9999V32.6667H14.6666V34H18.6666ZM25.3333 31.3333H26.6666V32.6666H25.3333V31.3333ZM20 31.3333L21.3333 30L22 29.3333L22.6667 30L24 31.3333L24.6667 32L24 32.6667L22.6667 34L22 34.6667L21.3333 34L20 32.6667L19.3333 32L20 31.3333ZM17.3333 31.3333H18.6666V32.6666H17.3333V31.3333Z" fill="#1E5B00" style="fill:#1E5B00;fill:color(display-p3 0.1176 0.3569 0.0000);fill-opacity:1;"/>
<path d="M29.3332 54L25.3332 51.3333H18.6665L14.6665 54V58L18.6665 60.6667H25.3332L29.3332 58V54ZM27.9999 55.3333V58L25.3332 59.3333H18.6665L15.9998 58V54L18.6665 52.6667H25.3332L27.9999 54V55.3333Z" fill="#1E5B00" style="fill:#1E5B00;fill:color(display-p3 0.1176 0.3569 0.0000);fill-opacity:1;"/>
<path d="M24 58H22V59.3333H24V58Z" fill="#FFD400" style="fill:#FFD400;fill:color(display-p3 1.0000 0.8314 0.0000);fill-opacity:1;"/>
<path d="M25.3333 56.6667L24 58H25.3333H26.6667V56.6667H28V56H25.3333V56.6667Z" fill="#FFD400" style="fill:#FFD400;fill:color(display-p3 1.0000 0.8314 0.0000);fill-opacity:1;"/>
<path d="M18.6667 55.3333L20 54H18.6667H17.3333V55.3333H16V56H18.6667V55.3333Z" fill="#FFD400" style="fill:#FFD400;fill:color(display-p3 1.0000 0.8314 0.0000);fill-opacity:1;"/>
<path d="M22 52.6667H20V54H22V52.6667Z" fill="#FFD400" style="fill:#FFD400;fill:color(display-p3 1.0000 0.8314 0.0000);fill-opacity:1;"/>
<path d="M20 58L18.6667 56.6667V56H16V56.6667H17.3333V58H16L18.6667 59.3333V58H20Z" fill="white" style="fill:white;fill-opacity:1;"/>
<path d="M22 58H20V59.3333H22V58Z" fill="white" style="fill:white;fill-opacity:1;"/>
<path d="M18.6667 54V52.6667L16 54H17.3333H18.6667Z" fill="white" style="fill:white;fill-opacity:1;"/>
<path d="M25.3333 58V59.3333L28 58H26.6667H25.3333Z" fill="white" style="fill:white;fill-opacity:1;"/>
<path d="M25.3333 54H24L25.3333 55.3333V56H28V55.3333H26.6667V54H28L25.3333 52.6667V54Z" fill="white" style="fill:white;fill-opacity:1;"/>
<path d="M24 52.6667H22V54H24V52.6667Z" fill="white" style="fill:white;fill-opacity:1;"/>
<path d="M14.6666 25.3333H13.3333V26.6666H14.6666V25.3333Z" fill="#F0263C" style="fill:#F0263C;fill:color(display-p3 0.9412 0.1490 0.2353);fill-opacity:1;"/>
<path d="M30.6666 1.33331H29.3333V2.66661H30.6666V1.33331Z" fill="#F0263C" style="fill:#F0263C;fill:color(display-p3 0.9412 0.1490 0.2353);fill-opacity:1;"/>
<path d="M14.6666 49.3333H13.3333V50.6666H14.6666V49.3333Z" fill="#F0263C" style="fill:#F0263C;fill:color(display-p3 0.9412 0.1490 0.2353);fill-opacity:1;"/>
<path d="M30.6666 13.3333H29.3333V14.6666H30.6666V13.3333Z" fill="#F0263C" style="fill:#F0263C;fill:color(display-p3 0.9412 0.1490 0.2353);fill-opacity:1;"/>
<path d="M30.6666 49.3333H29.3333V50.6666H30.6666V49.3333Z" fill="#F0263C" style="fill:#F0263C;fill:color(display-p3 0.9412 0.1490 0.2353);fill-opacity:1;"/>
<path d="M30.6666 61.3333H29.3333V62.6666H30.6666V61.3333Z" fill="#F0263C" style="fill:#F0263C;fill:color(display-p3 0.9412 0.1490 0.2353);fill-opacity:1;"/>
<path d="M30.6666 37.3333H29.3333V38.6666H30.6666V37.3333Z" fill="#F0263C" style="fill:#F0263C;fill:color(display-p3 0.9412 0.1490 0.2353);fill-opacity:1;"/>
<path d="M30.6666 25.3333H29.3333V26.6666H30.6666V25.3333Z" fill="#F0263C" style="fill:#F0263C;fill:color(display-p3 0.9412 0.1490 0.2353);fill-opacity:1;"/>
<path d="M14.6666 37.3333H13.3333V38.6666H14.6666V37.3333Z" fill="#F0263C" style="fill:#F0263C;fill:color(display-p3 0.9412 0.1490 0.2353);fill-opacity:1;"/>
<path d="M29.3333 62.6667H28V61.3334H29.3333V60.0001H30.6666V52.0001H29.3333V50.6668H28V49.3335H29.3333V48.0002H30.6666V40.0002H29.3333V38.6669H28V37.3336H29.3333V36.0003H30.6666V28.0003H29.3333V26.667H28V25.3337H29.3333V24.0004H30.6666V16.0004H29.3333V14.6671H28V13.3338H29.3333V12.0005H30.6666V4H29.3333V2.6667H28V1.3334H29.3333V0.119202C23.3903 0.610002 17.9104 2.7223 13.3333 6.0163V12H14.6666V13.3333H15.9999V14.6666H14.6666V15.9999H13.3333V23.9999H14.6666V25.3332H15.9999V26.6665H14.6666V27.9998H13.3333V35.9998H14.6666V37.3331H15.9999V38.6664H14.6666V39.9997H13.3333V47.9997H14.6666V49.333H15.9999V50.6663H14.6666V51.9996H13.3333V57.9833C17.9104 61.2773 23.3903 63.3896 29.3333 63.8804V62.6667ZM14.6667 10V6H16L17.3333 4.6667H18.6666L19.9999 3.3334H23.9999L25.3332 4.6667H26.6665L27.9998 6H29.3331V10H27.9998L26.6665 11.3333H25.3332L23.9999 12.6666H19.9999L18.6666 11.3333H17.3333L16 10H14.6667ZM14.6667 18H17.3334V16.6667H20.0001V15.3334H24.0001V16.6667H26.6668V18H29.3335V19.3333H26.0002L25.3335 18.8888L24.0002 17.9999H22.6669V16.6666H21.3336V17.9999H20.0003L18.667 18.8888L18.0003 19.3333H14.667L14.6667 18ZM23.6667 20.6667L24 21.3334L22.6667 20.8889L22 20.6667L21.3333 20.8889L20 21.3334L20.3333 20.6667L20.6666 20L20.3333 19.3333L20 18.6666L21.3333 19.1111L22 19.3333L22.6667 19.1111L24 18.6666L23.6667 19.3333L23.3334 20L23.6667 20.6667ZM14.6667 22V20.6667H18L18.6667 21.1112L20 22.0001H21.3333V23.3334H22.6666V22.0001H23.9999L25.3332 21.1112L25.9999 20.6667H29.3332V22H26.6665V23.3333H23.9998V24.6666H19.9998V23.3333H17.3331V22H14.6667ZM14.6667 34V30L16 28.6667H17.3333V27.3334H26.6666V28.6667H27.9999L29.3332 30V34L27.9999 35.3333H26.6666V36.6666H17.3333V35.3333H16L14.6667 34ZM14.6667 46V42H16V40.6667H18.6667L20 39.3334H24L25.3333 40.6667H28V42H29.3333V46H28V47.3333H25.3333L24 48.6666H20L18.6667 47.3333H16V46H14.6667ZM18.6667 60.6667L14.6667 58V54L18.6667 51.3333H25.3334L29.3334 54V58L25.3334 60.6667H18.6667Z" fill="#F0263C" style="fill:#F0263C;fill:color(display-p3 0.9412 0.1490 0.2353);fill-opacity:1;"/>
<path d="M14.6666 13.3333H13.3333V14.6666H14.6666V13.3333Z" fill="#F0263C" style="fill:#F0263C;fill:color(display-p3 0.9412 0.1490 0.2353);fill-opacity:1;"/>
<path d="M23.3333 42.0012H20.6666V43.3345H23.3333V42.0012Z" fill="#F0263C" style="fill:#F0263C;fill:color(display-p3 0.9412 0.1490 0.2353);fill-opacity:1;"/>
<path d="M23.3333 44.6667H20.6666V46H23.3333V44.6667Z" fill="#F0263C" style="fill:#F0263C;fill:color(display-p3 0.9412 0.1490 0.2353);fill-opacity:1;"/>
<path d="M18.6667 42.6667L17.3333 43.3333H20L18.6667 42.6667Z" fill="#F0263C" style="fill:#F0263C;fill:color(display-p3 0.9412 0.1490 0.2353);fill-opacity:1;"/>
<path d="M20 44.6667H17.3333L18.6667 45.3333L20 44.6667Z" fill="#F0263C" style="fill:#F0263C;fill:color(display-p3 0.9412 0.1490 0.2353);fill-opacity:1;"/>
<path d="M25.3333 42.6667L24 43.3333H26.6667L25.3333 42.6667Z" fill="#F0263C" style="fill:#F0263C;fill:color(display-p3 0.9412 0.1490 0.2353);fill-opacity:1;"/>
<path d="M26.6667 44.6667H24L25.3333 45.3333L26.6667 44.6667Z" fill="#F0263C" style="fill:#F0263C;fill:color(display-p3 0.9412 0.1490 0.2353);fill-opacity:1;"/>
<path d="M22 10.6667V9.412L21.7018 9.2629L20.3685 8.5963L19.1759 8H17.3333L18.6667 8.6667V10H20L22 11.3333V11V10.6667Z" fill="#F0263C" style="fill:#F0263C;fill:color(display-p3 0.9412 0.1490 0.2353);fill-opacity:1;"/>
<path d="M22 6.58799L22.2982 6.73709L23.6315 7.40369L24.8241 7.99999H26.6667L25.3333 7.33329V5.99999H24L22 4.66669V5.33329V6.58799Z" fill="#F0263C" style="fill:#F0263C;fill:color(display-p3 0.9412 0.1490 0.2353);fill-opacity:1;"/>
<path d="M23.3332 8.00001L21.9999 7.33331L20.6666 8.00001L21.9999 8.66671L23.3332 8.00001Z" fill="#F0263C" style="fill:#F0263C;fill:color(display-p3 0.9412 0.1490 0.2353);fill-opacity:1;"/>
<path d="M21.9999 30.6666L20.6666 31.9999L21.9999 33.3333L23.3333 31.9999L21.9999 30.6666Z" fill="#F0263C" style="fill:#F0263C;fill:color(display-p3 0.9412 0.1490 0.2353);fill-opacity:1;"/>
<path d="M18.6666 31.3333H17.3333V32.6666H18.6666V31.3333Z" fill="#F0263C" style="fill:#F0263C;fill:color(display-p3 0.9412 0.1490 0.2353);fill-opacity:1;"/>
<path d="M26.6666 31.3333H25.3333V32.6666H26.6666V31.3333Z" fill="#F0263C" style="fill:#F0263C;fill:color(display-p3 0.9412 0.1490 0.2353);fill-opacity:1;"/>
<path d="M19.9999 54L18.6666 55.3333V56.6666L19.9999 57.9999H23.9999L25.3332 56.6666V55.3333L23.9999 54H19.9999ZM23.6314 55.4037L24.8239 56L23.6314 56.5963L22.2981 57.263L21.9999 57.4121L21.7017 57.263L20.3684 56.5963L19.1759 56L20.3684 55.4037L21.7017 54.737L21.9999 54.5879L22.2981 54.737L23.6314 55.4037Z" fill="#F0263C" style="fill:#F0263C;fill:color(display-p3 0.9412 0.1490 0.2353);fill-opacity:1;"/>
<path d="M17.3333 54H16V55.3333H17.3333V54Z" fill="#F0263C" style="fill:#F0263C;fill:color(display-p3 0.9412 0.1490 0.2353);fill-opacity:1;"/>
<path d="M19.9999 52.6667H18.6666V54H19.9999V52.6667Z" fill="#F0263C" style="fill:#F0263C;fill:color(display-p3 0.9412 0.1490 0.2353);fill-opacity:1;"/>
<path d="M17.3333 56.6667H16V58H17.3333V56.6667Z" fill="#F0263C" style="fill:#F0263C;fill:color(display-p3 0.9412 0.1490 0.2353);fill-opacity:1;"/>
<path d="M19.9999 58H18.6666V59.3333H19.9999V58Z" fill="#F0263C" style="fill:#F0263C;fill:color(display-p3 0.9412 0.1490 0.2353);fill-opacity:1;"/>
<path d="M27.9999 56.6667H26.6666V58H27.9999V56.6667Z" fill="#F0263C" style="fill:#F0263C;fill:color(display-p3 0.9412 0.1490 0.2353);fill-opacity:1;"/>
<path d="M25.3333 58H24V59.3333H25.3333V58Z" fill="#F0263C" style="fill:#F0263C;fill:color(display-p3 0.9412 0.1490 0.2353);fill-opacity:1;"/>
<path d="M27.9999 54H26.6666V55.3333H27.9999V54Z" fill="#F0263C" style="fill:#F0263C;fill:color(display-p3 0.9412 0.1490 0.2353);fill-opacity:1;"/>
<path d="M25.3333 52.6667H24V54H25.3333V52.6667Z" fill="#F0263C" style="fill:#F0263C;fill:color(display-p3 0.9412 0.1490 0.2353);fill-opacity:1;"/>
<path d="M20.6666 56L21.9999 56.6667L23.3332 56L21.9999 55.3333L20.6666 56Z" fill="#F0263C" style="fill:#F0263C;fill:color(display-p3 0.9412 0.1490 0.2353);fill-opacity:1;"/>
<path d="M21.7017 54.7371L20.3684 55.4038L19.1759 56.0001L20.3684 56.5964L21.7017 57.2631L21.9999 57.4122L22.2981 57.2631L23.6314 56.5964L24.8239 56.0001L23.6314 55.4038L22.2981 54.7371L21.9999 54.588L21.7017 54.7371ZM23.3332 56L21.9999 56.6667L20.6666 56L21.9999 55.3333L23.3332 56Z" fill="white" style="fill:white;fill-opacity:1;"/>
</g>
<defs>
<clipPath id="clip0_6_2804">
<rect width="64" height="64" fill="white" style="fill:white;fill-opacity:1;"/>
</clipPath>
</defs>
</svg>
