<svg width="64" height="64" viewBox="0 0 64 64" fill="none" xmlns="http://www.w3.org/2000/svg">
<g clip-path="url(#clip0_6_2949)">
<path d="M32 64C49.6731 64 64 49.6731 64 32C64 14.3269 49.6731 0 32 0C14.3269 0 0 14.3269 0 32C0 49.6731 14.3269 64 32 64Z" fill="#F0263C" style="fill:#F0263C;fill:color(display-p3 0.9412 0.1490 0.2353);fill-opacity:1;"/>
<path d="M31.9998 49.3333C41.5727 49.3333 49.3331 41.5729 49.3331 32C49.3331 22.4271 41.5727 14.6667 31.9998 14.6667C22.4269 14.6667 14.6665 22.4271 14.6665 32C14.6665 41.5729 22.4269 49.3333 31.9998 49.3333Z" fill="white" style="fill:white;fill-opacity:1;"/>
<path d="M25.0665 32C25.0665 26.2562 29.7227 21.6 35.4665 21.6C38.1795 21.6 40.642 22.6475 42.4936 24.3491C40.1291 21.1118 36.3156 19 31.9999 19C24.8203 19 18.9999 24.8203 18.9999 32C18.9999 39.1797 24.8203 45 31.9999 45C36.3157 45 40.1291 42.8881 42.4936 39.6509C40.642 41.3525 38.1795 42.4 35.4665 42.4C29.7227 42.4 25.0665 37.7437 25.0665 32Z" fill="#F0263C" style="fill:#F0263C;fill:color(display-p3 0.9412 0.1490 0.2353);fill-opacity:1;"/>
<path d="M33.9646 24L37.5597 28.9422L43.3709 27.0503L39.7816 31.9966L43.3766 36.9388L37.5632 35.0537L33.9739 40L33.9703 33.8885L28.1569 32.0033L33.9681 30.1115L33.9646 24Z" fill="#F0263C" style="fill:#F0263C;fill:color(display-p3 0.9412 0.1490 0.2353);fill-opacity:1;"/>
</g>
<defs>
<clipPath id="clip0_6_2949">
<rect width="64" height="64" fill="white" style="fill:white;fill-opacity:1;"/>
</clipPath>
</defs>
</svg>
