<svg width="64" height="64" viewBox="0 0 64 64" fill="none" xmlns="http://www.w3.org/2000/svg">
<g clip-path="url(#clip0_6_2997)">
<path d="M32 0L31.9998 31.9998H0C0 49.6729 14.3269 64 32 64C49.6731 64 64 49.6731 64 32C64 14.3269 49.6731 0 32 0Z" fill="#F0263C" style="fill:#F0263C;fill:color(display-p3 0.9412 0.1490 0.2353);fill-opacity:1;"/>
<path d="M0 31.9998H31.9998V0C14.3268 0 0 14.3268 0 31.9998Z" fill="#191977" style="fill:#191977;fill:color(display-p3 0.0980 0.0980 0.4667);fill-opacity:1;"/>
<path d="M23.2682 24.1705C22.6385 24.6979 21.9151 25.1132 21.1301 25.4014L24.6667 29.059L23.2682 24.1705Z" fill="white" style="fill:white;fill-opacity:1;"/>
<path d="M25.4014 16.2032L29.059 12.6666L24.1705 14.065C24.6979 14.6947 25.1132 15.4182 25.4014 16.2032Z" fill="white" style="fill:white;fill-opacity:1;"/>
<path d="M25.7323 17.4331C25.8023 17.8348 25.8461 18.2454 25.8461 18.6667C25.8461 19.088 25.8023 19.4986 25.7323 19.9003L30.6667 18.6667L25.7323 17.4331Z" fill="white" style="fill:white;fill-opacity:1;"/>
<path d="M24.6667 8.27441L21.1301 11.932C21.9151 12.2202 22.6385 12.6355 23.2682 13.1629L24.6667 8.27441Z" fill="white" style="fill:white;fill-opacity:1;"/>
<path d="M19.9003 11.6011L18.6667 6.66675L17.4331 11.6011C17.8348 11.5311 18.2454 11.4873 18.6667 11.4873C19.088 11.4873 19.4986 11.5311 19.9003 11.6011Z" fill="white" style="fill:white;fill-opacity:1;"/>
<path d="M17.4331 25.7323L18.6667 30.6667L19.9003 25.7323C19.4986 25.8023 19.088 25.8461 18.6667 25.8461C18.2454 25.8461 17.8348 25.8023 17.4331 25.7323Z" fill="white" style="fill:white;fill-opacity:1;"/>
<path d="M11.4873 18.6667C11.4873 18.2454 11.5311 17.8348 11.6011 17.4331L6.66669 18.6667L11.6011 19.9003C11.5311 19.4986 11.4873 19.088 11.4873 18.6667Z" fill="white" style="fill:white;fill-opacity:1;"/>
<path d="M25.4014 21.1301C25.1132 21.9151 24.6979 22.6385 24.1705 23.2682L29.059 24.6666L25.4014 21.1301Z" fill="white" style="fill:white;fill-opacity:1;"/>
<path d="M13.1629 14.0651L8.27441 12.6667L11.932 16.2033C12.2202 15.4183 12.6355 14.6948 13.1629 14.0651Z" fill="white" style="fill:white;fill-opacity:1;"/>
<path d="M16.2032 11.932L12.6666 8.27441L14.065 13.1629C14.6947 12.6355 15.4182 12.2202 16.2032 11.932Z" fill="white" style="fill:white;fill-opacity:1;"/>
<path d="M14.0651 24.1705L12.6667 29.059L16.2033 25.4014C15.4183 25.1132 14.6948 24.6979 14.0651 24.1705Z" fill="white" style="fill:white;fill-opacity:1;"/>
<path d="M8.27441 24.6667L13.1629 23.2683C12.6355 22.6386 12.2202 21.9152 11.932 21.1302L8.27441 24.6667Z" fill="white" style="fill:white;fill-opacity:1;"/>
<path d="M18.6667 24.8207C22.0655 24.8207 24.8207 22.0655 24.8207 18.6667C24.8207 15.2679 22.0655 12.5127 18.6667 12.5127C15.2679 12.5127 12.5127 15.2679 12.5127 18.6667C12.5127 22.0655 15.2679 24.8207 18.6667 24.8207Z" fill="white" style="fill:white;fill-opacity:1;"/>
</g>
<defs>
<clipPath id="clip0_6_2997">
<rect width="64" height="64" fill="white" style="fill:white;fill-opacity:1;"/>
</clipPath>
</defs>
</svg>
