<svg width="64" height="64" viewBox="0 0 64 64" fill="none" xmlns="http://www.w3.org/2000/svg">
<g clip-path="url(#clip0_6_3023)">
<path d="M1.8281 21.3333H62.1719C60.7665 17.3584 58.6007 13.7444 55.8452 10.6666H8.1547C5.3992 13.7444 3.2335 17.3584 1.8281 21.3333Z" fill="#FFD400" style="fill:#FFD400;fill:color(display-p3 1.0000 0.8314 0.0000);fill-opacity:1;"/>
<path d="M8.15466 10.6667H55.8452C49.9859 4.1219 41.4757 0 32 0C22.5243 0 14.0141 4.1219 8.15466 10.6667Z" fill="black" style="fill:black;fill-opacity:1;"/>
<path d="M0 32H64C64 28.2588 63.3518 24.6705 62.1719 21.3333H1.8281C0.6482 24.6705 0 28.2588 0 32Z" fill="#F0263C" style="fill:#F0263C;fill:color(display-p3 0.9412 0.1490 0.2353);fill-opacity:1;"/>
<path d="M8.15473 53.3333H55.8452C58.6007 50.2555 60.7665 46.6415 62.1719 42.6666H1.82812C3.23353 46.6415 5.39922 50.2555 8.15473 53.3333Z" fill="#FFD400" style="fill:#FFD400;fill:color(display-p3 1.0000 0.8314 0.0000);fill-opacity:1;"/>
<path d="M1.8281 42.6667H62.1719C63.3518 39.3296 64 35.7412 64 32H0C0 35.7412 0.6482 39.3295 1.8281 42.6667Z" fill="black" style="fill:black;fill-opacity:1;"/>
<path d="M55.8453 53.3333H8.15466C14.014 59.8781 22.5242 64 32 64C41.4758 64 49.9859 59.8781 55.8453 53.3333Z" fill="#F0263C" style="fill:#F0263C;fill:color(display-p3 0.9412 0.1490 0.2353);fill-opacity:1;"/>
<path d="M32 41.3333C37.1547 41.3333 41.3333 37.1547 41.3333 32C41.3333 26.8454 37.1547 22.6667 32 22.6667C26.8454 22.6667 22.6667 26.8454 22.6667 32C22.6667 37.1547 26.8454 41.3333 32 41.3333Z" fill="white" style="fill:white;fill-opacity:1;"/>
<path d="M28 26.6667L29.3333 25.3333L30.6667 24H32V26.6667L30.6667 29.3333L34.6667 30.6667L37.3333 33.3333V36V37.3333H36L34.6667 36H33.3333V38.6667L34.6667 40H30.6667L32 38.6667V36H29.3333V37.3333H26.6667L28 36L29.3333 34.6667H32L28 32V29.3333L30.6667 26.6667H28Z" fill="black" style="fill:black;fill-opacity:1;"/>
<path d="M30.6667 30.6667L33.3333 33.3333L34.6667 34.6667V36L36 37.3333H37.3333V33.3333L34.6667 30.6667H30.6667Z" fill="#F0263C" style="fill:#F0263C;fill:color(display-p3 0.9412 0.1490 0.2353);fill-opacity:1;"/>
<path d="M34.6667 33.3333H33.3333L30.6667 30.6667H33.3333L36 33.3333H34.6667Z" fill="white" style="fill:white;fill-opacity:1;"/>
</g>
<defs>
<clipPath id="clip0_6_3023">
<rect width="64" height="64" fill="white" style="fill:white;fill-opacity:1;"/>
</clipPath>
</defs>
</svg>
