<svg width="64" height="64" viewBox="0 0 64 64" fill="none" xmlns="http://www.w3.org/2000/svg">
<g clip-path="url(#clip0_6_3145)">
<path d="M62.189 21.3333C57.7943 8.906 45.9455 0 32.0105 0C18.0755 0 6.22673 8.906 1.83203 21.3333H62.189Z" fill="#007ACC" style="fill:#007ACC;fill:color(display-p3 0.0000 0.4784 0.8000);fill-opacity:1;"/>
<path d="M62.189 42.6666H1.83203C6.22673 55.0939 18.0755 63.9999 32.0105 63.9999C45.9455 63.9999 57.7942 55.0939 62.189 42.6666Z" fill="#619B27" style="fill:#619B27;fill:color(display-p3 0.3804 0.6078 0.1529);fill-opacity:1;"/>
<path d="M62.9991 24.0002H1.02195C-0.326652 29.2426 -0.326652 34.7573 1.02195 39.9998H62.9991C64.3477 34.7574 64.3476 29.2427 62.9991 24.0002Z" fill="white" style="fill:white;fill-opacity:1;"/>
<path d="M62.1929 21.3335H1.82817C1.51827 22.2122 1.25287 23.1026 1.02197 24.0002H62.9991C62.7682 23.1026 62.5029 22.2122 62.1929 21.3335Z" fill="#F0263C" style="fill:#F0263C;fill:color(display-p3 0.9412 0.1490 0.2353);fill-opacity:1;"/>
<path d="M62.9992 39.9998H1.02197C1.25287 40.8974 1.51827 41.7878 1.82817 42.6665H62.1929C62.5028 41.7878 62.7682 40.8974 62.9992 39.9998Z" fill="#F0263C" style="fill:#F0263C;fill:color(display-p3 0.9412 0.1490 0.2353);fill-opacity:1;"/>
<path d="M39.3457 16.6666L38.0121 17.9999L39.3454 19.3335L40.679 18.0002L39.3457 16.6666Z" fill="white" style="fill:white;fill-opacity:1;"/>
<path d="M34.678 16.6666L33.3444 17.9999L34.6777 19.3335L36.0113 18.0002L34.678 16.6666Z" fill="white" style="fill:white;fill-opacity:1;"/>
<path d="M30.0102 16.6666L28.6766 17.9999L30.01 19.3335L31.3436 18.0002L30.0102 16.6666Z" fill="white" style="fill:white;fill-opacity:1;"/>
<path d="M25.3425 16.6664L24.0089 17.9998L25.3422 19.3334L26.6758 18L25.3425 16.6664Z" fill="white" style="fill:white;fill-opacity:1;"/>
<path d="M20.6749 16.6664L19.3413 17.9998L20.6746 19.3334L22.0082 18L20.6749 16.6664Z" fill="white" style="fill:white;fill-opacity:1;"/>
<path d="M39.3456 11.9998L38.012 13.3331L39.3453 14.6667L40.6789 13.3334L39.3456 11.9998Z" fill="white" style="fill:white;fill-opacity:1;"/>
<path d="M34.6778 11.9998L33.3442 13.3331L34.6776 14.6667L36.0112 13.3334L34.6778 11.9998Z" fill="white" style="fill:white;fill-opacity:1;"/>
<path d="M30.0102 11.9998L28.6766 13.3331L30.01 14.6667L31.3436 13.3334L30.0102 11.9998Z" fill="white" style="fill:white;fill-opacity:1;"/>
<path d="M25.3425 11.9998L24.0089 13.3331L25.3422 14.6667L26.6758 13.3334L25.3425 11.9998Z" fill="white" style="fill:white;fill-opacity:1;"/>
<path d="M39.3456 7.33319L38.012 8.6665L39.3453 10.0001L40.6789 8.6668L39.3456 7.33319Z" fill="white" style="fill:white;fill-opacity:1;"/>
<path d="M34.6778 7.33319L33.3442 8.6665L34.6776 10.0001L36.0112 8.66679L34.6778 7.33319Z" fill="white" style="fill:white;fill-opacity:1;"/>
<path d="M30.0101 7.33319L28.6765 8.6665L30.0098 10.0001L31.3434 8.6668L30.0101 7.33319Z" fill="white" style="fill:white;fill-opacity:1;"/>
<path d="M12.6729 13.3333C12.6729 10.4785 14.6689 8.09405 17.3406 7.48705C16.9111 7.38945 16.466 7.33325 16.007 7.33325C12.6926 7.33325 10.0057 10.0196 10.0057 13.3333C10.0057 16.647 12.6926 19.3333 16.007 19.3333C16.466 19.3333 16.9112 19.2771 17.3406 19.1795C14.669 18.5725 12.6729 16.1881 12.6729 13.3333Z" fill="white" style="fill:white;fill-opacity:1;"/>
</g>
<defs>
<clipPath id="clip0_6_3145">
<rect width="64" height="64" fill="white" style="fill:white;fill-opacity:1;"/>
</clipPath>
</defs>
</svg>
