<svg width="64" height="64" viewBox="0 0 64 64" fill="none" xmlns="http://www.w3.org/2000/svg">
<g clip-path="url(#clip0_6_3281)">
<path d="M63.9219 29.8732L63.9217 29.8701C63.878 29.2422 63.8195 28.6183 63.7423 28H33.3334L12.2025 6.86914C4.7741 12.7291 0 21.8042 0 32C0 42.1958 4.7741 51.2709 12.2025 57.1309L33.3334 36H63.7423C63.8194 35.3817 63.878 34.7577 63.9217 34.1297C63.9253 34.0742 63.9309 34.0193 63.9343 33.9638C63.9761 33.3143 64.0001 32.66 64.0001 32C64.0001 31.34 63.9761 30.6856 63.9343 30.0362C63.931 29.9817 63.9256 29.9276 63.9219 29.8732Z" fill="black" style="fill:black;fill-opacity:1;"/>
<path d="M10.0551 8.7218C9.36869 9.3691 8.70989 10.0444 8.08289 10.7496L29.3333 32L8.08289 53.2504C8.70989 53.9556 9.36879 54.6309 10.0551 55.2782L31.9999 33.3334H63.9662C63.9843 32.8907 63.9999 32.4473 63.9999 32.0001C63.9999 31.5529 63.9844 31.1095 63.9662 30.6668H31.9999L10.0551 8.7218Z" fill="#FFD400" style="fill:#FFD400;fill:color(display-p3 1.0000 0.8314 0.0000);fill-opacity:1;"/>
<path d="M12.2037 57.1296C17.6512 61.4274 24.5227 64 32 64C48.3174 64 61.7725 51.7837 63.7423 36H33.3334L12.2037 57.1296Z" fill="#619B27" style="fill:#619B27;fill:color(display-p3 0.3804 0.6078 0.1529);fill-opacity:1;"/>
<path d="M33.3333 28H63.7422C61.7725 12.2163 48.3174 0 32 0C24.5227 0 17.6512 2.5726 12.2037 6.8704L33.3333 28Z" fill="#F0263C" style="fill:#F0263C;fill:color(display-p3 0.9412 0.1490 0.2353);fill-opacity:1;"/>
<path d="M17.3333 32C17.3333 28.324 14.3427 25.3333 10.6666 25.3333C6.99051 25.3333 3.99991 28.3239 3.99991 32C3.99991 35.6761 6.99051 38.6666 10.6666 38.6666V41.3333C14.3478 41.3333 17.3321 37.1561 17.3332 32.0028C17.3332 32.0019 17.3333 32.0009 17.3333 32ZM5.33331 32C5.33331 29.0544 7.72121 26.6667 10.6666 26.6667C13.612 26.6667 15.9999 29.0545 15.9999 32C15.9999 34.9455 13.612 37.3333 10.6666 37.3333C7.72121 37.3333 5.33331 34.9455 5.33331 32Z" fill="#FFD400" style="fill:#FFD400;fill:color(display-p3 1.0000 0.8314 0.0000);fill-opacity:1;"/>
<path d="M13.0237 28.7002L10.6667 31.0572L8.30959 28.7002L7.36679 29.643L9.72389 32L7.36679 34.357L8.30959 35.2998L10.6667 32.9428L13.0237 35.2998L13.9665 34.357L11.6095 32L13.9665 29.643L13.0237 28.7002Z" fill="#FFD400" style="fill:#FFD400;fill:color(display-p3 1.0000 0.8314 0.0000);fill-opacity:1;"/>
</g>
<defs>
<clipPath id="clip0_6_3281">
<rect width="64" height="64" fill="white" style="fill:white;fill-opacity:1;"/>
</clipPath>
</defs>
</svg>
