<svg width="512" height="512" viewBox="0 0 512 512" fill="none" xmlns="http://www.w3.org/2000/svg">
<path d="M258.378 32C293.869 32 327.637 40.1313 357.938 54.6768C362.691 56.8207 367.474 59.3867 372.21 61.955L351.433 80.3593L320.285 48.2649L266.614 95.3313L235.008 61.5218L136.314 149.247L199.501 218.142L174.834 239.532L237.174 308.426L212.504 329.808L301.678 427.802L354.457 379.873L400.361 431.236C391.263 438.084 381.308 444.944 370.499 450.925C337.596 469.322 299.499 480 258.815 480C133.708 480 32.0014 379.462 32.0014 255.808C31.5596 132.989 133.284 32 258.378 32ZM216.817 242.105L270.926 194.176L319.417 247.663L265.296 295.587L216.817 242.105ZM255.352 334.536L309.021 286.183L357.938 339.665L303.827 387.596L255.352 334.536ZM178.315 150.965L232.409 103.036L280.888 156.523L226.777 204.449L178.315 150.965ZM277.42 125.282L317.679 89.3394L354.048 129.137L313.789 165.503L277.42 125.282ZM349.283 290.026L389.528 254.082L425.895 294.294L385.634 330.261L349.283 290.026ZM384.772 370.909L425.033 334.958L461.371 374.753L421.125 411.115L384.772 370.909ZM401.223 186.045L428.057 162.08L452.289 188.62L425.46 212.576L401.223 186.045ZM366.594 106.882L393.43 82.4964L417.68 109.45L390.824 133.413L366.594 106.882ZM435.415 265.215L462.249 241.251L486.92 267.783L459.66 291.739L435.415 265.215ZM314.651 205.733L354.912 169.789L391.264 209.577L351.02 245.528L314.651 205.733Z" fill="#006AB3"/>
</svg>
