<svg width="64" height="64" viewBox="0 0 64 64" fill="none" xmlns="http://www.w3.org/2000/svg">
<g clip-path="url(#clip0_6_3308)">
<clipPath id="mask0_6_3308" style="mask-type:luminance" maskUnits="userSpaceOnUse" x="0" y="0" width="64" height="64"><path d="M64 0H0V64H64V0Z" fill="white" style="fill:white;fill-opacity:1;"></path></clipPath>
<g clip-path="url(#mask0_6_3308)">
<path d="M32 64C49.6731 64 64 49.6731 64 32C64 14.3269 49.6731 0 32 0C14.3269 0 0 14.3269 0 32C0 49.6731 14.3269 64 32 64Z" fill="#191977" style="fill:#191977;fill:color(display-p3 0.0980 0.0980 0.4667);fill-opacity:1;"></path>
<path d="M32.4666 43.5403L29.4232 46.5838L32.771 49.9316L34.8 47.9026L38.1478 51.2504L42.9159 46.5838L40.5826 44.149L36.829 47.9026L32.4666 43.5403Z" fill="#4DAFE3" style="fill:#4DAFE3;fill:color(display-p3 0.3020 0.6863 0.8902);fill-opacity:1;"></path>
<path d="M21.9159 19.4969L23.9449 17.4679L22.6261 16.1491L23.6406 15.1346L22.6261 14.1201L15.829 20.8158L16.8435 21.8303L20.5971 18.1781L21.9159 19.4969Z" fill="#4DAFE3" style="fill:#4DAFE3;fill:color(display-p3 0.3020 0.6863 0.8902);fill-opacity:1;"></path>
<path d="M27.3942 31.6709L30.742 28.3231L31.7565 29.3376L33.0754 27.9173L32.0609 26.9028L32.771 26.2941L30.742 24.2651L28.713 26.2941L27.3942 24.8738L24.9594 27.3086L26.6841 28.9318L24.9594 30.6564L27.6985 33.3956L28.4087 32.6854L27.3942 31.6709Z" fill="#4DAFE3" style="fill:#4DAFE3;fill:color(display-p3 0.3020 0.6863 0.8902);fill-opacity:1;"></path>
<path d="M30.742 24.2652L32.771 26.2942L36.1188 22.8449L35.5102 22.2362L37.1333 20.5116L36.1188 19.4971L37.8435 17.7725L34.8 14.729L32.771 16.758L35.5102 19.4971L30.742 24.2652Z" fill="#4DAFE3" style="fill:#4DAFE3;fill:color(display-p3 0.3020 0.6863 0.8902);fill-opacity:1;"></path>
<path d="M25.9739 19.4971L23.9449 17.4681L21.916 19.4971L27.3942 24.8739L28.7131 26.2942L30.742 24.2652L35.5102 19.4971L32.771 16.7579L28.7131 12.7L27.3942 14.1202L29.4232 16.1492L25.9739 19.4971Z" fill="#619B27" style="fill:#619B27;fill:color(display-p3 0.3804 0.6078 0.1529);fill-opacity:1;"></path>
<path d="M23.3362 25.584L24.9594 27.3087L27.3942 24.8739L21.9159 19.4971L20.5971 18.1782L16.8435 21.8304L13.8 24.8739L20.5971 31.671L21.6116 30.6565L19.8869 28.9318L23.3362 25.584Z" fill="#FFD400" style="fill:#FFD400;fill:color(display-p3 1.0000 0.8314 0.0000);fill-opacity:1;"></path>
<path d="M34.0898 33.7001L36.5246 31.3668L33.0754 27.9175L31.7565 29.3378L34.0898 31.6711L30.742 35.0189L28.4087 32.6856L27.6985 33.3957L26.6841 34.4102L31.7565 39.4827L35.8145 35.4247L34.0898 33.7001Z" fill="#619B27" style="fill:#619B27;fill:color(display-p3 0.3804 0.6078 0.1529);fill-opacity:1;"></path>
<path d="M45.6551 32.381L42.9159 29.6418L38.858 33.6998L36.5246 31.3665L34.0898 33.6998L35.8145 35.4245L36.829 34.41L38.5536 36.0331L40.1768 34.41L40.8869 33.6998L44.2348 37.0476L47.6841 33.6998L45.9594 31.9752L45.6551 32.381Z" fill="#4DAFE3" style="fill:#4DAFE3;fill:color(display-p3 0.3020 0.6863 0.8902);fill-opacity:1;"></path>
<path d="M36.1188 22.8447L32.771 26.294L32.0609 26.9027L33.0753 27.9172L36.5246 31.3665L38.858 33.6998L42.9159 29.6418L42.2058 28.9317L44.9449 26.294L41.5971 22.8447L38.858 25.5839L36.1188 22.8447Z" fill="#FFD400" style="fill:#FFD400;fill:color(display-p3 1.0000 0.8314 0.0000);fill-opacity:1;"></path>
<path d="M37.5391 37.0478L38.5536 36.0333L36.829 34.4102L35.8145 35.4246L31.7565 39.4826L30.0319 41.1058L32.4666 43.5406L36.829 47.9029L40.5826 44.1493L43.6261 41.1058L41.9014 39.4826L40.8869 40.4971L37.5391 37.0478Z" fill="#FFD400" style="fill:#FFD400;fill:color(display-p3 1.0000 0.8314 0.0000);fill-opacity:1;"></path>
<path d="M23.9449 17.4681L25.9739 19.4971L29.4232 16.1492L27.3942 14.1202L25.9739 12.7L23.6406 15.1347L22.6261 16.1492L23.9449 17.4681Z" fill="#FFD400" style="fill:#FFD400;fill:color(display-p3 1.0000 0.8314 0.0000);fill-opacity:1;"></path>
<path d="M39.5681 22.8448L37.1333 20.5115L35.5101 22.2361L36.1188 22.8448L38.858 25.5839L41.5971 22.8448L42.2058 22.2361L41.5971 21.526L41.1913 21.2216L39.5681 22.8448Z" fill="#619B27" style="fill:#619B27;fill:color(display-p3 0.3804 0.6078 0.1529);fill-opacity:1;"></path>
<path d="M37.1333 20.5115L39.5681 22.8448L41.1913 21.2216L42.9159 19.497L39.5681 16.1492L37.8435 17.7724L36.1188 19.497L37.1333 20.5115Z" fill="#FFD400" style="fill:#FFD400;fill:color(display-p3 1.0000 0.8314 0.0000);fill-opacity:1;"></path>
<path d="M42.2058 28.9318L42.9159 29.642L45.6551 32.3811L45.9594 31.9753L49.0029 28.9318L45.6551 25.584L44.9449 26.2941L42.2058 28.9318Z" fill="#619B27" style="fill:#619B27;fill:color(display-p3 0.3804 0.6078 0.1529);fill-opacity:1;"></path>
<path d="M24.9594 27.3086L23.3362 25.584L19.887 28.9318L21.6116 30.6564L23.3362 32.3811L24.9594 30.6564L26.6841 28.9318L24.9594 27.3086Z" fill="#619B27" style="fill:#619B27;fill:color(display-p3 0.3804 0.6078 0.1529);fill-opacity:1;"></path>
<path d="M40.1768 34.4099L38.5536 36.033L37.5391 37.0475L40.8869 40.4968L41.9014 39.4823L44.2348 37.0475L40.8869 33.6997L40.1768 34.4099Z" fill="#619B27" style="fill:#619B27;fill:color(display-p3 0.3804 0.6078 0.1529);fill-opacity:1;"></path>
<path d="M27.3942 31.6708L28.4087 32.6853L30.742 35.0186L34.0898 31.6708L31.7565 29.3375L30.742 28.323L27.3942 31.6708Z" fill="#FFD400" style="fill:#FFD400;fill:color(display-p3 1.0000 0.8314 0.0000);fill-opacity:1;"></path>
<path d="M32.771 49.9318L31.4521 51.2507L34.8 54.6999L36.1188 53.2796L38.1478 51.2507L34.8 47.9028L32.771 49.9318Z" fill="#619B27" style="fill:#619B27;fill:color(display-p3 0.3804 0.6078 0.1529);fill-opacity:1;"></path>
</g>
</g>
<defs>
<clipPath id="clip0_6_3308">
<rect width="64" height="64" fill="white" style="fill:white;fill-opacity:1;"></rect>
</clipPath>
</defs>
</svg>
