<svg width="64" height="64" viewBox="0 0 64 64" fill="none" xmlns="http://www.w3.org/2000/svg">
<g clip-path="url(#clip0_6_3332)">
<clipPath id="mask0_6_3332" style="mask-type:luminance" maskUnits="userSpaceOnUse" x="0" y="0" width="64" height="64"><path d="M64 0H0V64H64V0Z" fill="white" style="fill:white;fill-opacity:1;"></path></clipPath>
<g clip-path="url(#mask0_6_3332)">
<path d="M32 64C49.6731 64 64 49.6731 64 32C64 14.3269 49.6731 0 32 0C14.3269 0 0 14.3269 0 32C0 49.6731 14.3269 64 32 64Z" fill="#FFD400" style="fill:#FFD400;fill:color(display-p3 1.0000 0.8314 0.0000);fill-opacity:1;"></path>
<path d="M20.6891 14.5L29.2818 18.7964H32.1819L34.9745 21.589L35.7264 25.8854L36.4783 27.3891L45.071 25.2409L52.16 23.0927V24.4891L49.3674 28.7854L45.071 33.0818L41.4191 35.23H39.2709V38.7745L37.8746 44.5746L37.1227 50.2673L36.4783 52.4155H34.3301L33.5782 50.2673V44.5746L32.1819 40.2782L31.43 37.3782L26.3818 38.1301L20.6891 37.3782L13.4927 35.9819L10.7 33.0818L19.2928 31.6855L27.8855 28.7854H30.0337L27.8855 21.589V20.1927L20.6891 14.5Z" fill="#191977" style="fill:#191977;fill:color(display-p3 0.0980 0.0980 0.4667);fill-opacity:1;"></path>
</g>
</g>
<defs>
<clipPath id="clip0_6_3332">
<rect width="64" height="64" fill="white" style="fill:white;fill-opacity:1;"></rect>
</clipPath>
</defs>
</svg>
