<svg width="64" height="64" viewBox="0 0 64 64" fill="none" xmlns="http://www.w3.org/2000/svg">
<g clip-path="url(#clip0_6_3349)">
<clipPath id="mask0_6_3349" style="mask-type:luminance" maskUnits="userSpaceOnUse" x="0" y="0" width="64" height="64"><path d="M64 0H0V64H64V0Z" fill="white" style="fill:white;fill-opacity:1;"></path></clipPath>
<g clip-path="url(#mask0_6_3349)">
<path d="M32 64C49.6731 64 64 49.6731 64 32C64 14.3269 49.6731 0 32 0C14.3269 0 0 14.3269 0 32C0 49.6731 14.3269 64 32 64Z" fill="#1E5B00" style="fill:#1E5B00;fill:color(display-p3 0.1176 0.3569 0.0000);fill-opacity:1;"></path>
<path d="M38.6584 34.1841L40.6128 32.9138V30.2754L38.6584 29.0051L43.8373 21.1878H35.8246L35.3361 17.2791L33.3816 13.3704L30.7434 12.1001H26.8347L22.926 13.3704L16.379 18.5494L12.4703 19.8197L11.2 22.4581L12.4703 23.7284H15.1087L17.747 19.8197V23.7284L19.0173 24.9987H21.6557V22.3604L20.3854 18.4517L24.2941 15.227H29.4731L31.4274 17.1814L30.7434 21.0901H22.926L28.1049 28.9074L26.1507 30.1777V32.8161L28.1049 34.0864L30.3525 39.8517L25.4667 41.2197V43.1741L30.6457 41.806L30.9388 45.1284H26.737V47.0827H31.1342L31.3297 49.0371H28.1049V50.9914H31.3297V54.9001H35.2383V50.9914H38.463V49.0371H35.2383L35.4338 47.0827H39.831V45.1284H35.6292L35.9224 41.9037L41.1013 43.1741V41.2197L36.2155 39.9494L38.463 34.0864L38.6584 34.1841ZM30.8411 33.2069C29.9616 33.2069 29.1799 32.5229 29.1799 31.5458C29.1799 30.5686 29.8639 29.8846 30.8411 29.8846C31.8183 29.8846 32.5023 30.5686 32.5023 31.5458C32.5023 32.5229 31.8183 33.2069 30.8411 33.2069ZM34.4566 31.5458C34.4566 30.6663 35.1406 29.8846 36.1178 29.8846C37.095 29.8846 37.7789 30.5686 37.7789 31.5458C37.7789 32.5229 37.095 33.2069 36.1178 33.2069C35.1406 33.2069 34.4566 32.5229 34.4566 31.5458Z" fill="#FFD400" style="fill:#FFD400;fill:color(display-p3 1.0000 0.8314 0.0000);fill-opacity:1;"></path>
</g>
</g>
<defs>
<clipPath id="clip0_6_3349">
<rect width="64" height="64" fill="white" style="fill:white;fill-opacity:1;"></rect>
</clipPath>
</defs>
</svg>
