<?xml version="1.0" encoding="utf-8"?>
<!-- Generator: Adobe Illustrator 27.8.0, SVG Export Plug-In . SVG Version: 6.00 Build 0)  -->
<svg version="1.1" id="Flags_white_bg" xmlns="http://www.w3.org/2000/svg" xmlns:xlink="http://www.w3.org/1999/xlink" x="0px"
	 y="0px" viewBox="0 0 96 96" style="enable-background:new 0 0 96 96;" xml:space="preserve">
<style type="text/css">
	.st0{fill:none;}
	.st1{fill:#FFFFFF;}
	.st2{fill:#F0263C;}
	.st3{fill:#005B13;}
	.st4{fill:#231D9A;}
	.st5{fill:#FFD400;}
</style>
<g>
	<g>
		<circle class="st0" cx="48" cy="48" r="48"/>
		<g>
			<path class="st1" d="M2.7,64C1,59,0,53.6,0,48s1-11,2.7-16"/>
			<path class="st2" d="M2.7,32C9.3,13.4,27.1,0,48,0"/>
			<path class="st3" d="M48,96C27.1,96,9.3,82.6,2.7,64"/>
			<path class="st2" d="M0,48c0,5.6,1,11,2.7,16h90.5C95,59,96,53.6,96,48s-1-11-2.7-16H2.7C1,37,0,42.4,0,48z"/>
			<path class="st4" d="M2.7,32h90.5C86.7,13.4,68.9,0,48,0S9.3,13.4,2.7,32z"/>
			<path class="st3" d="M93.3,64H2.7C9.3,82.6,27.1,96,48,96S86.7,82.6,93.3,64z"/>
		</g>
	</g>
	<circle cx="37" cy="48" r="24"/>
	<circle class="st5" cx="37" cy="48" r="22"/>
	<path d="M46,70l-6-6h-2v-2.2c1.2-0.4,2-1.5,2-2.8s-0.8-2.4-2-2.8V56h2.7l1.3,4h2l-2-6h-2h-2v-2h4v-2h-4v-0.1c1.2-0.3,2-1,2-1.9
		s-0.8-1.6-2-1.9V46h4v-2h-4v-2h2h2l2-6h-2l-1.3,4H38v-0.2c1.2-0.4,2-1.5,2-2.8s-0.8-2.4-2-2.8v-3.5l2-0.7v-2l-2,0.7V25h-2v4.3
		L34,30v2l2-0.7v2.9c-1.2,0.4-2,1.5-2,2.8s0.8,2.4,2,2.8V40h-2.7L32,36h-2l2,6h2h2v2h-4v2h4v0.1c-1.2,0.3-2,1-2,1.9s0.8,1.6,2,1.9
		V50h-4v2h4v2h-2h-2l-2,6h2l1.3-4H36v0.2c-1.2,0.4-2,1.5-2,2.8s0.8,2.4,2,2.8V64h-2l-6,6h8v2h2v-2H46z"/>
</g>
</svg>
