<svg width="64" height="64" viewBox="0 0 64 64" fill="none" xmlns="http://www.w3.org/2000/svg">
<g clip-path="url(#clip0_6_3366)">
<path d="M62.1719 21.3333C57.7782 8.9061 45.9319 0 32 0C25.0894 0 18.6959 2.1979 13.4651 5.9226L28.8758 21.3333H62.1719Z" fill="#F0263C" style="fill:#F0263C;fill:color(display-p3 0.9412 0.1490 0.2353);fill-opacity:1;"/>
<path d="M1.1813 23.3905C0.4172 26.1309 0 29.0159 0 32C0 34.9841 0.4172 37.8691 1.1813 40.6095L9.7908 32L1.1813 23.3905Z" fill="black" style="fill:black;fill-opacity:1;"/>
<path d="M13.4651 58.0774C18.6959 61.8021 25.0894 64 32 64C45.9319 64 57.7782 55.0939 62.1719 42.6667H28.8758L13.4651 58.0774Z" fill="#191977" style="fill:#191977;fill:color(display-p3 0.0980 0.0980 0.4667);fill-opacity:1;"/>
<path d="M9.37257 9.37256C6.89187 11.8533 4.82067 14.7417 3.25867 17.9253L17.3334 32L3.25867 46.0747C4.82067 49.2583 6.89197 52.1468 9.37257 54.6274L26.6667 37.3333H63.5492C63.8405 35.598 64 33.818 64 32C64 30.182 63.8405 28.402 63.5492 26.6667H26.6667L9.37257 9.37256Z" fill="#1E5B00" style="fill:#1E5B00;fill:color(display-p3 0.1176 0.3569 0.0000);fill-opacity:1;"/>
<path d="M9.37256 9.37261L26.6667 26.6667H63.5492C63.2411 24.8312 62.7784 23.0487 62.172 21.3334H28.8758L13.4651 5.92261C12.0073 6.96061 10.6347 8.11051 9.37256 9.37261Z" fill="white" style="fill:white;fill-opacity:1;"/>
<path d="M26.6667 37.3333L9.37256 54.6273C10.6347 55.8894 12.0073 57.0393 13.4651 58.0774L28.8758 42.6666H62.1719C62.7784 40.9512 63.241 39.1689 63.5491 37.3334L26.6667 37.3333Z" fill="white" style="fill:white;fill-opacity:1;"/>
<path d="M17.3333 32L3.25867 17.9253C2.40577 19.6637 1.71057 21.4922 1.18127 23.3904L9.79077 31.9999L1.18127 40.6095C1.71057 42.5078 2.40567 44.3362 3.25867 46.0746L17.3333 32Z" fill="#FFD400" style="fill:#FFD400;fill:color(display-p3 1.0000 0.8314 0.0000);fill-opacity:1;"/>
</g>
<defs>
<clipPath id="clip0_6_3366">
<rect width="64" height="64" fill="white" style="fill:white;fill-opacity:1;"/>
</clipPath>
</defs>
</svg>
