<svg width="64" height="64" viewBox="0 0 64 64" fill="none" xmlns="http://www.w3.org/2000/svg">
<g clip-path="url(#clip0_6_3381)">
<path d="M63.5492 26.6667H26.6667L17.3334 17.3334L9.38387 9.38391C8.93917 9.82861 8.50787 10.2862 8.08997 10.7566L14.6668 17.3334L24.0001 26.6667L29.3334 32L24.0001 37.3333L14.6668 46.6666L8.08997 53.2434C8.50797 53.7138 8.93927 54.1715 9.38387 54.6161L17.3334 46.6666L26.6667 37.3333H63.5492C63.8405 35.5979 64 33.818 64 32C64 30.182 63.8405 28.402 63.5492 26.6667Z" fill="black" style="fill:black;fill-opacity:1;"/>
<path d="M32.0001 0C23.8878 0 16.4858 3.0247 10.8455 8H53.1547C47.5144 3.0247 40.1124 0 32.0001 0Z" fill="#1E5B00" style="fill:#1E5B00;fill:color(display-p3 0.1176 0.3569 0.0000);fill-opacity:1;"/>
<path d="M32.0001 64C40.1124 64 47.5144 60.9753 53.1547 56H10.8455C16.4858 60.9753 23.8878 64 32.0001 64Z" fill="#1E5B00" style="fill:#1E5B00;fill:color(display-p3 0.1176 0.3569 0.0000);fill-opacity:1;"/>
<path d="M24 37.3333L29.3333 32L24 26.6667L14.6667 17.3334L8.0899 10.7566C6.323 12.7442 4.7944 14.9487 3.5619 17.3334C2.0717 20.2172 1.0069 23.3546 0.4509 26.6667C0.1595 28.402 0 30.182 0 32C0 33.818 0.1595 35.598 0.4508 37.3333C1.0068 40.6451 2.0716 43.7828 3.5618 46.6666C4.7942 49.0514 6.3225 51.2558 8.0895 53.2434L14.6666 46.6666L24 37.3333ZM6.6792 39.5L8.9181 32.37L2.6666 27.9634H10.2343L10.6666 26.6667V25.3334H8.6666L10.6666 24.0001H11.6376L12.6666 20.8334L14.9833 27.9634H22.6666L17.8116 31.3856L18.6666 32.0001L16.6212 33.0228L18.6666 39.5001L14.9486 36.7695L14.6666 37.3335H10.6666L10.3858 36.7721L6.6792 39.5Z" fill="white" style="fill:white;fill-opacity:1;"/>
<path d="M16 34.6667L14.9486 36.7694L18.6667 39.5L16.6213 33.0227L16 33.3333V34.6667Z" fill="#F0263C" style="fill:#F0263C;fill:color(display-p3 0.9412 0.1490 0.2353);fill-opacity:1;"/>
<path d="M9.33335 32V30.6667L10.2344 27.9634L2.66675 27.9633L8.91815 32.37L6.67925 39.5L10.3859 36.7719L9.33335 34.6667V32Z" fill="#F0263C" style="fill:#F0263C;fill:color(display-p3 0.9412 0.1490 0.2353);fill-opacity:1;"/>
<path d="M13.3333 25.3333V28.1667L17.8117 31.3855L22.6667 27.9633L14.9834 27.9634L12.6667 20.8333L11.6377 24H12L13.3333 25.3333Z" fill="#F0263C" style="fill:#F0263C;fill:color(display-p3 0.9412 0.1490 0.2353);fill-opacity:1;"/>
<path d="M60.4382 17.3333C58.6029 13.7825 56.1254 10.6204 53.1547 8H10.8454C10.3418 8.444 9.85809 8.9092 9.38379 9.3838L17.3333 17.3333H60.4382Z" fill="#FFD400" style="fill:#FFD400;fill:color(display-p3 1.0000 0.8314 0.0000);fill-opacity:1;"/>
<path d="M26.6667 26.6667H63.5491C62.9931 23.3545 61.9284 20.2172 60.4382 17.3334H17.3333L26.6667 26.6667Z" fill="#F0263C" style="fill:#F0263C;fill:color(display-p3 0.9412 0.1490 0.2353);fill-opacity:1;"/>
<path d="M17.3333 46.6667H60.438C61.9282 43.7829 62.993 40.6452 63.549 37.3334H26.6667L17.3333 46.6667Z" fill="#F0263C" style="fill:#F0263C;fill:color(display-p3 0.9412 0.1490 0.2353);fill-opacity:1;"/>
<path d="M9.38379 54.6162C9.85809 55.0908 10.3418 55.556 10.8454 56H53.1546C56.1253 53.3796 58.6028 50.2174 60.4381 46.6667H17.3333L9.38379 54.6162Z" fill="#FFD400" style="fill:#FFD400;fill:color(display-p3 1.0000 0.8314 0.0000);fill-opacity:1;"/>
<path d="M14.6667 37.3333L14.9486 36.7694L16 34.6667V33.3333L16.6213 33.0227L18.6667 32L17.8117 31.3855L13.3333 28.1667V25.3333L12 24H11.6377H10.6667L8.66675 25.3333H10.6667V26.6667L10.2344 27.9634L9.33335 30.6667V32V34.6667L10.3859 36.7719L10.6667 37.3333H14.6667Z" fill="#FFD400" style="fill:#FFD400;fill:color(display-p3 1.0000 0.8314 0.0000);fill-opacity:1;"/>
</g>
<defs>
<clipPath id="clip0_6_3381">
<rect width="64" height="64" fill="white" style="fill:white;fill-opacity:1;"/>
</clipPath>
</defs>
</svg>
